<?xml version="1.0" encoding="UTF-8"?>
<!DOCTYPE svg PUBLIC "-//W3C//DTD SVG 1.1//EN" "http://www.w3.org/Graphics/SVG/1.1/DTD/svg11.dtd">
<svg xmlns="http://www.w3.org/2000/svg" version="1.1" width="100px" height="100px" style="shape-rendering:geometricPrecision; text-rendering:geometricPrecision; image-rendering:optimizeQuality; fill-rule:evenodd; clip-rule:evenodd" xmlns:xlink="http://www.w3.org/1999/xlink">
<g><path style="opacity:0.979" fill="#262326" d="M 4.5,2.5 C 34.5019,2.33335 64.5019,2.50002 94.5,3C 95,3.5 95.5,4 96,4.5C 96.6667,34.5 96.6667,64.5 96,94.5C 95.5,95 95,95.5 94.5,96C 64.5,96.6667 34.5,96.6667 4.5,96C 4,95.5 3.5,95 3,94.5C 2.33333,64.5 2.33333,34.5 3,4.5C 3.71719,3.9558 4.21719,3.28913 4.5,2.5 Z"/></g>
<g><path style="opacity:1" fill="#084898" d="M 92.5,6.5 C 92.5,9.16667 92.5,11.8333 92.5,14.5C 63.8333,14.5 35.1667,14.5 6.5,14.5C 6.5,11.8333 6.5,9.16667 6.5,6.5C 35.1667,5.16667 63.8333,5.16667 92.5,6.5 Z"/></g>
<g><path style="opacity:1" fill="#084188" d="M 6.5,6.5 C 6.5,9.16667 6.5,11.8333 6.5,14.5C 35.1667,14.5 63.8333,14.5 92.5,14.5C 92.5,11.8333 92.5,9.16667 92.5,6.5C 93.4767,9.2869 93.81,12.2869 93.5,15.5C 64.1667,15.5 34.8333,15.5 5.5,15.5C 5.19,12.2869 5.52333,9.2869 6.5,6.5 Z"/></g>
<g><path style="opacity:1" fill="#221f20" d="M 32.5,9.5 C 51.5117,9.16708 70.5117,9.50041 89.5,10.5C 80,10.8333 70.5,11.1667 61,11.5C 51.1424,11.4985 41.6424,10.8318 32.5,9.5 Z"/></g>
<g><path style="opacity:1" fill="#221f21" d="M 21.5,9.5 C 22.9778,9.23798 24.3112,9.57131 25.5,10.5C 24.8333,10.8333 24.1667,11.1667 23.5,11.5C 22.2867,11.2528 21.62,10.5862 21.5,9.5 Z"/></g>
<g><path style="opacity:1" fill="#221e20" d="M 15.5,9.5 C 16.9778,9.23798 18.3112,9.57131 19.5,10.5C 18.8333,10.8333 18.1667,11.1667 17.5,11.5C 16.2867,11.2528 15.62,10.5862 15.5,9.5 Z"/></g>
<g><path style="opacity:1" fill="#221f23" d="M 9.5,9.5 C 10.9778,9.23798 12.3112,9.57131 13.5,10.5C 12.8333,10.8333 12.1667,11.1667 11.5,11.5C 10.2867,11.2528 9.61998,10.5862 9.5,9.5 Z"/></g>
<g><path style="opacity:1" fill="#cbe1f1" d="M 92.5,18.5 C 93.4279,28.3594 92.0946,37.8594 88.5,47C 88.1639,48.0299 87.4972,48.5299 86.5,48.5C 84.7041,47.2073 83.0375,45.7073 81.5,44C 85.418,40.335 84.418,38.5016 78.5,38.5C 78.8266,33.7863 78.4933,29.1196 77.5,24.5C 76.914,24.7093 76.414,25.0426 76,25.5C 75.6667,27.8333 75.3333,30.1667 75,32.5C 73.8942,29.2738 72.0609,26.6071 69.5,24.5C 68,26.8333 66.5,29.1667 65,31.5C 64.023,29.26 63.523,26.9267 63.5,24.5C 62.5,24.5 61.5,24.5 60.5,24.5C 60.4273,30.0675 61.4273,35.4008 63.5,40.5C 65.6384,36.9013 67.8051,33.2346 70,29.5C 71.1667,31.8333 72.3333,34.1667 73.5,36.5C 71.9547,37.4519 70.288,37.7852 68.5,37.5C 68.7325,42.8937 69.3992,48.227 70.5,53.5C 70.1667,53.5 69.8333,53.5 69.5,53.5C 44.843,42.2182 26.343,48.5515 14,72.5C 12.6156,79.4112 12.1156,86.4112 12.5,93.5C 10.2075,93.7564 8.04083,93.4231 6,92.5C 5.50003,67.8356 5.33336,43.1689 5.5,18.5C 34.5,18.5 63.5,18.5 92.5,18.5 Z"/></g>
<g><path style="opacity:1" fill="#2f2c2e" d="M 18.5,24.5 C 19.4959,24.4142 20.3292,24.7476 21,25.5C 21.3599,27.6079 22.0266,29.6079 23,31.5C 24,29.5 25,27.5 26,25.5C 26.7175,24.5494 27.5509,24.3828 28.5,25C 29.8742,27.5829 31.3742,30.0829 33,32.5C 33.3333,30.1667 33.6667,27.8333 34,25.5C 34.414,25.0426 34.914,24.7093 35.5,24.5C 36.5923,29.4925 36.5923,34.4925 35.5,39.5C 34.1779,39.67 33.0113,39.3366 32,38.5C 30.7533,35.6714 29.2533,33.0048 27.5,30.5C 25.7467,33.0048 24.2467,35.6714 23,38.5C 21.9887,39.3366 20.8221,39.67 19.5,39.5C 18.9466,34.518 18.6133,29.518 18.5,24.5 Z"/></g>
<g><path style="opacity:1" fill="#2c2829" d="M 86.5,48.5 C 90.7808,52.8568 89.9475,56.1901 84,58.5C 80.7143,56.2178 77.7143,53.5511 75,50.5C 73.871,52.1412 72.371,53.1412 70.5,53.5C 69.3992,48.227 68.7325,42.8937 68.5,37.5C 70.288,37.7852 71.9547,37.4519 73.5,36.5C 72.3333,34.1667 71.1667,31.8333 70,29.5C 67.8051,33.2346 65.6384,36.9013 63.5,40.5C 61.4273,35.4008 60.4273,30.0675 60.5,24.5C 61.5,24.5 62.5,24.5 63.5,24.5C 63.523,26.9267 64.023,29.26 65,31.5C 66.5,29.1667 68,26.8333 69.5,24.5C 72.0609,26.6071 73.8942,29.2738 75,32.5C 75.3333,30.1667 75.6667,27.8333 76,25.5C 76.414,25.0426 76.914,24.7093 77.5,24.5C 78.4933,29.1196 78.8266,33.7863 78.5,38.5C 84.418,38.5016 85.418,40.335 81.5,44C 83.0375,45.7073 84.7041,47.2073 86.5,48.5 Z"/></g>
<g><path style="opacity:1" fill="#2f2d2f" d="M 40.5,24.5 C 41.4959,24.4142 42.3292,24.7476 43,25.5C 43.1705,27.7148 43.8372,29.7148 45,31.5C 46.0152,28.7899 47.5152,26.4566 49.5,24.5C 51.6567,26.8032 53.3233,29.4698 54.5,32.5C 55.2136,29.9728 55.8803,27.4728 56.5,25C 56.8333,24.8333 57.1667,24.6667 57.5,24.5C 58.7874,29.7872 58.4541,34.9539 56.5,40C 55.6683,40.6877 55.0016,40.521 54.5,39.5C 53.0869,36.3388 51.4203,33.3388 49.5,30.5C 47.7467,33.0048 46.2467,35.6714 45,38.5C 43.9887,39.3366 42.8221,39.67 41.5,39.5C 40.8363,34.5275 40.5029,29.5275 40.5,24.5 Z"/></g>
<g><path style="opacity:1" fill="#bad4e9" d="M 92.5,18.5 C 93.6633,42.9966 93.8299,67.6632 93,92.5C 90.9592,93.4231 88.7925,93.7564 86.5,93.5C 88.9745,76.5612 83.3078,63.2278 69.5,53.5C 69.8333,53.5 70.1667,53.5 70.5,53.5C 72.371,53.1412 73.871,52.1412 75,50.5C 77.7143,53.5511 80.7143,56.2178 84,58.5C 89.9475,56.1901 90.7808,52.8568 86.5,48.5C 87.4972,48.5299 88.1639,48.0299 88.5,47C 92.0946,37.8594 93.4279,28.3594 92.5,18.5 Z"/></g>
<g><path style="opacity:1" fill="#d21d23" d="M 71.5,40.5 C 74.2165,40.6785 76.8832,41.1785 79.5,42C 78.4829,43.0495 78.3162,44.2161 79,45.5C 82.2258,47.8689 84.3924,50.8689 85.5,54.5C 81.8689,53.3924 78.8689,51.2258 76.5,48C 75.2161,47.3162 74.0495,47.4829 73,48.5C 71.9207,45.9373 71.4207,43.2706 71.5,40.5 Z"/></g>
<g><path style="opacity:1" fill="#55a0f8" d="M 45.5,51.5 C 47.4417,56.0557 48.1083,61.0557 47.5,66.5C 43.5,66.5 39.5,66.5 35.5,66.5C 37.0972,60.2952 40.4306,55.2952 45.5,51.5 Z"/></g>
<g><path style="opacity:1" fill="#2484f8" d="M 51.5,51.5 C 58.1001,54.3414 62.1001,59.3414 63.5,66.5C 59.5,66.5 55.5,66.5 51.5,66.5C 51.5,61.5 51.5,56.5 51.5,51.5 Z"/></g>
<g><path style="opacity:1" fill="#95c0f4" d="M 37.5,52.5 C 38.2389,52.369 38.9056,52.5357 39.5,53C 35.4387,56.6231 33.1054,61.1231 32.5,66.5C 28.774,66.8226 25.1073,66.4892 21.5,65.5C 25.7647,59.7203 31.098,55.387 37.5,52.5 Z"/></g>
<g><path style="opacity:1" fill="#0368e3" d="M 59.5,53.5 C 66.8002,54.8636 72.8002,58.8636 77.5,65.5C 73.8927,66.4892 70.226,66.8226 66.5,66.5C 65.8491,61.1764 63.5158,56.8431 59.5,53.5 Z"/></g>
<g><path style="opacity:1" fill="#539bf0" d="M 18.5,69.5 C 22.5,69.5 26.5,69.5 30.5,69.5C 29.746,74.4635 29.4126,79.4635 29.5,84.5C 24.8333,84.5 20.1667,84.5 15.5,84.5C 15.1193,79.1979 16.1193,74.1979 18.5,69.5 Z"/></g>
<g><path style="opacity:1" fill="#2484f8" d="M 47.5,69.5 C 47.5,74.1667 47.5,78.8333 47.5,83.5C 42.5,83.5 37.5,83.5 32.5,83.5C 32.5401,78.8075 32.8734,74.1408 33.5,69.5C 38.1667,69.5 42.8333,69.5 47.5,69.5 Z"/></g>
<g><path style="opacity:1" fill="#016ae9" d="M 51.5,69.5 C 55.8461,69.3343 60.1794,69.501 64.5,70C 66.1477,74.3171 66.8144,78.8171 66.5,83.5C 61.5,83.5 56.5,83.5 51.5,83.5C 51.5,78.8333 51.5,74.1667 51.5,69.5 Z"/></g>
<g><path style="opacity:1" fill="#0459c2" d="M 68.5,69.5 C 72.5546,69.1758 76.5546,69.5091 80.5,70.5C 82.9605,74.8441 83.9605,79.5108 83.5,84.5C 78.8333,84.5 74.1667,84.5 69.5,84.5C 69.5874,79.4635 69.254,74.4635 68.5,69.5 Z"/></g>
<g><path style="opacity:1" fill="#234f88" d="M 47.5,69.5 C 48.4872,74.3054 48.8205,79.3054 48.5,84.5C 42.9738,84.8214 37.6405,84.4881 32.5,83.5C 37.5,83.5 42.5,83.5 47.5,83.5C 47.5,78.8333 47.5,74.1667 47.5,69.5 Z"/></g>
<g><path style="opacity:1" fill="#124281" d="M 51.5,69.5 C 51.5,74.1667 51.5,78.8333 51.5,83.5C 56.5,83.5 61.5,83.5 66.5,83.5C 61.3595,84.4881 56.0262,84.8214 50.5,84.5C 50.1795,79.3054 50.5128,74.3054 51.5,69.5 Z"/></g>
<g><path style="opacity:1" fill="#257ce6" d="M 15.5,86.5 C 20.1667,86.5 24.8333,86.5 29.5,86.5C 29.5,88.8333 29.5,91.1667 29.5,93.5C 24.8333,93.5 20.1667,93.5 15.5,93.5C 15.5,91.1667 15.5,88.8333 15.5,86.5 Z"/></g>
<g><path style="opacity:1" fill="#006cef" d="M 32.5,87.5 C 37.5,87.5 42.5,87.5 47.5,87.5C 47.5,89.1667 47.5,90.8333 47.5,92.5C 42.5,92.5 37.5,92.5 32.5,92.5C 32.5,90.8333 32.5,89.1667 32.5,87.5 Z"/></g>
<g><path style="opacity:1" fill="#005dcd" d="M 66.5,87.5 C 66.5,89.1667 66.5,90.8333 66.5,92.5C 61.5,92.5 56.5,92.5 51.5,92.5C 51.5,90.8333 51.5,89.1667 51.5,87.5C 56.5,87.5 61.5,87.5 66.5,87.5 Z"/></g>
<g><path style="opacity:1" fill="#06499c" d="M 69.5,86.5 C 74.1667,86.5 78.8333,86.5 83.5,86.5C 83.5,88.8333 83.5,91.1667 83.5,93.5C 78.8333,93.5 74.1667,93.5 69.5,93.5C 69.5,91.1667 69.5,88.8333 69.5,86.5 Z"/></g>
<g><path style="opacity:1" fill="#0e50a4" d="M 32.5,87.5 C 37.6405,86.5119 42.9738,86.1786 48.5,86.5C 48.5,88.8333 48.5,91.1667 48.5,93.5C 42.9738,93.8214 37.6405,93.4881 32.5,92.5C 37.5,92.5 42.5,92.5 47.5,92.5C 47.5,90.8333 47.5,89.1667 47.5,87.5C 42.5,87.5 37.5,87.5 32.5,87.5 Z"/></g>
<g><path style="opacity:1" fill="#0e468e" d="M 66.5,87.5 C 61.5,87.5 56.5,87.5 51.5,87.5C 51.5,89.1667 51.5,90.8333 51.5,92.5C 56.5,92.5 61.5,92.5 66.5,92.5C 61.3595,93.4881 56.0262,93.8214 50.5,93.5C 50.5,91.1667 50.5,88.8333 50.5,86.5C 56.0262,86.1786 61.3595,86.5119 66.5,87.5 Z"/></g>
</svg>
