<?xml version="1.0" encoding="UTF-8" standalone="no"?> <svg xmlns="http://www.w3.org/2000/svg" viewBox="0 0 64 64"><g id="www-browser-internet-online-website"><path d="M59,3H5A2,2,0,0,0,3,5v6H61V5A2,2,0,0,0,59,3Z" style="fill:#004fac"/><path d="M61,11V59a2.006,2.006,0,0,1-2,2H5a2.006,2.006,0,0,1-2-2V11Z" style="fill:#d1e7f8"/><path d="M11,61H59a2.006,2.006,0,0,0,2-2V11A50.147,50.147,0,0,1,11,61Z" style="fill:#c2dff6"/><path d="M21.46,44c1.97-6.92,5.74-11.69,10.1-11.99.15-.01.29-.01.44-.01V44Z" style="fill:#57a4ff"/><path d="M42.54,44A40.5,40.5,0,0,1,44,55H32V44Z" style="fill:#006df0"/><path d="M32,44V55H20a40.5,40.5,0,0,1,1.46-11Z" style="fill:#2488ff"/><path d="M32,55v6H20.42A41.453,41.453,0,0,1,20,55Z" style="fill:#006df0"/><path d="M20,55H9a22.923,22.923,0,0,1,2.8-11h9.66A40.5,40.5,0,0,0,20,55Z" style="fill:#57a4ff"/><path d="M42.54,44H32V32c.15,0,.29,0,.44.01C36.8,32.31,40.57,37.08,42.54,44Z" style="fill:#2488ff"/><path d="M42.54,44H52.2A22.923,22.923,0,0,1,55,55H44A40.5,40.5,0,0,0,42.54,44Z" style="fill:#005ece"/><path d="M21.46,44H11.8A22.98,22.98,0,0,1,31.54,32.01h.02C27.2,32.31,23.43,37.08,21.46,44Z" style="fill:#9bc9ff"/><path d="M32.44,32.01h.02A22.98,22.98,0,0,1,52.2,44H42.54C40.57,37.08,36.8,32.31,32.44,32.01Z" style="fill:#006df0"/><path d="M55,55a22.8,22.8,0,0,1-.8,6H43.58A41.453,41.453,0,0,0,44,55Z" style="fill:#004fac"/><path d="M20,55a41.453,41.453,0,0,0,.42,6H9.8A22.8,22.8,0,0,1,9,55Z" style="fill:#2488ff"/><path d="M44,55a41.453,41.453,0,0,1-.42,6H32V55Z" style="fill:#005ece"/><polygon points="44.808 24.979 46.222 33.464 48.343 31.343 54 37 56.828 34.172 51.172 28.515 53.293 26.393 44.808 24.979" style="fill:#ed1c24"/><path d="M59,2H5A3.009,3.009,0,0,0,2,5V59a3.009,3.009,0,0,0,3,3H59a3.009,3.009,0,0,0,3-3V5A3.009,3.009,0,0,0,59,2ZM10.59,60a21.53,21.53,0,0,1-.56-4h9c.03,1.37.13,2.71.28,4Zm8.44-6h-9a22.219,22.219,0,0,1,2.38-9h7.78A41.42,41.42,0,0,0,19.03,54ZM13.57,43a22.084,22.084,0,0,1,12.11-9.06A22.218,22.218,0,0,0,20.72,43ZM31,60H21.32c-.16-1.29-.25-2.63-.29-4H31Zm0-6H21.03a40.053,40.053,0,0,1,1.22-9H31Zm0-11H22.81c1.86-5.61,4.9-9.29,8.19-9.91ZM42.68,60H33V56h9.97C42.93,57.37,42.84,58.71,42.68,60ZM33,54V45h8.75a40.053,40.053,0,0,1,1.22,9Zm0-11V33.09c3.29.62,6.33,4.31,8.19,9.91Zm5.31-9.07A22.065,22.065,0,0,1,50.43,43H43.28A22.088,22.088,0,0,0,38.31,33.93ZM53.41,60H44.69c.15-1.29.25-2.63.28-4h9A21.53,21.53,0,0,1,53.41,60Zm-8.44-6a41.42,41.42,0,0,0-1.16-9h7.78a22.219,22.219,0,0,1,2.38,9ZM60,59a1,1,0,0,1-1,1H55.46A23.967,23.967,0,0,0,32.5,31.01a8,8,0,0,0-.98,0A23.938,23.938,0,0,0,8.54,60H5a1,1,0,0,1-1-1V12H60Zm0-49H4V5A1,1,0,0,1,5,4H59a1,1,0,0,1,1,1Z" style="fill:#231f20"/><path d="M8,6H7A1,1,0,0,0,7,8H8A1,1,0,0,0,8,6Z" style="fill:#231f20"/><path d="M12,6H11a1,1,0,0,0,0,2h1a1,1,0,0,0,0-2Z" style="fill:#231f20"/><path d="M16,6H15a1,1,0,0,0,0,2h1a1,1,0,0,0,0-2Z" style="fill:#231f20"/><path d="M57,6H22a1,1,0,0,0,0,2H57a1,1,0,0,0,0-2Z" style="fill:#231f20"/><path d="M27.831,25.986a1,1,0,0,0,1.064-.539L32,19.236l3.1,6.211A1,1,0,0,0,36,26a1.08,1.08,0,0,0,.169-.014,1,1,0,0,0,.823-.862l1-8a1,1,0,0,0-1.984-.248L35.417,21.6,32.9,16.553a1.042,1.042,0,0,0-1.79,0L28.583,21.6l-.591-4.723a1,1,0,1,0-1.984.248l1,8A1,1,0,0,0,27.831,25.986Z" style="fill:#231f20"/><path d="M57.54,33.46l-4.95-4.95L54,27.1a1.014,1.014,0,0,0,.25-1.01,1,1,0,0,0-.79-.68l-3.43-.57.96-7.72a1,1,0,0,0-1.98-.24l-.59,4.72-2.53-5.05a1.039,1.039,0,0,0-1.78,0L41.58,21.6l-.59-4.72a1,1,0,1,0-1.98.24l1,8a.994.994,0,0,0,1.88.33L45,19.24l2.6,5.19-2.63-.44a1,1,0,0,0-1.15,1.15l1.42,8.49a.994.994,0,0,0,1.69.54l1.41-1.41,4.95,4.95a1.014,1.014,0,0,0,1.42,0l2.83-2.83A1.008,1.008,0,0,0,57.54,33.46ZM54,35.59l-4.95-4.95a.992.992,0,0,0-.71-.3.97.97,0,0,0-.7.3l-.75.74-.87-5.18,5.19.86-.75.75a1,1,0,0,0,0,1.41l4.95,4.95Z" style="fill:#231f20"/><path d="M13.831,25.986a1,1,0,0,0,1.064-.539L18,19.236l3.105,6.211A1,1,0,0,0,22,26a1.08,1.08,0,0,0,.169-.014,1,1,0,0,0,.823-.862l1-8a1,1,0,0,0-1.984-.248L21.417,21.6,18.9,16.553a1.042,1.042,0,0,0-1.79,0L14.583,21.6l-.591-4.723a1,1,0,1,0-1.984.248l1,8A1,1,0,0,0,13.831,25.986Z" style="fill:#231f20"/></g></svg>