<?xml version="1.0" encoding="UTF-8" standalone="no"?> <svg width="64" height="64" viewBox="0 0 64 64" fill="none" xmlns="http://www.w3.org/2000/svg">
<path d="M57 2C55.9391 2 54.9217 2.42143 54.1716 3.17157C53.4214 3.92172 53 4.93913 53 6V56C53 57.0609 52.5786 58.0783 51.8284 58.8284C51.0783 59.5786 50.0609 60 49 60C47.9391 60 46.9217 59.5786 46.1716 58.8284C45.4214 58.0783 45 57.0609 45 56V54H15V6C15 4.93913 15.4214 3.92172 16.1716 3.17157C16.9217 2.42143 17.9391 2 19 2H57Z" fill="#FFDAAA"/>
<path d="M35.4819 54H44.9999V56C44.9999 57.0609 45.4214 58.0783 46.1715 58.8284C46.9217 59.5786 47.9391 60 48.9999 60C50.0608 60 51.0782 59.5786 51.8284 58.8284C52.5785 58.0783 52.9999 57.0609 52.9999 56V22C53.0021 28.3759 51.3984 34.6496 48.3368 40.2422C45.2752 45.8349 40.8542 50.5664 35.4819 54V54Z" fill="#FFC477"/>
<path d="M51 32C55.4183 32 59 28.4183 59 24C59 19.5817 55.4183 16 51 16C46.5817 16 43 19.5817 43 24C43 28.4183 46.5817 32 51 32Z" fill="#FF5023"/>
<path d="M57 2C55.9391 2 54.9217 2.42143 54.1716 3.17157C53.4214 3.92172 53 4.93913 53 6V12H61V6C61 4.93913 60.5786 3.92172 59.8284 3.17157C59.0783 2.42143 58.0609 2 57 2Z" fill="#FFB655"/>
<path d="M45 56V54H11V56C11 57.0609 11.4214 58.0783 12.1716 58.8284C12.9217 59.5786 13.9391 60 15 60H49C47.9391 60 46.9217 59.5786 46.1716 58.8284C45.4214 58.0783 45 57.0609 45 56Z" fill="#FFB655"/>
<path d="M29 14H5C3.89543 14 3 14.8954 3 16V48C3 49.1046 3.89543 50 5 50H29C30.1046 50 31 49.1046 31 48V16C31 14.8954 30.1046 14 29 14Z" fill="#006DF0"/>
<path d="M27 26V18H7V26H17H27Z" fill="#F1F2F2"/>
<path d="M27 26H17V36H27V26Z" fill="#FF9811"/>
<path d="M17 36H7V46H17V36Z" fill="#FFCD00"/>
<path d="M27 36H17V46H27V36Z" fill="#5EAC24"/>
<path d="M17 26H7V36H17V26Z" fill="#ED1C24"/>
<path d="M47 32C51.4183 32 55 28.4183 55 24C55 19.5817 51.4183 16 47 16C42.5817 16 39 19.5817 39 24C39 28.4183 42.5817 32 47 32Z" fill="#FF6243"/>
<path d="M61 32H31V48H61V32Z" fill="#7ED63E"/>
<path d="M61 32H59V48H61V32Z" fill="#5EAC24"/>
<path d="M58 38V42C57.2044 42 56.4413 42.3161 55.8787 42.8787C55.3161 43.4413 55 44.2044 55 45H37C37 44.2044 36.6839 43.4413 36.1213 42.8787C35.5587 42.3161 34.7956 42 34 42V38C34.7956 38 35.5587 37.6839 36.1213 37.1213C36.6839 36.5587 37 35.7956 37 35H55C55 35.7956 55.3161 36.5587 55.8787 37.1213C56.4413 37.6839 57.2044 38 58 38Z" fill="#4E901E"/>
<path d="M46 43C47.6569 43 49 41.6569 49 40C49 38.3431 47.6569 37 46 37C44.3431 37 43 38.3431 43 40C43 41.6569 44.3431 43 46 43Z" fill="#F1F2F2"/>
<path d="M43 32C47.4183 32 51 28.4183 51 24C51 19.5817 47.4183 16 43 16C38.5817 16 35 19.5817 35 24C35 28.4183 38.5817 32 43 32Z" fill="#FF7956"/>
<path d="M14 30H13V29C13 28.7348 12.8946 28.4804 12.7071 28.2929C12.5196 28.1054 12.2652 28 12 28C11.7348 28 11.4804 28.1054 11.2929 28.2929C11.1054 28.4804 11 28.7348 11 29V30H10C9.73478 30 9.48043 30.1054 9.29289 30.2929C9.10536 30.4804 9 30.7348 9 31C9 31.2652 9.10536 31.5196 9.29289 31.7071C9.48043 31.8946 9.73478 32 10 32H11V33C11 33.2652 11.1054 33.5196 11.2929 33.7071C11.4804 33.8946 11.7348 34 12 34C12.2652 34 12.5196 33.8946 12.7071 33.7071C12.8946 33.5196 13 33.2652 13 33V32H14C14.2652 32 14.5196 31.8946 14.7071 31.7071C14.8946 31.5196 15 31.2652 15 31C15 30.7348 14.8946 30.4804 14.7071 30.2929C14.5196 30.1054 14.2652 30 14 30Z" fill="#F1F2F2"/>
<path d="M13.414 41L14.121 40.293C14.2165 40.2008 14.2927 40.0904 14.3451 39.9684C14.3975 39.8464 14.4251 39.7152 14.4263 39.5824C14.4274 39.4496 14.4021 39.318 14.3518 39.1951C14.3016 39.0722 14.2273 38.9605 14.1334 38.8666C14.0395 38.7727 13.9279 38.6985 13.805 38.6482C13.6821 38.5979 13.5504 38.5726 13.4176 38.5738C13.2848 38.5749 13.1536 38.6025 13.0316 38.6549C12.9096 38.7073 12.7993 38.7835 12.707 38.879L12 39.586L11.293 38.879C11.2008 38.7835 11.0904 38.7073 10.9684 38.6549C10.8464 38.6025 10.7152 38.5749 10.5824 38.5738C10.4496 38.5726 10.318 38.5979 10.1951 38.6482C10.0722 38.6985 9.96052 38.7727 9.86662 38.8666C9.77273 38.9605 9.69848 39.0722 9.6482 39.1951C9.59792 39.318 9.57261 39.4496 9.57377 39.5824C9.57492 39.7152 9.60251 39.8464 9.65492 39.9684C9.70733 40.0904 9.78351 40.2008 9.87902 40.293L10.586 41L9.87902 41.707C9.78351 41.7993 9.70733 41.9096 9.65492 42.0316C9.60251 42.1536 9.57492 42.2848 9.57377 42.4176C9.57261 42.5504 9.59792 42.6821 9.6482 42.805C9.69848 42.9279 9.77273 43.0395 9.86662 43.1334C9.96052 43.2273 10.0722 43.3016 10.1951 43.3518C10.318 43.4021 10.4496 43.4274 10.5824 43.4263C10.7152 43.4251 10.8464 43.3975 10.9684 43.3451C11.0904 43.2927 11.2008 43.2165 11.293 43.121L12 42.414L12.707 43.121C12.7993 43.2165 12.9096 43.2927 13.0316 43.3451C13.1536 43.3975 13.2848 43.4251 13.4176 43.4263C13.5504 43.4274 13.6821 43.4021 13.805 43.3518C13.9279 43.3016 14.0395 43.2273 14.1334 43.1334C14.2273 43.0395 14.3016 42.9279 14.3518 42.805C14.4021 42.6821 14.4274 42.5504 14.4263 42.4176C14.4251 42.2848 14.3975 42.1536 14.3451 42.0316C14.2927 41.9096 14.2165 41.7993 14.121 41.707L13.414 41Z" fill="#F1F2F2"/>
<path d="M24 30H20C19.7348 30 19.4804 30.1054 19.2929 30.2929C19.1054 30.4804 19 30.7348 19 31C19 31.2652 19.1054 31.5196 19.2929 31.7071C19.4804 31.8946 19.7348 32 20 32H24C24.2652 32 24.5196 31.8946 24.7071 31.7071C24.8946 31.5196 25 31.2652 25 31C25 30.7348 24.8946 30.4804 24.7071 30.2929C24.5196 30.1054 24.2652 30 24 30Z" fill="#F1F2F2"/>
<path d="M24 39H20C19.7348 39 19.4804 39.1054 19.2929 39.2929C19.1054 39.4804 19 39.7348 19 40C19 40.2652 19.1054 40.5196 19.2929 40.7071C19.4804 40.8946 19.7348 41 20 41H24C24.2652 41 24.5196 40.8946 24.7071 40.7071C24.8946 40.5196 25 40.2652 25 40C25 39.7348 24.8946 39.4804 24.7071 39.2929C24.5196 39.1054 24.2652 39 24 39Z" fill="#F1F2F2"/>
<path d="M24 42H20C19.7348 42 19.4804 42.1054 19.2929 42.2929C19.1054 42.4804 19 42.7348 19 43C19 43.2652 19.1054 43.5196 19.2929 43.7071C19.4804 43.8946 19.7348 44 20 44H24C24.2652 44 24.5196 43.8946 24.7071 43.7071C24.8946 43.5196 25 43.2652 25 43C25 42.7348 24.8946 42.4804 24.7071 42.2929C24.5196 42.1054 24.2652 42 24 42Z" fill="#F1F2F2"/>
<path d="M47 5H21C20.7348 5 20.4804 5.10536 20.2929 5.29289C20.1054 5.48043 20 5.73478 20 6C20 6.26522 20.1054 6.51957 20.2929 6.70711C20.4804 6.89464 20.7348 7 21 7H47C47.2652 7 47.5196 6.89464 47.7071 6.70711C47.8946 6.51957 48 6.26522 48 6C48 5.73478 47.8946 5.48043 47.7071 5.29289C47.5196 5.10536 47.2652 5 47 5Z" fill="#FF7956"/>
<path d="M47 9H21C20.7348 9 20.4804 9.10536 20.2929 9.29289C20.1054 9.48043 20 9.73478 20 10C20 10.2652 20.1054 10.5196 20.2929 10.7071C20.4804 10.8946 20.7348 11 21 11H47C47.2652 11 47.5196 10.8946 47.7071 10.7071C47.8946 10.5196 48 10.2652 48 10C48 9.73478 47.8946 9.48043 47.7071 9.29289C47.5196 9.10536 47.2652 9 47 9Z" fill="#FF7956"/>
<path d="M44 30V28.9C45.741 28.573 47 27.423 47 26C47 24.318 45.243 23 43 23C41.779 23 41 22.408 41 22C41 21.592 41.779 21 43 21C44.221 21 45 21.592 45 22C45 22.2652 45.1054 22.5196 45.2929 22.7071C45.4804 22.8946 45.7348 23 46 23C46.2652 23 46.5196 22.8946 46.7071 22.7071C46.8946 22.5196 47 22.2652 47 22C47 20.579 45.741 19.429 44 19.1V18C44 17.7348 43.8946 17.4804 43.7071 17.2929C43.5196 17.1054 43.2652 17 43 17C42.7348 17 42.4804 17.1054 42.2929 17.2929C42.1054 17.4804 42 17.7348 42 18V19.1C40.259 19.427 39 20.577 39 22C39 23.682 40.757 25 43 25C44.221 25 45 25.592 45 26C45 26.408 44.221 27 43 27C41.779 27 41 26.408 41 26C41 25.7348 40.8946 25.4804 40.7071 25.2929C40.5196 25.1054 40.2652 25 40 25C39.7348 25 39.4804 25.1054 39.2929 25.2929C39.1054 25.4804 39 25.7348 39 26C39 27.421 40.259 28.571 42 28.9V30C42 30.2652 42.1054 30.5196 42.2929 30.7071C42.4804 30.8946 42.7348 31 43 31C43.2652 31 43.5196 30.8946 43.7071 30.7071C43.8946 30.5196 44 30.2652 44 30Z" fill="#ED1C24"/>
</svg>
