<?xml version="1.0" encoding="UTF-8"?>
<!DOCTYPE svg PUBLIC "-//W3C//DTD SVG 1.1//EN" "http://www.w3.org/Graphics/SVG/1.1/DTD/svg11.dtd">
<svg xmlns="http://www.w3.org/2000/svg" version="1.1" width="100px" height="100px" style="shape-rendering:geometricPrecision; text-rendering:geometricPrecision; image-rendering:optimizeQuality; fill-rule:evenodd; clip-rule:evenodd" xmlns:xlink="http://www.w3.org/1999/xlink">
<g><path style="opacity:0.917" fill="#0d0a0a" d="M 24.5,0.5 C 41.1667,0.5 57.8333,0.5 74.5,0.5C 74.5,11.1667 74.5,21.8333 74.5,32.5C 72.5,32.5 70.5,32.5 68.5,32.5C 68.5,33.5 68.5,34.5 68.5,35.5C 78.5,35.5 88.5,35.5 98.5,35.5C 99.128,41.7624 98.2946,47.7624 96,53.5C 95.6667,68.1667 95.3333,82.8333 95,97.5C 79.906,98.1629 64.7393,98.4962 49.5,98.5C 34.2607,98.4962 19.094,98.1629 4,97.5C 3.66667,82.8333 3.33333,68.1667 3,53.5C 1.95627,52.3774 1.28961,51.0441 1,49.5C 0.500847,44.8452 0.334181,40.1785 0.5,35.5C 10.5,35.5 20.5,35.5 30.5,35.5C 30.5,34.5 30.5,33.5 30.5,32.5C 28.5,32.5 26.5,32.5 24.5,32.5C 24.5,21.8333 24.5,11.1667 24.5,0.5 Z M 34.5,32.5 C 44.5,32.5 54.5,32.5 64.5,32.5C 64.5,33.5 64.5,34.5 64.5,35.5C 54.5,35.5 44.5,35.5 34.5,35.5C 34.5,34.5 34.5,33.5 34.5,32.5 Z"/></g>
<g><path style="opacity:1" fill="#eeeef6" d="M 71.5,28.5 C 67.6286,28.815 63.9619,28.4816 60.5,27.5C 62.5547,21.4691 61.2214,16.1357 56.5,11.5C 55.1502,10.0499 53.4835,9.38321 51.5,9.5C 51.5,8.16667 51.5,6.83333 51.5,5.5C 50.1667,5.5 48.8333,5.5 47.5,5.5C 47.5,6.83333 47.5,8.16667 47.5,9.5C 42.6171,10.5461 39.4504,13.5461 38,18.5C 37.1955,21.6965 37.3622,24.6965 38.5,27.5C 35.0381,28.4816 31.3714,28.815 27.5,28.5C 27.5,20.5 27.5,12.5 27.5,4.5C 42.1667,4.5 56.8333,4.5 71.5,4.5C 71.5,12.5 71.5,20.5 71.5,28.5 Z"/></g>
<g><path style="opacity:1" fill="#0f0f0f" d="M 60.5,27.5 C 53.1667,27.5 45.8333,27.5 38.5,27.5C 37.3622,24.6965 37.1955,21.6965 38,18.5C 39.4504,13.5461 42.6171,10.5461 47.5,9.5C 47.5,8.16667 47.5,6.83333 47.5,5.5C 48.8333,5.5 50.1667,5.5 51.5,5.5C 51.5,6.83333 51.5,8.16667 51.5,9.5C 53.4835,9.38321 55.1502,10.0499 56.5,11.5C 61.2214,16.1357 62.5547,21.4691 60.5,27.5 Z"/></g>
<g><path style="opacity:1" fill="#c8c5bc" d="M 45.5,12.5 C 48.1873,12.3359 50.854,12.5026 53.5,13C 55.607,14.2635 56.607,16.0968 56.5,18.5C 51.456,18.8275 46.456,18.4941 41.5,17.5C 42.8569,15.8144 44.1902,14.1477 45.5,12.5 Z"/></g>
<g><path style="opacity:1" fill="#b3b2a5" d="M 40.5,21.5 C 46.5,21.5 52.5,21.5 58.5,21.5C 58.5,22.5 58.5,23.5 58.5,24.5C 52.5,24.5 46.5,24.5 40.5,24.5C 40.5,23.5 40.5,22.5 40.5,21.5 Z"/></g>
<g><path style="opacity:1" fill="#b4b4bb" d="M 38.5,27.5 C 45.8333,27.5 53.1667,27.5 60.5,27.5C 63.9619,28.4816 67.6286,28.815 71.5,28.5C 56.8333,29.8333 42.1667,29.8333 27.5,28.5C 31.3714,28.815 35.0381,28.4816 38.5,27.5 Z"/></g>
<g><path style="opacity:1" fill="#da665c" d="M 4.5,38.5 C 34.5,38.5 64.5,38.5 94.5,38.5C 94.5,39.5 94.5,40.5 94.5,41.5C 64.5,41.5 34.5,41.5 4.5,41.5C 4.5,40.5 4.5,39.5 4.5,38.5 Z"/></g>
<g><path style="opacity:1" fill="#bf382e" d="M 4.5,44.5 C 9.5,44.5 14.5,44.5 19.5,44.5C 20.1338,50.2465 17.6338,53.5798 12,54.5C 6.36624,53.5798 3.86624,50.2465 4.5,44.5 Z"/></g>
<g><path style="opacity:1" fill="#cd3e32" d="M 38.5,45.5 C 38.8337,48.491 37.8337,50.8243 35.5,52.5C 30.1864,52.6778 26.1864,50.5111 23.5,46C 28.4889,45.5007 33.4889,45.3341 38.5,45.5 Z"/></g>
<g><path style="opacity:1" fill="#d03f33" d="M 56.5,48.5 C 56.2624,50.4044 55.2624,51.7377 53.5,52.5C 48.876,52.3531 45.2094,50.3531 42.5,46.5C 47.1196,45.5067 51.7863,45.1734 56.5,45.5C 56.5,46.5 56.5,47.5 56.5,48.5 Z"/></g>
<g><path style="opacity:1" fill="#cf3f33" d="M 75.5,48.5 C 75.2624,50.4044 74.2624,51.7377 72.5,52.5C 67.876,52.3531 64.2094,50.3531 61.5,46.5C 66.1196,45.5067 70.7863,45.1734 75.5,45.5C 75.5,46.5 75.5,47.5 75.5,48.5 Z"/></g>
<g><path style="opacity:1" fill="#bf382e" d="M 79.5,44.5 C 84.5,44.5 89.5,44.5 94.5,44.5C 95.1338,50.2465 92.6338,53.5798 87,54.5C 81.3662,53.5798 78.8662,50.2465 79.5,44.5 Z"/></g>
<g><path style="opacity:1" fill="#982821" d="M 38.5,45.5 C 33.4889,45.3341 28.4889,45.5007 23.5,46C 26.1864,50.5111 30.1864,52.6778 35.5,52.5C 27.8561,55.9228 23.5228,53.2561 22.5,44.5C 28.0262,44.1786 33.3595,44.5119 38.5,45.5 Z"/></g>
<g><path style="opacity:1" fill="#992821" d="M 56.5,48.5 C 56.5,47.5 56.5,46.5 56.5,45.5C 51.7863,45.1734 47.1196,45.5067 42.5,46.5C 45.2094,50.3531 48.876,52.3531 53.5,52.5C 53.3893,53.1174 53.056,53.6174 52.5,54C 45.3042,54.9731 41.6375,51.8064 41.5,44.5C 46.8333,44.5 52.1667,44.5 57.5,44.5C 57.7678,46.099 57.4345,47.4324 56.5,48.5 Z"/></g>
<g><path style="opacity:1" fill="#992921" d="M 75.5,48.5 C 75.5,47.5 75.5,46.5 75.5,45.5C 70.7863,45.1734 66.1196,45.5067 61.5,46.5C 64.2094,50.3531 67.876,52.3531 72.5,52.5C 64.7777,55.9543 60.7777,53.2876 60.5,44.5C 65.8333,44.5 71.1667,44.5 76.5,44.5C 76.7678,46.099 76.4345,47.4324 75.5,48.5 Z"/></g>
<g><path style="opacity:1" fill="#eeeef5" d="M 20.5,52.5 C 26.9674,59.1021 33.4674,59.1021 40,52.5C 46.3333,59.1667 52.6667,59.1667 59,52.5C 65.1286,59.1279 71.2953,59.1279 77.5,52.5C 79.3586,54.1924 81.3586,55.6924 83.5,57C 85.8991,57.711 88.2324,57.5443 90.5,56.5C 91.4991,69.1492 91.8324,81.8158 91.5,94.5C 72.8333,94.5 54.1667,94.5 35.5,94.5C 35.6665,83.495 35.4998,72.495 35,61.5C 26.919,60.5175 18.7524,60.1842 10.5,60.5C 10.5,71.8333 10.5,83.1667 10.5,94.5C 9.5,94.5 8.5,94.5 7.5,94.5C 7.33345,81.8289 7.50012,69.1623 8,56.5C 13.287,58.5814 17.4537,57.2481 20.5,52.5 Z"/></g>
<g><path style="opacity:1" fill="#0d0909" d="M 39.5,60.5 C 55.8333,60.5 72.1667,60.5 88.5,60.5C 88.5,70.8333 88.5,81.1667 88.5,91.5C 71.8333,91.5 55.1667,91.5 38.5,91.5C 38.1917,81.0846 38.525,70.7513 39.5,60.5 Z"/></g>
<g><path style="opacity:1" fill="#d13f33" d="M 31.5,63.5 C 31.6664,71.84 31.4997,80.1733 31,88.5C 27.1193,86.5544 23.7859,83.8877 21,80.5C 20.5026,77.854 20.3359,75.1873 20.5,72.5C 18.901,72.2322 17.5676,72.5655 16.5,73.5C 16.5,74.1667 16.5,74.8333 16.5,75.5C 15.7281,74.3065 14.7281,73.3065 13.5,72.5C 13.5,69.5 13.5,66.5 13.5,63.5C 19.5,63.5 25.5,63.5 31.5,63.5 Z"/></g>
<g><path style="opacity:1" fill="#c93d31" d="M 41.5,63.5 C 43.5,63.5 45.5,63.5 47.5,63.5C 47.6655,67.5138 47.4988,71.5138 47,75.5C 45.7365,77.607 43.9032,78.607 41.5,78.5C 41.5,73.5 41.5,68.5 41.5,63.5 Z"/></g>
<g><path style="opacity:1" fill="#f5f5f5" d="M 73.5,88.5 C 73.5,84.8333 73.5,81.1667 73.5,77.5C 72.1667,77.5 70.8333,77.5 69.5,77.5C 69.5,81.1667 69.5,84.8333 69.5,88.5C 68.1667,88.5 66.8333,88.5 65.5,88.5C 65.5,86.5 65.5,84.5 65.5,82.5C 66.5,82.5 67.5,82.5 68.5,82.5C 68.5,81.5 68.5,80.5 68.5,79.5C 65.1667,79.5 61.8333,79.5 58.5,79.5C 58.5,80.5 58.5,81.5 58.5,82.5C 59.8333,82.5 61.1667,82.5 62.5,82.5C 62.5,84.5 62.5,86.5 62.5,88.5C 60.8333,88.5 59.1667,88.5 57.5,88.5C 57.5,84.8333 57.5,81.1667 57.5,77.5C 56.5,77.5 55.5,77.5 54.5,77.5C 54.5,81.1667 54.5,84.8333 54.5,88.5C 53.1667,88.5 51.8333,88.5 50.5,88.5C 50.8503,84.9457 50.1837,81.6124 48.5,78.5C 51.1337,73.8606 52.1337,68.8606 51.5,63.5C 59.8333,63.5 68.1667,63.5 76.5,63.5C 76.0144,68.6989 76.6811,73.6989 78.5,78.5C 76.8163,81.6124 76.1497,84.9457 76.5,88.5C 75.5,88.5 74.5,88.5 73.5,88.5 Z"/></g>
<g><path style="opacity:1" fill="#cd3e32" d="M 79.5,63.5 C 81.5,63.5 83.5,63.5 85.5,63.5C 85.5,68.5 85.5,73.5 85.5,78.5C 83.0968,78.607 81.2635,77.607 80,75.5C 79.5012,71.5138 79.3345,67.5138 79.5,63.5 Z"/></g>
<g><path style="opacity:1" fill="#a72b24" d="M 31.5,63.5 C 32.4942,73.6532 32.8276,83.9865 32.5,94.5C 26.1667,94.5 19.8333,94.5 13.5,94.5C 13.5,87.1667 13.5,79.8333 13.5,72.5C 14.7281,73.3065 15.7281,74.3065 16.5,75.5C 16.5,76.8333 16.5,78.1667 16.5,79.5C 17.5,79.5 18.5,79.5 19.5,79.5C 19.5,77.5 19.5,75.5 19.5,73.5C 18.5,73.5 17.5,73.5 16.5,73.5C 17.5676,72.5655 18.901,72.2322 20.5,72.5C 20.3359,75.1873 20.5026,77.854 21,80.5C 23.7859,83.8877 27.1193,86.5544 31,88.5C 31.4997,80.1733 31.6664,71.84 31.5,63.5 Z"/></g>
<g><path style="opacity:1" fill="#1e0805" d="M 16.5,73.5 C 17.5,73.5 18.5,73.5 19.5,73.5C 19.5,75.5 19.5,77.5 19.5,79.5C 18.5,79.5 17.5,79.5 16.5,79.5C 16.5,78.1667 16.5,76.8333 16.5,75.5C 16.5,74.8333 16.5,74.1667 16.5,73.5 Z"/></g>
<g><path style="opacity:1" fill="#636363" d="M 73.5,88.5 C 72.8339,85.3107 72.1672,81.9773 71.5,78.5C 70.8328,81.9773 70.1661,85.3107 69.5,88.5C 69.5,84.8333 69.5,81.1667 69.5,77.5C 70.8333,77.5 72.1667,77.5 73.5,77.5C 73.5,81.1667 73.5,84.8333 73.5,88.5 Z"/></g>
<g><path style="opacity:1" fill="#9e2721" d="M 44.5,80.5 C 45.4959,80.4142 46.3292,80.7476 47,81.5C 47.4966,83.8098 47.6633,86.1432 47.5,88.5C 45.5,88.5 43.5,88.5 41.5,88.5C 40.8285,85.014 41.8285,82.3473 44.5,80.5 Z"/></g>
<g><path style="opacity:1" fill="#a12822" d="M 80.5,80.5 C 84.9914,81.2241 86.658,83.8907 85.5,88.5C 83.5,88.5 81.5,88.5 79.5,88.5C 79.4013,85.7628 79.7347,83.0961 80.5,80.5 Z"/></g>
</svg>
