<?xml version="1.0" encoding="UTF-8"?>
<!DOCTYPE svg PUBLIC "-//W3C//DTD SVG 1.1//EN" "http://www.w3.org/Graphics/SVG/1.1/DTD/svg11.dtd">
<svg xmlns="http://www.w3.org/2000/svg" version="1.1" width="100px" height="100px" style="shape-rendering:geometricPrecision; text-rendering:geometricPrecision; image-rendering:optimizeQuality; fill-rule:evenodd; clip-rule:evenodd" xmlns:xlink="http://www.w3.org/1999/xlink">
<g><path style="opacity:0.416" fill="#ffde00" d="M 30.5,4.5 C 32.9477,4.08467 34.2811,5.08467 34.5,7.5C 32.5512,11.4659 30.5512,11.4659 28.5,7.5C 29.1925,6.48224 29.8592,5.48224 30.5,4.5 Z M 30.5,7.5 C 31.0768,6.22671 31.7435,6.22671 32.5,7.5C 32.0302,8.46295 31.3635,8.46295 30.5,7.5 Z"/></g>
<g><path style="opacity:0.602" fill="#3fbdff" d="M 7.5,5.5 C 8.93111,6.0819 10.2644,6.91523 11.5,8C 10.354,8.64494 9.354,9.47827 8.5,10.5C 7.646,9.47827 6.646,8.64494 5.5,8C 6.75598,7.58309 7.42265,6.74975 7.5,5.5 Z"/></g>
<g><path style="opacity:0.996" fill="#263238" d="M 42.5,7.5 C 59.8365,7.33339 77.1699,7.50006 94.5,8C 95.8932,9.17109 96.7265,10.6711 97,12.5C 97.6667,16.8333 97.6667,21.1667 97,25.5C 96.5348,26.9308 95.7014,28.0975 94.5,29C 92.1902,29.4966 89.8568,29.6633 87.5,29.5C 87.6646,32.5184 87.498,35.5184 87,38.5C 86.586,38.9574 86.086,39.2907 85.5,39.5C 82.0154,36.516 78.682,33.3493 75.5,30C 69.8041,29.1701 64.1375,29.3368 58.5,30.5C 58.032,32.1338 57.032,33.3005 55.5,34C 44.8333,34.3333 34.1667,34.6667 23.5,35C 20.318,38.3493 16.9846,41.516 13.5,44.5C 12.914,44.2907 12.414,43.9574 12,43.5C 11.502,40.5184 11.3354,37.5184 11.5,34.5C 9.14316,34.6633 6.80982,34.4966 4.5,34C 3.29857,33.0975 2.46524,31.9308 2,30.5C 1.33333,25.8333 1.33333,21.1667 2,16.5C 2.46524,15.0692 3.29857,13.9025 4.5,13C 16.5139,12.8326 28.5139,12.3326 40.5,11.5C 41.1799,10.1401 41.8466,8.80678 42.5,7.5 Z"/></g>
<g><path style="opacity:0.987" fill="#fddb00" d="M 44.5,9.5 C 60.8367,9.3334 77.1701,9.50007 93.5,10C 94.6389,15.4162 94.8056,20.9162 94,26.5C 90.9433,27.4505 87.7766,27.7839 84.5,27.5C 84.6633,29.8568 84.4966,32.1902 84,34.5C 81.8333,32.3333 79.6667,30.1667 77.5,28C 66.5,27.6667 55.5,27.3333 44.5,27C 43.1875,21.167 43.1875,15.3337 44.5,9.5 Z"/></g>
<g><path style="opacity:1" fill="#263237" d="M 45.5,15.5 C 61.1808,15.1673 76.8475,15.5006 92.5,16.5C 84.6667,16.8333 76.8333,17.1667 69,17.5C 60.8037,17.4977 52.9703,16.831 45.5,15.5 Z"/></g>
<g><path style="opacity:1" fill="#4a4c2f" d="M 45.5,19.5 C 59.8488,19.1674 74.1821,19.5007 88.5,20.5C 81.3333,20.8333 74.1667,21.1667 67,21.5C 59.4675,21.4972 52.3008,20.8306 45.5,19.5 Z"/></g>
<g><path style="opacity:0.971" fill="#3eb5f5" d="M 15.5,39.5 C 15.5,37.1667 15.5,34.8333 15.5,32.5C 12.2234,32.7839 9.05675,32.4505 6,31.5C 5.19443,25.9162 5.3611,20.4162 6.5,15C 18.1619,14.5001 29.8286,14.3335 41.5,14.5C 41.3343,18.8461 41.501,23.1794 42,27.5C 42.5,28 43,28.5 43.5,29C 47.5408,29.1735 51.5408,29.6735 55.5,30.5C 55.2907,31.086 54.9574,31.586 54.5,32C 43.8333,32.3333 33.1667,32.6667 22.5,33C 20.2968,35.3722 17.9635,37.5389 15.5,39.5 Z"/></g>
<g><path style="opacity:1" fill="#263238" d="M 6.5,20.5 C 17.1874,20.168 27.8541,20.5013 38.5,21.5C 33.1667,21.8333 27.8333,22.1667 22.5,22.5C 16.7891,22.4949 11.4558,21.8282 6.5,20.5 Z"/></g>
<g><path style="opacity:0.878" fill="#283e4b" d="M 6.5,24.5 C 16.1724,24.3335 25.8391,24.5002 35.5,25C 30.6709,26.1436 25.6709,26.6436 20.5,26.5C 15.4492,26.4933 10.7825,25.8266 6.5,24.5 Z"/></g>
<g><path style="opacity:0.501" fill="#3fc1ff" d="M 45.5,42.5 C 49.0131,43.0282 50.0131,44.8615 48.5,48C 43.7217,48.0734 42.7217,46.2401 45.5,42.5 Z"/></g>
<g><path style="opacity:0.503" fill="#3ebeff" d="M 4.5,57.5 C 7.9978,57.4784 9.33113,58.9784 8.5,62C 6.86586,62.4935 5.19919,62.6602 3.5,62.5C 3.36596,60.7085 3.69929,59.0418 4.5,57.5 Z M 5.5,59.5 C 8.00092,59.5109 8.16758,60.1776 6,61.5C 5.53566,60.9056 5.36899,60.2389 5.5,59.5 Z"/></g>
<g><path style="opacity:0.662" fill="#3fbcff" d="M 99.5,64.5 C 99.5,64.8333 99.5,65.1667 99.5,65.5C 97.3373,68.2686 95.3373,68.1019 93.5,65C 95.3373,61.8981 97.3373,61.7314 99.5,64.5 Z"/></g>
<g><path style="opacity:0.983" fill="#29353b" d="M 22.5,41.5 C 34.7445,42.9974 39.2445,49.6641 36,61.5C 35.0524,63.5701 33.5524,65.0701 31.5,66C 43.2672,70.3505 48.2672,78.8505 46.5,91.5C 31.5884,91.824 16.755,91.4906 2,90.5C 0.220761,78.3051 5.05409,70.1384 16.5,66C 8.5,58.6667 8.5,51.3333 16.5,44C 18.6115,43.1553 20.6115,42.322 22.5,41.5 Z"/></g>
<g><path style="opacity:0.981" fill="#ebf6fa" d="M 20.5,44.5 C 31.4856,43.6526 35.9856,48.6526 34,59.5C 31.0812,65.0248 26.5812,66.8581 20.5,65C 11.2184,58.2158 11.2184,51.3825 20.5,44.5 Z"/></g>
<g><path style="opacity:0.989" fill="#ecf7fb" d="M 17.5,67.5 C 35.1971,64.634 43.8637,71.9674 43.5,89.5C 30.5,89.5 17.5,89.5 4.5,89.5C 3.75707,78.9629 8.0904,71.6296 17.5,67.5 Z"/></g>
<g><path style="opacity:0.974" fill="#27333a" d="M 73.5,41.5 C 86.4265,43.3586 90.5931,50.3586 86,62.5C 84.8333,63.6667 83.6667,64.8333 82.5,66C 93.5888,70.3298 98.4221,78.4965 97,90.5C 82.245,91.4906 67.4116,91.824 52.5,91.5C 50.7272,78.8634 55.7272,70.3634 67.5,66C 61.5976,61.4257 60.0976,55.5924 63,48.5C 65.663,44.7623 69.163,42.429 73.5,41.5 Z"/></g>
<g><path style="opacity:0.988" fill="#ecf7fb" d="M 68.5,67.5 C 85.5559,65.2368 94.2226,72.5702 94.5,89.5C 81.5,89.5 68.5,89.5 55.5,89.5C 54.225,78.7003 58.5583,71.367 68.5,67.5 Z"/></g>
<g><path style="opacity:0.985" fill="#ebf6fa" d="M 71.5,44.5 C 81.9884,43.4874 86.4884,48.154 85,58.5C 82.0367,64.5613 77.2034,66.7279 70.5,65C 62.2702,57.7683 62.6035,50.9349 71.5,44.5 Z"/></g>
</svg>
