<?xml version="1.0" encoding="UTF-8"?>
<!DOCTYPE svg PUBLIC "-//W3C//DTD SVG 1.1//EN" "http://www.w3.org/Graphics/SVG/1.1/DTD/svg11.dtd">
<svg xmlns="http://www.w3.org/2000/svg" version="1.1" width="100px" height="100px" style="shape-rendering:geometricPrecision; text-rendering:geometricPrecision; image-rendering:optimizeQuality; fill-rule:evenodd; clip-rule:evenodd" xmlns:xlink="http://www.w3.org/1999/xlink">
<g><path style="opacity:0.489" fill="#000000" d="M 27.5,6.5 C 28.9953,6.41483 29.9953,7.08149 30.5,8.5C 29.6798,10.1112 28.3464,10.7778 26.5,10.5C 26.4326,9.04125 26.7659,7.70792 27.5,6.5 Z"/></g>
<g><path style="opacity:0.749" fill="#05070d" d="M 43.5,6.5 C 44.5,6.5 45.5,6.5 46.5,6.5C 46.5,10.1667 46.5,13.8333 46.5,17.5C 48.1667,17.5 49.8333,17.5 51.5,17.5C 51.5,13.8333 51.5,10.1667 51.5,6.5C 60.3254,8.80436 63.492,14.471 61,23.5C 58.7341,26.6459 59.5674,28.6459 63.5,29.5C 66.2685,27.3939 69.2685,25.7272 72.5,24.5C 76.5943,25.7402 78.4276,28.4068 78,32.5C 76.8773,35.2487 75.3773,37.7487 73.5,40C 74.7865,42.0223 75.7865,44.1889 76.5,46.5C 79.7468,47.6497 83.0801,48.483 86.5,49C 87.6168,52.0731 87.7835,55.2397 87,58.5C 83.9006,59.4553 80.734,60.2886 77.5,61C 76.0394,63.4206 74.7061,65.9206 73.5,68.5C 75,70.8333 76.5,73.1667 78,75.5C 78.6667,76.8333 78.6667,78.1667 78,79.5C 76.3333,81.1667 74.6667,82.8333 73,84.5C 69.6999,82.6976 66.5332,80.6976 63.5,78.5C 60.9206,79.7061 58.4206,81.0394 56,82.5C 55.2886,85.734 54.4553,88.9006 53.5,92C 50.5,92.6667 47.5,92.6667 44.5,92C 43.5447,88.9006 42.7114,85.734 42,82.5C 39.5794,81.0394 37.0794,79.7061 34.5,78.5C 31.4668,80.6976 28.3001,82.6976 25,84.5C 22.5617,82.5709 20.7283,80.2376 19.5,77.5C 20.7272,74.2685 22.3939,71.2685 24.5,68.5C 23.2939,65.9206 21.9606,63.4206 20.5,61C 17.266,60.2886 14.0994,59.4553 11,58.5C 10.3333,55.5 10.3333,52.5 11,49.5C 14.4907,48.5663 17.9907,47.5663 21.5,46.5C 22.2135,44.1889 23.2135,42.0223 24.5,40C 22.1789,37.1917 20.5122,34.025 19.5,30.5C 20.7402,26.4057 23.4068,24.5724 27.5,25C 29.699,26.6971 32.0324,28.1971 34.5,29.5C 35.7481,28.9598 36.9148,28.2931 38,27.5C 36.6219,23.0223 36.2886,18.3557 37,13.5C 38.6941,10.6424 40.8607,8.30904 43.5,6.5 Z M 55.5,45.5 C 60.6143,50.5761 60.781,55.9095 56,61.5C 55.5006,56.1771 55.334,50.8437 55.5,45.5 Z M 40.5,46.5 C 41.8086,48.5706 42.4752,51.0706 42.5,54C 42.3333,56.5 42.1667,59 42,61.5C 37.8955,56.9212 37.3955,51.9212 40.5,46.5 Z"/></g>
<g><path style="opacity:0.676" fill="#08090a" d="M 84.5,6.5 C 91.6853,6.8482 94.5186,10.5149 93,17.5C 86.5795,23.4369 82.0795,22.2703 79.5,14C 79.7815,10.5559 81.4482,8.05591 84.5,6.5 Z"/></g>
<g><path style="opacity:0.48" fill="#000000" d="M 69.5,9.5 C 71.9118,9.69408 72.9118,11.0274 72.5,13.5C 69.0464,13.7332 68.0464,12.3999 69.5,9.5 Z"/></g>
<g><path style="opacity:1" fill="#b0d5ef" d="M 83.5,9.5 C 90.6095,8.90374 92.6095,11.7371 89.5,18C 82.2153,18.9343 80.2153,16.1009 83.5,9.5 Z"/></g>
<g><path style="opacity:1" fill="#31363d" d="M 43.5,9.5 C 44.4794,12.6248 44.8128,15.9581 44.5,19.5C 47.5,19.5 50.5,19.5 53.5,19.5C 53.335,16.1501 53.5017,12.8168 54,9.5C 61.3536,16.0405 61.1869,22.3739 53.5,28.5C 52.501,40.4815 52.1677,52.4815 52.5,64.5C 50.1667,64.5 47.8333,64.5 45.5,64.5C 45.8323,52.4815 45.499,40.4815 44.5,28.5C 36.8911,22.5652 36.5578,16.2318 43.5,9.5 Z"/></g>
<g><path style="opacity:0.522" fill="#000000" d="M 8.5,14.5 C 9.5,14.5 10.5,14.5 11.5,14.5C 11.5,15.8333 11.5,17.1667 11.5,18.5C 10.5,18.5 9.5,18.5 8.5,18.5C 8.5,17.1667 8.5,15.8333 8.5,14.5 Z"/></g>
<g><path style="opacity:1" fill="#2f52b8" d="M 24.5,27.5 C 28.022,28.3538 31.3554,29.6871 34.5,31.5C 37.3273,30.0678 40.3273,29.4012 43.5,29.5C 43.5,31.8333 43.5,34.1667 43.5,36.5C 31.6183,40.9379 27.785,49.2712 32,61.5C 38.697,72.729 47.8637,75.229 59.5,69C 71.1681,56.5115 69.8347,45.6782 55.5,36.5C 54.5258,34.2573 54.1924,31.924 54.5,29.5C 57.5804,29.7477 60.5804,30.4144 63.5,31.5C 66.4401,30.3932 69.2734,29.0599 72,27.5C 73.6255,28.2887 75.1255,29.2887 76.5,30.5C 74.3939,33.2685 72.7272,36.2685 71.5,39.5C 72.9074,42.7213 73.9074,46.0547 74.5,49.5C 77.9099,49.4571 81.2432,49.9571 84.5,51C 85.8333,53 85.8333,55 84.5,57C 80.7132,57.5478 77.2132,58.7145 74,60.5C 73.4503,63.2634 72.6169,65.9301 71.5,68.5C 72.7272,71.7315 74.3939,74.7315 76.5,77.5C 74.8333,78.5 73.5,79.8333 72.5,81.5C 69.7315,79.3939 66.7315,77.7272 63.5,76.5C 60.8029,77.2324 58.1362,78.0657 55.5,79C 53.7145,82.2132 52.5478,85.7132 52,89.5C 50,90.8333 48,90.8333 46,89.5C 46.0737,80.4465 41.5737,76.2798 32.5,77C 30.1667,78.5 27.8333,80 25.5,81.5C 24.2887,80.1255 23.2887,78.6255 22.5,77C 24.0599,74.2734 25.3932,71.4401 26.5,68.5C 25.3831,65.9301 24.5497,63.2634 24,60.5C 20.7609,58.648 17.2609,57.648 13.5,57.5C 13.5,55.1667 13.5,52.8333 13.5,50.5C 16.8067,49.9492 20.1401,49.6159 23.5,49.5C 24.0926,46.0547 25.0926,42.7213 26.5,39.5C 25.2728,36.2685 23.6061,33.2685 21.5,30.5C 22.7701,29.7124 23.7701,28.7124 24.5,27.5 Z M 55.5,45.5 C 55.334,50.8437 55.5006,56.1771 56,61.5C 60.781,55.9095 60.6143,50.5761 55.5,45.5 Z M 40.5,46.5 C 37.3955,51.9212 37.8955,56.9212 42,61.5C 42.1667,59 42.3333,56.5 42.5,54C 42.4752,51.0706 41.8086,48.5706 40.5,46.5 Z"/></g>
<g><path style="opacity:0.554" fill="#000000" d="M 82.5,30.5 C 83.5,30.5 84.5,30.5 85.5,30.5C 85.5,31.8333 85.5,33.1667 85.5,34.5C 84.5,34.5 83.5,34.5 82.5,34.5C 82.5,33.1667 82.5,31.8333 82.5,30.5 Z"/></g>
<g><path style="opacity:0.535" fill="#000000" d="M 10.5,38.5 C 11.5,38.5 12.5,38.5 13.5,38.5C 13.5,39.8333 13.5,41.1667 13.5,42.5C 12.5,42.5 11.5,42.5 10.5,42.5C 10.5,41.1667 10.5,39.8333 10.5,38.5 Z"/></g>
<g><path style="opacity:1" fill="#54ade9" d="M 41.5,38.5 C 42.5862,38.62 43.2528,39.2867 43.5,40.5C 41.8793,42.6239 40.046,44.6239 38,46.5C 34.0895,54.5368 35.9228,61.0368 43.5,66C 56.7189,67.4478 62.5523,61.6145 61,48.5C 58.9926,45.6638 56.8259,42.9971 54.5,40.5C 54.8333,39.8333 55.1667,39.1667 55.5,38.5C 65.205,44.2443 67.705,52.2443 63,62.5C 53.9683,72.7153 44.635,73.0486 35,63.5C 29.9089,53.0842 32.0756,44.7509 41.5,38.5 Z M 55.5,45.5 C 55.334,50.8437 55.5006,56.1771 56,61.5C 60.781,55.9095 60.6143,50.5761 55.5,45.5 Z M 40.5,46.5 C 37.3955,51.9212 37.8955,56.9212 42,61.5C 42.1667,59 42.3333,56.5 42.5,54C 42.4752,51.0706 41.8086,48.5706 40.5,46.5 Z"/></g>
<g><path style="opacity:0.63" fill="#000000" d="M 85.5,69.5 C 86.5,69.5 87.5,69.5 88.5,69.5C 87.5,74.8333 86.5,74.8333 85.5,69.5 Z"/></g>
<g><path style="opacity:0.756" fill="#000000" d="M 8.5,70.5 C 17.8176,70.6546 19.8176,74.488 14.5,82C 5.09595,82.141 3.09595,78.3076 8.5,70.5 Z"/></g>
<g><path style="opacity:1" fill="#a2c4dc" d="M 9.5,72.5 C 15.4877,72.664 16.821,75.164 13.5,80C 7.40339,80.1475 6.07006,77.6475 9.5,72.5 Z"/></g>
<g><path style="opacity:0.521" fill="#000000" d="M 62.5,83.5 C 63.5,83.5 64.5,83.5 65.5,83.5C 65.5,84.8333 65.5,86.1667 65.5,87.5C 64.5,87.5 63.5,87.5 62.5,87.5C 62.5,86.1667 62.5,84.8333 62.5,83.5 Z"/></g>
<g><path style="opacity:0.481" fill="#000000" d="M 29.5,84.5 C 30.9953,84.4148 31.9953,85.0815 32.5,86.5C 31.6798,88.1112 30.3464,88.7778 28.5,88.5C 28.4326,87.0413 28.7659,85.7079 29.5,84.5 Z"/></g>
</svg>
