<?xml version="1.0" encoding="UTF-8"?>
<!DOCTYPE svg PUBLIC "-//W3C//DTD SVG 1.1//EN" "http://www.w3.org/Graphics/SVG/1.1/DTD/svg11.dtd">
<svg xmlns="http://www.w3.org/2000/svg" version="1.1" width="100px" height="100px" style="shape-rendering:geometricPrecision; text-rendering:geometricPrecision; image-rendering:optimizeQuality; fill-rule:evenodd; clip-rule:evenodd" xmlns:xlink="http://www.w3.org/1999/xlink">
<g><path style="opacity:0.986" fill="#46e3db" d="M 75.5,23.5 C 75.5,24.5 75.5,25.5 75.5,26.5C 75.5,30.1667 75.5,33.8333 75.5,37.5C 75.5,38.8333 75.5,40.1667 75.5,41.5C 75.5,48.5 75.5,55.5 75.5,62.5C 58.1667,62.5 40.8333,62.5 23.5,62.5C 23.5,55.5 23.5,48.5 23.5,41.5C 23.5,40.1667 23.5,38.8333 23.5,37.5C 23.5,33.8333 23.5,30.1667 23.5,26.5C 23.5,25.5 23.5,24.5 23.5,23.5C 23.1336,17.8663 25.8003,15.1996 31.5,15.5C 45.1409,16.2986 58.8076,16.7986 72.5,17C 74.915,18.4653 75.915,20.632 75.5,23.5 Z M 31.5,26.5 C 43.5,26.5 55.5,26.5 67.5,26.5C 67.5,32.1667 67.5,37.8333 67.5,43.5C 58.6808,44.4235 57.8474,43.0902 65,39.5C 65.4828,38.552 65.6495,37.552 65.5,36.5C 60.5221,37.8199 55.8554,39.9865 51.5,43C 48.5,43.6667 45.5,43.6667 42.5,43C 45.8083,42.3272 47.6416,40.4939 48,37.5C 47.4387,36.9781 46.772,36.6448 46,36.5C 41.3169,39.259 36.4836,41.5923 31.5,43.5C 31.5,37.8333 31.5,32.1667 31.5,26.5 Z"/></g>
<g><path style="opacity:0.853" fill="#202020" d="M 23.5,23.5 C 23.5,24.5 23.5,25.5 23.5,26.5C 22.1779,26.33 21.0113,26.6634 20,27.5C 19.5017,30.8168 19.335,34.1501 19.5,37.5C 20.8333,37.5 22.1667,37.5 23.5,37.5C 23.5,38.8333 23.5,40.1667 23.5,41.5C 17.2343,41.5022 14.5676,38.3355 15.5,32C 14.4783,25.4922 17.1449,22.6589 23.5,23.5 Z"/></g>
<g><path style="opacity:0.91" fill="#222424" d="M 30.5,23.5 C 43.1711,23.3334 55.8377,23.5001 68.5,24C 69.3333,24.8333 70.1667,25.6667 71,26.5C 71.7903,32.5522 71.6236,38.5522 70.5,44.5C 69.9747,45.1924 69.3081,45.6924 68.5,46C 55.5,46.6667 42.5,46.6667 29.5,46C 28.8742,45.2496 28.3742,44.4162 28,43.5C 27.3333,37.8333 27.3333,32.1667 28,26.5C 29.045,25.6266 29.8783,24.6266 30.5,23.5 Z M 31.5,26.5 C 31.5,32.1667 31.5,37.8333 31.5,43.5C 36.4836,41.5923 41.3169,39.259 46,36.5C 46.772,36.6448 47.4387,36.9781 48,37.5C 47.6416,40.4939 45.8083,42.3272 42.5,43C 45.5,43.6667 48.5,43.6667 51.5,43C 55.8554,39.9865 60.5221,37.8199 65.5,36.5C 65.6495,37.552 65.4828,38.552 65,39.5C 57.8474,43.0902 58.6808,44.4235 67.5,43.5C 67.5,37.8333 67.5,32.1667 67.5,26.5C 55.5,26.5 43.5,26.5 31.5,26.5 Z"/></g>
<g><path style="opacity:0.895" fill="#202020" d="M 75.5,23.5 C 77.7925,23.2436 79.9592,23.5769 82,24.5C 83.9386,29.5271 83.9386,34.5271 82,39.5C 80.2111,41.229 78.0444,41.8957 75.5,41.5C 75.5,40.1667 75.5,38.8333 75.5,37.5C 78.9496,37.4274 80.283,35.5941 79.5,32C 79.7634,28.8143 78.4301,26.981 75.5,26.5C 75.5,25.5 75.5,24.5 75.5,23.5 Z"/></g>
<g><path style="opacity:1" fill="#273130" d="M 29.5,50.5 C 36.1584,49.3445 38.1584,51.8445 35.5,58C 28.7496,59.4689 26.7496,56.9689 29.5,50.5 Z"/></g>
<g><path style="opacity:1" fill="#222222" d="M 40.5,50.5 C 46.5368,50.1707 52.5368,50.5041 58.5,51.5C 55.5,51.8333 52.5,52.1667 49.5,52.5C 46.0866,52.483 43.0866,51.8164 40.5,50.5 Z"/></g>
<g><path style="opacity:1" fill="#262f2e" d="M 64.5,50.5 C 67.916,49.8663 69.916,51.1996 70.5,54.5C 69.6429,59.6712 67.1429,60.6712 63,57.5C 62.1668,54.829 62.6668,52.4957 64.5,50.5 Z"/></g>
<g><path style="opacity:1" fill="#41c8c1" d="M 31.5,53.5 C 34.9571,53.6672 35.2904,54.6672 32.5,56.5C 31.6143,55.675 31.281,54.675 31.5,53.5 Z"/></g>
<g><path style="opacity:1" fill="#3eb8b2" d="M 64.5,53.5 C 65.9778,53.238 67.3112,53.5713 68.5,54.5C 66.5365,57.1939 65.2032,56.8606 64.5,53.5 Z"/></g>
<g><path style="opacity:1" fill="#222222" d="M 40.5,56.5 C 46.5368,56.1707 52.5368,56.5041 58.5,57.5C 55.5,57.8333 52.5,58.1667 49.5,58.5C 46.0866,58.483 43.0866,57.8164 40.5,56.5 Z"/></g>
<g><path style="opacity:0.865" fill="#212121" d="M 23.5,62.5 C 40.8333,62.5 58.1667,62.5 75.5,62.5C 79.004,62.7921 80.6707,64.7921 80.5,68.5C 80.1559,72.1774 78.1559,74.1774 74.5,74.5C 74.5,76.1667 74.5,77.8333 74.5,79.5C 78.5,79.5 82.5,79.5 86.5,79.5C 86.5,80.5 86.5,81.5 86.5,82.5C 61.8333,82.5 37.1667,82.5 12.5,82.5C 12.5,81.5 12.5,80.5 12.5,79.5C 16.5,79.5 20.5,79.5 24.5,79.5C 24.5,77.8333 24.5,76.1667 24.5,74.5C 20.6667,74.1631 18.6667,71.9964 18.5,68C 18.5629,64.512 20.2295,62.6787 23.5,62.5 Z M 23.5,65.5 C 40.8365,65.3334 58.1699,65.5001 75.5,66C 76.3802,67.3561 76.7135,68.8561 76.5,70.5C 58.5,70.5 40.5,70.5 22.5,70.5C 22.366,68.7085 22.6993,67.0418 23.5,65.5 Z M 28.5,74.5 C 30.1667,74.5 31.8333,74.5 33.5,74.5C 34.1667,78.5 32.5,80.1667 28.5,79.5C 28.5,77.8333 28.5,76.1667 28.5,74.5 Z M 37.5,74.5 C 45.5,74.5 53.5,74.5 61.5,74.5C 61.2865,76.1439 61.6198,77.6439 62.5,79C 53.8142,79.8319 45.1475,79.6652 36.5,78.5C 37.2458,77.2638 37.5792,75.9305 37.5,74.5 Z M 65.5,74.5 C 67.1667,74.5 68.8333,74.5 70.5,74.5C 70.5,76.1667 70.5,77.8333 70.5,79.5C 66.5,80.1667 64.8333,78.5 65.5,74.5 Z"/></g>
</svg>
