<?xml version="1.0" encoding="UTF-8"?>
<!DOCTYPE svg PUBLIC "-//W3C//DTD SVG 1.1//EN" "http://www.w3.org/Graphics/SVG/1.1/DTD/svg11.dtd">
<svg xmlns="http://www.w3.org/2000/svg" version="1.1" width="100px" height="100px" style="shape-rendering:geometricPrecision; text-rendering:geometricPrecision; image-rendering:optimizeQuality; fill-rule:evenodd; clip-rule:evenodd" xmlns:xlink="http://www.w3.org/1999/xlink">
<g><path style="opacity:0.869" fill="#3e8886" d="M 14.5,2.5 C 25.5986,0.794377 33.0986,5.12771 37,15.5C 37.8739,30.6262 30.7072,37.7928 15.5,37C 3.67378,32.1769 -0.159552,23.6769 4,11.5C 6.4681,7.19869 9.9681,4.19869 14.5,2.5 Z"/></g>
<g><path style="opacity:0.902" fill="#3d8786" d="M 95.5,71.5 C 87.16,71.3336 78.8267,71.5003 70.5,72C 66.5071,74.8194 64.8404,78.6527 65.5,83.5C 67.5,83.5 69.5,83.5 71.5,83.5C 70.8748,80.0295 71.8748,77.1962 74.5,75C 81.4921,74.5004 88.4921,74.3337 95.5,74.5C 96.7911,75.5417 96.7911,76.7083 95.5,78C 90.5111,78.4993 85.5111,78.6659 80.5,78.5C 75.7333,77.2621 73.7333,79.2621 74.5,84.5C 81.5878,84.7955 88.5878,84.4621 95.5,83.5C 96.8333,84.8333 96.8333,86.1667 95.5,87.5C 64.8333,86.1667 34.1667,86.1667 3.5,87.5C 2.50698,79.0161 2.17364,70.3494 2.5,61.5C 7.83333,61.5 13.1667,61.5 18.5,61.5C 18.5,68.8333 18.5,76.1667 18.5,83.5C 20.8333,83.5 23.1667,83.5 25.5,83.5C 25.3337,76.4921 25.5004,69.4921 26,62.5C 35.3333,61.1667 44.6667,61.1667 54,62.5C 54.4996,69.4921 54.6663,76.4921 54.5,83.5C 56.8333,83.5 59.1667,83.5 61.5,83.5C 61.4851,77.3569 63.8184,72.1902 68.5,68C 70.4727,67.5045 72.4727,67.3379 74.5,67.5C 75.1249,57.3258 74.2916,47.3258 72,37.5C 67.6342,32.7993 62.9675,28.466 58,24.5C 54.8333,28.3333 51.6667,32.1667 48.5,36C 52.4476,38.7869 56.1143,41.7869 59.5,45C 57.8853,49.8479 55.8853,54.5146 53.5,59C 45.5849,59.0987 43.5849,55.7653 47.5,49C 38.1639,44.0669 33.6639,46.5669 34,56.5C 32.1153,58.02 29.9486,59.02 27.5,59.5C 24.7033,54.9734 22.37,50.1401 20.5,45C 27.7699,40.3003 34.2699,34.8003 40,28.5C 42.5,24.6667 45,20.8333 47.5,17C 46.2542,5.91673 51.2542,1.25006 62.5,3C 67.4525,6.06616 69.9525,10.5662 70,16.5C 73.5,20 77,23.5 80.5,27C 88.9342,26.5335 93.9342,30.3668 95.5,38.5C 92.5436,49.2952 92.8769,59.7952 96.5,70C 96.4301,70.7648 96.0967,71.2648 95.5,71.5 Z M 74.5,27.5 C 71.0105,26.6872 68.3438,24.6872 66.5,21.5C 66.8966,20.475 67.5632,20.3083 68.5,21C 70.7059,23.0367 72.7059,25.2034 74.5,27.5 Z M 51.5,23.5 C 49.8333,24.8333 48.1667,26.1667 46.5,27.5C 46.6681,23.6212 48.3348,22.2878 51.5,23.5 Z M 31.5,42.5 C 29.3963,44.3718 28.063,46.7052 27.5,49.5C 26.1522,48.4732 25.6522,47.1398 26,45.5C 27.7409,44.2423 29.5742,43.2423 31.5,42.5 Z M 51.5,43.5 C 55.0674,45.3676 55.4007,47.7009 52.5,50.5C 52.552,48.0971 52.2186,45.7638 51.5,43.5 Z M 89.5,49.5 C 89.5,54.1667 89.5,58.8333 89.5,63.5C 88.1667,62.5 86.8333,61.5 85.5,60.5C 85.7373,59.209 85.404,58.209 84.5,57.5C 84.5,56.5 84.5,55.5 84.5,54.5C 85.4345,53.4324 85.7678,52.099 85.5,50.5C 86.8333,50.1667 88.1667,49.8333 89.5,49.5 Z"/></g>
<g><path style="opacity:1" fill="#a2d6a6" d="M 16.5,5.5 C 31.7963,6.62243 36.6296,14.2891 31,28.5C 22.8945,35.4877 15.2278,35.1543 8,27.5C 3.87637,17.4216 6.70971,10.0883 16.5,5.5 Z"/></g>
<g><path style="opacity:1" fill="#73b798" d="M 54.5,5.5 C 62.7167,4.97594 66.2167,8.64261 65,16.5C 60.8292,22.729 56.1626,23.0623 51,17.5C 49.7452,12.7378 50.9119,8.73777 54.5,5.5 Z"/></g>
<g><path style="opacity:1" fill="#418a87" d="M 55.5,9.5 C 62.2248,9.20441 63.8915,11.8711 60.5,17.5C 53.4019,18.4567 51.7353,15.7901 55.5,9.5 Z"/></g>
<g><path style="opacity:1" fill="#458d89" d="M 14.5,12.5 C 20.2033,11.5566 25.2033,12.89 29.5,16.5C 29.1667,17.5 28.5,18.1667 27.5,18.5C 22.2986,14.534 17.132,14.534 12,18.5C 11.3076,17.9747 10.8076,17.3081 10.5,16.5C 11.8665,15.16 13.1999,13.8267 14.5,12.5 Z"/></g>
<g><path style="opacity:1" fill="#c3e79b" d="M 56.5,12.5 C 59.5476,12.494 60.0476,13.494 58,15.5C 56.9614,14.7562 56.4614,13.7562 56.5,12.5 Z"/></g>
<g><path style="opacity:1" fill="#408987" d="M 16.5,18.5 C 18.5273,18.3379 20.5273,18.5045 22.5,19C 23.9733,19.7096 24.6399,20.8762 24.5,22.5C 21.8004,21.484 19.1337,21.484 16.5,22.5C 15.3744,21.1916 15.3744,19.8583 16.5,18.5 Z"/></g>
<g><path style="opacity:0.939" fill="#c8ec9d" d="M 66.5,21.5 C 68.3438,24.6872 71.0105,26.6872 74.5,27.5C 75.9953,27.4148 76.9953,28.0815 77.5,29.5C 76.4182,31.7837 74.7516,32.9504 72.5,33C 69.6667,30.1667 66.8333,27.3333 64,24.5C 63.4808,22.5106 64.3141,21.5106 66.5,21.5 Z"/></g>
<g><path style="opacity:0.911" fill="#caec9d" d="M 51.5,23.5 C 52.2389,23.369 52.9056,23.5357 53.5,24C 51.1205,27.2576 48.6205,30.4242 46,33.5C 45.0975,32.2986 43.9308,31.4652 42.5,31C 43.5707,30.1482 44.5707,29.3149 45.5,28.5C 46.1667,28.5 46.5,28.1667 46.5,27.5C 48.1667,26.1667 49.8333,24.8333 51.5,23.5 Z"/></g>
<g><path style="opacity:1" fill="#73b898" d="M 81.5,30.5 C 90.3505,30.8637 93.1838,35.1971 90,43.5C 85.3366,47.7533 81.0032,47.42 77,42.5C 75.3087,37.1311 76.8087,33.1311 81.5,30.5 Z"/></g>
<g><path style="opacity:1" fill="#6eb396" d="M 38.5,33.5 C 44.0226,33.5619 45.856,36.2286 44,41.5C 39.7421,44.5806 36.9088,43.5806 35.5,38.5C 36.0924,36.5775 37.0924,34.9108 38.5,33.5 Z"/></g>
<g><path style="opacity:1" fill="#448c87" d="M 80.5,34.5 C 88.5432,34.0028 90.2099,36.8361 85.5,43C 83.2992,43.8249 81.4659,43.3249 80,41.5C 79.4436,39.1152 79.6103,36.7819 80.5,34.5 Z"/></g>
<g><path style="opacity:1" fill="#c6e99c" d="M 82.5,37.5 C 83.675,37.281 84.675,37.6143 85.5,38.5C 83.9483,39.7979 82.9483,39.4646 82.5,37.5 Z"/></g>
<g><path style="opacity:0.832" fill="#c7ea9b" d="M 51.5,43.5 C 52.2186,45.7638 52.552,48.0971 52.5,50.5C 52.762,51.9778 52.4287,53.3112 51.5,54.5C 50.6816,51.8929 50.1816,49.2263 50,46.5C 48.5806,45.5399 47.0806,44.7065 45.5,44C 46.2106,42.7453 47.044,41.5786 48,40.5C 49.0391,41.7101 50.2058,42.7101 51.5,43.5 Z"/></g>
<g><path style="opacity:0.627" fill="#bfe49b" d="M 32.5,41.5 C 35.1507,43.9587 34.484,45.6253 30.5,46.5C 29.3267,48.9791 29.3267,51.4791 30.5,54C 29.9896,55.8261 29.1562,55.9928 28,54.5C 27.5065,52.8659 27.3398,51.1992 27.5,49.5C 28.063,46.7052 29.3963,44.3718 31.5,42.5C 32.1667,42.5 32.5,42.1667 32.5,41.5 Z"/></g>
<g><path style="opacity:0.981" fill="#c6ea9c" d="M 84.5,54.5 C 84.5,55.5 84.5,56.5 84.5,57.5C 82.5864,60.6843 81.9197,64.351 82.5,68.5C 80.8333,68.5 79.1667,68.5 77.5,68.5C 77.3337,61.4921 77.5004,54.4921 78,47.5C 79.0852,48.2931 80.2519,48.9598 81.5,49.5C 82.0652,51.5435 83.0652,53.2102 84.5,54.5 Z"/></g>
<g><path style="opacity:0.212" fill="#c2e79a" d="M 89.5,49.5 C 88.1667,49.8333 86.8333,50.1667 85.5,50.5C 86.5383,48.4805 87.8716,48.1472 89.5,49.5 Z"/></g>
<g><path style="opacity:0.961" fill="#c5e99c" d="M 85.5,60.5 C 86.8333,61.5 88.1667,62.5 89.5,63.5C 90.3007,65.0418 90.634,66.7085 90.5,68.5C 88.8333,68.5 87.1667,68.5 85.5,68.5C 85.5,65.8333 85.5,63.1667 85.5,60.5 Z"/></g>
<g><path style="opacity:1" fill="#7fbb9b" d="M 6.5,65.5 C 6.5,71.5 6.5,77.5 6.5,83.5C 9.16667,83.5 11.8333,83.5 14.5,83.5C 14.5,77.5 14.5,71.5 14.5,65.5C 15.4902,71.6446 15.8235,77.9779 15.5,84.5C 12.1667,84.5 8.83333,84.5 5.5,84.5C 5.1765,77.9779 5.50984,71.6446 6.5,65.5 Z"/></g>
<g><path style="opacity:1" fill="#a7dba7" d="M 6.5,65.5 C 9.16667,65.5 11.8333,65.5 14.5,65.5C 14.5,71.5 14.5,77.5 14.5,83.5C 11.8333,83.5 9.16667,83.5 6.5,83.5C 6.5,77.5 6.5,71.5 6.5,65.5 Z"/></g>
<g><path style="opacity:1" fill="#a7daa7" d="M 50.5,65.5 C 50.5,71.5 50.5,77.5 50.5,83.5C 43.5,83.5 36.5,83.5 29.5,83.5C 29.5,77.5 29.5,71.5 29.5,65.5C 30.8333,65.5 32.1667,65.5 33.5,65.5C 32.5794,70.7445 34.7461,72.7445 40,71.5C 45.2539,72.7445 47.4206,70.7445 46.5,65.5C 47.8333,65.5 49.1667,65.5 50.5,65.5 Z"/></g>
<g><path style="opacity:1" fill="#add899" d="M 36.5,65.5 C 38.8333,65.5 41.1667,65.5 43.5,65.5C 43.5,66.5 43.5,67.5 43.5,68.5C 41.1667,68.5 38.8333,68.5 36.5,68.5C 36.5,67.5 36.5,66.5 36.5,65.5 Z"/></g>
<g><path style="opacity:0.983" fill="#78bc99" d="M 95.5,71.5 C 95.5,72.5 95.5,73.5 95.5,74.5C 88.4921,74.3337 81.4921,74.5004 74.5,75C 71.8748,77.1962 70.8748,80.0295 71.5,83.5C 69.5,83.5 67.5,83.5 65.5,83.5C 64.8404,78.6527 66.5071,74.8194 70.5,72C 78.8267,71.5003 87.16,71.3336 95.5,71.5 Z"/></g>
<g><path style="opacity:0.946" fill="#c1e59b" d="M 80.5,78.5 C 80.9175,79.2216 81.5842,79.7216 82.5,80C 86.8206,80.499 91.1539,80.6657 95.5,80.5C 95.5,81.5 95.5,82.5 95.5,83.5C 88.5878,84.4621 81.5878,84.7955 74.5,84.5C 73.7333,79.2621 75.7333,77.2621 80.5,78.5 Z"/></g>
<g><path style="opacity:1" fill="#71b196" d="M 50.5,65.5 C 51.4902,71.6446 51.8235,77.9779 51.5,84.5C 43.9809,84.825 36.6476,84.4916 29.5,83.5C 36.5,83.5 43.5,83.5 50.5,83.5C 50.5,77.5 50.5,71.5 50.5,65.5 Z"/></g>
<g><path style="opacity:0.985" fill="#73b798" d="M 95.5,87.5 C 95.5,89.5 95.5,91.5 95.5,93.5C 64.8333,93.5 34.1667,93.5 3.5,93.5C 3.5,91.5 3.5,89.5 3.5,87.5C 34.1667,86.1667 64.8333,86.1667 95.5,87.5 Z"/></g>
<g><path style="opacity:0.99" fill="#3a8585" d="M 3.5,93.5 C 34.1667,93.5 64.8333,93.5 95.5,93.5C 96.404,94.209 96.7373,95.209 96.5,96.5C 65.1667,96.5 33.8333,96.5 2.5,96.5C 2.26269,95.209 2.59603,94.209 3.5,93.5 Z"/></g>
</svg>
