<?xml version="1.0" encoding="UTF-8" standalone="no"?> <svg width="64" height="64" viewBox="0 0 64 64" fill="none" xmlns="http://www.w3.org/2000/svg">
<path d="M26 28L20 31L21 36L18 37L17.37 35.33C17.7285 35.0432 18.0179 34.6796 18.217 34.2659C18.4161 33.8522 18.5196 33.3991 18.52 32.94C18.5199 32.7319 18.4998 32.5243 18.46 32.32C18.3296 31.6526 18.4212 30.9609 18.721 30.3505C19.0207 29.7402 19.5121 29.2448 20.12 28.94L20.28 28.86C20.6187 28.6822 20.8859 28.3935 21.037 28.0421C21.1881 27.6907 21.2139 27.2981 21.11 26.93C21.0378 26.6252 21.0009 26.3132 21 26C20.9975 25.7037 21.0311 25.4082 21.1 25.12L26 22V28Z" fill="#CFF09E"/>
<path d="M34.93 34.53L34 37L31 36L32 31L26 28V22L30.9 25.12C30.9689 25.4082 31.0025 25.7037 31 26C31.0017 26.0701 30.9983 26.1403 30.99 26.21C30.967 26.5779 31.0523 26.9444 31.2354 27.2643C31.4184 27.5842 31.6912 27.8434 32.02 28.01C32.508 28.2629 32.9145 28.6488 33.1923 29.1231C33.4701 29.5974 33.608 30.1406 33.59 30.69C33.5899 30.9114 33.5698 31.1323 33.53 31.35C33.4121 31.9595 33.483 32.5905 33.7331 33.1588C33.9833 33.727 34.4008 34.2053 34.93 34.53V34.53Z" fill="#CFF09E"/>
<path d="M38 13L28 26L24 24L26.87 19.54C27.7901 19.6352 28.7193 19.4941 29.5697 19.1302C30.4201 18.7662 31.1636 18.1914 31.73 17.46L33.72 14.86C32.6419 14.6288 31.6506 14.0986 30.86 13.33L33 10L38 13Z" fill="#CFF09E"/>
<path d="M55.9 23.66L51.66 27.9L36.1 12.34L40.34 8.09998L42.99 10.75C42.9985 10.833 43.0018 10.9165 43 11C43.0056 12.1617 42.6682 13.2992 42.03 14.27L44.83 17.07C45.4772 17.7171 46.3274 18.122 47.2378 18.2167C48.1481 18.3114 49.0634 18.0901 49.83 17.59L55.9 23.66Z" fill="#CFF09E"/>
<path d="M54 32.91V36C53.9994 37.4174 54.5015 38.7891 55.417 39.8712C56.3325 40.9533 57.6021 41.6757 59 41.91V45H49V25H59V27C58.9986 28.4169 58.4958 29.7875 57.5806 30.8692C56.6655 31.9509 55.3971 32.6739 54 32.91Z" fill="#CFF09E"/>
<path d="M61 55H3V61H61V55Z" fill="#79BD9A"/>
<path d="M61 45V49H49L47 51V55H41V50L45 45H61Z" fill="#79BD9A"/>
<path d="M54 31C57.3137 31 60 28.3137 60 25C60 21.6863 57.3137 19 54 19C50.6863 19 48 21.6863 48 25C48 28.3137 50.6863 31 54 31Z" fill="#79BD9A"/>
<path d="M54 27C55.1046 27 56 26.1046 56 25C56 23.8954 55.1046 23 54 23C52.8954 23 52 23.8954 52 25C52 26.1046 52.8954 27 54 27Z" fill="#CFF09E"/>
<path d="M37 15C40.3137 15 43 12.3137 43 9C43 5.68629 40.3137 3 37 3C33.6863 3 31 5.68629 31 9C31 12.3137 33.6863 15 37 15Z" fill="#79BD9A"/>
<path d="M37 11C38.1046 11 39 10.1046 39 9C39 7.89543 38.1046 7 37 7C35.8954 7 35 7.89543 35 9C35 10.1046 35.8954 11 37 11Z" fill="#CFF09E"/>
<path d="M26 29C28.2091 29 30 27.2091 30 25C30 22.7909 28.2091 21 26 21C23.7909 21 22 22.7909 22 25C22 27.2091 23.7909 29 26 29Z" fill="#79BD9A"/>
<path d="M34 41H18V55H34V41Z" fill="#A8DBA8"/>
<path d="M29 41H23V45H29V41Z" fill="#CFF09E"/>
<path d="M11 41H3V55H11V41Z" fill="#A8DBA8"/>
<path d="M13 23C18.5228 23 23 18.5228 23 13C23 7.47715 18.5228 3 13 3C7.47715 3 3 7.47715 3 13C3 18.5228 7.47715 23 13 23Z" fill="#A8DBA8"/>
<path d="M61 52V55H47V51L49 49H51C51 49.7956 51.3161 50.5587 51.8787 51.1213C52.4413 51.6839 53.2044 52 54 52H61Z" fill="#CFF09E"/>
<path d="M61 60H3C2.73478 60 2.48043 60.1054 2.29289 60.2929C2.10536 60.4804 2 60.7348 2 61C2 61.2652 2.10536 61.5196 2.29289 61.7071C2.48043 61.8946 2.73478 62 3 62H61C61.2652 62 61.5196 61.8946 61.7071 61.7071C61.8946 61.5196 62 61.2652 62 61C62 60.7348 61.8946 60.4804 61.7071 60.2929C61.5196 60.1054 61.2652 60 61 60Z" fill="#3B8686"/>
<path d="M54 28C54.5933 28 55.1734 27.8241 55.6667 27.4944C56.1601 27.1648 56.5446 26.6962 56.7716 26.1481C56.9987 25.5999 57.0581 24.9967 56.9424 24.4147C56.8266 23.8328 56.5409 23.2982 56.1213 22.8787C55.7018 22.4591 55.1672 22.1734 54.5853 22.0576C54.0033 21.9419 53.4001 22.0013 52.852 22.2284C52.3038 22.4554 51.8352 22.8399 51.5056 23.3333C51.1759 23.8266 51 24.4067 51 25C51 25.7957 51.3161 26.5587 51.8787 27.1213C52.4413 27.6839 53.2044 28 54 28V28ZM54 24C54.1978 24 54.3911 24.0586 54.5556 24.1685C54.72 24.2784 54.8482 24.4346 54.9239 24.6173C54.9996 24.8 55.0194 25.0011 54.9808 25.1951C54.9422 25.3891 54.847 25.5673 54.7071 25.7071C54.5673 25.847 54.3891 25.9422 54.1951 25.9808C54.0011 26.0194 53.8 25.9996 53.6173 25.9239C53.4346 25.8482 53.2784 25.72 53.1685 25.5556C53.0586 25.3911 53 25.1978 53 25C53 24.7348 53.1054 24.4804 53.2929 24.2929C53.4804 24.1054 53.7348 24 54 24Z" fill="#3B8686"/>
<path d="M37.389 6C36.7956 6 36.2156 6.17595 35.7223 6.50559C35.2289 6.83524 34.8444 7.30377 34.6173 7.85195C34.3903 8.40013 34.3309 9.00333 34.4466 9.58527C34.5624 10.1672 34.8481 10.7018 35.2677 11.1213C35.6872 11.5409 36.2218 11.8266 36.8037 11.9424C37.3857 12.0581 37.9889 11.9987 38.537 11.7716C39.0852 11.5446 39.5537 11.1601 39.8834 10.6667C40.213 10.1734 40.389 9.59334 40.389 9C40.389 8.20435 40.0729 7.44129 39.5103 6.87868C38.9477 6.31607 38.1846 6 37.389 6ZM37.389 10C37.1912 10 36.9979 9.94135 36.8334 9.83147C36.669 9.72159 36.5408 9.56541 36.4651 9.38268C36.3894 9.19996 36.3696 8.99889 36.4082 8.80491C36.4468 8.61093 36.542 8.43275 36.6819 8.29289C36.8217 8.15304 36.9999 8.0578 37.1939 8.01921C37.3879 7.98063 37.5889 8.00043 37.7717 8.07612C37.9544 8.15181 38.1106 8.27998 38.2204 8.44443C38.3303 8.60888 38.389 8.80222 38.389 9C38.389 9.26522 38.2836 9.51957 38.0961 9.70711C37.9085 9.89464 37.6542 10 37.389 10Z" fill="#3B8686"/>
<path d="M26 26C26.5523 26 27 25.5523 27 25C27 24.4477 26.5523 24 26 24C25.4477 24 25 24.4477 25 25C25 25.5523 25.4477 26 26 26Z" fill="#3B8686"/>
<path d="M13 24C15.1756 24 17.3023 23.3549 19.1113 22.1462C20.9202 20.9375 22.3301 19.2195 23.1627 17.2095C23.9952 15.1995 24.2131 12.9878 23.7886 10.854C23.3642 8.72022 22.3166 6.76021 20.7782 5.22183C19.2398 3.68345 17.2798 2.6358 15.146 2.21137C13.0122 1.78693 10.8005 2.00477 8.79048 2.83733C6.7805 3.66989 5.06253 5.07979 3.85383 6.88873C2.64514 8.69767 2 10.8244 2 13C2.00344 15.9163 3.16347 18.7122 5.22563 20.7744C7.28778 22.8365 10.0837 23.9966 13 24ZM13 4.00001C14.78 4.00001 16.5201 4.52785 18.0001 5.51678C19.4802 6.50571 20.6337 7.91132 21.3149 9.55585C21.9961 11.2004 22.1743 13.01 21.8271 14.7558C21.4798 16.5016 20.6226 18.1053 19.364 19.364C18.1053 20.6226 16.5016 21.4798 14.7558 21.8271C13.01 22.1743 11.2004 21.9961 9.55585 21.3149C7.91131 20.6337 6.50571 19.4802 5.51677 18.0001C4.52784 16.5201 4 14.78 4 13C4.00291 10.614 4.95206 8.32646 6.63925 6.63926C8.32645 4.95206 10.6139 4.00292 13 4.00001V4.00001Z" fill="#3B8686"/>
<path d="M10.172 13.172C9.98985 13.3606 9.88906 13.6132 9.89133 13.8754C9.89361 14.1376 9.99878 14.3884 10.1842 14.5738C10.3696 14.7592 10.6204 14.8644 10.8826 14.8667C11.1448 14.869 11.3974 14.7682 11.586 14.586C11.9669 14.2222 12.4733 14.0191 13 14.0191C13.5267 14.0191 14.0332 14.2222 14.414 14.586C14.6026 14.7682 14.8552 14.869 15.1174 14.8667C15.3796 14.8644 15.6304 14.7592 15.8158 14.5738C16.0012 14.3884 16.1064 14.1376 16.1087 13.8754C16.111 13.6132 16.0102 13.3606 15.828 13.172C15.0664 12.4441 14.0535 12.0379 13 12.0379C11.9465 12.0379 10.9336 12.4441 10.172 13.172Z" fill="#3B8686"/>
<path d="M8.75703 11.757C9.31419 11.1997 9.97567 10.7577 10.7037 10.4561C11.4317 10.1545 12.212 9.99927 13 9.99927C13.788 9.99927 14.5683 10.1545 15.2964 10.4561C16.0244 10.7577 16.6859 11.1997 17.243 11.757C17.3353 11.8525 17.4456 11.9287 17.5676 11.9811C17.6896 12.0335 17.8208 12.0611 17.9536 12.0622C18.0864 12.0634 18.2181 12.0381 18.341 11.9878C18.4639 11.9375 18.5755 11.8633 18.6694 11.7694C18.7633 11.6755 18.8376 11.5638 18.8878 11.4409C18.9381 11.318 18.9634 11.1864 18.9623 11.0536C18.9611 10.9208 18.9335 10.7896 18.8811 10.6676C18.8287 10.5456 18.7525 10.4352 18.657 10.343C17.9142 9.60007 17.0322 9.01076 16.0616 8.6087C15.091 8.20663 14.0506 7.99969 13 7.99969C11.9494 7.99969 10.9091 8.20663 9.93847 8.6087C8.96783 9.01076 8.0859 9.60007 7.34303 10.343C7.16087 10.5316 7.06008 10.7842 7.06235 11.0464C7.06463 11.3086 7.1698 11.5594 7.35521 11.7448C7.54062 11.9302 7.79143 12.0354 8.05363 12.0377C8.31582 12.0399 8.56843 11.9391 8.75703 11.757V11.757Z" fill="#3B8686"/>
<path d="M13 18C13.5523 18 14 17.5523 14 17C14 16.4477 13.5523 16 13 16C12.4477 16 12 16.4477 12 17C12 17.5523 12.4477 18 13 18Z" fill="#3B8686"/>
<path d="M49.414 50H61C61.2652 50 61.5196 49.8947 61.7071 49.7071C61.8946 49.5196 62 49.2652 62 49C62 48.7348 61.8946 48.4804 61.7071 48.2929C61.5196 48.1054 61.2652 48 61 48H49C48.7348 48.0001 48.4805 48.1055 48.293 48.293L46.293 50.293C46.1054 50.4805 46.0001 50.7348 46 51V54H42V50.351L45.48 46H61C61.2652 46 61.5196 45.8947 61.7071 45.7071C61.8946 45.5196 62 45.2652 62 45C62 44.7348 61.8946 44.4804 61.7071 44.2929C61.5196 44.1054 61.2652 44 61 44H60V28.587C60.727 27.375 61.0696 25.9711 60.9826 24.5605C60.8956 23.1498 60.383 21.7987 59.5126 20.6852C58.6421 19.5717 57.4546 18.7482 56.1067 18.3233C54.7587 17.8984 53.3136 17.892 51.962 18.305L44.209 10.552C44.4551 9.48561 44.4476 8.37638 44.1874 7.31337C43.9271 6.25036 43.4211 5.26319 42.7102 4.43112C41.9993 3.59905 41.1032 2.94526 40.0939 2.52225C39.0845 2.09923 37.99 1.91878 36.8983 1.99538C35.8066 2.07197 34.748 2.40349 33.8076 2.9633C32.8672 3.52311 32.0712 4.29562 31.4834 5.21881C30.8956 6.14199 30.5325 7.19013 30.4232 8.27907C30.3139 9.36802 30.4615 10.4674 30.854 11.489L25.34 20.067C24.3283 20.2007 23.3819 20.6414 22.6284 21.3296C21.8749 22.0178 21.3505 22.9205 21.126 23.916L14.463 28.156C14.2682 28.2793 14.1221 28.4661 14.0492 28.6847C13.9763 28.9034 13.9812 29.1405 14.063 29.356L17.063 37.356C17.1353 37.5458 17.2637 37.7091 17.4311 37.8241C17.5985 37.9392 17.7969 38.0005 18 38C18.1074 37.9997 18.214 37.9825 18.316 37.949L21.316 36.949C21.548 36.8718 21.7437 36.7122 21.8661 36.5005C21.9884 36.2888 22.0289 36.0396 21.98 35.8L21.13 31.549L24.652 29.788C25.5305 30.0662 26.4735 30.0662 27.352 29.788L30.874 31.549L30.02 35.8C29.9721 36.039 30.0132 36.2872 30.1355 36.4981C30.2577 36.7089 30.4528 36.8679 30.684 36.945L33.684 37.945C33.7858 37.9798 33.8924 37.9983 34 38C34.2037 38.0001 34.4026 37.9381 34.57 37.8221C34.7375 37.7061 34.8655 37.5417 34.937 37.351L37.937 29.351C38.0188 29.1355 38.0237 28.8984 37.9508 28.6797C37.8779 28.4611 37.7318 28.2743 37.537 28.151L30.874 23.911V23.902L36.974 15.974C37.113 15.982 37.251 15.995 37.393 15.995C37.691 15.9928 37.9886 15.9717 38.284 15.932L47.021 24.668C47.015 24.777 47.004 24.885 47.004 24.995C47.005 26.2594 47.3507 27.4995 48.004 28.582V44H45C44.85 44 44.702 44.0336 44.5668 44.0985C44.4316 44.1634 44.3127 44.2579 44.219 44.375L40.219 49.375C40.0771 49.5524 39.9999 49.7728 40 50V54H35V41C35 40.7348 34.8946 40.4804 34.7071 40.2929C34.5196 40.1054 34.2652 40 34 40H18C17.7348 40 17.4804 40.1054 17.2929 40.2929C17.1054 40.4804 17 40.7348 17 41V54H12V41C12 40.7348 11.8946 40.4804 11.7071 40.2929C11.5196 40.1054 11.2652 40 11 40H3C2.73478 40 2.48043 40.1054 2.29289 40.2929C2.10536 40.4804 2 40.7348 2 41V55C2 55.2652 2.10536 55.5196 2.29289 55.7071C2.48043 55.8947 2.73478 56 3 56H61C61.2652 56 61.5196 55.8947 61.7071 55.7071C61.8946 55.5196 62 55.2652 62 55C62 54.7348 61.8946 54.4804 61.7071 54.2929C61.5196 54.1054 61.2652 54 61 54H48V51.414L49.414 50ZM59 25C59 25.9889 58.7068 26.9556 58.1573 27.7779C57.6079 28.6001 56.827 29.241 55.9134 29.6194C54.9998 29.9978 53.9945 30.0969 53.0245 29.9039C52.0546 29.711 51.1637 29.2348 50.4645 28.5355C49.7652 27.8363 49.289 26.9454 49.0961 25.9755C48.9031 25.0056 49.0022 24.0002 49.3806 23.0866C49.759 22.173 50.3999 21.3921 51.2221 20.8427C52.0444 20.2933 53.0111 20 54 20C55.3256 20.0016 56.5964 20.5289 57.5338 21.4662C58.4711 22.4036 58.9984 23.6744 59 25V25ZM19.553 30.105C19.356 30.2034 19.197 30.364 19.1006 30.562C19.0042 30.76 18.9759 30.9843 19.02 31.2L19.846 35.335L18.598 35.751L16.221 29.412L21.179 26.257C21.4094 27.1535 21.8852 27.968 22.553 28.609L19.553 30.105ZM23 25C23 24.4067 23.1759 23.8266 23.5056 23.3333C23.8352 22.84 24.3038 22.4554 24.8519 22.2284C25.4001 22.0013 26.0033 21.9419 26.5853 22.0577C27.1672 22.1734 27.7018 22.4591 28.1213 22.8787C28.5409 23.2982 28.8266 23.8328 28.9424 24.4147C29.0581 24.9967 28.9987 25.5999 28.7716 26.1481C28.5446 26.6962 28.1601 27.1648 27.6667 27.4944C27.1734 27.8241 26.5933 28 26 28C25.2044 28 24.4413 27.6839 23.8787 27.1213C23.3161 26.5587 23 25.7957 23 25V25ZM33.4 35.747L32.152 35.331L32.98 31.2C33.0232 30.9849 32.9944 30.7615 32.898 30.5644C32.8017 30.3672 32.6432 30.2072 32.447 30.109L29.447 28.609C30.1148 27.968 30.5906 27.1535 30.821 26.257L35.779 29.412L33.4 35.747ZM29.892 21.9C29.2935 21.1486 28.4906 20.586 27.58 20.28L31.98 13.437C32.7347 14.3531 33.7094 15.0629 34.813 15.5L29.892 21.9ZM32.389 9.00001C32.389 8.0111 32.6822 7.0444 33.2317 6.22216C33.7811 5.39991 34.562 4.75905 35.4756 4.38061C36.3892 4.00217 37.3945 3.90315 38.3645 4.09608C39.3344 4.28901 40.2253 4.76521 40.9245 5.46447C41.6238 6.16374 42.1 7.05465 42.2929 8.02456C42.4859 8.99446 42.3868 9.99979 42.0084 10.9134C41.63 11.8271 40.9891 12.6079 40.1669 13.1574C39.3446 13.7068 38.3779 14 37.389 14C36.0634 13.9984 34.7926 13.4711 33.8552 12.5338C32.9179 11.5964 32.3906 10.3256 32.389 9.00001V9.00001ZM40.455 15.283C41.6785 14.6827 42.7016 13.7403 43.4 12.57L50.054 19.224C48.9246 19.9984 48.0457 21.0855 47.525 22.352L40.455 15.283ZM50 30.736C50.8932 31.3607 51.9209 31.7663 53 31.92V34C53 34.2652 53.1054 34.5196 53.2929 34.7071C53.4804 34.8947 53.7348 35 54 35C54.2652 35 54.5196 34.8947 54.7071 34.7071C54.8946 34.5196 55 34.2652 55 34V31.92C56.0791 31.7663 57.1068 31.3607 58 30.736V44H55V38C55 37.7348 54.8946 37.4804 54.7071 37.2929C54.5196 37.1054 54.2652 37 54 37C53.7348 37 53.4804 37.1054 53.2929 37.2929C53.1054 37.4804 53 37.7348 53 38V44H50V30.736ZM28 42V44H24V42H28ZM4 42H10V54H4V42ZM19 54V42H22V45C22 45.2652 22.1054 45.5196 22.2929 45.7071C22.4804 45.8947 22.7348 46 23 46H29C29.2652 46 29.5196 45.8947 29.7071 45.7071C29.8946 45.5196 30 45.2652 30 45V42H33V54H19Z" fill="#3B8686"/>
</svg>
