<?xml version="1.0" encoding="UTF-8"?>
<!DOCTYPE svg PUBLIC "-//W3C//DTD SVG 1.1//EN" "http://www.w3.org/Graphics/SVG/1.1/DTD/svg11.dtd">
<svg xmlns="http://www.w3.org/2000/svg" version="1.1" width="100px" height="100px" style="shape-rendering:geometricPrecision; text-rendering:geometricPrecision; image-rendering:optimizeQuality; fill-rule:evenodd; clip-rule:evenodd" xmlns:xlink="http://www.w3.org/1999/xlink">
<g><path style="opacity:0.884" fill="#0f3c69" d="M 63.5,96.5 C 63.3337,89.825 63.5004,83.1583 64,76.5C 78.8044,63.0911 85.1377,46.4244 83,26.5C 78.3178,12.6556 68.6511,5.65558 54,5.5C 35.3774,6.78923 25.3774,16.7892 24,35.5C 21.3653,40.2983 18.5319,44.9649 15.5,49.5C 18.3664,50.208 21.1997,50.8747 24,51.5C 24.0699,58.9385 24.7365,66.2718 26,73.5C 29,74.1667 32,74.8333 35,75.5C 35.4996,82.4921 35.6663,89.4921 35.5,96.5C 34.1667,96.5 32.8333,96.5 31.5,96.5C 31.5,90.5 31.5,84.5 31.5,78.5C 26.3679,78.5231 22.8679,76.1897 21,71.5C 20.5006,65.8431 20.3339,60.1764 20.5,54.5C 17.3148,54.9804 14.4815,54.3137 12,52.5C 11.3333,51.1667 11.3333,49.8333 12,48.5C 14.6667,43.8333 17.3333,39.1667 20,34.5C 24.6506,8.87194 39.8173,-1.29473 65.5,4C 82.3299,10.8138 89.4965,23.3138 87,41.5C 84.8637,55.7751 78.5304,67.7751 68,77.5C 67.5005,83.8246 67.3338,90.1579 67.5,96.5C 66.1667,96.5 64.8333,96.5 63.5,96.5 Z"/></g>
<g><path style="opacity:1" fill="#3c6cb0" d="M 63.5,96.5 C 54.1667,96.5 44.8333,96.5 35.5,96.5C 35.6663,89.4921 35.4996,82.4921 35,75.5C 32,74.8333 29,74.1667 26,73.5C 24.7365,66.2718 24.0699,58.9385 24,51.5C 21.1997,50.8747 18.3664,50.208 15.5,49.5C 18.5319,44.9649 21.3653,40.2983 24,35.5C 25.3774,16.7892 35.3774,6.78923 54,5.5C 68.6511,5.65558 78.3178,12.6556 83,26.5C 85.1377,46.4244 78.8044,63.0911 64,76.5C 63.5004,83.1583 63.3337,89.825 63.5,96.5 Z"/></g>
<g><path style="opacity:1" fill="#154271" d="M 69.5,35.5 C 68.596,34.791 68.2627,33.791 68.5,32.5C 59.1667,32.5 49.8333,32.5 40.5,32.5C 40.5,41.8333 40.5,51.1667 40.5,60.5C 49.5062,60.6664 58.5062,60.4998 67.5,60C 68.0659,59.0053 68.7326,58.172 69.5,57.5C 71.9599,59.4037 71.6265,61.2371 68.5,63C 58.8333,63.6667 49.1667,63.6667 39.5,63C 38.6667,62.1667 37.8333,61.3333 37,60.5C 36.1927,50.7857 36.3594,41.1191 37.5,31.5C 38.0253,30.8076 38.6919,30.3076 39.5,30C 45.4908,29.5005 51.4908,29.3338 57.5,29.5C 58.0065,25.9929 57.3398,22.8263 55.5,20C 54.2161,19.3162 53.0495,19.4829 52,20.5C 51.5065,22.1341 51.3398,23.8008 51.5,25.5C 48.1667,25.5 44.8333,25.5 41.5,25.5C 42.6275,12.4372 49.2942,8.27058 61.5,13C 66.0964,17.4835 67.763,22.9835 66.5,29.5C 71.4429,30.0688 72.4429,32.0688 69.5,35.5 Z"/></g>
<g><path style="opacity:1" fill="#619bed" d="M 50.5,13.5 C 61.3324,13.3452 65.6658,18.6785 63.5,29.5C 62.5,29.5 61.5,29.5 60.5,29.5C 61.4979,24.4645 60.1646,20.2978 56.5,17C 54.3646,16.3653 52.3646,16.6986 50.5,18C 49.2744,19.6349 47.941,21.1349 46.5,22.5C 45.351,18.46 46.6844,15.46 50.5,13.5 Z"/></g>
<g><path style="opacity:1" fill="#103d6b" d="M 34.5,17.5 C 36.2959,18.7927 37.9625,20.2927 39.5,22C 37.2733,23.8355 35.4399,23.3355 34,20.5C 33.5304,19.4232 33.6971,18.4232 34.5,17.5 Z"/></g>
<g><path style="opacity:1" fill="#14416f" d="M 29.5,24.5 C 32.0545,25.388 34.7212,25.7214 37.5,25.5C 37.7778,27.3464 37.1112,28.6798 35.5,29.5C 33.8333,28.8333 32.1667,28.1667 30.5,27.5C 29.6143,26.675 29.281,25.675 29.5,24.5 Z"/></g>
<g><path style="opacity:1" fill="#65a0f4" d="M 69.5,35.5 C 69.5,36.5 69.5,37.5 69.5,38.5C 68.5,38.5 67.5,38.5 66.5,38.5C 66.5,39.5 66.5,40.5 66.5,41.5C 67.5,41.5 68.5,41.5 69.5,41.5C 69.5,42.5 69.5,43.5 69.5,44.5C 69.5,45.5 69.5,46.5 69.5,47.5C 69.5,48.5 69.5,49.5 69.5,50.5C 68.5,50.5 67.5,50.5 66.5,50.5C 66.5,51.8333 66.5,53.1667 66.5,54.5C 67.5,54.5 68.5,54.5 69.5,54.5C 69.5,55.5 69.5,56.5 69.5,57.5C 68.7326,58.172 68.0659,59.0053 67.5,60C 58.5062,60.4998 49.5062,60.6664 40.5,60.5C 40.5,51.1667 40.5,41.8333 40.5,32.5C 49.8333,32.5 59.1667,32.5 68.5,32.5C 68.2627,33.791 68.596,34.791 69.5,35.5 Z"/></g>
<g><path style="opacity:1" fill="#144271" d="M 50.5,35.5 C 60.3594,34.5347 65.1927,38.8681 65,48.5C 62.6067,55.5696 57.7734,58.403 50.5,57C 44.3974,53.9596 42.2307,49.1263 44,42.5C 45.6941,39.6424 47.8607,37.309 50.5,35.5 Z"/></g>
<g><path style="opacity:1" fill="#4983d6" d="M 51.5,38.5 C 59.6415,38.4805 62.8081,42.4805 61,50.5C 55.8374,56.0623 51.1708,55.729 47,49.5C 45.7758,44.626 47.2758,40.9593 51.5,38.5 Z"/></g>
<g><path style="opacity:1" fill="#103d6a" d="M 69.5,38.5 C 72.1667,38.5 74.8333,38.5 77.5,38.5C 77.5,39.5 77.5,40.5 77.5,41.5C 74.8333,41.5 72.1667,41.5 69.5,41.5C 68.5,41.5 67.5,41.5 66.5,41.5C 66.5,40.5 66.5,39.5 66.5,38.5C 67.5,38.5 68.5,38.5 69.5,38.5 Z"/></g>
<g><path style="opacity:1" fill="#12406e" d="M 52.5,41.5 C 53.5,41.5 54.5,41.5 55.5,41.5C 56.2114,45.2807 55.0447,48.2807 52,50.5C 51.3076,49.9747 50.8076,49.3081 50.5,48.5C 52.1713,46.4902 52.838,44.1569 52.5,41.5 Z"/></g>
<g><path style="opacity:1" fill="#164373" d="M 69.5,44.5 C 72.8333,44.5 76.1667,44.5 79.5,44.5C 79.5,45.8333 79.5,47.1667 79.5,48.5C 76.0613,48.7471 72.728,48.4137 69.5,47.5C 69.5,46.5 69.5,45.5 69.5,44.5 Z"/></g>
<g><path style="opacity:1" fill="#0f3b68" d="M 67.5,51.5 C 70.2469,51.1866 72.9135,51.52 75.5,52.5C 74.1667,52.8333 72.8333,53.1667 71.5,53.5C 69.6672,53.4146 68.3339,52.7479 67.5,51.5 Z"/></g>
</svg>
