<?xml version="1.0" encoding="UTF-8"?>
<!DOCTYPE svg PUBLIC "-//W3C//DTD SVG 1.1//EN" "http://www.w3.org/Graphics/SVG/1.1/DTD/svg11.dtd">
<svg xmlns="http://www.w3.org/2000/svg" version="1.1" width="100px" height="100px" style="shape-rendering:geometricPrecision; text-rendering:geometricPrecision; image-rendering:optimizeQuality; fill-rule:evenodd; clip-rule:evenodd" xmlns:xlink="http://www.w3.org/1999/xlink">
<g><path style="opacity:0.937" fill="#438deb" d="M 78.5,16.5 C 75.2869,16.19 72.2869,16.5233 69.5,17.5C 60.3246,10.704 50.3246,9.03732 39.5,12.5C 35.3656,11.5151 31.0323,11.1818 26.5,11.5C 30.6108,7.44444 35.6108,4.94444 41.5,4C 56.3036,1.32268 68.6369,5.48934 78.5,16.5 Z"/></g>
<g><path style="opacity:0.946" fill="#4084ec" d="M 26.5,11.5 C 31.0323,11.1818 35.3656,11.5151 39.5,12.5C 33.406,14.2723 28.406,17.6056 24.5,22.5C 21.8333,22.5 19.1667,22.5 16.5,22.5C 18.4416,17.5588 21.7749,13.8922 26.5,11.5 Z"/></g>
<g><path style="opacity:0.948" fill="#367dec" d="M 78.5,16.5 C 82.7844,21.398 85.7844,27.0647 87.5,33.5C 84.6904,31.822 82.357,32.1553 80.5,34.5C 78.122,28.0968 74.4553,22.4302 69.5,17.5C 72.2869,16.5233 75.2869,16.19 78.5,16.5 Z"/></g>
<g><path style="opacity:0.934" fill="#3174ec" d="M 16.5,22.5 C 19.1667,22.5 21.8333,22.5 24.5,22.5C 20.6024,27.8541 18.2691,33.8541 17.5,40.5C 15.3926,41.4682 13.0593,41.8016 10.5,41.5C 10.6917,36.7299 11.5251,32.0633 13,27.5C 13.6972,25.4156 14.8639,23.7489 16.5,22.5 Z"/></g>
<g><path style="opacity:0.938" fill="#276bec" d="M 87.5,33.5 C 88.0916,36.1272 88.4249,38.7938 88.5,41.5C 85.9407,41.8016 83.6074,41.4682 81.5,40.5C 80.8505,38.5648 80.5172,36.5648 80.5,34.5C 82.357,32.1553 84.6904,31.822 87.5,33.5 Z"/></g>
<g><path style="opacity:0.971" fill="#6abefa" d="M 54.5,38.5 C 54.6107,39.1174 54.944,39.6174 55.5,40C 52.9614,42.3697 50.6281,44.8697 48.5,47.5C 45.5,47.5 42.5,47.5 39.5,47.5C 39.5,48.8333 39.5,50.1667 39.5,51.5C 40.5,51.5 41.5,51.5 42.5,51.5C 41.7101,52.7942 40.7101,53.9609 39.5,55C 39.7284,55.3988 40.0618,55.5654 40.5,55.5C 39.7659,56.7079 39.4326,58.0413 39.5,59.5C 44.5,59.5 49.5,59.5 54.5,59.5C 47.8086,59.812 42.4753,62.812 38.5,68.5C 34.9103,68.4559 32.4103,66.7892 31,63.5C 30.0722,56.0598 30.4055,48.7265 32,41.5C 33.4194,40.5399 34.9194,39.7065 36.5,39C 42.4908,38.5005 48.4908,38.3338 54.5,38.5 Z"/></g>
<g><path style="opacity:0.958" fill="#438deb" d="M 17.5,40.5 C 18.791,40.2627 19.791,40.596 20.5,41.5C 18.8235,42.1834 18.1568,43.5168 18.5,45.5C 17.596,46.209 17.2627,47.209 17.5,48.5C 12.8333,48.5 8.16667,48.5 3.5,48.5C 4.85523,45.1447 7.18856,42.8114 10.5,41.5C 13.0593,41.8016 15.3926,41.4682 17.5,40.5 Z"/></g>
<g><path style="opacity:0.95" fill="#5bb2f8" d="M 54.5,38.5 C 60.1139,37.4137 64.6139,39.0803 68,43.5C 68.6667,50.1667 68.6667,56.8333 68,63.5C 67.1667,65.6667 65.6667,67.1667 63.5,68C 58.8333,68.3333 54.1667,68.6667 49.5,69C 47.1311,72.2258 44.1311,74.3924 40.5,75.5C 41.0102,72.6122 40.3435,70.2789 38.5,68.5C 42.4753,62.812 47.8086,59.812 54.5,59.5C 55.7911,58.4583 55.7911,57.2917 54.5,56C 49.8452,55.5008 45.1785,55.3342 40.5,55.5C 40.0618,55.5654 39.7284,55.3988 39.5,55C 40.7101,53.9609 41.7101,52.7942 42.5,51.5C 48.1667,51.5 53.8333,51.5 59.5,51.5C 59.5,50.1667 59.5,48.8333 59.5,47.5C 55.8333,47.5 52.1667,47.5 48.5,47.5C 50.6281,44.8697 52.9614,42.3697 55.5,40C 54.944,39.6174 54.6107,39.1174 54.5,38.5 Z"/></g>
<g><path style="opacity:0.978" fill="#428deb" d="M 78.5,41.5 C 79.209,40.596 80.209,40.2627 81.5,40.5C 83.6074,41.4682 85.9407,41.8016 88.5,41.5C 91.8114,42.8114 94.1448,45.1447 95.5,48.5C 90.8333,48.5 86.1667,48.5 81.5,48.5C 81.7373,47.209 81.404,46.209 80.5,45.5C 80.8432,43.5168 80.1765,42.1834 78.5,41.5 Z"/></g>
<g><path style="opacity:1" fill="#eff2f3" d="M 48.5,47.5 C 52.1667,47.5 55.8333,47.5 59.5,47.5C 59.5,48.8333 59.5,50.1667 59.5,51.5C 53.8333,51.5 48.1667,51.5 42.5,51.5C 41.5,51.5 40.5,51.5 39.5,51.5C 39.5,50.1667 39.5,48.8333 39.5,47.5C 42.5,47.5 45.5,47.5 48.5,47.5 Z"/></g>
<g><path style="opacity:0.992" fill="#3881ea" d="M 18.5,45.5 C 18.7839,48.7766 18.4505,51.9433 17.5,55C 12.8452,55.4992 8.17853,55.6658 3.5,55.5C 3.5,53.1667 3.5,50.8333 3.5,48.5C 8.16667,48.5 12.8333,48.5 17.5,48.5C 17.2627,47.209 17.596,46.209 18.5,45.5 Z"/></g>
<g><path style="opacity:0.992" fill="#3881ea" d="M 80.5,45.5 C 81.404,46.209 81.7373,47.209 81.5,48.5C 86.1667,48.5 90.8333,48.5 95.5,48.5C 95.5,50.8333 95.5,53.1667 95.5,55.5C 90.4053,55.7787 85.4053,55.4454 80.5,54.5C 80.5,51.5 80.5,48.5 80.5,45.5 Z"/></g>
<g><path style="opacity:0.988" fill="#3173e6" d="M 20.5,41.5 C 21.1174,41.6107 21.6174,41.944 22,42.5C 22.4993,47.4889 22.6659,52.4889 22.5,57.5C 21.5326,56.1938 20.1993,55.5271 18.5,55.5C 18.7683,58.1194 18.435,60.6194 17.5,63C 12.9805,63.1753 8.64721,63.6753 4.5,64.5C 3.52333,61.7131 3.19,58.7131 3.5,55.5C 8.17853,55.6658 12.8452,55.4992 17.5,55C 18.4505,51.9433 18.7839,48.7766 18.5,45.5C 18.1568,43.5168 18.8235,42.1834 20.5,41.5 Z"/></g>
<g><path style="opacity:1" fill="#e3eaee" d="M 40.5,55.5 C 45.1785,55.3342 49.8452,55.5008 54.5,56C 55.7911,57.2917 55.7911,58.4583 54.5,59.5C 49.5,59.5 44.5,59.5 39.5,59.5C 39.4326,58.0413 39.7659,56.7079 40.5,55.5 Z"/></g>
<g><path style="opacity:0.982" fill="#2765e3" d="M 22.5,57.5 C 22.797,61.7675 22.4637,65.9341 21.5,70C 17.5,70.6667 13.5,70.6667 9.5,70C 6.92096,68.9243 5.25429,67.091 4.5,64.5C 8.64721,63.6753 12.9805,63.1753 17.5,63C 18.435,60.6194 18.7683,58.1194 18.5,55.5C 20.1993,55.5271 21.5326,56.1938 22.5,57.5 Z"/></g>
<g><path style="opacity:0.982" fill="#2c70eb" d="M 80.5,54.5 C 85.4053,55.4454 90.4053,55.7787 95.5,55.5C 97.232,63.0447 94.5654,68.0447 87.5,70.5C 85.8333,70.5 84.1667,70.5 82.5,70.5C 81.8333,70.5 81.1667,70.5 80.5,70.5C 80.5,65.1667 80.5,59.8333 80.5,54.5 Z"/></g>
<g><path style="opacity:0.983" fill="#2a5ad1" d="M 78.5,41.5 C 80.1765,42.1834 80.8432,43.5168 80.5,45.5C 80.5,48.5 80.5,51.5 80.5,54.5C 80.5,59.8333 80.5,65.1667 80.5,70.5C 79.1779,70.67 78.0113,70.3366 77,69.5C 76.3333,60.5 76.3333,51.5 77,42.5C 77.3826,41.944 77.8826,41.6107 78.5,41.5 Z"/></g>
<g><path style="opacity:0.885" fill="#b5bbbd" d="M 82.5,70.5 C 84.1667,70.5 85.8333,70.5 87.5,70.5C 86.4944,85.3537 78.4944,92.3537 63.5,91.5C 63.5,91.1667 63.5,90.8333 63.5,90.5C 63.5,89.1667 63.5,87.8333 63.5,86.5C 75.2694,87.4662 81.6028,82.1329 82.5,70.5 Z"/></g>
<g><path style="opacity:0.995" fill="#4286eb" d="M 63.5,86.5 C 63.5,87.8333 63.5,89.1667 63.5,90.5C 56.6457,90.176 49.979,90.5093 43.5,91.5C 41.8081,87.8551 42.8081,85.0218 46.5,83C 51.5,82.3333 56.5,82.3333 61.5,83C 62.8228,83.8159 63.4894,84.9826 63.5,86.5 Z"/></g>
<g><path style="opacity:0.987" fill="#296eec" d="M 63.5,90.5 C 63.5,90.8333 63.5,91.1667 63.5,91.5C 63.4894,93.0174 62.8228,94.1841 61.5,95C 56.5,95.6667 51.5,95.6667 46.5,95C 44.5743,94.5776 43.5743,93.4109 43.5,91.5C 49.979,90.5093 56.6457,90.176 63.5,90.5 Z"/></g>
</svg>
