<?xml version="1.0" encoding="UTF-8"?>
<svg id="Layer_1" data-name="Layer 1" xmlns="http://www.w3.org/2000/svg" xmlns:xlink="http://www.w3.org/1999/xlink" viewBox="0 0 48 48">
  <defs>
    <style>
      .cls-1 {
        fill: url(#linear-gradient-2);
      }

      .cls-2 {
        fill: url(#linear-gradient-6);
      }

      .cls-3 {
        fill: url(#linear-gradient-7);
      }

      .cls-3, .cls-4 {
        opacity: .5;
      }

      .cls-5 {
        fill: url(#linear-gradient-10);
      }

      .cls-4 {
        fill: url(#linear-gradient-5);
      }

      .cls-6 {
        fill: url(#linear-gradient-9);
      }

      .cls-7 {
        fill: url(#linear-gradient-3);
      }

      .cls-8 {
        fill: url(#linear-gradient);
      }

      .cls-9 {
        fill: url(#linear-gradient-4);
      }

      .cls-10 {
        fill: url(#linear-gradient-8);
      }
    </style>
    <linearGradient id="linear-gradient" x1="43.192" y1="33.267" x2="25.001" y2="47.33" gradientUnits="userSpaceOnUse">
      <stop offset="0" stop-color="#c6cbcc"/>
      <stop offset="1" stop-color="#9fa5a6"/>
    </linearGradient>
    <linearGradient id="linear-gradient-2" x1="26" y1="40.025" x2="26" y2="45.586" gradientUnits="userSpaceOnUse">
      <stop offset="0" stop-color="#4793eb"/>
      <stop offset="1" stop-color="#2367ec"/>
    </linearGradient>
    <linearGradient id="linear-gradient-3" x1="24" y1="2.134" x2="24" y2="19.615" xlink:href="#linear-gradient-2"/>
    <linearGradient id="linear-gradient-4" x1="41.5" y1="20.191" x2="41.5" y2="33.668" xlink:href="#linear-gradient-2"/>
    <linearGradient id="linear-gradient-5" x1="38" y1="20.535" x2="38" y2="33.623" gradientUnits="userSpaceOnUse">
      <stop offset="0" stop-color="#2b50d2"/>
      <stop offset="1" stop-color="#182ea5"/>
    </linearGradient>
    <linearGradient id="linear-gradient-6" x1="6.5" y1="20.191" x2="6.5" y2="33.668" xlink:href="#linear-gradient-2"/>
    <linearGradient id="linear-gradient-7" x1="10" y1="20.535" x2="10" y2="33.623" xlink:href="#linear-gradient-5"/>
    <linearGradient id="linear-gradient-8" x1="17.67" y1="18.948" x2="30.74" y2="33.508" gradientUnits="userSpaceOnUse">
      <stop offset="0" stop-color="#6fc6fc"/>
      <stop offset="1" stop-color="#50a7f6"/>
    </linearGradient>
    <linearGradient id="linear-gradient-9" x1="19.945" y1="21.592" x2="29.404" y2="27.209" gradientUnits="userSpaceOnUse">
      <stop offset="0" stop-color="#fff"/>
      <stop offset="1" stop-color="#dadfe0"/>
    </linearGradient>
    <linearGradient id="linear-gradient-10" x1="17.928" y1="24.988" x2="27.387" y2="30.605" xlink:href="#linear-gradient-9"/>
  </defs>
  <path class="cls-8" d="M33,44h-5c-.552,0-1-.448-1-1s.448-1,1-1h5c3.86,0,7-3.14,7-7v-4c0-.552,.448-1,1-1s1,.448,1,1v4c0,4.962-4.038,9-9,9Z"/>
  <rect class="cls-1" x="21" y="40" width="10" height="6" rx="3" ry="3"/>
  <path class="cls-7" d="M41,25c-.829,0-1.5-.671-1.5-1.5v-3c0-8.547-6.953-15.5-15.5-15.5s-15.5,6.953-15.5,15.5v3c0,.829-.671,1.5-1.5,1.5s-1.5-.671-1.5-1.5v-3C5.5,10.299,13.799,2,24,2s18.5,8.299,18.5,18.5v3c0,.829-.671,1.5-1.5,1.5Z"/>
  <path class="cls-9" d="M41,34h-2c-1.103,0-2-.897-2-2v-10c0-1.103,.897-2,2-2h2c2.757,0,5,2.243,5,5v4c0,2.757-2.243,5-5,5Z"/>
  <path class="cls-4" d="M37,22v10c0,1.103,.897,2,2,2v-14c-1.103,0-2,.897-2,2Z"/>
  <path class="cls-2" d="M2,29v-4c0-2.757,2.243-5,5-5h2c1.103,0,2,.897,2,2v10c0,1.103-.897,2-2,2h-2c-2.757,0-5-2.243-5-5Z"/>
  <path class="cls-3" d="M11,22v10c0,1.103-.897,2-2,2v-14c1.103,0,2,.897,2,2Z"/>
  <path class="cls-10" d="M29,19h-10c-2.209,0-4,1.791-4,4v6c0,2.209,1.791,4,4,4h1v2.793c0,.445,.539,.669,.854,.354l3.146-3.146h5c2.209,0,4-1.791,4-4v-6c0-2.209-1.791-4-4-4Z"/>
  <path class="cls-6" d="M28,25h-8c-.552,0-1-.448-1-1s.448-1,1-1h8c.552,0,1,.448,1,1s-.448,1-1,1Z"/>
  <path class="cls-5" d="M26,29h-6c-.552,0-1-.447-1-1s.448-1,1-1h6c.552,0,1,.447,1,1s-.448,1-1,1Z"/>
</svg>