<?xml version="1.0" encoding="UTF-8"?>
<!DOCTYPE svg PUBLIC "-//W3C//DTD SVG 1.1//EN" "http://www.w3.org/Graphics/SVG/1.1/DTD/svg11.dtd">
<svg xmlns="http://www.w3.org/2000/svg" version="1.1" width="100px" height="100px" style="shape-rendering:geometricPrecision; text-rendering:geometricPrecision; image-rendering:optimizeQuality; fill-rule:evenodd; clip-rule:evenodd" xmlns:xlink="http://www.w3.org/1999/xlink">
<g><path style="opacity:0.944" fill="#01b378" d="M 85.5,30.5 C 84.1293,37.3073 82.1293,43.9739 79.5,50.5C 79.8289,36.9895 79.4956,23.6562 78.5,10.5C 58.8333,10.5 39.1667,10.5 19.5,10.5C 19.8205,15.6946 19.4872,20.6946 18.5,25.5C 18.6322,21.9678 16.9656,19.9678 13.5,19.5C 13.3342,14.8215 13.5008,10.1548 14,5.5C 14.5,5 15,4.5 15.5,4C 38.1667,3.33333 60.8333,3.33333 83.5,4C 84,4.5 84.5,5 85,5.5C 85.4997,13.8267 85.6664,22.16 85.5,30.5 Z"/></g>
<g><path style="opacity:1" fill="#a6e3cc" d="M 78.5,10.5 C 78.6666,25.1705 78.4999,39.8371 78,54.5C 76.5558,58.4109 74.3891,61.7442 71.5,64.5C 70.891,61.0344 69.0577,60.0344 66,61.5C 64.8228,65.4918 66.3228,67.1584 70.5,66.5C 67.4505,70.6012 63.9505,74.2679 60,77.5C 59.6174,76.944 59.1174,76.6107 58.5,76.5C 55.9328,73.7338 53.9328,74.2338 52.5,78C 52.6387,79.301 53.3054,80.1344 54.5,80.5C 54.0629,82.0744 53.0629,83.2411 51.5,84C 48.6089,85.2742 45.9422,86.7742 43.5,88.5C 42.8333,88.5 42.1667,88.5 41.5,88.5C 34.1667,88.5 26.8333,88.5 19.5,88.5C 19.5,77.8333 19.5,67.1667 19.5,56.5C 21.1813,63.4044 23.0146,70.4044 25,77.5C 28.6539,81.4386 30.4872,80.4386 30.5,74.5C 27.6458,62.0845 24.6458,49.7511 21.5,37.5C 26.1667,37.5 30.8333,37.5 35.5,37.5C 35.5,36.1667 35.5,34.8333 35.5,33.5C 30.6367,33.1805 25.97,33.5139 21.5,34.5C 20.2655,31.6702 19.2655,28.6702 18.5,25.5C 19.4872,20.6946 19.8205,15.6946 19.5,10.5C 39.1667,10.5 58.8333,10.5 78.5,10.5 Z"/></g>
<g><path style="opacity:1" fill="#72d6b2" d="M 37.5,16.5 C 44.5,16.5 51.5,16.5 58.5,16.5C 58.5,17.5 58.5,18.5 58.5,19.5C 51.5,19.5 44.5,19.5 37.5,19.5C 37.5,18.5 37.5,17.5 37.5,16.5 Z"/></g>
<g><path style="opacity:0.995" fill="#f88662" d="M 13.5,19.5 C 16.9656,19.9678 18.6322,21.9678 18.5,25.5C 19.2655,28.6702 20.2655,31.6702 21.5,34.5C 21.5,35.5 21.5,36.5 21.5,37.5C 24.6458,49.7511 27.6458,62.0845 30.5,74.5C 30.4872,80.4386 28.6539,81.4386 25,77.5C 23.0146,70.4044 21.1813,63.4044 19.5,56.5C 18.1016,48.2398 16.1016,40.2398 13.5,32.5C 12.4488,29.7934 11.7822,26.96 11.5,24C 11.3068,21.9919 11.9735,20.4919 13.5,19.5 Z"/></g>
<g><path style="opacity:1" fill="#f99e7f" d="M 41.5,32.5 C 46.1585,32.0146 47.4919,33.848 45.5,38C 40.7282,38.8104 39.3948,36.9771 41.5,32.5 Z"/></g>
<g><path style="opacity:1" fill="#3cc496" d="M 53.5,32.5 C 58.1585,32.0146 59.4919,33.848 57.5,38C 52.7282,38.8104 51.3948,36.9771 53.5,32.5 Z"/></g>
<g><path style="opacity:1" fill="#3cc496" d="M 66.5,32.5 C 71.1585,32.0146 72.4919,33.848 70.5,38C 65.7282,38.8104 64.3948,36.9771 66.5,32.5 Z"/></g>
<g><path style="opacity:1" fill="#009866" d="M 85.5,30.5 C 85.8306,52.0065 85.4973,73.3399 84.5,94.5C 64.8305,94.6666 45.1638,94.5 25.5,94C 31.144,92.7645 36.4774,90.9311 41.5,88.5C 42.1667,88.5 42.8333,88.5 43.5,88.5C 55.5,88.5 67.5,88.5 79.5,88.5C 79.5,75.8333 79.5,63.1667 79.5,50.5C 82.1293,43.9739 84.1293,37.3073 85.5,30.5 Z"/></g>
<g><path style="opacity:1" fill="#7ad8b6" d="M 21.5,37.5 C 21.5,36.5 21.5,35.5 21.5,34.5C 25.97,33.5139 30.6367,33.1805 35.5,33.5C 35.5,34.8333 35.5,36.1667 35.5,37.5C 30.8333,37.5 26.1667,37.5 21.5,37.5 Z"/></g>
<g><path style="opacity:0.997" fill="#0db176" d="M 13.5,32.5 C 16.1016,40.2398 18.1016,48.2398 19.5,56.5C 19.5,67.1667 19.5,77.8333 19.5,88.5C 26.8333,88.5 34.1667,88.5 41.5,88.5C 36.4774,90.9311 31.144,92.7645 25.5,94C 45.1638,94.5 64.8305,94.6666 84.5,94.5C 61.337,95.6631 38.0036,95.8297 14.5,95C 13.5066,74.2423 13.1733,53.409 13.5,32.5 Z"/></g>
<g><path style="opacity:1" fill="#3ac496" d="M 41.5,46.5 C 45.485,46.6294 46.8183,48.4628 45.5,52C 40.7282,52.8104 39.3948,50.9771 41.5,46.5 Z"/></g>
<g><path style="opacity:1" fill="#f99d7e" d="M 54.5,46.5 C 58.35,46.7007 59.35,48.5341 57.5,52C 52.2894,52.5464 51.2894,50.713 54.5,46.5 Z"/></g>
<g><path style="opacity:1" fill="#3ac496" d="M 66.5,46.5 C 70.485,46.6294 71.8183,48.4628 70.5,52C 65.7282,52.8104 64.3948,50.9771 66.5,46.5 Z"/></g>
<g><path style="opacity:1" fill="#8fc4b0" d="M 78.5,10.5 C 79.4956,23.6562 79.8289,36.9895 79.5,50.5C 79.5,63.1667 79.5,75.8333 79.5,88.5C 67.5,88.5 55.5,88.5 43.5,88.5C 45.9422,86.7742 48.6089,85.2742 51.5,84C 53.0629,83.2411 54.0629,82.0744 54.5,80.5C 57.5,80.8333 58.8333,79.5 58.5,76.5C 59.1174,76.6107 59.6174,76.944 60,77.5C 63.9505,74.2679 67.4505,70.6012 70.5,66.5C 70.8333,65.8333 71.1667,65.1667 71.5,64.5C 74.3891,61.7442 76.5558,58.4109 78,54.5C 78.4999,39.8371 78.6666,25.1705 78.5,10.5 Z"/></g>
<g><path style="opacity:1" fill="#f99d7f" d="M 41.5,60.5 C 45.485,60.6294 46.8183,62.4628 45.5,66C 40.7282,66.8104 39.3948,64.9771 41.5,60.5 Z"/></g>
<g><path style="opacity:1" fill="#3ac496" d="M 54.5,60.5 C 58.35,60.7007 59.35,62.5341 57.5,66C 52.2894,66.5464 51.2894,64.713 54.5,60.5 Z"/></g>
<g><path style="opacity:1" fill="#3ac496" d="M 71.5,64.5 C 71.1667,65.1667 70.8333,65.8333 70.5,66.5C 66.3228,67.1584 64.8228,65.4918 66,61.5C 69.0577,60.0344 70.891,61.0344 71.5,64.5 Z"/></g>
<g><path style="opacity:1" fill="#37c394" d="M 41.5,74.5 C 45.485,74.6294 46.8183,76.4628 45.5,80C 40.7282,80.8104 39.3948,78.9771 41.5,74.5 Z"/></g>
<g><path style="opacity:1" fill="#fa9b7c" d="M 58.5,76.5 C 58.8333,79.5 57.5,80.8333 54.5,80.5C 53.3054,80.1344 52.6387,79.301 52.5,78C 53.9328,74.2338 55.9328,73.7338 58.5,76.5 Z"/></g>
<g><path style="opacity:1" fill="#2fa67e" d="M 66.5,74.5 C 70.485,74.6294 71.8183,76.4628 70.5,80C 65.7282,80.8104 64.3948,78.9771 66.5,74.5 Z"/></g>
</svg>
