<?xml version="1.0" encoding="UTF-8" standalone="no"?> <svg width="512" height="512" viewBox="0 0 512 512" fill="none" xmlns="http://www.w3.org/2000/svg">
<path d="M424 24H88C79.1634 24 72 31.1634 72 40V472C72 480.837 79.1634 488 88 488H424C432.837 488 440 480.837 440 472V40C440 31.1634 432.837 24 424 24Z" fill="#00B378"/>
<path d="M424 24H88C79.1634 24 72 31.1634 72 40V472C72 480.837 79.1634 488 88 488H424C432.837 488 440 480.837 440 472V40C440 31.1634 432.837 24 424 24Z" fill="#00B378"/>
<path d="M85.322 487.758C86.2039 487.913 87.0973 487.994 87.9927 488H424.007C428.248 487.998 432.314 486.313 435.313 483.314C438.311 480.316 439.997 476.25 440 472.01V120C440 318.781 282.391 480.745 85.322 487.758Z" fill="#009866"/>
<path d="M93.8216 116.831C93.3259 114.789 92.4327 112.864 91.1929 111.167C89.9531 109.469 88.3909 108.033 86.5958 106.939C84.8007 105.846 82.8077 105.117 80.7307 104.794C78.6538 104.471 76.5335 104.561 74.4912 105.058C72.4488 105.554 70.5243 106.449 68.8277 107.689C67.1311 108.93 65.6956 110.493 64.6033 112.289C63.5109 114.085 62.7831 116.078 62.4613 118.155C62.1396 120.232 62.2304 122.353 62.7283 124.395L68.441 147.88L99.325 139.457L93.8216 116.831Z" fill="black"/>
<path d="M408 56H104V456H408V56Z" fill="#AAE5CF"/>
<path d="M304 88H192V104H304V88Z" fill="#70D6B1"/>
<path d="M224 168H224C215.163 168 208 175.163 208 184V184C208 192.837 215.163 200 224 200H224C232.837 200 240 192.837 240 184V184C240 175.163 232.837 168 224 168Z" fill="#FF9879"/>
<path d="M288 168H288C279.163 168 272 175.163 272 184V184C272 192.837 279.163 200 288 200H288C296.837 200 304 192.837 304 184V184C304 175.163 296.837 168 288 168Z" fill="#31C292"/>
<path d="M352 168H352C343.163 168 336 175.163 336 184V184C336 192.837 343.163 200 352 200H352C360.837 200 368 192.837 368 184V184C368 175.163 360.837 168 352 168Z" fill="#31C292"/>
<path d="M184 176H112V192H184V176Z" fill="#70D6B1"/>
<path d="M224 240H224C215.163 240 208 247.163 208 256V256C208 264.837 215.163 272 224 272H224C232.837 272 240 264.837 240 256V256C240 247.163 232.837 240 224 240Z" fill="#31C292"/>
<path d="M288 240H288C279.163 240 272 247.163 272 256V256C272 264.837 279.163 272 288 272H288C296.837 272 304 264.837 304 256V256C304 247.163 296.837 240 288 240Z" fill="#FF9879"/>
<path d="M352 240H352C343.163 240 336 247.163 336 256V256C336 264.837 343.163 272 352 272H352C360.837 272 368 264.837 368 256V256C368 247.163 360.837 240 352 240Z" fill="#31C292"/>
<path d="M184 248H120V264H184V248Z" fill="#70D6B1"/>
<path d="M224 312H224C215.163 312 208 319.163 208 328V328C208 336.837 215.163 344 224 344H224C232.837 344 240 336.837 240 328V328C240 319.163 232.837 312 224 312Z" fill="#FF9879"/>
<path d="M288 312H288C279.163 312 272 319.163 272 328V328C272 336.837 279.163 344 288 344H288C296.837 344 304 336.837 304 328V328C304 319.163 296.837 312 288 312Z" fill="#31C292"/>
<path d="M184 320H120V336H184V320Z" fill="#70D6B1"/>
<path d="M224 384H224C215.163 384 208 391.163 208 400V400C208 408.837 215.163 416 224 416H224C232.837 416 240 408.837 240 400V400C240 391.163 232.837 384 224 384Z" fill="#31C292"/>
<path d="M184 392H120V408H184V392Z" fill="#70D6B1"/>
<path d="M232 128H216V144H232V128Z" fill="#70D6B1"/>
<path d="M304 128H272V144H304V128Z" fill="#70D6B1"/>
<path d="M376 128H328V144H376V128Z" fill="#70D6B1"/>
<path d="M93.8215 116.831C93.3249 114.79 92.4311 112.866 91.191 111.17C89.9509 109.474 88.3888 108.038 86.594 106.946C84.7992 105.853 82.8068 105.125 80.7305 104.803C78.6542 104.48 76.5348 104.57 74.4932 105.066V105.066C72.4515 105.563 70.5277 106.457 68.8316 107.697C67.1354 108.937 65.7001 110.499 64.6077 112.294C63.5152 114.089 62.7869 116.081 62.4645 118.157C62.142 120.234 62.2316 122.353 62.7283 124.395L128.907 396.462L150.126 416L160 388.898L93.8215 116.831Z" fill="#FF8662"/>
<path d="M352 312H352C343.163 312 336 319.163 336 328V328C336 336.837 343.163 344 352 344H352C360.837 344 368 336.837 368 328V328C368 319.163 360.837 312 352 312Z" fill="#31C292"/>
<path d="M93.8216 116.831C93.3259 114.789 92.4327 112.864 91.1929 111.167C89.9531 109.469 88.3909 108.033 86.5958 106.939C84.8007 105.846 82.8077 105.117 80.7307 104.794C78.6538 104.471 76.5335 104.561 74.4912 105.058C72.4488 105.554 70.5243 106.449 68.8277 107.689C67.1311 108.93 65.6956 110.493 64.6033 112.289C63.5109 114.085 62.7831 116.078 62.4613 118.155C62.1396 120.232 62.2304 122.353 62.7283 124.395L68.441 147.88L99.325 139.457L93.8216 116.831Z" fill="#EF7154"/>
<path d="M408 456V270.299C370.936 352.858 304.852 418.939 222.291 456H408Z" fill="#91C3B0"/>
<path d="M288 384H288C279.163 384 272 391.163 272 400V400C272 408.837 279.163 416 288 416H288C296.837 416 304 408.837 304 400V400C304 391.163 296.837 384 288 384Z" fill="#FF9879"/>
<path d="M352 384H352C343.163 384 336 391.163 336 400V400C336 408.837 343.163 416 352 416H352C360.837 416 368 408.837 368 400V400C368 391.163 360.837 384 352 384Z" fill="#2AA57C"/>
<path d="M302.387 406.966C298.681 409.945 294.917 412.855 291.096 415.695C293.525 415.212 295.809 414.173 297.768 412.658C299.728 411.144 301.309 409.195 302.387 406.966V406.966Z" fill="#D98167"/>
</svg>
