<?xml version="1.0" encoding="UTF-8" standalone="no"?> <svg width="64" height="64" viewBox="0 0 64 64" fill="none" xmlns="http://www.w3.org/2000/svg">
<path d="M52.7999 33.94L50.7999 20.25C50.6025 18.9734 49.9564 17.809 48.9777 16.9659C47.9989 16.1228 46.7517 15.6563 45.4599 15.65H14.0499C12.7582 15.6563 11.5109 16.1228 10.5322 16.9659C9.55347 17.809 8.90738 18.9734 8.70994 20.25L3.54994 54.81C3.43472 55.5777 3.48668 56.3612 3.70226 57.1069C3.91785 57.8527 4.29197 58.543 4.79903 59.1308C5.3061 59.7186 5.93414 60.1899 6.6402 60.5125C7.34625 60.8351 8.11367 61.0014 8.88994 61H39.0699C39.3352 61 39.5895 60.8947 39.777 60.7071C39.9646 60.5196 40.0699 60.2652 40.0699 60C40.0699 59.7348 39.9646 59.4805 39.777 59.2929C39.5895 59.1054 39.3352 59 39.0699 59H39.0099C38.6999 58.9 38.3299 57.74 38.1399 57.12C37.933 56.0418 37.3987 55.0536 36.6099 54.29C35.6326 53.7698 34.5186 53.5638 33.4199 53.7C32.7799 53.7 31.5699 53.7 31.4199 53.47C31.2699 53.24 31.6199 52.09 31.8199 51.47C32.2899 50.4589 32.4365 49.3275 32.2399 48.23C31.7627 47.2572 30.9983 46.4543 30.0499 45.93C29.4699 45.52 28.5099 44.83 28.5099 44.49C28.5099 44.15 29.5099 43.49 30.0499 43.05C30.9983 42.5258 31.7627 41.7229 32.2399 40.75C32.4365 39.6525 32.2899 38.5211 31.8199 37.51C31.6299 36.94 31.2399 35.77 31.4199 35.51C31.5999 35.25 32.7999 35.27 33.4199 35.27C34.5155 35.4081 35.6269 35.2019 36.5999 34.68C37.399 33.9188 37.9379 32.925 38.1399 31.84C38.3399 31.22 38.6999 30.07 39.0099 29.97C39.3199 29.87 40.2599 30.61 40.7299 30.97C41.5584 31.7432 42.6068 32.2395 43.7299 32.39C44.8531 32.2395 45.9015 31.7432 46.7299 30.97C47.1999 30.63 48.1799 29.9 48.4499 29.97C48.7199 30.04 49.1299 31.23 49.3199 31.85C49.5219 32.9148 50.0454 33.892 50.8199 34.65C51.0029 34.7966 51.2091 34.9115 51.4299 34.99C51.5949 35.0561 51.7745 35.0771 51.9503 35.0507C52.1261 35.0244 52.2916 34.9516 52.4299 34.84C52.5631 34.7339 52.667 34.5956 52.7318 34.4381C52.7965 34.2806 52.82 34.1091 52.7999 33.94Z" fill="#F0454E"/>
<path d="M58.62 41.43C58.05 41.03 57.28 40.43 57.17 40.14C57.1691 39.4514 57.3121 38.7701 57.59 38.14C58.01 36.87 58.49 35.43 57.71 34.35C56.93 33.27 55.39 33.3 54 33.3C53.326 33.3751 52.6437 33.3035 52 33.09C51.609 32.5497 51.3364 31.9329 51.2 31.28C50.79 29.99 50.33 28.52 49.04 28.1C47.75 27.68 46.58 28.59 45.51 29.38C44.9876 29.8371 44.3741 30.178 43.71 30.38C43.046 30.178 42.4324 29.8371 41.91 29.38C40.84 28.59 39.63 27.69 38.38 28.1C37.13 28.51 36.68 30 36.27 31.28C36.132 31.9306 35.8632 32.5464 35.48 33.09C34.8359 33.3014 34.154 33.373 33.48 33.3C32.13 33.3 30.6 33.3 29.81 34.36C29.02 35.42 29.51 36.88 29.93 38.15C30.2079 38.7801 30.351 39.4614 30.35 40.15C30.24 40.49 29.47 41.04 28.9 41.44C27.79 42.23 26.52 43.13 26.52 44.51C26.52 45.89 27.79 46.79 28.9 47.58C29.47 47.98 30.24 48.58 30.35 48.87C30.351 49.5587 30.2079 50.2399 29.93 50.87C29.51 52.14 29.03 53.58 29.81 54.66C30.59 55.74 32.13 55.73 33.48 55.72C34.154 55.6471 34.8359 55.7187 35.48 55.93C35.8632 56.4736 36.132 57.0894 36.27 57.74C36.68 59.03 37.14 60.5 38.43 60.92C39.72 61.34 40.89 60.43 41.96 59.64C42.4824 59.183 43.096 58.8421 43.76 58.64C44.4241 58.8421 45.0376 59.183 45.56 59.64C46.3628 60.3765 47.3709 60.8509 48.45 61C48.6673 61.0003 48.8832 60.9666 49.09 60.9C50.38 60.48 50.84 59.01 51.25 57.72C51.3864 57.0671 51.659 56.4504 52.05 55.91C52.6937 55.6966 53.376 55.6249 54.05 55.7C55.4 55.7 56.93 55.7 57.72 54.64C58.51 53.58 58.02 52.12 57.6 50.85C57.3221 50.2199 57.1791 49.5387 57.18 48.85C57.29 48.51 58.06 47.96 58.63 47.56C59.74 46.78 61 45.88 61 44.5C61 43.12 59.74 42.22 58.62 41.43Z" fill="#FFD15C"/>
<path d="M39.5401 21.49C39.2748 21.49 39.0205 21.3847 38.8329 21.1971C38.6454 21.0096 38.5401 20.7552 38.5401 20.49V13.81C38.5799 12.6288 38.3816 11.4516 37.957 10.3485C37.5324 9.24549 36.8903 8.23916 36.0687 7.38945C35.2472 6.53974 34.263 5.86403 33.1749 5.40255C32.0868 4.94106 30.917 4.70324 29.735 4.70324C28.5531 4.70324 27.3833 4.94106 26.2952 5.40255C25.2071 5.86403 24.2229 6.53974 23.4014 7.38945C22.5798 8.23916 21.9377 9.24549 21.5131 10.3485C21.0885 11.4516 20.8902 12.6288 20.93 13.81V20.49C20.93 20.7552 20.8247 21.0096 20.6372 21.1971C20.4496 21.3847 20.1953 21.49 19.93 21.49C19.6648 21.49 19.4105 21.3847 19.2229 21.1971C19.0354 21.0096 18.93 20.7552 18.93 20.49V13.81C18.886 12.3634 19.1329 10.9227 19.6561 9.57334C20.1793 8.22396 20.9682 6.99338 21.9759 5.95457C22.9836 4.91576 24.1896 4.08987 25.5224 3.52587C26.8553 2.96188 28.2878 2.67126 29.735 2.67126C31.1823 2.67126 32.6148 2.96188 33.9477 3.52587C35.2805 4.08987 36.4865 4.91576 37.4942 5.95457C38.5019 6.99338 39.2908 8.22396 39.8139 9.57334C40.3371 10.9227 40.5841 12.3634 40.5401 13.81V20.49C40.5401 20.7552 40.4347 21.0096 40.2472 21.1971C40.0596 21.3847 39.8053 21.49 39.5401 21.49V21.49Z" fill="#ACB3BA"/>
<path d="M43.76 55.98C50.1003 55.98 55.24 50.8402 55.24 44.5C55.24 38.1598 50.1003 33.02 43.76 33.02C37.4198 33.02 32.28 38.1598 32.28 44.5C32.28 50.8402 37.4198 55.98 43.76 55.98Z" fill="#F8B64C"/>
<path d="M44.0999 40.72C44.1019 39.9874 43.8863 39.2706 43.4805 38.6606C43.0747 38.0506 42.497 37.5749 41.8205 37.2936C41.144 37.0123 40.3992 36.9382 39.6806 37.0806C38.9619 37.2231 38.3017 37.5757 37.7837 38.0937C37.2656 38.6118 36.913 39.272 36.7706 39.9906C36.6281 40.7093 36.7022 41.4541 36.9835 42.1306C37.2648 42.807 37.7406 43.3848 38.3506 43.7906C38.9606 44.1964 39.6773 44.412 40.4099 44.41C41.3878 44.4074 42.3248 44.0177 43.0162 43.3263C43.7077 42.6349 44.0973 41.6978 44.0999 40.72V40.72ZM38.7099 40.72C38.708 40.3834 38.806 40.0537 38.9916 39.7728C39.1772 39.4919 39.442 39.2725 39.7524 39.1423C40.0629 39.0121 40.405 38.977 40.7354 39.0415C41.0658 39.1059 41.3697 39.267 41.6084 39.5044C41.8472 39.7417 42.0101 40.0446 42.0765 40.3747C42.1429 40.7047 42.1098 41.047 41.9815 41.3582C41.8531 41.6694 41.6352 41.9355 41.3554 42.1228C41.0757 42.31 40.7466 42.41 40.4099 42.41C39.9608 42.41 39.5299 42.2323 39.2114 41.9156C38.8929 41.599 38.7126 41.1691 38.7099 40.72V40.72Z" fill="white"/>
<path d="M47.5198 44.14C46.7876 44.14 46.0718 44.3573 45.4632 44.7643C44.8545 45.1713 44.3803 45.7497 44.1005 46.4264C43.8208 47.1031 43.7481 47.8475 43.8917 48.5655C44.0352 49.2835 44.3886 49.9428 44.9071 50.4598C45.4255 50.9769 46.0857 51.3285 46.8041 51.4701C47.5225 51.6118 48.2668 51.5371 48.9427 51.2555C49.6186 50.9739 50.1958 50.4981 50.6011 49.8883C51.0065 49.2786 51.2218 48.5622 51.2198 47.83C51.2172 46.8504 50.8262 45.9119 50.1326 45.2202C49.439 44.5285 48.4994 44.14 47.5198 44.14V44.14ZM47.5198 49.53C47.1836 49.53 46.8549 49.4303 46.5753 49.2435C46.2958 49.0567 46.0779 48.7912 45.9492 48.4806C45.8205 48.1699 45.7869 47.8281 45.8525 47.4984C45.9181 47.1686 46.08 46.8657 46.3177 46.6279C46.5555 46.3902 46.8584 46.2283 47.1882 46.1627C47.5179 46.0971 47.8597 46.1307 48.1704 46.2594C48.481 46.3881 48.7465 46.606 48.9333 46.8855C49.1201 47.1651 49.2198 47.4938 49.2198 47.83C49.2198 48.2809 49.0407 48.7133 48.7219 49.0321C48.4031 49.3509 47.9707 49.53 47.5198 49.53Z" fill="white"/>
<path d="M49.38 38.88C49.2871 38.7863 49.1765 38.7119 49.0546 38.6611C48.9328 38.6104 48.802 38.5842 48.67 38.5842C48.538 38.5842 48.4073 38.6104 48.2855 38.6611C48.1636 38.7119 48.053 38.7863 47.96 38.88L38.14 48.7C38.0463 48.793 37.9719 48.9036 37.9211 49.0255C37.8704 49.1473 37.8442 49.278 37.8442 49.41C37.8442 49.542 37.8704 49.6727 37.9211 49.7946C37.9719 49.9165 38.0463 50.0271 38.14 50.12C38.2335 50.2127 38.3443 50.286 38.4661 50.3358C38.588 50.3856 38.7184 50.4108 38.85 50.41C38.9816 50.4108 39.1121 50.3856 39.2339 50.3358C39.3558 50.286 39.4666 50.2127 39.56 50.12L49.38 40.3C49.4738 40.2071 49.5482 40.0965 49.5989 39.9746C49.6497 39.8527 49.6758 39.722 49.6758 39.59C49.6758 39.458 49.6497 39.3273 49.5989 39.2055C49.5482 39.0836 49.4738 38.973 49.38 38.88V38.88Z" fill="white"/>
</svg>
