<?xml version="1.0" encoding="UTF-8"?>
<!DOCTYPE svg PUBLIC "-//W3C//DTD SVG 1.1//EN" "http://www.w3.org/Graphics/SVG/1.1/DTD/svg11.dtd">
<svg xmlns="http://www.w3.org/2000/svg" version="1.1" width="100px" height="100px" style="shape-rendering:geometricPrecision; text-rendering:geometricPrecision; image-rendering:optimizeQuality; fill-rule:evenodd; clip-rule:evenodd" xmlns:xlink="http://www.w3.org/1999/xlink">
<g><path style="opacity:0.849" fill="#adb1b8" d="M 63.5,23.5 C 62.5233,26.2869 62.19,29.2869 62.5,32.5C 61.5,32.5 60.5,32.5 59.5,32.5C 59.5,29.5 59.5,26.5 59.5,23.5C 59.1636,11.6594 53.1636,6.49275 41.5,8C 35.2932,11.2403 32.2932,16.407 32.5,23.5C 32.5,26.5 32.5,29.5 32.5,32.5C 31.5,32.5 30.5,32.5 29.5,32.5C 29.81,29.2869 29.4767,26.2869 28.5,23.5C 28.1198,11.5534 33.7865,4.88669 45.5,3.5C 57.4554,4.71506 63.4554,11.3817 63.5,23.5 Z M 59.5,23.5 C 50.5,23.5 41.5,23.5 32.5,23.5C 32.2932,16.407 35.2932,11.2403 41.5,8C 53.1636,6.49275 59.1636,11.6594 59.5,23.5 Z"/></g>
<g><path style="opacity:0.995" fill="#ef454e" d="M 28.5,23.5 C 29.4767,26.2869 29.81,29.2869 29.5,32.5C 30.5,32.5 31.5,32.5 32.5,32.5C 32.5,29.5 32.5,26.5 32.5,23.5C 41.5,23.5 50.5,23.5 59.5,23.5C 59.5,26.5 59.5,29.5 59.5,32.5C 60.5,32.5 61.5,32.5 62.5,32.5C 62.19,29.2869 62.5233,26.2869 63.5,23.5C 66.8499,23.335 70.1832,23.5017 73.5,24C 75.286,24.7845 76.786,25.9512 78,27.5C 79.9167,35.4146 81.4167,43.4146 82.5,51.5C 81.7611,51.631 81.0944,51.4643 80.5,51C 80.1496,47.1524 78.1496,44.6524 74.5,43.5C 72.3131,44.758 69.9798,45.758 67.5,46.5C 60.5421,41.2355 56.5421,42.9021 55.5,51.5C 51.9929,50.9935 48.8263,51.6602 46,53.5C 46,56.8333 46,60.1667 46,63.5C 40,67.1667 40,70.8333 46,74.5C 46,77.8333 46,81.1667 46,84.5C 48.5074,86.1553 51.3408,86.9886 54.5,87C 56.0744,89.8931 57.7411,92.7264 59.5,95.5C 43.4965,95.6666 27.4965,95.4999 11.5,95C 8.42651,94.2614 6.25985,92.4281 5,89.5C 6.91251,69.4429 9.57918,49.4429 13,29.5C 14.1667,27 16,25.1667 18.5,24C 21.8168,23.5017 25.1501,23.335 28.5,23.5 Z"/></g>
<g><path style="opacity:0.968" fill="#fecf5b" d="M 82.5,51.5 C 90.3075,50.3402 92.6409,53.5068 89.5,61C 91.5479,63.6735 93.5479,66.3402 95.5,69C 94.3255,71.6837 92.4921,73.8503 90,75.5C 90.3685,78.7897 90.3685,82.123 90,85.5C 87.2595,86.2822 84.4262,86.7822 81.5,87C 79.3918,96.1475 74.8918,97.6475 68,91.5C 65.6026,93.7823 62.7693,95.1156 59.5,95.5C 57.7411,92.7264 56.0744,89.8931 54.5,87C 51.3408,86.9886 48.5074,86.1553 46,84.5C 46,81.1667 46,77.8333 46,74.5C 40,70.8333 40,67.1667 46,63.5C 46,60.1667 46,56.8333 46,53.5C 48.8263,51.6602 51.9929,50.9935 55.5,51.5C 56.5421,42.9021 60.5421,41.2355 67.5,46.5C 69.9798,45.758 72.3131,44.758 74.5,43.5C 78.1496,44.6524 80.1496,47.1524 80.5,51C 81.0944,51.4643 81.7611,51.631 82.5,51.5 Z"/></g>
<g><path style="opacity:1" fill="#f8b74e" d="M 62.5,51.5 C 80.4156,50.6866 87.5823,59.0199 84,76.5C 77.0152,87.1068 67.8486,89.2735 56.5,83C 50.4168,76.5203 48.9168,69.0203 52,60.5C 54.4888,56.1675 57.9888,53.1675 62.5,51.5 Z"/></g>
<g><path style="opacity:1" fill="#fff6e9" d="M 71.5,68.5 C 69.1667,68.8333 67.8333,70.1667 67.5,72.5C 65.3702,74.1271 63.3702,75.9604 61.5,78C 59.3333,78.5 58.5,77.6667 59,75.5C 61.1667,73.3333 63.3333,71.1667 65.5,69C 58.3429,69.1981 55.8429,66.0314 58,59.5C 64.607,55.7408 68.2737,57.7408 69,65.5C 71.0638,62.7264 73.5638,60.8931 76.5,60C 77.4506,60.7175 77.6172,61.5509 77,62.5C 74.9604,64.3702 73.1271,66.3702 71.5,68.5 Z"/></g>
<g><path style="opacity:1" fill="#f9bc5d" d="M 61.5,60.5 C 65.1612,60.3501 66.1612,61.8501 64.5,65C 63.2068,65.49 61.8734,65.6567 60.5,65.5C 60.366,63.7085 60.6993,62.0418 61.5,60.5 Z"/></g>
<g><path style="opacity:1" fill="#fffaf4" d="M 71.5,68.5 C 79.0847,68.7205 81.0847,72.0539 77.5,78.5C 75.2324,79.5443 72.8991,79.711 70.5,79C 69.1772,78.1841 68.5106,77.0174 68.5,75.5C 68.1496,72.5466 69.1496,70.2133 71.5,68.5 Z"/></g>
<g><path style="opacity:1" fill="#f8bb5b" d="M 72.5,71.5 C 76.1612,71.3501 77.1612,72.8501 75.5,76C 74.2068,76.49 72.8734,76.6567 71.5,76.5C 71.366,74.7085 71.6993,73.0418 72.5,71.5 Z"/></g>
<g><path style="opacity:1" fill="#fbd497" d="M 71.5,68.5 C 69.1496,70.2133 68.1496,72.5466 68.5,75.5C 67.596,74.791 67.2627,73.791 67.5,72.5C 67.8333,70.1667 69.1667,68.8333 71.5,68.5 Z"/></g>
</svg>
