<?xml version="1.0" encoding="UTF-8"?>
<!DOCTYPE svg PUBLIC "-//W3C//DTD SVG 1.1//EN" "http://www.w3.org/Graphics/SVG/1.1/DTD/svg11.dtd">
<svg xmlns="http://www.w3.org/2000/svg" version="1.1" width="100px" height="100px" style="shape-rendering:geometricPrecision; text-rendering:geometricPrecision; image-rendering:optimizeQuality; fill-rule:evenodd; clip-rule:evenodd" xmlns:xlink="http://www.w3.org/1999/xlink">
<g><path style="opacity:0.882" fill="#ffa127" d="M 75.5,18.5 C 74.8333,18.5 74.5,18.8333 74.5,19.5C 73.1667,20.5 71.8333,21.5 70.5,22.5C 70.1667,22.5 69.8333,22.5 69.5,22.5C 69.5,21.8333 69.1667,21.5 68.5,21.5C 68.5,20.8333 68.5,20.1667 68.5,19.5C 68.5,18.8333 68.1667,18.5 67.5,18.5C 67.5,18.1667 67.5,17.8333 67.5,17.5C 67.5,16.8333 67.1667,16.5 66.5,16.5C 66.5,16.1667 66.5,15.8333 66.5,15.5C 66.5,14.5 66.5,13.5 66.5,12.5C 70.634,11.9429 74.3007,12.9429 77.5,15.5C 76.8075,16.5178 76.1408,17.5178 75.5,18.5 Z"/></g>
<g><path style="opacity:0.769" fill="#8b99ab" d="M 86.5,5.5 C 93.0476,6.89624 94.381,10.0629 90.5,15C 83.4765,16.7678 81.1431,14.2678 83.5,7.5C 84.7387,7.05758 85.7387,6.39092 86.5,5.5 Z M 86.5,8.5 C 90.6099,10.7458 90.2765,12.0792 85.5,12.5C 85.4326,11.0413 85.7659,9.70792 86.5,8.5 Z"/></g>
<g><path style="opacity:0.916" fill="#b2bfcd" d="M 66.5,15.5 C 66.5,15.8333 66.5,16.1667 66.5,16.5C 67.1667,16.5 67.5,16.8333 67.5,17.5C 67.5,17.8333 67.5,18.1667 67.5,18.5C 68.1667,18.5 68.5,18.8333 68.5,19.5C 68.5,20.1667 68.5,20.8333 68.5,21.5C 69.1667,21.5 69.5,21.8333 69.5,22.5C 69.8333,23.8333 70.1667,23.8333 70.5,22.5C 71.8333,21.5 73.1667,20.5 74.5,19.5C 75.1667,19.5 75.5,19.1667 75.5,18.5C 79.1031,20.6927 80.1031,23.6927 78.5,27.5C 75.5,26.8333 72.5,26.1667 69.5,25.5C 67.1401,23.1468 64.4735,21.1468 61.5,19.5C 62.5794,17.457 64.246,16.1237 66.5,15.5 Z"/></g>
<g><path style="opacity:0.431" fill="#fdcc48" d="M 10.5,8.5 C 19.8176,8.65463 21.8176,12.488 16.5,20C 7.09595,20.141 5.09595,16.3076 10.5,8.5 Z"/></g>
<g><path style="opacity:0.762" fill="#fad54f" d="M 41.5,29.5 C 39.7912,36.8707 35.1245,40.5374 27.5,40.5C 19.9373,35.7516 18.604,29.5849 23.5,22C 32.6748,17.0908 38.6748,19.5908 41.5,29.5 Z"/></g>
<g><path style="opacity:0.925" fill="#fda22d" d="M 61.5,19.5 C 64.4735,21.1468 67.1401,23.1468 69.5,25.5C 66.4887,26.6693 63.822,28.336 61.5,30.5C 58.8333,26.8333 58.8333,23.1667 61.5,19.5 Z"/></g>
<g><path style="opacity:0.994" fill="#36404a" d="M 79.5,50.5 C 78.1667,50.5 76.8333,50.5 75.5,50.5C 75.4013,53.2372 75.7347,55.9039 76.5,58.5C 70.5,63.5 64.5,68.5 58.5,73.5C 51.8834,64.1792 45.2168,64.1792 38.5,73.5C 30.8586,66.8624 23.192,60.1957 15.5,53.5C 18.9832,48.743 22.9832,44.4096 27.5,40.5C 35.1245,40.5374 39.7912,36.8707 41.5,29.5C 43.8367,27.3336 46.3367,25.3336 49,23.5C 59.3605,32.3653 69.5272,41.3653 79.5,50.5 Z"/></g>
<g><path style="opacity:0.985" fill="#fba231" d="M 69.5,25.5 C 72.5,26.1667 75.5,26.8333 78.5,27.5C 78.5,27.8333 78.5,28.1667 78.5,28.5C 76.8061,30.8606 74.8061,32.8606 72.5,34.5C 71.5,34.5 70.5,34.5 69.5,34.5C 69.5,31.5 69.5,28.5 69.5,25.5 Z"/></g>
<g><path style="opacity:0.968" fill="#b1bfcb" d="M 69.5,25.5 C 69.5,28.5 69.5,31.5 69.5,34.5C 65.6566,35.2255 62.99,33.8922 61.5,30.5C 63.822,28.336 66.4887,26.6693 69.5,25.5 Z"/></g>
<g><path style="opacity:0.845" fill="#8a96a8" d="M 78.5,28.5 C 79.397,29.5981 80.2303,29.5981 81,28.5C 85.1508,32.4907 85.3175,36.324 81.5,40C 76.2528,41.5574 73.2528,39.7241 72.5,34.5C 74.8061,32.8606 76.8061,30.8606 78.5,28.5 Z M 77.5,31.5 C 82.1972,32.8743 82.5305,34.8743 78.5,37.5C 75.025,35.9158 74.6917,33.9158 77.5,31.5 Z"/></g>
<g><path style="opacity:1" fill="#feaa2f" d="M 28.5,21.5 C 37.3857,21.8649 40.5524,26.1982 38,34.5C 32.1857,40.2051 27.1857,39.5384 23,32.5C 22.1757,27.4818 24.0091,23.8152 28.5,21.5 Z"/></g>
<g><path style="opacity:1" fill="#fcd24d" d="M 27.5,23.5 C 36.5226,23.0616 39.1893,26.8949 35.5,35C 27.7585,38.2479 24.2585,35.7479 25,27.5C 25.6622,26.0161 26.4955,24.6828 27.5,23.5 Z"/></g>
<g><path style="opacity:1" fill="#feaa2f" d="M 30.5,25.5 C 34.4557,26.0527 34.4557,26.8861 30.5,28C 33.5226,31.2559 33.0226,33.7559 29,35.5C 28.5,34.5 28,33.5 27.5,32.5C 27.8457,31.3044 28.3457,31.3044 29,32.5C 29.2904,30.0796 29.7904,27.7463 30.5,25.5 Z"/></g>
<g><path style="opacity:1" fill="#778395" d="M 58.5,43.5 C 65.701,45.4319 67.701,49.2652 64.5,55C 62.7369,56.5639 60.7369,57.7306 58.5,58.5C 57.8027,56.6155 56.8027,56.2822 55.5,57.5C 53.8395,55.3436 52.5061,53.0103 51.5,50.5C 52.0253,49.8076 52.6919,49.3076 53.5,49C 52.269,47.8173 52.269,46.6507 53.5,45.5C 55.3361,44.9724 57.0028,44.3058 58.5,43.5 Z"/></g>
<g><path style="opacity:1" fill="#37414c" d="M 57.5,46.5 C 62.2624,47.0925 63.5957,49.5925 61.5,54C 55.2016,54.4954 53.8682,51.9954 57.5,46.5 Z"/></g>
<g><path style="opacity:1" fill="#f8bd40" d="M 37.5,48.5 C 43.168,47.6712 45.668,50.0045 45,55.5C 42.2935,58.9779 39.2935,59.3112 36,56.5C 35.1093,53.5024 35.6093,50.8357 37.5,48.5 Z"/></g>
<g><path style="opacity:0.904" fill="#f9d551" d="M 79.5,50.5 C 82.946,50.8891 86.2794,51.7225 89.5,53C 85.5473,55.6437 85.714,58.1437 90,60.5C 89.6284,62.92 88.2951,64.92 86,66.5C 84.6288,64.9586 83.1288,63.6253 81.5,62.5C 81.631,61.7611 81.4643,61.0944 81,60.5C 78.0778,64.4866 76.5778,63.8199 76.5,58.5C 75.7347,55.9039 75.4013,53.2372 75.5,50.5C 76.8333,50.5 78.1667,50.5 79.5,50.5 Z"/></g>
<g><path style="opacity:1" fill="#8ed9e4" d="M 15.5,53.5 C 23.192,60.1957 30.8586,66.8624 38.5,73.5C 38.5,74.8333 38.5,76.1667 38.5,77.5C 31.7146,81.7785 25.0479,86.2785 18.5,91C 16.9632,92.1096 16.2965,93.6096 16.5,95.5C 15.5042,81.6766 15.1709,67.6766 15.5,53.5 Z"/></g>
<g><path style="opacity:1" fill="#90dce6" d="M 76.5,58.5 C 76.5778,63.8199 78.0778,64.4866 81,60.5C 81.4643,61.0944 81.631,61.7611 81.5,62.5C 81.5,72.5 81.5,82.5 81.5,92.5C 74.1846,87.5256 66.8512,82.5256 59.5,77.5C 59.5674,76.0413 59.2341,74.7079 58.5,73.5C 64.5,68.5 70.5,63.5 76.5,58.5 Z"/></g>
<g><path style="opacity:1" fill="#f0f3f6" d="M 58.5,73.5 C 59.2341,74.7079 59.5674,76.0413 59.5,77.5C 57.1334,86.6835 51.4668,89.5169 42.5,86C 39.9221,83.7724 38.5887,80.9391 38.5,77.5C 38.5,76.1667 38.5,74.8333 38.5,73.5C 45.2168,64.1792 51.8834,64.1792 58.5,73.5 Z"/></g>
<g><path style="opacity:1" fill="#3c5e82" d="M 45.5,70.5 C 48.2492,70.2739 50.9159,70.6072 53.5,71.5C 56.113,74.3714 56.113,77.2047 53.5,80C 50.7287,79.6533 48.0621,79.82 45.5,80.5C 44.6766,75.6606 46.6766,73.3272 51.5,73.5C 51.3379,75.5273 51.5045,77.5273 52,79.5C 54.8937,74.2171 53.3937,71.7171 47.5,72C 43.7873,73.6912 42.6206,76.5245 44,80.5C 46.166,82.1213 48.666,82.9546 51.5,83C 45.8489,85.404 42.5155,83.404 41.5,77C 41.7225,74.0379 43.0558,71.8712 45.5,70.5 Z"/></g>
<g><path style="opacity:1" fill="#e1e6ec" d="M 47.5,75.5 C 49.0481,75.8212 49.7148,76.8212 49.5,78.5C 46.7524,78.5983 46.0857,77.5983 47.5,75.5 Z"/></g>
<g><path style="opacity:1" fill="#769acc" d="M 38.5,77.5 C 38.5887,80.9391 39.9221,83.7724 42.5,86C 51.4668,89.5169 57.1334,86.6835 59.5,77.5C 66.8512,82.5256 74.1846,87.5256 81.5,92.5C 81.7035,94.3904 81.0368,95.8904 79.5,97C 58.8333,97.6667 38.1667,97.6667 17.5,97C 16.944,96.6174 16.6107,96.1174 16.5,95.5C 16.2965,93.6096 16.9632,92.1096 18.5,91C 25.0479,86.2785 31.7146,81.7785 38.5,77.5 Z"/></g>
</svg>
