<?xml version="1.0" encoding="UTF-8"?>
<!DOCTYPE svg PUBLIC "-//W3C//DTD SVG 1.1//EN" "http://www.w3.org/Graphics/SVG/1.1/DTD/svg11.dtd">
<svg xmlns="http://www.w3.org/2000/svg" version="1.1" width="100px" height="100px" style="shape-rendering:geometricPrecision; text-rendering:geometricPrecision; image-rendering:optimizeQuality; fill-rule:evenodd; clip-rule:evenodd" xmlns:xlink="http://www.w3.org/1999/xlink">
<g><path style="opacity:1" fill="#b9c0c4" d="M 29.5,11.5 C 28.5489,12.9187 28.2155,14.5853 28.5,16.5C 25.8333,16.5 23.1667,16.5 20.5,16.5C 20.7845,14.5853 20.4511,12.9187 19.5,11.5C 19.2066,4.15793 22.2066,2.15793 28.5,5.5C 29.3482,7.40864 29.6816,9.40864 29.5,11.5 Z"/></g>
<g><path style="opacity:1" fill="#b9c0c4" d="M 79.5,11.5 C 78.5489,12.9187 78.2155,14.5853 78.5,16.5C 75.8333,16.5 73.1667,16.5 70.5,16.5C 70.7845,14.5853 70.4511,12.9187 69.5,11.5C 69.2066,4.15793 72.2066,2.15793 78.5,5.5C 79.3482,7.40864 79.6816,9.40864 79.5,11.5 Z"/></g>
<g><path style="opacity:0.753" fill="#e47f75" d="M 29.5,11.5 C 42.8333,11.5 56.1667,11.5 69.5,11.5C 70.4511,12.9187 70.7845,14.5853 70.5,16.5C 70.1667,16.5 69.8333,16.5 69.5,16.5C 69.5,15.1667 69.5,13.8333 69.5,12.5C 56.1667,12.5 42.8333,12.5 29.5,12.5C 29.5,13.8333 29.5,15.1667 29.5,16.5C 29.1667,16.5 28.8333,16.5 28.5,16.5C 28.2155,14.5853 28.5489,12.9187 29.5,11.5 Z"/></g>
<g><path style="opacity:1" fill="#e64c3c" d="M 17.5,12.5 C 19.1765,13.1834 19.8432,14.5168 19.5,16.5C 18.6713,19.4686 18.5046,22.4686 19,25.5C 22.6667,29.5 26.3333,29.5 30,25.5C 30.4954,22.4686 30.3287,19.4686 29.5,16.5C 29.5,15.1667 29.5,13.8333 29.5,12.5C 42.8333,12.5 56.1667,12.5 69.5,12.5C 69.5,13.8333 69.5,15.1667 69.5,16.5C 68.6713,19.4686 68.5046,22.4686 69,25.5C 72.6667,29.5 76.3333,29.5 80,25.5C 80.4954,22.4686 80.3287,19.4686 79.5,16.5C 79.1568,14.5168 79.8235,13.1834 81.5,12.5C 84.1667,13.1667 85.8333,14.8333 86.5,17.5C 86.5,23.8333 86.5,30.1667 86.5,36.5C 61.8333,36.5 37.1667,36.5 12.5,36.5C 12.5,30.1667 12.5,23.8333 12.5,17.5C 13.1667,14.8333 14.8333,13.1667 17.5,12.5 Z"/></g>
<g><path style="opacity:1" fill="#d9786e" d="M 17.5,12.5 C 17.8417,11.6618 18.5084,11.3284 19.5,11.5C 20.4511,12.9187 20.7845,14.5853 20.5,16.5C 20.1667,16.5 19.8333,16.5 19.5,16.5C 19.8432,14.5168 19.1765,13.1834 17.5,12.5 Z"/></g>
<g><path style="opacity:1" fill="#d9786d" d="M 79.5,11.5 C 80.4916,11.3284 81.1583,11.6618 81.5,12.5C 79.8235,13.1834 79.1568,14.5168 79.5,16.5C 79.1667,16.5 78.8333,16.5 78.5,16.5C 78.2155,14.5853 78.5489,12.9187 79.5,11.5 Z"/></g>
<g><path style="opacity:1" fill="#c03c2e" d="M 19.5,16.5 C 19.8333,16.5 20.1667,16.5 20.5,16.5C 20.3379,18.5273 20.5045,20.5273 21,22.5C 23.3333,25.1667 25.6667,25.1667 28,22.5C 28.4955,20.5273 28.6621,18.5273 28.5,16.5C 28.8333,16.5 29.1667,16.5 29.5,16.5C 30.3287,19.4686 30.4954,22.4686 30,25.5C 26.3333,29.5 22.6667,29.5 19,25.5C 18.5046,22.4686 18.6713,19.4686 19.5,16.5 Z"/></g>
<g><path style="opacity:1" fill="#96a1a1" d="M 20.5,16.5 C 23.1667,16.5 25.8333,16.5 28.5,16.5C 28.6621,18.5273 28.4955,20.5273 28,22.5C 25.6667,25.1667 23.3333,25.1667 21,22.5C 20.5045,20.5273 20.3379,18.5273 20.5,16.5 Z"/></g>
<g><path style="opacity:1" fill="#c03c2e" d="M 69.5,16.5 C 69.8333,16.5 70.1667,16.5 70.5,16.5C 70.3379,18.5273 70.5045,20.5273 71,22.5C 73.3333,25.1667 75.6667,25.1667 78,22.5C 78.4955,20.5273 78.6621,18.5273 78.5,16.5C 78.8333,16.5 79.1667,16.5 79.5,16.5C 80.3287,19.4686 80.4954,22.4686 80,25.5C 76.3333,29.5 72.6667,29.5 69,25.5C 68.5046,22.4686 68.6713,19.4686 69.5,16.5 Z"/></g>
<g><path style="opacity:1" fill="#96a1a1" d="M 70.5,16.5 C 73.1667,16.5 75.8333,16.5 78.5,16.5C 78.6621,18.5273 78.4955,20.5273 78,22.5C 75.6667,25.1667 73.3333,25.1667 71,22.5C 70.5045,20.5273 70.3379,18.5273 70.5,16.5 Z"/></g>
<g><path style="opacity:1" fill="#e79790" d="M 12.5,17.5 C 12.5,23.8333 12.5,30.1667 12.5,36.5C 37.1667,36.5 61.8333,36.5 86.5,36.5C 86.5,30.1667 86.5,23.8333 86.5,17.5C 87.4907,23.979 87.824,30.6457 87.5,37.5C 62.1667,37.5 36.8333,37.5 11.5,37.5C 11.176,30.6457 11.5093,23.979 12.5,17.5 Z"/></g>
<g><path style="opacity:1" fill="#e9edef" d="M 11.5,37.5 C 36.8333,37.5 62.1667,37.5 87.5,37.5C 87.5,51.8333 87.5,66.1667 87.5,80.5C 86.3135,83.3397 84.3135,85.5064 81.5,87C 60.1667,87.6667 38.8333,87.6667 17.5,87C 14.6865,85.5064 12.6865,83.3397 11.5,80.5C 11.5,66.1667 11.5,51.8333 11.5,37.5 Z"/></g>
<g><path style="opacity:1" fill="#bcc3c6" d="M 20.5,45.5 C 23.1667,45.5 25.8333,45.5 28.5,45.5C 28.5,48.1667 28.5,50.8333 28.5,53.5C 25.8333,53.5 23.1667,53.5 20.5,53.5C 20.5,50.8333 20.5,48.1667 20.5,45.5 Z"/></g>
<g><path style="opacity:1" fill="#bfc5c9" d="M 32.5,45.5 C 35.5,45.5 38.5,45.5 41.5,45.5C 41.5,48.1667 41.5,50.8333 41.5,53.5C 38.5,53.5 35.5,53.5 32.5,53.5C 32.5,50.8333 32.5,48.1667 32.5,45.5 Z"/></g>
<g><path style="opacity:1" fill="#bcc3c6" d="M 45.5,45.5 C 48.1667,45.5 50.8333,45.5 53.5,45.5C 53.5,48.1667 53.5,50.8333 53.5,53.5C 50.8333,53.5 48.1667,53.5 45.5,53.5C 45.5,50.8333 45.5,48.1667 45.5,45.5 Z"/></g>
<g><path style="opacity:1" fill="#bfc5c9" d="M 57.5,45.5 C 60.5,45.5 63.5,45.5 66.5,45.5C 66.5,48.1667 66.5,50.8333 66.5,53.5C 63.5,53.5 60.5,53.5 57.5,53.5C 57.5,50.8333 57.5,48.1667 57.5,45.5 Z"/></g>
<g><path style="opacity:1" fill="#bcc3c6" d="M 70.5,45.5 C 73.1667,45.5 75.8333,45.5 78.5,45.5C 78.5,48.1667 78.5,50.8333 78.5,53.5C 75.8333,53.5 73.1667,53.5 70.5,53.5C 70.5,50.8333 70.5,48.1667 70.5,45.5 Z"/></g>
<g><path style="opacity:1" fill="#bfc5c8" d="M 20.5,57.5 C 23.1667,57.5 25.8333,57.5 28.5,57.5C 28.5,60.5 28.5,63.5 28.5,66.5C 25.8333,66.5 23.1667,66.5 20.5,66.5C 20.5,63.5 20.5,60.5 20.5,57.5 Z"/></g>
<g><path style="opacity:1" fill="#c1c7ca" d="M 32.5,57.5 C 35.5,57.5 38.5,57.5 41.5,57.5C 41.5,60.5 41.5,63.5 41.5,66.5C 38.5,66.5 35.5,66.5 32.5,66.5C 32.5,63.5 32.5,60.5 32.5,57.5 Z"/></g>
<g><path style="opacity:1" fill="#bfc5c8" d="M 45.5,57.5 C 48.1667,57.5 50.8333,57.5 53.5,57.5C 53.5,60.5 53.5,63.5 53.5,66.5C 50.8333,66.5 48.1667,66.5 45.5,66.5C 45.5,63.5 45.5,60.5 45.5,57.5 Z"/></g>
<g><path style="opacity:1" fill="#c1c7ca" d="M 57.5,57.5 C 60.5,57.5 63.5,57.5 66.5,57.5C 66.5,60.5 66.5,63.5 66.5,66.5C 63.5,66.5 60.5,66.5 57.5,66.5C 57.5,63.5 57.5,60.5 57.5,57.5 Z"/></g>
<g><path style="opacity:1" fill="#bfc5c8" d="M 70.5,57.5 C 73.1667,57.5 75.8333,57.5 78.5,57.5C 78.5,60.5 78.5,63.5 78.5,66.5C 75.8333,66.5 73.1667,66.5 70.5,66.5C 70.5,63.5 70.5,60.5 70.5,57.5 Z"/></g>
<g><path style="opacity:1" fill="#bcc3c6" d="M 20.5,70.5 C 23.1667,70.5 25.8333,70.5 28.5,70.5C 28.5,73.1667 28.5,75.8333 28.5,78.5C 25.8333,78.5 23.1667,78.5 20.5,78.5C 20.5,75.8333 20.5,73.1667 20.5,70.5 Z"/></g>
<g><path style="opacity:1" fill="#bfc5c9" d="M 32.5,70.5 C 35.5,70.5 38.5,70.5 41.5,70.5C 41.5,73.1667 41.5,75.8333 41.5,78.5C 38.5,78.5 35.5,78.5 32.5,78.5C 32.5,75.8333 32.5,73.1667 32.5,70.5 Z"/></g>
<g><path style="opacity:1" fill="#bcc3c6" d="M 45.5,70.5 C 48.1667,70.5 50.8333,70.5 53.5,70.5C 53.5,73.1667 53.5,75.8333 53.5,78.5C 50.8333,78.5 48.1667,78.5 45.5,78.5C 45.5,75.8333 45.5,73.1667 45.5,70.5 Z"/></g>
<g><path style="opacity:1" fill="#bfc5c9" d="M 57.5,70.5 C 60.5,70.5 63.5,70.5 66.5,70.5C 66.5,73.1667 66.5,75.8333 66.5,78.5C 63.5,78.5 60.5,78.5 57.5,78.5C 57.5,75.8333 57.5,73.1667 57.5,70.5 Z"/></g>
<g><path style="opacity:1" fill="#bcc3c6" d="M 70.5,70.5 C 73.1667,70.5 75.8333,70.5 78.5,70.5C 78.5,73.1667 78.5,75.8333 78.5,78.5C 75.8333,78.5 73.1667,78.5 70.5,78.5C 70.5,75.8333 70.5,73.1667 70.5,70.5 Z"/></g>
<g><path style="opacity:0.912" fill="#bdc3c7" d="M 11.5,80.5 C 12.6865,83.3397 14.6865,85.5064 17.5,87C 38.8333,87.6667 60.1667,87.6667 81.5,87C 84.3135,85.5064 86.3135,83.3397 87.5,80.5C 87.9398,85.4596 85.9398,88.9596 81.5,91C 60.1667,91.6667 38.8333,91.6667 17.5,91C 13.0602,88.9596 11.0602,85.4596 11.5,80.5 Z"/></g>
</svg>
