<?xml version="1.0" encoding="UTF-8"?>
<!DOCTYPE svg PUBLIC "-//W3C//DTD SVG 1.1//EN" "http://www.w3.org/Graphics/SVG/1.1/DTD/svg11.dtd">
<svg xmlns="http://www.w3.org/2000/svg" version="1.1" width="100px" height="100px" style="shape-rendering:geometricPrecision; text-rendering:geometricPrecision; image-rendering:optimizeQuality; fill-rule:evenodd; clip-rule:evenodd" xmlns:xlink="http://www.w3.org/1999/xlink">
<g><path style="opacity:0.986" fill="#d3def4" d="M 4.5,-0.5 C 26.5,-0.5 48.5,-0.5 70.5,-0.5C 70.7828,0.28913 71.2828,0.955796 72,1.5C 72.4998,10.1603 72.6664,18.8269 72.5,27.5C 68.4218,35.9906 64.0884,44.3239 59.5,52.5C 58.9791,56.4809 58.6458,60.4809 58.5,64.5C 62.4605,63.5208 65.7939,61.5208 68.5,58.5C 70.4305,58.2294 71.7638,57.2294 72.5,55.5C 72.6666,69.504 72.4999,83.504 72,97.5C 71.2828,98.0442 70.7828,98.7109 70.5,99.5C 48.5,99.5 26.5,99.5 4.5,99.5C 3.49551,98.3172 2.66218,96.9839 2,95.5C 1.33333,64.8333 1.33333,34.1667 2,3.5C 2.66218,2.01608 3.49551,0.682751 4.5,-0.5 Z"/></g>
<g><path style="opacity:1" fill="#fb6a63" d="M 94.5,16.5 C 90.6277,14.4026 86.961,12.0692 83.5,9.5C 83.8588,7.62901 84.8588,6.12901 86.5,5C 92.3063,2.97642 95.973,4.80976 97.5,10.5C 96.999,12.8357 95.999,14.8357 94.5,16.5 Z"/></g>
<g><path style="opacity:0.921" fill="#fec30f" d="M 83.5,9.5 C 86.961,12.0692 90.6277,14.4026 94.5,16.5C 94.4431,17.609 94.1098,18.609 93.5,19.5C 89.4734,17.4867 85.4734,15.4867 81.5,13.5C 81.6596,11.847 82.3263,10.5137 83.5,9.5 Z"/></g>
<g><path style="opacity:1" fill="#fb6c61" d="M 81.5,13.5 C 85.4734,15.4867 89.4734,17.4867 93.5,19.5C 93.1667,20.5 92.5,21.1667 91.5,21.5C 87.7283,19.0661 83.7283,17.0661 79.5,15.5C 79.8333,14.5 80.5,13.8333 81.5,13.5 Z"/></g>
<g><path style="opacity:1" fill="#adc7e7" d="M 13.5,13.5 C 28.1667,13.5 42.8333,13.5 57.5,13.5C 57.5,14.5 57.5,15.5 57.5,16.5C 42.8333,16.5 28.1667,16.5 13.5,16.5C 13.5,15.5 13.5,14.5 13.5,13.5 Z"/></g>
<g><path style="opacity:0.959" fill="#fecb07" d="M 79.5,15.5 C 83.7283,17.0661 87.7283,19.0661 91.5,21.5C 85.6857,33.1291 79.3524,44.4624 72.5,55.5C 71.7638,57.2294 70.4305,58.2294 68.5,58.5C 65.7089,56.2651 62.7089,54.2651 59.5,52.5C 64.0884,44.3239 68.4218,35.9906 72.5,27.5C 74.8184,23.5355 77.1517,19.5355 79.5,15.5 Z"/></g>
<g><path style="opacity:1" fill="#aac5e7" d="M 13.5,25.5 C 28.1667,25.5 42.8333,25.5 57.5,25.5C 57.5,26.5 57.5,27.5 57.5,28.5C 42.8333,28.5 28.1667,28.5 13.5,28.5C 13.5,27.5 13.5,26.5 13.5,25.5 Z"/></g>
<g><path style="opacity:1" fill="#fcba20" d="M 17.5,53.5 C 16.8333,53.5 16.1667,53.5 15.5,53.5C 8.17227,54.8389 5.17227,51.8389 6.5,44.5C 6.52724,41.9105 6.86057,39.4105 7.5,37C 13.5,36.3333 19.5,36.3333 25.5,37C 26.6349,41.7477 26.8015,46.581 26,51.5C 23.5185,53.3137 20.6852,53.9804 17.5,53.5 Z"/></g>
<g><path style="opacity:1" fill="#4b85c0" d="M 37.5,48.5 C 37.5,47.8333 37.5,47.1667 37.5,46.5C 37.2606,44.5328 37.5939,42.6995 38.5,41C 43.5,40.3333 48.5,40.3333 53.5,41C 54.8333,45.3333 54.8333,49.6667 53.5,54C 48.8333,54.6667 44.1667,54.6667 39.5,54C 37.8446,52.5557 37.178,50.7224 37.5,48.5 Z"/></g>
<g><path style="opacity:1" fill="#a6c2e5" d="M 37.5,46.5 C 37.5,47.1667 37.5,47.8333 37.5,48.5C 36.1667,48.5 34.8333,48.5 33.5,48.5C 33.5,53.8333 33.5,59.1667 33.5,64.5C 34.8333,64.5 36.1667,64.5 37.5,64.5C 37.5,65.1667 37.5,65.8333 37.5,66.5C 36.1667,66.5 34.8333,66.5 33.5,66.5C 33.5,71.8333 33.5,77.1667 33.5,82.5C 34.8333,82.5 36.1667,82.5 37.5,82.5C 37.5,83.5 37.5,84.5 37.5,85.5C 35.5328,85.7394 33.6995,85.4061 32,84.5C 31.5005,78.5092 31.3338,72.5092 31.5,66.5C 26.1667,66.5 20.8333,66.5 15.5,66.5C 15.5,62.1667 15.5,57.8333 15.5,53.5C 16.1667,53.5 16.8333,53.5 17.5,53.5C 17.5,57.1667 17.5,60.8333 17.5,64.5C 22.1667,64.5 26.8333,64.5 31.5,64.5C 31.5,58.5 31.5,52.5 31.5,46.5C 33.5,46.5 35.5,46.5 37.5,46.5 Z"/></g>
<g><path style="opacity:1" fill="#fdac86" d="M 59.5,52.5 C 62.7089,54.2651 65.7089,56.2651 68.5,58.5C 65.7939,61.5208 62.4605,63.5208 58.5,64.5C 58.6458,60.4809 58.9791,56.4809 59.5,52.5 Z"/></g>
<g><path style="opacity:1" fill="#f9555f" d="M 37.5,66.5 C 37.5,65.8333 37.5,65.1667 37.5,64.5C 37.178,62.2776 37.8446,60.4443 39.5,59C 44.1667,58.3333 48.8333,58.3333 53.5,59C 54.8333,63.3333 54.8333,67.6667 53.5,72C 48.467,72.8289 43.467,72.6623 38.5,71.5C 37.6906,69.9291 37.3573,68.2624 37.5,66.5 Z"/></g>
<g><path style="opacity:1" fill="#35618d" d="M 37.5,85.5 C 37.5,84.5 37.5,83.5 37.5,82.5C 37.2865,80.8561 37.6198,79.3561 38.5,78C 43.5,77.3333 48.5,77.3333 53.5,78C 54.8333,82 54.8333,86 53.5,90C 48.5,90.6667 43.5,90.6667 38.5,90C 37.6198,88.6439 37.2865,87.1439 37.5,85.5 Z"/></g>
</svg>
