<?xml version="1.0" encoding="UTF-8"?>
<!DOCTYPE svg PUBLIC "-//W3C//DTD SVG 1.1//EN" "http://www.w3.org/Graphics/SVG/1.1/DTD/svg11.dtd">
<!-- Creator: CorelDRAW -->
<svg xmlns="http://www.w3.org/2000/svg" xml:space="preserve" width="1.70666in" height="1.70666in" version="1.1" style="shape-rendering:geometricPrecision; text-rendering:geometricPrecision; image-rendering:optimizeQuality; fill-rule:evenodd; clip-rule:evenodd"
viewBox="0 0 1706.66 1706.66"
 xmlns:xlink="http://www.w3.org/1999/xlink"
 xmlns:xodm="http://www.corel.com/coreldraw/odm/2003">
 <defs>
  <style type="text/css">
   <![CDATA[
    .fil5 {fill:#335F8C}
    .fil3 {fill:#4682BF}
    .fil1 {fill:#A5C2E5}
    .fil0 {fill:#D4DFF5}
    .fil4 {fill:#FB505A}
    .fil8 {fill:#FB626B}
    .fil6 {fill:#FFAA83}
    .fil2 {fill:#FFB800}
    .fil7 {fill:#FFCC00}
   ]]>
  </style>
 </defs>
 <g id="Layer_x0020_1">
  <metadata id="CorelCorpID_0Corel-Layer"/>
  <path class="fil0" d="M1151.61 1706.64l-1011.11 0c-51.39,0 -93.2,-41.82 -93.2,-93.2l0 -1520.22c0,-51.39 41.81,-93.2 93.2,-93.2l1011.11 0.01c51.39,0 93.2,41.8 93.2,93.19 0,699.55 -0.02,821.87 -0.02,1520.22 0.02,51.4 -41.8,93.2 -93.19,93.2z"/>
  <path class="fil1" d="M673.35 1148.6l-380.85 0c-11.04,0 -20,-8.97 -20,-20l0 -236.86c0,-26.33 40,-26.32 40,0l0 216.84 360.85 0c26.33,0 26.33,40.02 0,40.02z"/>
  <path class="fil1" d="M567.76 1148.6c-11.04,0 -20,-8.97 -20,-20l0 -312.89c0,-11.04 8.96,-20 20,-20l105.58 0c26.33,0 26.33,40 0,40l-85.58 0 0 292.88c0,11.04 -8.94,20.01 -20,20.01z"/>
  <path class="fil1" d="M673.35 1461.46l-105.58 0c-11.04,0 -20,-8.97 -20,-20l0 -312.87c0,-26.33 40,-26.32 40,0l0 292.87 85.58 0c26.32,0 26.34,40 0,40z"/>
  <path class="fil1" d="M975.54 286.59l-726.78 0c-26.33,0 -26.33,-40 0,-40l726.78 0c26.33,0 26.33,40 0,40z"/>
  <path class="fil1" d="M975.54 493.64l-726.78 0c-26.33,0 -26.33,-40 0,-40l726.78 0c26.33,0 26.33,40 0,40z"/>
  <path class="fil2" d="M410.2 911.74l-235.4 0c-25.54,0 -46.3,-20.78 -46.3,-46.32l0 -190.07c0,-25.52 20.78,-46.3 46.3,-46.3l235.39 -0c25.53,0 46.3,20.78 46.3,46.3l0 190.07c0.01,25.54 -20.76,46.32 -46.29,46.32z"/>
  <path class="fil3" d="M892.65 933.65l-192.99 0c-25.54,0 -46.3,-20.78 -46.3,-46.32l0 -143.28c0,-25.53 20.78,-46.3 46.3,-46.3l193 -0c25.54,0 46.32,20.78 46.32,46.3l0 143.28c-0.02,25.55 -20.79,46.32 -46.33,46.32z"/>
  <path class="fil4" d="M892.65 1246.53l-192.99 0c-25.54,0 -46.3,-20.78 -46.3,-46.32l0 -143.29c0,-25.53 20.78,-46.3 46.3,-46.3l193 -0c25.54,0 46.32,20.78 46.32,46.3l0 143.27c-0.02,25.55 -20.79,46.34 -46.33,46.34z"/>
  <path class="fil5" d="M892.65 1559.39l-192.99 0c-25.54,0 -46.3,-20.78 -46.3,-46.32l0 -143.28c0,-25.53 20.78,-46.3 46.3,-46.3l193 -0.01c25.54,0 46.32,20.78 46.32,46.31l0 143.27c-0.02,25.54 -20.79,46.33 -46.33,46.33z"/>
  <path class="fil6" d="M1038.82 1113.45c-15.75,4.22 -31.29,-8.43 -29.96,-24.97l16.04 -196.99c2.58,-31.29 50.12,-27.43 47.56,3.86l-0.11 1.35 108.17 62.45c27.65,-19.09 53.94,20.72 28.25,38.46 -20.25,13.99 -160.54,113.31 -169.95,115.83z"/>
  <path class="fil7" d="M1201.37 1001.05c-6.11,1.64 -12.62,0.78 -18.11,-2.39l-146.51 -84.59c-11.42,-6.58 -15.33,-21.17 -8.73,-32.58l428.99 -743.05c29.88,-51.74 96.41,-69.55 148.15,-39.7 51.78,29.9 69.61,96.34 39.71,148.12l-429 743.05c-3.17,5.48 -8.37,9.48 -14.49,11.13z"/>
  <path class="fil8" d="M1431.67 182.33l25.33 -43.88c29.88,-51.74 96.41,-69.55 148.15,-39.7 52.22,30.14 69.99,95.67 38.22,150.7l-23.86 41.32 -187.84 -108.45z"/>
  <polygon class="fil8" points="1380.6,270.78 1404.46,229.45 1592.3,337.89 1568.44,379.22 "/>
 </g>
</svg>
