<?xml version="1.0" encoding="UTF-8"?>
<!DOCTYPE svg PUBLIC "-//W3C//DTD SVG 1.1//EN" "http://www.w3.org/Graphics/SVG/1.1/DTD/svg11.dtd">
<svg xmlns="http://www.w3.org/2000/svg" version="1.1" width="100px" height="100px" style="shape-rendering:geometricPrecision; text-rendering:geometricPrecision; image-rendering:optimizeQuality; fill-rule:evenodd; clip-rule:evenodd" xmlns:xlink="http://www.w3.org/1999/xlink">
<g><path style="opacity:0.921" fill="#020305" d="M 35.5,23.5 C 35.6567,24.8734 35.49,26.2068 35,27.5C 21.7166,38.9253 20.0499,51.9253 30,66.5C 40.6598,76.6818 52.4931,78.1818 65.5,71C 77.5963,60.2158 79.763,47.7158 72,33.5C 63.2856,22.8733 52.4523,19.8733 39.5,24.5C 38.8182,23.7573 38.1515,23.0906 37.5,22.5C 37.7828,21.7109 38.2828,21.0442 39,20.5C 39.1896,14.5845 39.6896,8.75116 40.5,3C 59.1637,2.50005 77.8304,2.33339 96.5,2.5C 96.5,33.8333 96.5,65.1667 96.5,96.5C 77.5,96.5 58.5,96.5 39.5,96.5C 39.83,89.8002 39.4967,83.1335 38.5,76.5C 37.7065,76.0688 36.8732,75.7355 36,75.5C 33.8876,76.608 32.0542,78.108 30.5,80C 32.6046,84.2886 31.4379,87.1219 27,88.5C 25.5349,87.6705 24.0349,87.5038 22.5,88C 19.7974,91.038 16.7974,93.7046 13.5,96C 3.93207,96.7611 0.765403,92.5944 4,83.5C 6.33333,81.1667 8.66667,78.8333 11,76.5C 9.34049,68.8248 12.5072,65.6582 20.5,67C 21.3333,66.1667 22.1667,65.3333 23,64.5C 18.0617,52.7511 19.0617,41.4178 26,30.5C 28.5014,27.1517 31.6681,24.8184 35.5,23.5 Z"/></g>
<g><path style="opacity:1" fill="#f0f6fd" d="M 43.5,6.5 C 59.8333,6.5 76.1667,6.5 92.5,6.5C 92.5,35.1667 92.5,63.8333 92.5,92.5C 76.1667,92.5 59.8333,92.5 43.5,92.5C 43.5,88.8333 43.5,85.1667 43.5,81.5C 71.2378,82.5954 84.4045,69.262 83,41.5C 76.6158,22.6276 63.4491,13.9609 43.5,15.5C 43.5,12.5 43.5,9.5 43.5,6.5 Z"/></g>
<g><path style="opacity:1" fill="#b4b9be" d="M 43.5,6.5 C 59.9916,5.50348 76.6583,5.17015 93.5,5.5C 93.5,34.8333 93.5,64.1667 93.5,93.5C 76.8333,93.5 60.1667,93.5 43.5,93.5C 43.5,93.1667 43.5,92.8333 43.5,92.5C 59.8333,92.5 76.1667,92.5 92.5,92.5C 92.5,63.8333 92.5,35.1667 92.5,6.5C 76.1667,6.5 59.8333,6.5 43.5,6.5 Z"/></g>
<g><path style="opacity:1" fill="#010101" d="M 52.5,10.5 C 64.5,10.5 76.5,10.5 88.5,10.5C 88.5,11.5 88.5,12.5 88.5,13.5C 76.5,13.5 64.5,13.5 52.5,13.5C 52.5,12.5 52.5,11.5 52.5,10.5 Z"/></g>
<g><path style="opacity:1" fill="#d3d8de" d="M 43.5,15.5 C 63.4491,13.9609 76.6158,22.6276 83,41.5C 84.4045,69.262 71.2378,82.5954 43.5,81.5C 43.2852,79.8212 43.9519,78.8212 45.5,78.5C 65.7155,78.7787 77.0488,68.9454 79.5,49C 77.1713,27.6395 65.1713,17.8061 43.5,19.5C 43.5,18.1667 43.5,16.8333 43.5,15.5 Z"/></g>
<g><path style="opacity:1" fill="#0a0a0a" d="M 74.5,18.5 C 79.1667,18.5 83.8333,18.5 88.5,18.5C 88.5,19.5 88.5,20.5 88.5,21.5C 83.8333,21.5 79.1667,21.5 74.5,21.5C 74.5,20.5 74.5,19.5 74.5,18.5 Z"/></g>
<g><path style="opacity:0.996" fill="#004799" d="M 37.5,22.5 C 38.1515,23.0906 38.8182,23.7573 39.5,24.5C 52.4523,19.8733 63.2856,22.8733 72,33.5C 79.763,47.7158 77.5963,60.2158 65.5,71C 52.4931,78.1818 40.6598,76.6818 30,66.5C 20.0499,51.9253 21.7166,38.9253 35,27.5C 35.49,26.2068 35.6567,24.8734 35.5,23.5C 36.4916,23.6716 37.1583,23.3382 37.5,22.5 Z"/></g>
<g><path style="opacity:1" fill="#090b10" d="M 31.5,36.5 C 31.8039,37.1499 32.1373,37.8165 32.5,38.5C 27.1476,51.276 30.4809,61.1094 42.5,68C 56.0274,71.4783 65.1941,66.6449 70,53.5C 71.1095,38.7676 64.2761,30.4342 49.5,28.5C 47.8333,28.6667 46.1667,28.8333 44.5,29C 40.7381,30.8809 37.0714,32.7143 33.5,34.5C 33.9209,32.0901 35.2542,30.2568 37.5,29C 47.2224,24.007 56.5557,24.6737 65.5,31C 75.6507,42.0407 76.1507,53.5407 67,65.5C 54.0761,75.6744 42.0761,74.6744 31,62.5C 25.7267,54.4314 25.2267,46.098 29.5,37.5C 29.9569,36.7025 30.6236,36.3691 31.5,36.5 Z"/></g>
<g><path style="opacity:1" fill="#e4eaf1" d="M 31.5,36.5 C 32.5,36.1667 33.1667,35.5 33.5,34.5C 37.0714,32.7143 40.7381,30.8809 44.5,29C 46.1667,28.8333 47.8333,28.6667 49.5,28.5C 64.2761,30.4342 71.1095,38.7676 70,53.5C 65.1941,66.6449 56.0274,71.4783 42.5,68C 30.4809,61.1094 27.1476,51.276 32.5,38.5C 32.1373,37.8165 31.8039,37.1499 31.5,36.5 Z"/></g>
<g><path style="opacity:1" fill="#0d0d0f" d="M 47.5,34.5 C 57.5561,33.8042 60.5561,37.9709 56.5,47C 61.4231,50.6769 63.7564,55.5102 63.5,61.5C 55.1667,61.5 46.8333,61.5 38.5,61.5C 38.2436,55.5102 40.5769,50.6769 45.5,47C 42.4527,42.1182 43.1194,37.9515 47.5,34.5 Z"/></g>
<g><path style="opacity:1" fill="#559cef" d="M 53.5,37.5 C 53.5,40.1667 53.5,42.8333 53.5,45.5C 49.5987,47.4428 47.2654,46.2761 46.5,42C 47.2612,37.7026 49.5946,36.2026 53.5,37.5 Z"/></g>
<g><path style="opacity:1" fill="#c8d6e7" d="M 53.5,37.5 C 54.9931,38.3121 55.6598,39.6455 55.5,41.5C 55.6598,43.3545 54.9931,44.6879 53.5,45.5C 53.5,42.8333 53.5,40.1667 53.5,37.5 Z"/></g>
<g><path style="opacity:1" fill="#63a5f7" d="M 60.5,58.5 C 54.5,58.5 48.5,58.5 42.5,58.5C 42.5,57.5 42.5,56.5 42.5,55.5C 45.5495,49.4758 50.2162,47.9758 56.5,51C 58.5402,53.1851 59.8736,55.6851 60.5,58.5 Z"/></g>
<g><path style="opacity:1" fill="#325580" d="M 42.5,55.5 C 42.5,56.5 42.5,57.5 42.5,58.5C 48.5,58.5 54.5,58.5 60.5,58.5C 54.3554,59.4902 48.0221,59.8235 41.5,59.5C 41.2322,57.901 41.5655,56.5676 42.5,55.5 Z"/></g>
<g><path style="opacity:1" fill="#004ba0" d="M 25.5,66.5 C 27.9635,68.4611 30.2968,70.6278 32.5,73C 31,74.5 29.5,76 28,77.5C 25.8333,75.3333 23.6667,73.1667 21.5,71C 23.0414,69.6288 24.3747,68.1288 25.5,66.5 Z"/></g>
<g><path style="opacity:1" fill="#ced3d9" d="M 14.5,70.5 C 15.552,70.3505 16.552,70.5172 17.5,71C 21,74.5 24.5,78 28,81.5C 28.4828,82.448 28.6495,83.448 28.5,84.5C 27.448,84.6495 26.448,84.4828 25.5,84C 22,80.5 18.5,77 15,73.5C 14.5172,72.552 14.3505,71.552 14.5,70.5 Z"/></g>
<g><path style="opacity:1" fill="#004a9e" d="M 14.5,77.5 C 16.9635,79.4611 19.2968,81.6278 21.5,84C 18.2378,87.9354 14.4045,91.102 10,93.5C 6.48977,92.3395 5.15643,90.0061 6,86.5C 9.03787,83.6306 11.8712,80.6306 14.5,77.5 Z"/></g>
<g><path style="opacity:1" fill="#3b3d3e" d="M 45.5,78.5 C 43.9519,78.8212 43.2852,79.8212 43.5,81.5C 43.5,85.1667 43.5,88.8333 43.5,92.5C 43.5,92.8333 43.5,93.1667 43.5,93.5C 42.5119,88.3595 42.1786,83.0262 42.5,77.5C 43.791,77.2627 44.791,77.596 45.5,78.5 Z"/></g>
</svg>
