<?xml version="1.0" encoding="utf-8"?>
<!-- Generator: Adobe Illustrator 24.3.0, SVG Export Plug-In . SVG Version: 6.00 Build 0)  -->
<svg version="1.1" id="Layer_1" xmlns="http://www.w3.org/2000/svg" xmlns:xlink="http://www.w3.org/1999/xlink" x="0px" y="0px"
	 viewBox="0 0 64 64" enable-background="new 0 0 64 64" xml:space="preserve">
<rect x="27" y="3" fill="#F2F8FF" width="34" height="58"/>
<path opacity="0.12" fill="#303030" d="M27,10.8v41.5c7.1,1.9,15,0,20.6-5.6c8.4-8.4,8.4-22,0-30.3C42,10.8,34.1,8.9,27,10.8z"/>
<path fill="#004FA8" d="M45.2,18.8c-5.5-5.5-13.5-6.7-20.2-3.7l-2,1.1c-1.2,0.7-2.3,1.6-3.3,2.6c-7,7-7,18.4,0,25.5
	c7,7,18.4,7,25.5,0C52.2,37.2,52.2,25.8,45.2,18.8z"/>
<path fill="#F2F8FF" d="M42.4,21.6c-5.5-5.5-14.3-5.5-19.8,0c-0.2,0.2-0.4,0.4-0.6,0.6L20.7,24c-3.5,5.4-2.8,12.7,1.9,17.4
	c5.5,5.5,14.3,5.5,19.8,0C47.8,36,47.8,27.1,42.4,21.6z"/>
<path fill="#004FA8" d="M4.2,54.2c-1.6,1.6-1.6,4.1,0,5.7c1.6,1.6,4.1,1.6,5.7,0l5.7-5.7l-5.7-5.7L4.2,54.2z"/>
<path fill="#004FA8" d="M17.2,41.1l-4.6,4.6l5.7,5.7l4.6-4.6c-1.1-0.7-2.2-1.5-3.2-2.5S17.9,42.2,17.2,41.1z"/>
<path fill="#F2F8FF" d="M11.9,45c-0.8-0.8-2-0.8-2.8,0c-0.8,0.8-0.8,2,0,2.8l0.7,0.7l5.7,5.7l0.7,0.7c0.8,0.8,2,0.8,2.8,0
	s0.8-2,0-2.8l-0.7-0.7l-5.7-5.7L11.9,45z"/>
<circle fill="#57A5FF" cx="33" cy="27" r="4"/>
<path fill="#57A5FF" d="M26,38v1h14v-1c0-3.9-3.1-7-7-7S26,34.1,26,38z"/>
<path fill="#F2F8FF" d="M33,23c-0.3,0-0.7,0.1-1,0.1c1.7,0.4,3,2,3,3.9c0,1.9-1.3,3.4-3,3.9c0.3,0.1,0.7,0.1,1,0.1c2.2,0,4-1.8,4-4
	C37,24.8,35.2,23,33,23z"/>
<path fill="#F2F8FF" d="M33,31c-0.3,0-0.7,0-1,0.1c3.4,0.5,6,3.4,6,6.9v1h2v-1C40,34.1,36.9,31,33,31z"/>
<path d="M19.8,23.5c-3.8,5.9-2.9,13.7,2,18.7c2.8,2.8,6.6,4.4,10.6,4.4s7.8-1.6,10.6-4.4s4.4-6.6,4.4-10.6c0-4-1.6-7.8-4.4-10.6
	c-5.8-5.8-15.4-5.8-21.2,0c-0.2,0.2-0.4,0.4-0.6,0.6l1.5,1.3c0.2-0.2,0.3-0.4,0.5-0.5c5.1-5.1,13.3-5.1,18.4,0
	c2.5,2.5,3.8,5.7,3.8,9.2c0,3.5-1.4,6.7-3.8,9.2c-2.5,2.5-5.7,3.8-9.2,3.8c-3.5,0-6.7-1.4-9.2-3.8c-4.3-4.3-5-11.1-1.8-16.2
	L19.8,23.5z"/>
<path d="M25,38v1c0,0.6,0.4,1,1,1h14c0.6,0,1-0.4,1-1v-1c0-3.2-1.9-6-4.7-7.3c1-0.9,1.7-2.2,1.7-3.7c0-2.8-2.2-5-5-5s-5,2.2-5,5
	c0,1.5,0.7,2.8,1.7,3.7C26.9,32,25,34.8,25,38z M30,27c0-1.7,1.3-3,3-3s3,1.3,3,3s-1.3,3-3,3S30,28.7,30,27z M33,32c3.3,0,6,2.7,6,6
	H27C27,34.7,29.7,32,33,32z"/>
<path d="M61,2H27c-0.6,0-1,0.4-1,1v10.7c-0.5,0.2-0.9,0.4-1.4,0.6l0.8,1.8c6.4-2.9,14.1-1.5,19.1,3.5c3.2,3.2,5,7.5,5,12
	s-1.8,8.8-5,12c-6.6,6.6-17.4,6.6-24,0c-3.2-3.2-5-7.5-5-12s1.8-8.8,5-12c0.9-0.9,2-1.8,3.1-2.4l-1.1-1.7c-1.2,0.8-2.4,1.7-3.5,2.7
	c-3.6,3.6-5.6,8.4-5.6,13.4c0,3.4,0.9,6.6,2.5,9.4l-3.3,3.3c-1.1-1.1-3.1-1.1-4.2,0c-0.6,0.6-0.9,1.3-0.9,2.1c0,0.8,0.3,1.6,0.9,2.1
	l0,0l-4.9,4.9C2.5,54.4,2,55.7,2,57s0.5,2.6,1.5,3.5c1,1,2.3,1.5,3.5,1.5c1.3,0,2.6-0.5,3.5-1.5l4.9-4.9l0,0
	c0.6,0.6,1.4,0.9,2.1,0.9c0.8,0,1.5-0.3,2.1-0.9c1.2-1.2,1.2-3.1,0-4.2l0,0L23,48c1,0.5,1.9,1,3,1.4V61c0,0.6,0.4,1,1,1h34
	c0.6,0,1-0.4,1-1V3C62,2.4,61.6,2,61,2z M9.1,59.1c-1.2,1.2-3.1,1.2-4.2,0C4.3,58.6,4,57.8,4,57s0.3-1.6,0.9-2.1l4.9-4.9l4.2,4.2
	L9.1,59.1z M18.3,54.2c-0.4,0.4-1,0.4-1.4,0l-7.1-7.1c-0.2-0.2-0.3-0.4-0.3-0.7c0-0.3,0.1-0.5,0.3-0.7c0.2-0.2,0.5-0.3,0.7-0.3
	c0.3,0,0.5,0.1,0.7,0.3l7.1,7.1C18.7,53.1,18.7,53.8,18.3,54.2z M18.3,49.9l-4.2-4.2l3-3c0.6,0.8,1.2,1.6,1.9,2.3
	c0.7,0.7,1.5,1.4,2.3,1.9L18.3,49.9z M60,60H28V50c1.5,0.4,3,0.5,4.5,0.5c4.9,0,9.7-1.9,13.4-5.6c3.6-3.6,5.6-8.4,5.6-13.4
	s-2-9.8-5.6-13.4c-4.7-4.7-11.6-6.5-17.9-5V4h32V60z"/>
<rect x="34" y="7" width="23" height="2"/>
<rect x="48" y="12" width="9" height="2"/>
</svg>
