<?xml version="1.0" encoding="UTF-8"?>
<!DOCTYPE svg PUBLIC "-//W3C//DTD SVG 1.1//EN" "http://www.w3.org/Graphics/SVG/1.1/DTD/svg11.dtd">
<svg xmlns="http://www.w3.org/2000/svg" version="1.1" width="100px" height="100px" style="shape-rendering:geometricPrecision; text-rendering:geometricPrecision; image-rendering:optimizeQuality; fill-rule:evenodd; clip-rule:evenodd" xmlns:xlink="http://www.w3.org/1999/xlink">
<g><path style="opacity:0.948" fill="#ffd0a0" d="M 45.5,38.5 C 45.1667,38.5 44.8333,38.5 44.5,38.5C 44.6653,34.8183 44.4986,31.1516 44,27.5C 42.9563,28.6226 42.2896,29.9559 42,31.5C 40.6439,30.6198 39.1439,30.2865 37.5,30.5C 37.2267,32.451 37.8934,33.951 39.5,35C 38.2949,36.3756 36.9616,37.5423 35.5,38.5C 31.7016,37.5166 27.7016,37.1832 23.5,37.5C 23.5,38.5 23.5,39.5 23.5,40.5C 26.5,40.5 29.5,40.5 32.5,40.5C 32.1667,41.1667 31.8333,41.8333 31.5,42.5C 27.8333,42.5 24.1667,42.5 20.5,42.5C 20.7678,40.901 20.4345,39.5676 19.5,38.5C 19.3335,26.8286 19.5001,15.1619 20,3.5C 22.6667,7.5 25.3333,7.5 28,3.5C 29.5122,4.25668 30.8455,5.25668 32,6.5C 33.586,5.62404 35.086,4.62404 36.5,3.5C 37.8333,4.5 39.1667,5.5 40.5,6.5C 41.914,5.37596 43.414,4.37596 45,3.5C 45.4999,15.1619 45.6665,26.8286 45.5,38.5 Z"/></g>
<g><path style="opacity:1" fill="#ff805c" d="M 23.5,12.5 C 27.5546,12.1758 31.5546,12.5091 35.5,13.5C 35.2907,14.086 34.9574,14.586 34.5,15C 30.8484,15.4986 27.1817,15.6653 23.5,15.5C 23.5,14.5 23.5,13.5 23.5,12.5 Z"/></g>
<g><path style="opacity:0.982" fill="#fe6243" d="M 95.5,17.5 C 94.2972,23.2474 91.9638,28.5807 88.5,33.5C 86.3352,33.1159 84.6685,33.7826 83.5,35.5C 85.396,36.4656 87.396,36.7989 89.5,36.5C 84.0114,37.5725 78.678,39.2392 73.5,41.5C 66.4921,41.6663 59.4921,41.4996 52.5,41C 51.9341,40.0053 51.2674,39.172 50.5,38.5C 50.1842,30.2476 50.5175,22.081 51.5,14C 65.8449,13.1672 80.1783,13.3339 94.5,14.5C 95.1272,15.4168 95.4606,16.4168 95.5,17.5 Z"/></g>
<g><path style="opacity:1" fill="#ff7b57" d="M 23.5,18.5 C 27.5546,18.1758 31.5546,18.5091 35.5,19.5C 35.2907,20.086 34.9574,20.586 34.5,21C 30.8484,21.4986 27.1817,21.6653 23.5,21.5C 23.5,20.5 23.5,19.5 23.5,18.5 Z"/></g>
<g><path style="opacity:1" fill="#fb941a" d="M 59.5,19.5 C 62.5184,19.3354 65.5184,19.502 68.5,20C 71.6493,28.8515 68.6493,31.8515 59.5,29C 56.8881,25.8359 56.8881,22.6693 59.5,19.5 Z"/></g>
<g><path style="opacity:1" fill="#ff7b58" d="M 23.5,24.5 C 27.5,24.5 31.5,24.5 35.5,24.5C 35.5,25.5 35.5,26.5 35.5,27.5C 31.5,27.5 27.5,27.5 23.5,27.5C 23.5,26.5 23.5,25.5 23.5,24.5 Z"/></g>
<g><path style="opacity:1" fill="#fe5126" d="M 95.5,17.5 C 95.6664,25.1739 95.4997,32.8406 95,40.5C 93.2111,42.229 91.0444,42.8957 88.5,42.5C 88.1667,42.5 87.8333,42.5 87.5,42.5C 83.03,41.5139 78.3633,41.1805 73.5,41.5C 78.678,39.2392 84.0114,37.5725 89.5,36.5C 90.7152,35.221 90.3818,34.221 88.5,33.5C 91.9638,28.5807 94.2972,23.2474 95.5,17.5 Z"/></g>
<g><path style="opacity:1" fill="#ffb471" d="M 44.5,38.5 C 44.5,39.8333 44.5,41.1667 44.5,42.5C 40.1667,42.5 35.8333,42.5 31.5,42.5C 31.8333,41.8333 32.1667,41.1667 32.5,40.5C 34.0269,40.573 35.0269,39.9063 35.5,38.5C 36.9616,37.5423 38.2949,36.3756 39.5,35C 37.8934,33.951 37.2267,32.451 37.5,30.5C 39.1439,30.2865 40.6439,30.6198 42,31.5C 42.2896,29.9559 42.9563,28.6226 44,27.5C 44.4986,31.1516 44.6653,34.8183 44.5,38.5 Z"/></g>
<g><path style="opacity:1" fill="#ff805c" d="M 23.5,30.5 C 27.1817,30.3347 30.8484,30.5014 34.5,31C 34.9574,31.414 35.2907,31.914 35.5,32.5C 31.5546,33.4909 27.5546,33.8242 23.5,33.5C 23.5,32.5 23.5,31.5 23.5,30.5 Z"/></g>
<g><path style="opacity:1" fill="#f7d0c7" d="M 56.5,33.5 C 58.1667,33.5 59.8333,33.5 61.5,33.5C 61.5,34.8333 61.5,36.1667 61.5,37.5C 59.8008,37.6602 58.1341,37.4935 56.5,37C 55.3157,35.8545 55.3157,34.6879 56.5,33.5 Z"/></g>
<g><path style="opacity:1" fill="#f6d4cd" d="M 65.5,33.5 C 67.9775,33.0508 69.9775,33.7175 71.5,35.5C 70.3073,37.3837 68.6406,37.8837 66.5,37C 65.6634,35.9887 65.33,34.8221 65.5,33.5 Z"/></g>
<g><path style="opacity:1" fill="#f6d5ce" d="M 75.5,33.5 C 77.1667,33.5 78.8333,33.5 80.5,33.5C 80.2993,37.35 78.4659,38.35 75,36.5C 74.5304,35.4232 74.6971,34.4232 75.5,33.5 Z"/></g>
<g><path style="opacity:1" fill="#f7d1c8" d="M 88.5,33.5 C 90.3818,34.221 90.7152,35.221 89.5,36.5C 87.396,36.7989 85.396,36.4656 83.5,35.5C 84.6685,33.7826 86.3352,33.1159 88.5,33.5 Z"/></g>
<g><path style="opacity:1" fill="#ff805c" d="M 35.5,38.5 C 35.0269,39.9063 34.0269,40.573 32.5,40.5C 29.5,40.5 26.5,40.5 23.5,40.5C 23.5,39.5 23.5,38.5 23.5,37.5C 27.7016,37.1832 31.7016,37.5166 35.5,38.5 Z"/></g>
<g><path style="opacity:0.989" fill="#3886f6" d="M 19.5,38.5 C 19.5,40.1667 19.5,41.8333 19.5,43.5C 28.1667,43.5 36.8333,43.5 45.5,43.5C 45.5,41.8333 45.5,40.1667 45.5,38.5C 47.1667,38.5 48.8333,38.5 50.5,38.5C 51.2674,39.172 51.9341,40.0053 52.5,41C 59.4921,41.4996 66.4921,41.6663 73.5,41.5C 78.3633,41.1805 83.03,41.5139 87.5,42.5C 88.2871,51.3105 86.9538,59.6439 83.5,67.5C 83.5,65.8333 83.5,64.1667 83.5,62.5C 81.5,62.5 79.5,62.5 77.5,62.5C 76.5985,66.2407 77.9319,68.2407 81.5,68.5C 80.2993,70.9095 78.6326,72.9095 76.5,74.5C 74.3926,73.5318 72.0593,73.1984 69.5,73.5C 69.3253,75.6208 69.6586,77.6208 70.5,79.5C 65.7861,82.2595 60.7861,84.2595 55.5,85.5C 38.1667,85.5 20.8333,85.5 3.5,85.5C 6.1047,70.8723 8.6047,56.2056 11,41.5C 11.3742,40.5838 11.8742,39.7504 12.5,39C 14.8098,38.5034 17.1432,38.3367 19.5,38.5 Z"/></g>
<g><path style="opacity:1" fill="#b8b1a7" d="M 19.5,38.5 C 20.4345,39.5676 20.7678,40.901 20.5,42.5C 24.1667,42.5 27.8333,42.5 31.5,42.5C 35.8333,42.5 40.1667,42.5 44.5,42.5C 44.5,41.1667 44.5,39.8333 44.5,38.5C 44.8333,38.5 45.1667,38.5 45.5,38.5C 45.5,40.1667 45.5,41.8333 45.5,43.5C 36.8333,43.5 28.1667,43.5 19.5,43.5C 19.5,41.8333 19.5,40.1667 19.5,38.5 Z"/></g>
<g><path style="opacity:1" fill="#fd9919" d="M 50.5,78.5 C 38.1201,79.1458 26.1201,78.4791 14.5,76.5C 15.2551,68.126 16.2551,59.7926 17.5,51.5C 27.1667,51.5 36.8333,51.5 46.5,51.5C 48.0922,60.4613 49.4256,69.4613 50.5,78.5 Z"/></g>
<g><path style="opacity:1" fill="#f39723" d="M 52.5,51.5 C 54.5,51.5 56.5,51.5 58.5,51.5C 58.5,53.5 58.5,55.5 58.5,57.5C 53.5,58.5 51.5,56.5 52.5,51.5 Z"/></g>
<g><path style="opacity:1" fill="#f49722" d="M 63.5,51.5 C 65.5,51.5 67.5,51.5 69.5,51.5C 69.5,53.5 69.5,55.5 69.5,57.5C 64.5,58.5 62.5,56.5 63.5,51.5 Z"/></g>
<g><path style="opacity:1" fill="#f59721" d="M 74.5,51.5 C 76.5,51.5 78.5,51.5 80.5,51.5C 80.5,53.5 80.5,55.5 80.5,57.5C 75.5,58.5 73.5,56.5 74.5,51.5 Z"/></g>
<g><path style="opacity:1" fill="#156eee" d="M 87.5,42.5 C 87.8333,42.5 88.1667,42.5 88.5,42.5C 90.5105,56.8959 92.8438,71.2292 95.5,85.5C 82.1667,85.5 68.8333,85.5 55.5,85.5C 60.7861,84.2595 65.7861,82.2595 70.5,79.5C 74.938,80.5749 76.938,78.9083 76.5,74.5C 78.6326,72.9095 80.2993,70.9095 81.5,68.5C 82.4916,68.6716 83.1583,68.3382 83.5,67.5C 86.9538,59.6439 88.2871,51.3105 87.5,42.5 Z"/></g>
<g><path style="opacity:1" fill="#f2ebe0" d="M 28.5,66.5 C 27.1852,65.333 26.5186,63.833 26.5,62C 27.6838,59.3438 29.0171,56.8438 30.5,54.5C 31.5,54.5 32.5,54.5 33.5,54.5C 34.6771,57.0378 36.3438,59.3711 38.5,61.5C 37.2261,63.85 35.8927,63.6833 34.5,61C 32.7412,60.2025 31.0745,60.3691 29.5,61.5C 32.5042,62.7546 35.3375,64.4213 38,66.5C 38.9866,70.3482 37.4866,72.3482 33.5,72.5C 33.5,73.5 33.5,74.5 33.5,75.5C 32.5,75.5 31.5,75.5 30.5,75.5C 29.2758,73.1803 27.9425,70.847 26.5,68.5C 26.7472,67.2867 27.4138,66.62 28.5,66.5 Z"/></g>
<g><path style="opacity:1" fill="#f09729" d="M 55.5,62.5 C 57.5,62.5 59.5,62.5 61.5,62.5C 61.5,64.5 61.5,66.5 61.5,68.5C 56.5,69.5 54.5,67.5 55.5,62.5 Z"/></g>
<g><path style="opacity:1" fill="#f19727" d="M 66.5,62.5 C 68.5,62.5 70.5,62.5 72.5,62.5C 72.5,64.5 72.5,66.5 72.5,68.5C 67.5,69.5 65.5,67.5 66.5,62.5 Z"/></g>
<g><path style="opacity:1" fill="#f29624" d="M 83.5,67.5 C 83.1583,68.3382 82.4916,68.6716 81.5,68.5C 77.9319,68.2407 76.5985,66.2407 77.5,62.5C 79.5,62.5 81.5,62.5 83.5,62.5C 83.5,64.1667 83.5,65.8333 83.5,67.5 Z"/></g>
<g><path style="opacity:1" fill="#fe9d21" d="M 28.5,66.5 C 30.9267,66.523 33.26,67.023 35.5,68C 32.5375,70.2441 30.2041,69.7441 28.5,66.5 Z"/></g>
<g><path style="opacity:1" fill="#e69639" d="M 58.5,73.5 C 60.8333,73.5 63.1667,73.5 65.5,73.5C 66.3206,79.1581 64.154,80.8248 59,78.5C 58.5065,76.8659 58.3398,75.1992 58.5,73.5 Z"/></g>
<g><path style="opacity:1" fill="#e49438" d="M 76.5,74.5 C 76.938,78.9083 74.938,80.5749 70.5,79.5C 69.6586,77.6208 69.3253,75.6208 69.5,73.5C 72.0593,73.1984 74.3926,73.5318 76.5,74.5 Z"/></g>
<g><path style="opacity:1" fill="#ed9528" d="M 80.5,73.5 C 82.5,73.5 84.5,73.5 86.5,73.5C 86.5,75.5 86.5,77.5 86.5,79.5C 81.5,80.5 79.5,78.5 80.5,73.5 Z"/></g>
<g><path style="opacity:1" fill="#c6934d" d="M 14.5,76.5 C 26.1201,78.4791 38.1201,79.1458 50.5,78.5C 38.3446,79.4952 26.0113,79.8286 13.5,79.5C 13.2627,78.209 13.596,77.209 14.5,76.5 Z"/></g>
<g><path style="opacity:0.999" fill="#005dce" d="M 3.5,85.5 C 20.8333,85.5 38.1667,85.5 55.5,85.5C 68.8333,85.5 82.1667,85.5 95.5,85.5C 96.0065,89.0071 95.3398,92.1737 93.5,95C 64.1667,95.6667 34.8333,95.6667 5.5,95C 3.66019,92.1737 2.99353,89.0071 3.5,85.5 Z"/></g>
</svg>
