<?xml version="1.0" encoding="UTF-8"?>
<!DOCTYPE svg PUBLIC "-//W3C//DTD SVG 1.1//EN" "http://www.w3.org/Graphics/SVG/1.1/DTD/svg11.dtd">
<svg xmlns="http://www.w3.org/2000/svg" version="1.1" width="100px" height="100px" style="shape-rendering:geometricPrecision; text-rendering:geometricPrecision; image-rendering:optimizeQuality; fill-rule:evenodd; clip-rule:evenodd" xmlns:xlink="http://www.w3.org/1999/xlink">
<g><path style="opacity:0.976" fill="#f9e9af" d="M 50.5,-0.5 C 57.1667,-0.5 63.8333,-0.5 70.5,-0.5C 73.4289,0.53768 76.4289,1.70435 79.5,3C 80.305,4.11268 80.9717,5.27935 81.5,6.5C 80.8333,6.5 80.5,6.83333 80.5,7.5C 74.4549,11.3447 67.7882,13.0113 60.5,12.5C 53.2118,13.0113 46.5451,11.3447 40.5,7.5C 40.5,6.83333 40.1667,6.5 39.5,6.5C 40.0283,5.27935 40.695,4.11268 41.5,3C 44.5711,1.70435 47.5711,0.53768 50.5,-0.5 Z"/></g>
<g><path style="opacity:0.973" fill="#f9e9af" d="M 39.5,18.5 C 39.5569,19.609 39.8902,20.609 40.5,21.5C 38.9183,23.9697 36.585,25.4697 33.5,26C 25.5643,27.53 17.5643,27.8633 9.5,27C 5.76419,26.297 2.43086,24.797 -0.5,22.5C -0.5,21.5 -0.5,20.5 -0.5,19.5C 5.49711,15.6672 12.1638,14.0006 19.5,14.5C 26.5468,14.176 33.2135,15.5093 39.5,18.5 Z"/></g>
<g><path style="opacity:1" fill="#f2d45a" d="M 40.5,21.5 C 40.3832,23.4835 41.0499,25.1502 42.5,26.5C 55.1511,31.9598 67.6511,31.6265 80,25.5C 82.1851,32.9867 79.3518,36.82 71.5,37C 61.5797,39.5056 51.913,38.839 42.5,35C 41.2986,34.0975 40.4652,32.9308 40,31.5C 31.0531,36.1167 21.5531,37.6167 11.5,36C 7.08754,35.4048 3.08754,33.9048 -0.5,31.5C -0.5,28.5 -0.5,25.5 -0.5,22.5C 2.43086,24.797 5.76419,26.297 9.5,27C 17.5643,27.8633 25.5643,27.53 33.5,26C 36.585,25.4697 38.9183,23.9697 40.5,21.5 Z"/></g>
<g><path style="opacity:1" fill="#f0c51e" d="M 39.5,6.5 C 40.1667,6.5 40.5,6.83333 40.5,7.5C 40.3354,10.5184 40.502,13.5184 41,16.5C 46.2247,20.0996 52.0581,21.7663 58.5,21.5C 65.3397,21.3045 72.0063,20.1379 78.5,18C 79,17.5 79.5,17 80,16.5C 80.498,13.5184 80.6646,10.5184 80.5,7.5C 80.5,6.83333 80.8333,6.5 81.5,6.5C 81.5,21.1667 81.5,35.8333 81.5,50.5C 80.6829,48.0314 80.1829,45.3647 80,42.5C 67.6511,48.6265 55.1511,48.9598 42.5,43.5C 41.4164,42.3349 40.5831,41.0016 40,39.5C 36.6728,42.2818 32.8394,44.1151 28.5,45C 21.4333,45.8391 14.4333,45.5058 7.5,44C 4.31561,43.2458 1.64894,41.7458 -0.5,39.5C -0.5,36.8333 -0.5,34.1667 -0.5,31.5C 3.08754,33.9048 7.08754,35.4048 11.5,36C 21.5531,37.6167 31.0531,36.1167 40,31.5C 40.4652,32.9308 41.2986,34.0975 42.5,35C 51.913,38.839 61.5797,39.5056 71.5,37C 79.3518,36.82 82.1851,32.9867 80,25.5C 67.6511,31.6265 55.1511,31.9598 42.5,26.5C 41.0499,25.1502 40.3832,23.4835 40.5,21.5C 39.8902,20.609 39.5569,19.609 39.5,18.5C 39.5,14.5 39.5,10.5 39.5,6.5 Z"/></g>
<g><path style="opacity:1" fill="#f2d45a" d="M 40.5,7.5 C 46.5451,11.3447 53.2118,13.0113 60.5,12.5C 67.7882,13.0113 74.4549,11.3447 80.5,7.5C 80.6646,10.5184 80.498,13.5184 80,16.5C 79.5,17 79,17.5 78.5,18C 72.0063,20.1379 65.3397,21.3045 58.5,21.5C 52.0581,21.7663 46.2247,20.0996 41,16.5C 40.502,13.5184 40.3354,10.5184 40.5,7.5 Z"/></g>
<g><path style="opacity:1" fill="#f2d45a" d="M -0.5,39.5 C 1.64894,41.7458 4.31561,43.2458 7.5,44C 14.4333,45.5058 21.4333,45.8391 28.5,45C 32.8394,44.1151 36.6728,42.2818 40,39.5C 40.5831,41.0016 41.4164,42.3349 42.5,43.5C 55.1511,48.9598 67.6511,48.6265 80,42.5C 80.1829,45.3647 80.6829,48.0314 81.5,50.5C 77.4055,50.5078 73.0721,50.6744 68.5,51C 65.1943,51.9862 62.1943,53.4862 59.5,55.5C 57.6146,53.6885 55.2813,52.5218 52.5,52C 41.7958,49.3679 31.4625,50.2012 21.5,54.5C 13.7956,54.0727 6.46231,52.0727 -0.5,48.5C -0.5,45.5 -0.5,42.5 -0.5,39.5 Z"/></g>
<g><path style="opacity:1" fill="#f0c51e" d="M -0.5,48.5 C 6.46231,52.0727 13.7956,54.0727 21.5,54.5C 21.1667,55.1667 20.8333,55.8333 20.5,56.5C 19.5386,58.2646 19.2053,60.2646 19.5,62.5C 11.9649,62.9554 5.29821,60.9554 -0.5,56.5C -0.5,53.8333 -0.5,51.1667 -0.5,48.5 Z"/></g>
<g><path style="opacity:1" fill="#f8e9ae" d="M 59.5,55.5 C 57.2834,57.5664 55.2834,59.8998 53.5,62.5C 42.5902,64.4852 31.9235,63.6518 21.5,60C 20.6634,58.9887 20.33,57.8221 20.5,56.5C 20.8333,55.8333 21.1667,55.1667 21.5,54.5C 31.4625,50.2012 41.7958,49.3679 52.5,52C 55.2813,52.5218 57.6146,53.6885 59.5,55.5 Z"/></g>
<g><path style="opacity:0.974" fill="#b39145" d="M 81.5,50.5 C 90.5287,53.5286 96.5287,59.5286 99.5,68.5C 99.5,72.8333 99.5,77.1667 99.5,81.5C 96.5908,90.0766 90.9241,96.0766 82.5,99.5C 77.8333,99.5 73.1667,99.5 68.5,99.5C 65.232,97.866 61.8987,96.1993 58.5,94.5C 57.2141,91.883 55.5475,89.5496 53.5,87.5C 52.6948,85.0846 51.6948,82.7513 50.5,80.5C 50.5,77.5 50.5,74.5 50.5,71.5C 51.2163,68.4018 52.2163,65.4018 53.5,62.5C 55.2834,59.8998 57.2834,57.5664 59.5,55.5C 62.1943,53.4862 65.1943,51.9862 68.5,51C 73.0721,50.6744 77.4055,50.5078 81.5,50.5 Z"/></g>
<g><path style="opacity:1" fill="#eec31e" d="M 69.5,53.5 C 82.8977,52.2712 91.731,57.9379 96,70.5C 96.7531,88.2131 88.2531,96.7131 70.5,96C 55.0482,89.6333 50.5482,78.8 57,63.5C 60.4399,59.2234 64.6066,55.8901 69.5,53.5 Z"/></g>
<g><path style="opacity:1" fill="#f8e7a6" d="M 74.5,58.5 C 76.5246,61.2928 79.1913,63.6261 82.5,65.5C 83.9501,66.8498 84.6168,68.5165 84.5,70.5C 83.1667,70.5 81.8333,70.5 80.5,70.5C 80.7778,68.6536 80.1112,67.3202 78.5,66.5C 77.4763,67.8532 76.143,68.5198 74.5,68.5C 74.4347,65.0017 73.1014,64.5017 70.5,67C 69.4464,68.3876 69.2797,69.8876 70,71.5C 73.712,72.9722 77.5453,74.3055 81.5,75.5C 86.118,81.2381 84.7847,84.9048 77.5,86.5C 77.5,87.8333 77.5,89.1667 77.5,90.5C 76.5,90.5 75.5,90.5 74.5,90.5C 74.5,89.5 74.5,88.5 74.5,87.5C 68.9743,87.6396 65.9743,84.9729 65.5,79.5C 66.552,79.3505 67.552,79.5172 68.5,80C 71.1242,85.0731 73.4575,85.2398 75.5,80.5C 79.5646,84.6165 80.8979,83.7832 79.5,78C 76.6229,76.8732 73.6229,76.2065 70.5,76C 63.8333,71.6667 63.8333,67.3333 70.5,63C 71.7932,62.51 73.1266,62.3433 74.5,62.5C 74.5,61.1667 74.5,59.8333 74.5,58.5 Z"/></g>
<g><path style="opacity:1" fill="#f2d45a" d="M -0.5,56.5 C 5.29821,60.9554 11.9649,62.9554 19.5,62.5C 19.2053,60.2646 19.5386,58.2646 20.5,56.5C 20.33,57.8221 20.6634,58.9887 21.5,60C 31.9235,63.6518 42.5902,64.4852 53.5,62.5C 52.2163,65.4018 51.2163,68.4018 50.5,71.5C 41.6831,73.3204 33.0164,72.8204 24.5,70C 22.714,69.2155 21.214,68.0488 20,66.5C 19.51,67.7932 19.3433,69.1266 19.5,70.5C 12.2896,70.6975 5.62295,69.0308 -0.5,65.5C -0.5,62.5 -0.5,59.5 -0.5,56.5 Z"/></g>
<g><path style="opacity:0.995" fill="#f0c41b" d="M -0.5,65.5 C 5.62295,69.0308 12.2896,70.6975 19.5,70.5C 19.3433,69.1266 19.51,67.7932 20,66.5C 21.214,68.0488 22.714,69.2155 24.5,70C 33.0164,72.8204 41.6831,73.3204 50.5,71.5C 50.5,74.5 50.5,77.5 50.5,80.5C 42.1067,80.8304 33.7733,80.3304 25.5,79C 23.4127,78.2078 21.5793,77.0412 20,75.5C 19.51,76.7932 19.3433,78.1266 19.5,79.5C 12.2164,80.0125 5.54971,78.3458 -0.5,74.5C -0.5,71.5 -0.5,68.5 -0.5,65.5 Z"/></g>
<g><path style="opacity:1" fill="#f2d458" d="M 50.5,80.5 C 51.6948,82.7513 52.6948,85.0846 53.5,87.5C 41.4802,91.0747 30.1468,89.7413 19.5,83.5C 19.5,82.1667 19.5,80.8333 19.5,79.5C 19.3433,78.1266 19.51,76.7932 20,75.5C 21.5793,77.0412 23.4127,78.2078 25.5,79C 33.7733,80.3304 42.1067,80.8304 50.5,80.5 Z"/></g>
<g><path style="opacity:0.989" fill="#f0c41a" d="M 19.5,83.5 C 30.1468,89.7413 41.4802,91.0747 53.5,87.5C 55.5475,89.5496 57.2141,91.883 58.5,94.5C 45.751,100.052 33.0844,99.7191 20.5,93.5C 19.5827,90.2423 19.2493,86.909 19.5,83.5 Z"/></g>
</svg>
