<?xml version="1.0" encoding="UTF-8"?>
<!DOCTYPE svg PUBLIC "-//W3C//DTD SVG 1.1//EN" "http://www.w3.org/Graphics/SVG/1.1/DTD/svg11.dtd">
<svg xmlns="http://www.w3.org/2000/svg" version="1.1" width="100px" height="100px" style="shape-rendering:geometricPrecision; text-rendering:geometricPrecision; image-rendering:optimizeQuality; fill-rule:evenodd; clip-rule:evenodd" xmlns:xlink="http://www.w3.org/1999/xlink">
<g><path style="opacity:0.926" fill="#2c3d4f" d="M 34.5,0.5 C 44.5056,0.333518 54.5056,0.500185 64.5,1C 66.1793,3.56453 66.846,6.39787 66.5,9.5C 71.8437,9.33398 77.1771,9.50065 82.5,10C 85,11.1667 86.8333,13 88,15.5C 88.6667,41.1667 88.6667,66.8333 88,92.5C 86.8333,95 85,96.8333 82.5,98C 60.5,98.6667 38.5,98.6667 16.5,98C 14,96.8333 12.1667,95 11,92.5C 10.3333,66.8333 10.3333,41.1667 11,15.5C 12.1667,13 14,11.1667 16.5,10C 21.8229,9.50065 27.1563,9.33398 32.5,9.5C 32.2069,6.24571 32.8736,3.24571 34.5,0.5 Z M 48.5,3.5 C 51.8606,4.20318 52.1939,5.53651 49.5,7.5C 47.3576,6.56289 47.0243,5.22955 48.5,3.5 Z M 19.5,16.5 C 39.5028,16.3334 59.5028,16.5 79.5,17C 80,17.5 80.5,18 81,18.5C 81.6667,42.1667 81.6667,65.8333 81,89.5C 80.5,90 80,90.5 79.5,91C 59.5,91.6667 39.5,91.6667 19.5,91C 19,90.5 18.5,90 18,89.5C 17.3333,65.8333 17.3333,42.1667 18,18.5C 18.7172,17.9558 19.2172,17.2891 19.5,16.5 Z"/></g>
<g><path style="opacity:0.855" fill="#1c74b7" d="M 42.5,30.5 C 53.1667,30.5 63.8333,30.5 74.5,30.5C 74.67,31.8221 74.3366,32.9887 73.5,34C 63.5,34.6667 53.5,34.6667 43.5,34C 42.6634,32.9887 42.33,31.8221 42.5,30.5 Z"/></g>
<g><path style="opacity:0.726" fill="#1b74b9" d="M 33.5,33.5 C 34.8333,33.5 36.1667,33.5 37.5,33.5C 36.2834,37.7205 33.6168,40.7205 29.5,42.5C 26.3631,41.6985 24.6964,39.6985 24.5,36.5C 28.5624,38.6337 31.5624,37.6337 33.5,33.5 Z"/></g>
<g><path style="opacity:0.826" fill="#1c74b7" d="M 43.5,41.5 C 49.1764,41.3339 54.8431,41.5006 60.5,42C 61.3366,43.0113 61.67,44.1779 61.5,45.5C 55.1667,45.5 48.8333,45.5 42.5,45.5C 42.4326,44.0413 42.7659,42.7079 43.5,41.5 Z"/></g>
<g><path style="opacity:0.696" fill="#1c74b8" d="M 43.5,61.5 C 53.5056,61.3335 63.5056,61.5002 73.5,62C 74.8333,63.3333 74.8333,64.6667 73.5,66C 63.5,66.6667 53.5,66.6667 43.5,66C 42.2721,64.5098 42.2721,63.0098 43.5,61.5 Z"/></g>
<g><path style="opacity:0.778" fill="#2072c1" d="M 34.5,64.5 C 36.2517,64.4176 37.2517,65.2509 37.5,67C 35.4264,71.4454 32.0931,73.7787 27.5,74C 25.393,72.7365 24.393,70.9032 24.5,68.5C 28.6711,69.7409 32.0044,68.4076 34.5,64.5 Z"/></g>
<g><path style="opacity:0.838" fill="#1b74b7" d="M 42.5,73.5 C 48.8333,73.5 55.1667,73.5 61.5,73.5C 61.5,74.8333 61.5,76.1667 61.5,77.5C 55.4908,77.6662 49.4908,77.4995 43.5,77C 42.6634,75.9887 42.33,74.8221 42.5,73.5 Z"/></g>
</svg>
