<?xml version="1.0" encoding="UTF-8"?>
<!DOCTYPE svg PUBLIC "-//W3C//DTD SVG 1.1//EN" "http://www.w3.org/Graphics/SVG/1.1/DTD/svg11.dtd">
<svg xmlns="http://www.w3.org/2000/svg" version="1.1" width="100px" height="100px" style="shape-rendering:geometricPrecision; text-rendering:geometricPrecision; image-rendering:optimizeQuality; fill-rule:evenodd; clip-rule:evenodd" xmlns:xlink="http://www.w3.org/1999/xlink">
<g><path style="opacity:0.943" fill="#656565" d="M 73.5,-0.5 C 77.5,-0.5 81.5,-0.5 85.5,-0.5C 86.209,0.403972 87.209,0.737305 88.5,0.5C 88.5086,2.30839 88.0086,3.97506 87,5.5C 84.2974,8.53798 81.2974,11.2046 78,13.5C 77.5778,17.5973 79.4112,20.264 83.5,21.5C 87.5665,17.4266 91.8998,13.7599 96.5,10.5C 97.7387,10.9424 98.7387,11.6091 99.5,12.5C 99.5,16.5 99.5,20.5 99.5,24.5C 94.843,36.0796 86.343,40.4129 74,37.5C 71.295,40.0362 68.795,42.7029 66.5,45.5C 65.8333,45.5 65.5,45.8333 65.5,46.5C 64.8333,46.5 64.5,46.8333 64.5,47.5C 63.8333,47.5 63.5,47.8333 63.5,48.5C 63.1667,48.5 62.8333,48.5 62.5,48.5C 60.5642,47.741 58.7309,46.741 57,45.5C 56.0979,45.7432 55.2646,46.0766 54.5,46.5C 51.4275,44.4309 49.0941,41.7642 47.5,38.5C 52.2979,34.2033 56.9645,29.7033 61.5,25C 58.6539,13.1951 62.6539,4.69511 73.5,-0.5 Z"/></g>
<g><path style="opacity:0.975" fill="#cee1fd" d="M 47.5,38.5 C 49.0941,41.7642 51.4275,44.4309 54.5,46.5C 52.1667,49.5 49.5,52.1667 46.5,54.5C 44.4309,51.4275 41.7642,49.0941 38.5,47.5C 33.3697,41.8686 28.0363,36.3686 22.5,31C 19.2796,30.2837 16.2796,29.117 13.5,27.5C 10.1361,22.4455 7.63613,17.1122 6,11.5C 8.05045,9.11216 10.3838,7.11216 13,5.5C 17.8978,8.03261 22.7311,10.6993 27.5,13.5C 28.9581,16.3723 30.1248,19.3723 31,22.5C 36.3686,28.0363 41.8686,33.3697 47.5,38.5 Z"/></g>
<g><path style="opacity:1" fill="#3f628a" d="M 62.5,48.5 C 62.5,48.8333 62.5,49.1667 62.5,49.5C 59.1667,54.8333 54.8333,59.1667 49.5,62.5C 49.1667,62.5 48.8333,62.5 48.5,62.5C 47.741,60.5642 46.741,58.7309 45.5,57C 45.7432,56.0979 46.0766,55.2646 46.5,54.5C 49.5,52.1667 52.1667,49.5 54.5,46.5C 55.2646,46.0766 56.0979,45.7432 57,45.5C 58.7309,46.741 60.5642,47.741 62.5,48.5 Z"/></g>
<g><path style="opacity:0.955" fill="#fc791c" d="M 66.5,45.5 C 71.6489,45.6511 73.9822,48.3178 73.5,53.5C 72.7611,53.369 72.0944,53.5357 71.5,54C 64.9043,60.0899 58.9043,66.5899 53.5,73.5C 47.8757,76.6882 44.5423,75.0216 43.5,68.5C 44.1667,68.5 44.5,68.1667 44.5,67.5C 45.1667,67.5 45.5,67.1667 45.5,66.5C 46.1667,66.5 46.5,66.1667 46.5,65.5C 47.1667,65.5 47.5,65.1667 47.5,64.5C 48.1667,64.5 48.5,64.1667 48.5,63.5C 49.1667,63.5 49.5,63.1667 49.5,62.5C 54.8333,59.1667 59.1667,54.8333 62.5,49.5C 63.1667,49.5 63.5,49.1667 63.5,48.5C 64.1667,48.5 64.5,48.1667 64.5,47.5C 65.1667,47.5 65.5,47.1667 65.5,46.5C 66.1667,46.5 66.5,46.1667 66.5,45.5 Z"/></g>
<g><path style="opacity:0.946" fill="#656565" d="M 38.5,47.5 C 41.7642,49.0941 44.4309,51.4275 46.5,54.5C 46.0766,55.2646 45.7432,56.0979 45.5,57C 46.741,58.7309 47.741,60.5642 48.5,62.5C 48.5,62.8333 48.5,63.1667 48.5,63.5C 47.8333,63.5 47.5,63.8333 47.5,64.5C 46.8333,64.5 46.5,64.8333 46.5,65.5C 45.8333,65.5 45.5,65.8333 45.5,66.5C 44.8333,66.5 44.5,66.8333 44.5,67.5C 43.8333,67.5 43.5,67.8333 43.5,68.5C 38.1781,70.9271 36.5114,74.7604 38.5,80C 38.0125,89.1608 33.6792,95.6608 25.5,99.5C 21.5,99.5 17.5,99.5 13.5,99.5C 12.791,98.596 11.791,98.2627 10.5,98.5C 10.4914,96.6916 10.9914,95.0249 12,93.5C 14.677,90.4908 17.677,87.8242 21,85.5C 21.4222,81.4027 19.5888,78.736 15.5,77.5C 12.0154,80.484 8.68205,83.6507 5.5,87C 3.16971,89.0913 1.16971,88.9246 -0.5,86.5C -0.5,82.5 -0.5,78.5 -0.5,74.5C 4.16903,62.9145 12.669,58.5812 25,61.5C 29.7033,56.9645 34.2033,52.2979 38.5,47.5 Z"/></g>
<g><path style="opacity:0.984" fill="#415f86" d="M 73.5,53.5 C 75.1392,54.4725 76.4726,55.8058 77.5,57.5C 70.5,63.8333 63.8333,70.5 57.5,77.5C 55.8333,76.5 54.5,75.1667 53.5,73.5C 58.9043,66.5899 64.9043,60.0899 71.5,54C 72.0944,53.5357 72.7611,53.369 73.5,53.5 Z"/></g>
<g><path style="opacity:1" fill="#e97628" d="M 77.5,57.5 C 78.1667,57.5 78.5,57.8333 78.5,58.5C 72.1667,65.5 65.5,72.1667 58.5,78.5C 57.8333,78.5 57.5,78.1667 57.5,77.5C 63.8333,70.5 70.5,63.8333 77.5,57.5 Z"/></g>
<g><path style="opacity:0.983" fill="#415f85" d="M 78.5,58.5 C 80.1667,59.5 81.5,60.8333 82.5,62.5C 75.8333,68.8333 69.1667,75.1667 62.5,81.5C 60.5956,81.2624 59.2623,80.2624 58.5,78.5C 65.5,72.1667 72.1667,65.5 78.5,58.5 Z"/></g>
<g><path style="opacity:1" fill="#ea7627" d="M 82.5,62.5 C 83.1667,62.5 83.5,62.8333 83.5,63.5C 77.1667,70.5 70.5,77.1667 63.5,83.5C 62.6618,83.1583 62.3284,82.4916 62.5,81.5C 69.1667,75.1667 75.8333,68.8333 82.5,62.5 Z"/></g>
<g><path style="opacity:0.964" fill="#325e8c" d="M 83.5,63.5 C 90.6821,68.1839 95.3488,74.6839 97.5,83C 96.3064,93.0969 90.6398,97.7636 80.5,97C 77.0482,96.1083 74.0482,94.4416 71.5,92C 69.3048,88.6406 66.6381,85.8072 63.5,83.5C 70.5,77.1667 77.1667,70.5 83.5,63.5 Z M 81.5,78.5 C 89.9196,80.4113 90.5862,83.7447 83.5,88.5C 77.9368,86.0635 77.2701,82.7302 81.5,78.5 Z"/></g>
</svg>
