<?xml version="1.0" encoding="UTF-8"?>
<!DOCTYPE svg PUBLIC "-//W3C//DTD SVG 1.1//EN" "http://www.w3.org/Graphics/SVG/1.1/DTD/svg11.dtd">
<!-- Creator: CorelDRAW -->
<svg xmlns="http://www.w3.org/2000/svg" xml:space="preserve" width="1.70666in" height="1.70666in" version="1.1" style="shape-rendering:geometricPrecision; text-rendering:geometricPrecision; image-rendering:optimizeQuality; fill-rule:evenodd; clip-rule:evenodd"
viewBox="0 0 1706.66 1706.66"
 xmlns:xlink="http://www.w3.org/1999/xlink"
 xmlns:xodm="http://www.corel.com/coreldraw/odm/2003">
 <defs>
  <style type="text/css">
   <![CDATA[
    .fil1 {fill:#335F8C}
    .fil0 {fill:#666666}
    .fil3 {fill:#CEE1FE}
    .fil2 {fill:#FF7A1B}
   ]]>
  </style>
 </defs>
 <g id="Layer_x0020_1">
  <metadata id="CorelCorpID_0Corel-Layer"/>
  <g id="_2615420313856">
   <path class="fil0" d="M1609.62 565.08c-91.86,91.86 -230.26,120.98 -350.73,75.76l-618.07 618.07c99.24,264.19 -159.21,525.38 -424.73,427.1 -21.77,-8.06 -27.96,-36.28 -11.55,-52.69l188.45 -188.45 -43.77 -87.43 -87.43 -43.77 -188.46 188.46c-70.02,70.02 -131.88,-204.96 23.7,-360.54 91.86,-91.86 230.26,-120.98 350.73,-75.72l618.07 -618.09c-99.21,-264.21 159.2,-525.43 424.73,-427.13 21.78,8.06 27.94,36.29 11.53,52.7l-188.46 188.47 43.77 87.42 87.43 43.78 188.45 -188.45c70.05,-70.05 131.89,204.94 -23.69,360.52z"/>
   <path class="fil1" d="M1428.34 1660.42c-62.13,0 -120.4,-24.02 -164.06,-67.68l-360.85 -360.87c-16.7,-16.7 4.28,-41.1 22.2,-32.65l273.23 -273.23c-8.44,-17.94 16.02,-38.85 32.67,-22.19l360.84 360.85c144.31,144.34 43.95,395.76 -164.03,395.76zm6.25 -136.24c-79.08,0 -119.17,-96.3 -63.11,-152.36 56.14,-56.14 152.35,-16.11 152.35,63.11 0,49.3 -39.95,89.25 -89.25,89.25z"/>
   <path class="fil2" d="M1102.18 1430.63l-28.3 -28.3 328.08 -328.08 28.3 28.3 -328.08 328.08zm-86.04 -86.04l-28.3 -28.3 328.08 -328.08 28.3 28.3 -328.08 328.08z"/>
   <path class="fil3" d="M843.08 962.46c-5.12,0 -10.24,-1.96 -14.13,-5.86l-430.31 -430.31 -136.36 -36.54c-5.25,-1.42 -9.7,-4.9 -12.33,-9.65l-133.25 -241.5c-4.3,-7.81 -2.93,-17.51 3.37,-23.81l94.37 -94.37c6.3,-6.3 16,-7.67 23.8,-3.37l241.5 133.23c4.77,2.62 8.25,7.08 9.65,12.33l36.53 136.36 430.31 430.31c17.13,17.11 -5.39,42.37 -23.6,31.92l-71.86 71.86c6.83,12.63 -2.13,29.4 -17.7,29.4z"/>
   <path class="fil1" d="M894.69 1106.6c-5.11,0 -10.24,-1.96 -14.15,-5.87l-88.86 -88.87c-12.07,-12.07 -15.33,-30.99 -3.43,-42.86l180.41 -180.4c11.98,-11.97 30.88,-8.52 42.83,3.45l88.88 88.85c16.67,16.68 -4.24,41.05 -22.15,32.68l-165.1 165.1c5.4,12.41 -3.43,27.92 -18.43,27.92z"/>
   <path class="fil2" d="M847.83 1289.24c-28.72,0 -45.48,-24.15 -68.97,-47.64 -20.05,-20.05 -20.06,-52.65 0,-72.69l363.63 -363.63c19.4,-19.39 53.35,-19.36 72.69,0 20.55,20.56 75.08,62.86 32.61,105.3l-363.6 363.65c-9.71,9.69 -22.61,15.01 -36.36,15.01z"/>
  </g>
 </g>
</svg>
