<svg xmlns="http://www.w3.org/2000/svg" viewBox="0 0 64 64"><defs><style>.cls-1{fill:#ccc;}.cls-2{fill:#e6e6e6;}.cls-3{fill:#e4202b;}.cls-4{fill:#828282;}.cls-5{fill:#d3d0c9;}.cls-6{fill:#0097ce;}</style></defs><g id="Layer_46" data-name="Layer 46"><path class="cls-1" d="M52.55,4.39H49.16a.61.61,0,0,0-.56.81c.1,0,0,3.63,0,3.74a.59.59,0,0,0,.6.65h3.29a2.41,2.41,0,0,1,2.4,2.4V53.08a2.41,2.41,0,0,1-2.4,2.4H11.45a2.41,2.41,0,0,1-2.4-2.4V12a2.41,2.41,0,0,1,2.4-2.4h3.31a.6.6,0,0,0,.6-.6c0-.07,0-3.85.05-3.79a.61.61,0,0,0-.56-.81h-3.4A7.61,7.61,0,0,0,3.85,12V53.08a7.61,7.61,0,0,0,7.6,7.6h41.1a7.61,7.61,0,0,0,7.6-7.6V12A7.61,7.61,0,0,0,52.55,4.39Z"/><rect class="cls-2" x="7.85" y="8.39" width="48.29" height="48.29" rx="3.6"/><path class="cls-3" d="M52.54,8.39H11.45A3.61,3.61,0,0,0,7.85,12v4.94a.6.6,0,0,0,.6.6H55.54a.6.6,0,0,0,.6-.6V12A3.61,3.61,0,0,0,52.54,8.39Z"/><path class="cls-2" d="M16.9,3.32A2.29,2.29,0,0,0,14.16,5.5v7c0,2.95,4.91,2.95,4.93,0v-7A2.19,2.19,0,0,0,16.9,3.32Z"/><path class="cls-2" d="M32.28,3.32A2.29,2.29,0,0,0,29.54,5.5v7c0,2.95,4.91,2.95,4.93,0v-7A2.19,2.19,0,0,0,32.28,3.32Z"/><path class="cls-2" d="M47.66,3.32A2.3,2.3,0,0,0,44.91,5.5v7c0,2.95,4.92,2.95,4.94,0v-7A2.19,2.19,0,0,0,47.66,3.32Z"/><path class="cls-4" d="M40.52,24.11a4.24,4.24,0,0,0-4,2.69.59.59,0,0,0,.73.78l-.17.68,3.93,4.06L41.7,32a.57.57,0,0,0,.74.2A4.27,4.27,0,0,0,40.52,24.11Z"/><path class="cls-4" d="M23.47,24.11a4.26,4.26,0,0,0-1.72,8.15.59.59,0,0,0,.75-.84l4-3.92a.6.6,0,0,0,1-.61A4.28,4.28,0,0,0,23.47,24.11Z"/><path class="cls-4" d="M32.1,22c-.94-.16-4.68,1.15-3.74,2.4a.59.59,0,0,0,.85,0,4.07,4.07,0,0,1,2.29-1.14v2.62a.6.6,0,0,0,1.2,0V23.26A4.06,4.06,0,0,1,35,24.4a.58.58,0,0,0,.42.18.6.6,0,0,0,.43-1A5.27,5.27,0,0,0,32.1,22Z"/><path class="cls-4" d="M23.41,45.43,20,48.86a.6.6,0,0,0,.85.85l3.42-3.43C24.81,45.74,24,44.87,23.41,45.43Z"/><path class="cls-4" d="M44.22,48.86,40.8,45.43a.6.6,0,0,0-.85.85l3.43,3.43A.6.6,0,0,0,44.22,48.86Z"/><path class="cls-5" d="M32.1,25.28a12.32,12.32,0,0,0-12.3,12.3c.68,16.32,23.93,16.31,24.6,0A12.32,12.32,0,0,0,32.1,25.28Z"/><path class="cls-4" d="M36.9,39.42H32.1a.6.6,0,0,1-.6-.6V32a.6.6,0,0,1,1.2,0v6.24h4.2A.6.6,0,0,1,36.9,39.42Z"/><path class="cls-6" d="M14.65,21.12a.6.6,0,0,1-.6-.6V19a.6.6,0,0,1,1.2,0v1.5A.6.6,0,0,1,14.65,21.12Z"/><path class="cls-6" d="M14.65,26.83a.6.6,0,0,1-.6-.6v-1.5a.6.6,0,1,1,1.2,0v1.5A.6.6,0,0,1,14.65,26.83Z"/><path class="cls-6" d="M16.13,21.73a.61.61,0,0,1-.42-1l1.05-1.05a.59.59,0,0,1,.85,0,.61.61,0,0,1,0,.85l-1.06,1.05A.58.58,0,0,1,16.13,21.73Z"/><path class="cls-6" d="M18.23,23.2H16.74a.6.6,0,0,1-.6-.6.6.6,0,0,1,.6-.6h1.49A.6.6,0,0,1,18.23,23.2Z"/><path class="cls-6" d="M17.18,25.73a.58.58,0,0,1-.42-.17L15.71,24.5a.59.59,0,0,1,.84-.84l1.06,1.05A.6.6,0,0,1,17.18,25.73Z"/><path class="cls-6" d="M12.12,25.73a.6.6,0,0,1-.42-1l1.05-1.05a.59.59,0,0,1,.85,0,.58.58,0,0,1,0,.84l-1,1.06A.59.59,0,0,1,12.12,25.73Z"/><path class="cls-6" d="M12.57,23.2h-1.5a.6.6,0,0,1-.6-.6.6.6,0,0,1,.6-.6h1.5A.6.6,0,0,1,12.57,23.2Z"/><path class="cls-6" d="M13.18,21.73a.6.6,0,0,1-.43-.18L11.7,20.5a.6.6,0,0,1,.85-.85l1,1.05A.61.61,0,0,1,13.18,21.73Z"/><path class="cls-6" d="M16.15,45.15a.6.6,0,0,1-.6-.6c.06-.55-.28-1.77.6-1.79a.6.6,0,0,1,.6.6C16.68,43.91,17,45.13,16.15,45.15Z"/><path class="cls-6" d="M16.15,49.71a.6.6,0,0,1-.6-.61c.06-.55-.28-1.76.6-1.79a.6.6,0,0,1,.6.6C16.68,48.46,17,49.68,16.15,49.71Z"/><path class="cls-6" d="M17.32,45.64a.61.61,0,0,1-.42-1l.84-.84c.54-.56,1.41.31.85.85C18.33,44.82,17.7,45.7,17.32,45.64Z"/><path class="cls-6" d="M19,46.82H17.81a.6.6,0,0,1-.6-.6c0-.88,1.24-.54,1.79-.6A.6.6,0,0,1,19,46.82Z"/><path class="cls-6" d="M18.16,48.83c-.37.06-1-.82-1.26-1-.56-.55.31-1.41.85-.85l.84.84A.6.6,0,0,1,18.16,48.83Z"/><path class="cls-6" d="M14.13,48.83a.6.6,0,0,1-.43-1c.42-.34,1.07-1.45,1.69-.84a.59.59,0,0,1,0,.85C15.13,48,14.51,48.89,14.13,48.83Z"/><path class="cls-6" d="M14.48,46.82H13.29a.6.6,0,0,1-.6-.6c0-.88,1.24-.54,1.79-.6A.6.6,0,0,1,14.48,46.82Z"/><path class="cls-6" d="M15,45.64c-.37,0-1-.82-1.27-1a.61.61,0,0,1,0-.85c.63-.61,1.27.51,1.69.84A.61.61,0,0,1,15,45.64Z"/><path class="cls-6" d="M49.57,23.23a.6.6,0,0,1-.6-.6v-1.5a.6.6,0,0,1,1.2,0v1.5A.6.6,0,0,1,49.57,23.23Z"/><path class="cls-6" d="M49.57,28.94a.6.6,0,0,1-.6-.61V26.84a.6.6,0,0,1,1.2,0v1.49A.6.6,0,0,1,49.57,28.94Z"/><path class="cls-6" d="M51,23.84a.61.61,0,0,1-.42-1l1.06-1a.58.58,0,0,1,.84,0,.59.59,0,0,1,0,.85l-1.05,1.05A.6.6,0,0,1,51,23.84Z"/><path class="cls-6" d="M53.15,25.31H51.66a.6.6,0,1,1,0-1.2h1.49A.6.6,0,0,1,53.15,25.31Z"/><path class="cls-6" d="M52.1,27.84a.57.57,0,0,1-.42-.17l-1.06-1.06a.6.6,0,0,1,.85-.85l1.05,1.06A.6.6,0,0,1,52.1,27.84Z"/><path class="cls-6" d="M47,27.84a.6.6,0,0,1-.43-1l1.06-1.06a.6.6,0,0,1,.85.85l-1.06,1.06A.58.58,0,0,1,47,27.84Z"/><path class="cls-6" d="M47.48,25.31H46a.6.6,0,0,1,0-1.2h1.49A.6.6,0,0,1,47.48,25.31Z"/><path class="cls-6" d="M48.09,23.84a.59.59,0,0,1-.42-.18l-1.06-1.05a.61.61,0,0,1,0-.85.59.59,0,0,1,.85,0l1.06,1A.61.61,0,0,1,48.09,23.84Z"/><path class="cls-6" d="M49,44.11a.6.6,0,0,1-.6-.6V42.06a.6.6,0,1,1,1.19,0v1.45A.59.59,0,0,1,49,44.11Z"/><path class="cls-6" d="M49,49.66a.6.6,0,0,1-.6-.6V47.61a.6.6,0,1,1,1.19,0v1.45A.59.59,0,0,1,49,49.66Z"/><path class="cls-6" d="M50.43,44.7a.6.6,0,0,1-.42-1c.59-.49,1.22-1.64,1.87-1s-.53,1.28-1,1.88A.57.57,0,0,1,50.43,44.7Z"/><path class="cls-6" d="M52.48,46.14H51a.6.6,0,0,1,0-1.2h1.46A.6.6,0,0,1,52.48,46.14Z"/><path class="cls-6" d="M51.46,48.6a.6.6,0,0,1-.43-.18c-.49-.59-1.64-1.22-1-1.87s1.28.53,1.88,1A.6.6,0,0,1,51.46,48.6Z"/><path class="cls-6" d="M46.53,48.6a.6.6,0,0,1-.42-1c.59-.5,1.22-1.65,1.87-1s-.53,1.28-1,1.87A.6.6,0,0,1,46.53,48.6Z"/><path class="cls-6" d="M47,46.14H45.51a.6.6,0,0,1,0-1.2H47A.6.6,0,0,1,47,46.14Z"/><path class="cls-6" d="M47.56,44.7a.57.57,0,0,1-.42-.17c-.5-.6-1.65-1.22-1-1.88s1.28.54,1.87,1A.6.6,0,0,1,47.56,44.7Z"/><path d="M36.9,38.22H32.7V32a.6.6,0,0,0-1.2,0v6.84a.6.6,0,0,0,.6.6h4.8A.6.6,0,0,0,36.9,38.22Z"/><path d="M21.18,32A12.34,12.34,0,0,0,23,45.83l-3,3a.59.59,0,0,0,0,.85.61.61,0,0,0,.85,0l3-3c4.28,4.21,12.22,4.21,16.5,0l3,3a.6.6,0,0,0,.84-.85l-3-3a12.35,12.35,0,0,0,1.77-14,4.27,4.27,0,0,0-2.45-7.74,4.23,4.23,0,0,0-3.68,2.13,12.14,12.14,0,0,0-4.14-.93v-2A4.06,4.06,0,0,1,35,24.4a.58.58,0,0,0,.42.18.6.6,0,0,0,.43-1,5.31,5.31,0,0,0-7.49,0,.58.58,0,0,0,0,.84.59.59,0,0,0,.85,0,4.07,4.07,0,0,1,2.29-1.14v2a12.35,12.35,0,0,0-4.3,1,4.26,4.26,0,1,0-6,5.65ZM32.1,48.68A11.11,11.11,0,0,1,21,37.58c.61-14.72,21.59-14.72,22.2,0A11.11,11.11,0,0,1,32.1,48.68Zm8.42-23.37a3.07,3.07,0,0,1,1.84,5.5,12.45,12.45,0,0,0-4.42-4A3,3,0,0,1,40.52,25.31Zm-17.05,0a3.05,3.05,0,0,1,2.65,1.53,12.39,12.39,0,0,0-4.34,4.08A3.08,3.08,0,0,1,23.47,25.31Z"/><path d="M52.54,4.39h-3A2.4,2.4,0,0,0,47.1,3.32,2.18,2.18,0,0,0,44.92,5.5V8.39H34.47V5.5a2.3,2.3,0,0,0-2.75-2.18A2.19,2.19,0,0,0,29.54,5.5V8.39H19.09V5.5A2.19,2.19,0,0,0,16.9,3.32a2.44,2.44,0,0,0-2.43,1.07h-3A7.6,7.6,0,0,0,3.86,12V53.08a7.6,7.6,0,0,0,7.6,7.6H52.54a7.6,7.6,0,0,0,7.6-7.6V12A7.6,7.6,0,0,0,52.54,4.39ZM46.11,5.5c0-.88.81-1,1.55-1a1,1,0,0,1,1,1v7c0,.89-.81,1-1.55,1a1,1,0,0,1-1-1Zm-15.37,0c0-.89.8-1,1.54-1a1,1,0,0,1,1,1V9s0,0,0,0v3.48a1,1,0,0,1-1,1c-.74.06-1.51-.09-1.54-1Zm-1.2,4.09v2.89a2.3,2.3,0,0,0,2.74,2.19,2.19,2.19,0,0,0,2.19-2.19V9.59H44.92v2.89a2.3,2.3,0,0,0,2.74,2.19,2.18,2.18,0,0,0,2.18-2.19V9.59h2.7a2.4,2.4,0,0,1,2.4,2.4v4.34H9.05V12a2.41,2.41,0,0,1,2.4-2.4h2.71v2.89a2.3,2.3,0,0,0,2.74,2.19,2.19,2.19,0,0,0,2.19-2.19V9.59ZM9.05,17.53H54.94V53.08a2.4,2.4,0,0,1-2.4,2.4H11.45a2.41,2.41,0,0,1-2.4-2.4Zm6.31-12c0-.89.8-1,1.54-1a1,1,0,0,1,1,1V9a0,0,0,0,0,0,0v3.47a1,1,0,0,1-1,1c-.74.06-1.51-.1-1.54-1ZM59,53.08a6.41,6.41,0,0,1-6.41,6.4H11.46a6.41,6.41,0,0,1-6.41-6.4V12a6.41,6.41,0,0,1,6.41-6.4h2.7v2.8H11.45A3.6,3.6,0,0,0,7.85,12V53.08a3.61,3.61,0,0,0,3.6,3.6H52.54a3.6,3.6,0,0,0,3.6-3.6V16.94s0,0,0,0V12a3.6,3.6,0,0,0-3.6-3.6h-2.7V5.59h2.7A6.41,6.41,0,0,1,59,12Z"/><path d="M14.65,21.12a.6.6,0,0,0,.6-.6V19a.6.6,0,0,0-1.2,0v1.5A.6.6,0,0,0,14.65,21.12Z"/><path d="M14.65,26.83a.6.6,0,0,0,.6-.6v-1.5a.6.6,0,1,0-1.2,0v1.5A.6.6,0,0,0,14.65,26.83Z"/><path d="M16.13,21.73a.58.58,0,0,0,.42-.18l1.06-1.05a.61.61,0,0,0,0-.85.59.59,0,0,0-.85,0L15.71,20.7A.61.61,0,0,0,16.13,21.73Z"/><path d="M16.14,22.6a.6.6,0,0,0,.6.6h1.49a.6.6,0,0,0,.6-.6.6.6,0,0,0-.6-.6H16.74A.6.6,0,0,0,16.14,22.6Z"/><path d="M16.76,25.56a.6.6,0,0,0,.85-.85l-1.06-1.05a.59.59,0,0,0-.84.84Z"/><path d="M13.6,23.66a.59.59,0,0,0-.85,0L11.7,24.71a.59.59,0,0,0,0,.85.61.61,0,0,0,.85,0l1-1.06A.58.58,0,0,0,13.6,23.66Z"/><path d="M11.07,23.2h1.5a.6.6,0,0,0,.6-.6.6.6,0,0,0-.6-.6h-1.5A.6.6,0,0,0,11.07,23.2Z"/><path d="M12.75,21.55a.6.6,0,0,0,.85-.85l-1-1.05c-.54-.56-1.41.3-.85.85Z"/><path d="M16.15,42.76a.6.6,0,0,0-.6.6c.06.55-.28,1.77.6,1.79a.6.6,0,0,0,.6-.6C16.68,44,17,42.78,16.15,42.76Z"/><path d="M16.15,47.31a.6.6,0,0,0-.6.6c.06.55-.28,1.77.6,1.8a.6.6,0,0,0,.6-.61C16.68,48.55,17,47.34,16.15,47.31Z"/><path d="M16.9,45.46a.59.59,0,0,0,.85,0c.33-.42,1.45-1.06.84-1.69a.61.61,0,0,0-.85,0C17.4,44.19,16.29,44.84,16.9,45.46Z"/><path d="M17.21,46.22a.6.6,0,0,0,.6.6c.55-.07,1.77.28,1.79-.6a.6.6,0,0,0-.6-.6C18.45,45.68,17.23,45.34,17.21,46.22Z"/><path d="M17.75,47c-.54-.56-1.41.3-.85.85.26.19.88,1.07,1.26,1a.6.6,0,0,0,.43-1Z"/><path d="M15.39,47a.59.59,0,0,0-.85,0c-.33.42-1.45,1.06-.84,1.69a.61.61,0,0,0,.85,0C14.89,48.24,16,47.59,15.39,47Z"/><path d="M15.08,46.22a.6.6,0,0,0-.6-.6c-.55.06-1.77-.28-1.79.6a.6.6,0,0,0,.6.6C13.84,46.75,15.06,47.1,15.08,46.22Z"/><path d="M13.7,43.77c-.6.63.51,1.27.84,1.69a.59.59,0,0,0,.85,0c.61-.62-.5-1.27-.84-1.69A.61.61,0,0,0,13.7,43.77Z"/><path d="M49.57,23.23a.6.6,0,0,0,.6-.6v-1.5a.6.6,0,0,0-1.2,0v1.5A.6.6,0,0,0,49.57,23.23Z"/><path d="M49.57,28.94a.6.6,0,0,0,.6-.61V26.84a.6.6,0,0,0-1.2,0v1.49A.6.6,0,0,0,49.57,28.94Z"/><path d="M51,23.84a.6.6,0,0,0,.43-.18l1.05-1.05a.59.59,0,0,0,0-.85.58.58,0,0,0-.84,0l-1.06,1A.61.61,0,0,0,51,23.84Z"/><path d="M51.06,24.71a.6.6,0,0,0,.6.6h1.49a.6.6,0,0,0,0-1.2H51.66A.6.6,0,0,0,51.06,24.71Z"/><path d="M51.68,27.67a.6.6,0,0,0,.84-.85l-1.05-1.06c-.54-.55-1.41.31-.85.85Z"/><path d="M47,27.84a.58.58,0,0,0,.42-.17l1.06-1.06a.6.6,0,0,0-.85-.85l-1.06,1.06A.6.6,0,0,0,47,27.84Z"/><path d="M46,25.31h1.49a.6.6,0,0,0,0-1.2H46A.6.6,0,0,0,46,25.31Z"/><path d="M47.67,23.66a.6.6,0,0,0,.85-.85l-1.06-1c-.54-.56-1.41.3-.85.85Z"/><path d="M49,41.46a.6.6,0,0,0-.6.6v1.45a.6.6,0,1,0,1.19,0V42.06A.59.59,0,0,0,49,41.46Z"/><path d="M49,47a.6.6,0,0,0-.6.6v1.45a.6.6,0,1,0,1.19,0V47.61A.59.59,0,0,0,49,47Z"/><path d="M50.43,44.7a.57.57,0,0,0,.42-.17c.5-.6,1.65-1.22,1-1.88s-1.28.54-1.87,1A.6.6,0,0,0,50.43,44.7Z"/><path d="M52.48,44.94H51a.6.6,0,0,0,0,1.2h1.46A.6.6,0,0,0,52.48,44.94Z"/><path d="M50.85,46.55c-.54-.56-1.4.31-.84.85l1,1a.6.6,0,0,0,.85-.84Z"/><path d="M47.14,46.55l-1,1a.6.6,0,0,0,.85.84l1-1C48.54,46.86,47.68,46,47.14,46.55Z"/><path d="M45.51,46.14H47a.6.6,0,0,0,0-1.2H45.51A.6.6,0,0,0,45.51,46.14Z"/><path d="M47,42.65c-.55-.55-1.41.31-.85.85l1,1a.6.6,0,0,0,.84-.85Z"/></g></svg>