<?xml version="1.0" encoding="UTF-8"?>
<!DOCTYPE svg PUBLIC "-//W3C//DTD SVG 1.1//EN" "http://www.w3.org/Graphics/SVG/1.1/DTD/svg11.dtd">
<svg xmlns="http://www.w3.org/2000/svg" version="1.1" width="100px" height="100px" style="shape-rendering:geometricPrecision; text-rendering:geometricPrecision; image-rendering:optimizeQuality; fill-rule:evenodd; clip-rule:evenodd" xmlns:xlink="http://www.w3.org/1999/xlink">
<g><path style="opacity:0.977" fill="#141110" d="M 70.5,5.5 C 71.3382,5.84171 71.6716,6.50838 71.5,7.5C 71.5,11.8333 71.5,16.1667 71.5,20.5C 72.8333,20.5 74.1667,20.5 75.5,20.5C 75.5,17.8333 75.5,15.1667 75.5,12.5C 76.1667,12.5 76.8333,12.5 77.5,12.5C 81.1547,11.925 84.1547,12.925 86.5,15.5C 85.8333,15.5 85.5,15.8333 85.5,16.5C 83.1799,14.7739 80.5133,14.1072 77.5,14.5C 77.6621,16.5273 77.4955,18.5273 77,20.5C 74.6667,23.1667 72.3333,23.1667 70,20.5C 69.5045,18.5273 69.3379,16.5273 69.5,14.5C 64.1667,14.5 58.8333,14.5 53.5,14.5C 53.6621,16.5273 53.4955,18.5273 53,20.5C 50.6667,23.1667 48.3333,23.1667 46,20.5C 45.5045,18.5273 45.3379,16.5273 45.5,14.5C 40.1667,14.5 34.8333,14.5 29.5,14.5C 29.6621,16.5273 29.4955,18.5273 29,20.5C 26.6667,23.1667 24.3333,23.1667 22,20.5C 21.5045,18.5273 21.3379,16.5273 21.5,14.5C 18.4867,14.1072 15.8201,14.7739 13.5,16.5C 13.5,15.8333 13.1667,15.5 12.5,15.5C 14.8453,12.925 17.8453,11.925 21.5,12.5C 21.5,11.1667 21.5,9.83333 21.5,8.5C 15.4105,7.13715 10.9105,9.13715 8,14.5C 7.33333,38.1667 7.33333,61.8333 8,85.5C 8.78597,88.5827 10.6193,90.7494 13.5,92C 36.831,92.5 60.1643,92.6666 83.5,92.5C 61.2122,93.5005 37.5455,93.8338 12.5,93.5C 9.57219,92.4086 7.40552,90.4086 6,87.5C 5.33333,62.8333 5.33333,38.1667 6,13.5C 7.5,10.6667 9.66667,8.5 12.5,7C 17.9714,5.16602 23.4714,4.66602 29,5.5C 29.4966,7.80982 29.6633,10.1432 29.5,12.5C 34.8333,12.5 40.1667,12.5 45.5,12.5C 43.8203,5.34074 46.3203,3.0074 53,5.5C 53.4966,7.80982 53.6633,10.1432 53.5,12.5C 58.8333,12.5 64.1667,12.5 69.5,12.5C 69.1984,9.9407 69.5318,7.60737 70.5,5.5 Z"/></g>
<g><path style="opacity:1" fill="#dddddd" d="M 23.5,6.5 C 24.8333,6.5 26.1667,6.5 27.5,6.5C 27.5,11.1667 27.5,15.8333 27.5,20.5C 26.1667,20.5 24.8333,20.5 23.5,20.5C 23.5,15.8333 23.5,11.1667 23.5,6.5 Z"/></g>
<g><path style="opacity:1" fill="#dddddd" d="M 47.5,6.5 C 48.8333,6.5 50.1667,6.5 51.5,6.5C 51.5,11.1667 51.5,15.8333 51.5,20.5C 50.1667,20.5 48.8333,20.5 47.5,20.5C 47.5,15.8333 47.5,11.1667 47.5,6.5 Z"/></g>
<g><path style="opacity:1" fill="#dddddd" d="M 75.5,12.5 C 75.5,15.1667 75.5,17.8333 75.5,20.5C 74.1667,20.5 72.8333,20.5 71.5,20.5C 71.5,16.1667 71.5,11.8333 71.5,7.5C 72.7079,6.76589 74.0413,6.43255 75.5,6.5C 75.5,8.5 75.5,10.5 75.5,12.5 Z"/></g>
<g><path style="opacity:1" fill="#c4c3c3" d="M 12.5,15.5 C 11.3447,38.4274 11.178,61.4274 12,84.5C 12.8333,85.3333 13.6667,86.1667 14.5,87C 37.8333,87.6667 61.1667,87.6667 84.5,87C 85.3333,86.1667 86.1667,85.3333 87,84.5C 87.822,61.4274 87.6553,38.4274 86.5,15.5C 84.1547,12.925 81.1547,11.925 77.5,12.5C 77.5,11.1667 77.5,9.83333 77.5,8.5C 83.5895,7.13715 88.0895,9.13715 91,14.5C 91.6667,38.5 91.6667,62.5 91,86.5C 89.2926,89.5904 86.7926,91.5904 83.5,92.5C 60.1643,92.6666 36.831,92.5 13.5,92C 10.6193,90.7494 8.78597,88.5827 8,85.5C 7.33333,61.8333 7.33333,38.1667 8,14.5C 10.9105,9.13715 15.4105,7.13715 21.5,8.5C 21.5,9.83333 21.5,11.1667 21.5,12.5C 17.8453,11.925 14.8453,12.925 12.5,15.5 Z"/></g>
<g><path style="opacity:1" fill="#d51e28" d="M 85.5,16.5 C 85.5,19.5 85.5,22.5 85.5,25.5C 61.5,25.5 37.5,25.5 13.5,25.5C 13.5,22.5 13.5,19.5 13.5,16.5C 15.8201,14.7739 18.4867,14.1072 21.5,14.5C 21.3379,16.5273 21.5045,18.5273 22,20.5C 24.3333,23.1667 26.6667,23.1667 29,20.5C 29.4955,18.5273 29.6621,16.5273 29.5,14.5C 34.8333,14.5 40.1667,14.5 45.5,14.5C 45.3379,16.5273 45.5045,18.5273 46,20.5C 48.3333,23.1667 50.6667,23.1667 53,20.5C 53.4955,18.5273 53.6621,16.5273 53.5,14.5C 58.8333,14.5 64.1667,14.5 69.5,14.5C 69.3379,16.5273 69.5045,18.5273 70,20.5C 72.3333,23.1667 74.6667,23.1667 77,20.5C 77.4955,18.5273 77.6621,16.5273 77.5,14.5C 80.5133,14.1072 83.1799,14.7739 85.5,16.5 Z"/></g>
<g><path style="opacity:1" fill="#201a1a" d="M 12.5,15.5 C 13.1667,15.5 13.5,15.8333 13.5,16.5C 13.5,19.5 13.5,22.5 13.5,25.5C 37.5,25.5 61.5,25.5 85.5,25.5C 85.5,22.5 85.5,19.5 85.5,16.5C 85.5,15.8333 85.8333,15.5 86.5,15.5C 87.6553,38.4274 87.822,61.4274 87,84.5C 86.1667,85.3333 85.3333,86.1667 84.5,87C 61.1667,87.6667 37.8333,87.6667 14.5,87C 13.6667,86.1667 12.8333,85.3333 12,84.5C 11.178,61.4274 11.3447,38.4274 12.5,15.5 Z"/></g>
<g><path style="opacity:1" fill="#dcddde" d="M 13.5,27.5 C 37.5,27.5 61.5,27.5 85.5,27.5C 85.6666,46.5029 85.4999,65.5029 85,84.5C 84.2496,85.1258 83.4162,85.6258 82.5,86C 60.1667,86.6667 37.8333,86.6667 15.5,86C 15,85.5 14.5,85 14,84.5C 13.5001,65.5029 13.3334,46.5029 13.5,27.5 Z"/></g>
<g><path style="opacity:1" fill="#1a282e" d="M 21.5,28.5 C 22.9311,28.8807 23.7645,29.8807 24,31.5C 27.4741,30.0723 27.9741,30.5723 25.5,33C 26.624,33.2492 27.624,33.7492 28.5,34.5C 27.1667,35.8333 25.8333,35.8333 24.5,34.5C 22.4411,33.0488 21.4411,31.0488 21.5,28.5 Z"/></g>
<g><path style="opacity:1" fill="#263840" d="M 17.5,31.5 C 20.203,30.5608 20.8697,31.5608 19.5,34.5C 14.7298,35.8957 14.3965,35.229 18.5,32.5C 18.3764,31.8933 18.0431,31.56 17.5,31.5 Z"/></g>
<g><path style="opacity:1" fill="#293b42" d="M 75.5,31.5 C 76.5,31.5 77.5,31.5 78.5,31.5C 78.3505,32.552 78.5172,33.552 79,34.5C 79.8928,33.2888 80.7261,33.2888 81.5,34.5C 81.1131,35.7199 80.2798,36.3865 79,36.5C 76.9461,35.9212 74.9461,35.5879 73,35.5C 72.6911,33.4871 73.3577,33.1537 75,34.5C 75.4828,33.552 75.6495,32.552 75.5,31.5 Z"/></g>
<g><path style="opacity:1" fill="#131d21" d="M 23.5,37.5 C 24.8917,36.478 26.225,36.8113 27.5,38.5C 27.1667,38.8333 26.8333,39.1667 26.5,39.5C 25.4822,38.8075 24.4822,38.1408 23.5,37.5 Z"/></g>
<g><path style="opacity:1" fill="#171717" d="M 45.5,34.5 C 48.1873,34.3359 50.854,34.5026 53.5,35C 55.2705,35.5354 55.6039,36.3687 54.5,37.5C 53.2638,36.7542 51.9305,36.4208 50.5,36.5C 50.5,37.5 50.5,38.5 50.5,39.5C 52.4008,39.4332 54.2341,39.7665 56,40.5C 59.4341,37.2343 63.2674,36.7343 67.5,39C 70.3695,42.8153 70.0362,46.3153 66.5,49.5C 69.5292,57.0116 68.8626,64.1783 64.5,71C 70,78.1667 69.1667,79 62,73.5C 53.3998,79.1387 45.0665,78.8053 37,72.5C 35.5,74 34,75.5 32.5,77C 31.6683,77.6877 31.0016,77.521 30.5,76.5C 31.982,74.5171 33.6487,72.6837 35.5,71C 30.4031,64.5549 29.4031,57.5549 32.5,50C 28.5,46 28.5,42 32.5,38C 36.524,36.903 40.024,37.7364 43,40.5C 44.7659,39.7665 46.5992,39.4332 48.5,39.5C 48.719,38.325 48.3857,37.325 47.5,36.5C 46.109,37.6446 44.7757,37.6446 43.5,36.5C 44.2427,35.8182 44.9094,35.1515 45.5,34.5 Z"/></g>
<g><path style="opacity:1" fill="#0a1417" d="M 18.5,36.5 C 21.0118,37.2162 21.0118,38.2162 18.5,39.5C 17.4376,38.5754 17.4376,37.5754 18.5,36.5 Z"/></g>
<g><path style="opacity:1" fill="#0c1c23" d="M 23.5,37.5 C 23.762,38.9778 23.4287,40.3112 22.5,41.5C 22.1667,40.8333 21.8333,40.1667 21.5,39.5C 21.7472,38.2867 22.4138,37.62 23.5,37.5 Z"/></g>
<g><path style="opacity:1" fill="#7a7a79" d="M 33.5,39.5 C 35.9775,39.0508 37.9775,39.7175 39.5,41.5C 37.1667,43.1667 35.1667,45.1667 33.5,47.5C 30.9371,44.9201 30.9371,42.2535 33.5,39.5 Z"/></g>
<g><path style="opacity:1" fill="#7b7b7b" d="M 59.5,39.5 C 66.7161,38.688 68.7161,41.3546 65.5,47.5C 64.1413,45.3078 62.3079,43.6411 60,42.5C 59.5172,41.552 59.3505,40.552 59.5,39.5 Z"/></g>
<g><path style="opacity:1" fill="#cfccc5" d="M 43.5,41.5 C 61.6658,40.4939 68.8325,48.8272 65,66.5C 60.0946,73.8061 53.2612,76.6394 44.5,75C 33.8316,70.0141 30.3316,61.8474 34,50.5C 36.4057,46.5915 39.5724,43.5915 43.5,41.5 Z"/></g>
<g><path style="opacity:1" fill="#24373f" d="M 70.5,37.5 C 73.1391,37.5708 75.3058,38.5708 77,40.5C 78.497,39.5227 79.997,38.5227 81.5,37.5C 82.1667,37.8333 82.8333,38.1667 83.5,38.5C 82.624,39.2508 81.624,39.7508 80.5,40C 81.9277,43.4741 81.4277,43.9741 79,41.5C 78.5172,42.448 78.3505,43.448 78.5,44.5C 77.5,44.5 76.5,44.5 75.5,44.5C 75.8808,42.0582 75.2141,41.3915 73.5,42.5C 72.2888,41.7261 72.2888,40.8928 73.5,40C 71.8807,39.7645 70.8807,38.9311 70.5,37.5 Z"/></g>
<g><path style="opacity:1" fill="#131313" d="M 48.5,48.5 C 50.4136,51.6843 51.0803,55.351 50.5,59.5C 52.924,59.1924 55.2573,59.5258 57.5,60.5C 54.6281,61.7825 51.7947,61.7825 49,60.5C 48.5012,56.5138 48.3345,52.5138 48.5,48.5 Z"/></g>
<g><path style="opacity:1" fill="#435b65" d="M 78.5,66.5 C 78.1667,67.1667 77.8333,67.8333 77.5,68.5C 76.5,68.5 75.5,68.5 74.5,68.5C 74.1667,67.8333 73.8333,67.1667 73.5,66.5C 75.1667,63.8333 76.8333,63.8333 78.5,66.5 Z"/></g>
<g><path style="opacity:1" fill="#132229" d="M 25.5,69.5 C 26.4584,69.0472 27.2917,68.3805 28,67.5C 28.6172,68.4491 28.4506,69.2825 27.5,70C 31.5,71 31.5,72 27.5,73C 28.7112,73.8928 28.7112,74.7261 27.5,75.5C 25.8983,74.45 25.065,75.1167 25,77.5C 24.0853,76.6721 23.4186,75.6721 23,74.5C 19.8897,75.6734 19.723,75.1734 22.5,73C 19.3323,72.4177 18.999,71.4177 21.5,70C 20.2888,69.1072 20.2888,68.2739 21.5,67.5C 22.8027,68.7178 23.8027,68.3845 24.5,66.5C 25.3857,67.325 25.719,68.325 25.5,69.5 Z"/></g>
<g><path style="opacity:1" fill="#13232a" d="M 73.5,66.5 C 73.8333,67.1667 74.1667,67.8333 74.5,68.5C 73.5755,71.1313 71.9088,71.7979 69.5,70.5C 70.5,69.8333 71.5,69.1667 72.5,68.5C 71.019,67.056 71.3523,66.3894 73.5,66.5 Z"/></g>
<g><path style="opacity:1" fill="#13242b" d="M 77.5,68.5 C 77.8333,67.8333 78.1667,67.1667 78.5,66.5C 80.6631,65.7194 80.9964,66.5528 79.5,69C 80.624,69.2492 81.624,69.7492 82.5,70.5C 80.0912,71.7979 78.4245,71.1313 77.5,68.5 Z"/></g>
<g><path style="opacity:1" fill="#c7d0d3" d="M 25.5,69.5 C 26.9757,71.2296 26.6424,72.5629 24.5,73.5C 24.1667,72.8333 23.8333,72.1667 23.5,71.5C 23.7472,70.2867 24.4138,69.62 25.5,69.5 Z"/></g>
<g><path style="opacity:1" fill="#334952" d="M 72.5,72.5 C 74.1516,73.8067 75.8182,73.8067 77.5,72.5C 79.0004,72.4528 80.0004,73.1195 80.5,74.5C 79.7261,75.7112 78.8928,75.7112 78,74.5C 76.6667,78.5 75.3333,78.5 74,74.5C 71.5728,75.567 71.0728,74.9003 72.5,72.5 Z"/></g>
<g><path style="opacity:0.941" fill="#222222" d="M 70.5,5.5 C 75.7623,4.69459 81.0956,5.19459 86.5,7C 89.3333,8.5 91.5,10.6667 93,13.5C 93.9808,38.9207 93.6474,64.254 92,89.5C 90.4571,91.3783 88.6238,92.8783 86.5,94C 61.6632,94.8299 36.9966,94.6633 12.5,93.5C 37.5455,93.8338 61.2122,93.5005 83.5,92.5C 86.7926,91.5904 89.2926,89.5904 91,86.5C 91.6667,62.5 91.6667,38.5 91,14.5C 88.0895,9.13715 83.5895,7.13715 77.5,8.5C 77.5,9.83333 77.5,11.1667 77.5,12.5C 76.8333,12.5 76.1667,12.5 75.5,12.5C 75.5,10.5 75.5,8.5 75.5,6.5C 74.0413,6.43255 72.7079,6.76589 71.5,7.5C 71.6716,6.50838 71.3382,5.84171 70.5,5.5 Z"/></g>
</svg>
