<?xml version="1.0" encoding="UTF-8"?>
<!DOCTYPE svg PUBLIC "-//W3C//DTD SVG 1.1//EN" "http://www.w3.org/Graphics/SVG/1.1/DTD/svg11.dtd">
<svg xmlns="http://www.w3.org/2000/svg" version="1.1" width="100px" height="100px" style="shape-rendering:geometricPrecision; text-rendering:geometricPrecision; image-rendering:optimizeQuality; fill-rule:evenodd; clip-rule:evenodd" xmlns:xlink="http://www.w3.org/1999/xlink">
<g><path style="opacity:0.951" fill="#272321" d="M 19.5,2.5 C 40.2585,2.02324 60.9252,2.52324 81.5,4C 82.4601,5.41941 83.2935,6.91941 84,8.5C 84.3333,26.5 84.6667,44.5 85,62.5C 86.0852,63.2931 87.2519,63.9598 88.5,64.5C 90.9793,62.9239 93.646,61.9239 96.5,61.5C 96.9204,68.2837 96.4204,74.9504 95,81.5C 93.8289,82.8932 92.3289,83.7265 90.5,84C 85.1771,84.4994 79.8437,84.666 74.5,84.5C 74.5,86.5 74.5,88.5 74.5,90.5C 72.5,90.5 70.5,90.5 68.5,90.5C 68.5,92.5 68.5,94.5 68.5,96.5C 46.5,96.5 24.5,96.5 2.5,96.5C 2.5,82.8333 2.5,69.1667 2.5,55.5C 4.5,55.5 6.5,55.5 8.5,55.5C 8.5,53.5 8.5,51.5 8.5,49.5C 10.5,49.5 12.5,49.5 14.5,49.5C 14.6495,48.448 14.4828,47.448 14,46.5C 8.63063,42.967 7.13063,38.1337 9.5,32C 11.0468,31.6666 12.3801,32.1666 13.5,33.5C 14.3317,25.1866 14.8317,16.8532 15,8.5C 15.5985,5.74583 17.0985,3.74583 19.5,2.5 Z"/></g>
<g><path style="opacity:1" fill="#eecb9e" d="M 67.5,40.5 C 67.666,35.1563 67.4994,29.8229 67,24.5C 66.3918,26.0664 65.5585,27.3998 64.5,28.5C 61.572,27.1803 58.2386,26.5136 54.5,26.5C 51.1667,26.8333 47.8333,27.1667 44.5,27.5C 44.7093,28.086 45.0426,28.586 45.5,29C 51.4908,29.4995 57.4908,29.6662 63.5,29.5C 62.8358,31.487 61.6692,33.1537 60,34.5C 59.5045,36.4727 59.3379,38.4727 59.5,40.5C 58.5269,38.0521 58.1936,35.3854 58.5,32.5C 56.3254,32.6822 54.3254,33.3489 52.5,34.5C 50.8957,34.0609 49.3957,33.3943 48,32.5C 45,35.1667 42,35.1667 39,32.5C 37.018,32.9903 35.3513,33.9903 34,35.5C 31.1001,32.0235 27.9334,31.6902 24.5,34.5C 22.6746,33.3489 20.6746,32.6822 18.5,32.5C 18.3336,24.16 18.5003,15.8267 19,7.5C 19.5,7 20,6.5 20.5,6C 36.8435,5.16708 53.1769,5.33375 69.5,6.5C 68.8533,17.9616 68.1866,29.2949 67.5,40.5 Z"/></g>
<g><path style="opacity:1" fill="#f7be73" d="M 80.5,51.5 C 79.254,55.5655 77.254,59.2322 74.5,62.5C 74.797,58.2325 74.4637,54.0659 73.5,50C 55.1697,49.5001 36.8364,49.3334 18.5,49.5C 18.5,48.5 18.5,47.5 18.5,46.5C 34.1702,46.6666 49.8369,46.4999 65.5,46C 67.9647,45.3678 69.6314,43.8678 70.5,41.5C 72.686,40.7792 74.8526,40.1125 77,39.5C 77.1667,39.1667 77.3333,38.8333 77.5,38.5C 75.604,37.5344 73.604,37.2011 71.5,37.5C 71.5,36.1667 71.5,34.8333 71.5,33.5C 73.604,33.7989 75.604,33.4656 77.5,32.5C 75.9775,30.7175 73.9775,30.0508 71.5,30.5C 71.5,29.5 71.5,28.5 71.5,27.5C 73.5,27.5 75.5,27.5 77.5,27.5C 77.5,26.5 77.5,25.5 77.5,24.5C 75.5,24.5 73.5,24.5 71.5,24.5C 71.5,23.5 71.5,22.5 71.5,21.5C 73.9775,21.9492 75.9775,21.2825 77.5,19.5C 75.604,18.5344 73.604,18.2011 71.5,18.5C 71.5,17.5 71.5,16.5 71.5,15.5C 73.9775,15.9492 75.9775,15.2825 77.5,13.5C 75.604,12.5344 73.604,12.2011 71.5,12.5C 71.331,5.51367 74.1643,3.847 80,7.5C 80.4999,22.1629 80.6666,36.8295 80.5,51.5 Z"/></g>
<g><path style="opacity:1" fill="#2f2927" d="M 24.5,21.5 C 21.148,18.95 20.8146,16.1167 23.5,13C 24.448,12.5172 25.448,12.3505 26.5,12.5C 26.5,11.5 26.5,10.5 26.5,9.5C 27.5,9.5 28.5,9.5 29.5,9.5C 31.2245,11.9138 32.5578,14.5804 33.5,17.5C 31.5351,16.871 29.5351,16.2043 27.5,15.5C 26.5,15.8333 25.5,16.1667 24.5,16.5C 26.8638,18.0955 29.5305,19.2622 32.5,20C 33.5762,21.7261 33.7429,23.5594 33,25.5C 30.7304,26.7272 28.897,28.3939 27.5,30.5C 26.6143,29.675 26.281,28.675 26.5,27.5C 22.9909,27.1921 21.3243,25.1921 21.5,21.5C 22.5,21.5 23.5,21.5 24.5,21.5 Z"/></g>
<g><path style="opacity:1" fill="#2c2725" d="M 37.5,13.5 C 38.8333,13.5 40.1667,13.5 41.5,13.5C 41.5,14.5 41.5,15.5 41.5,16.5C 40.1667,16.5 38.8333,16.5 37.5,16.5C 37.5,15.5 37.5,14.5 37.5,13.5 Z"/></g>
<g><path style="opacity:1" fill="#231f20" d="M 45.5,13.5 C 51.8333,13.5 58.1667,13.5 64.5,13.5C 64.5,14.5 64.5,15.5 64.5,16.5C 58.1667,16.5 51.8333,16.5 45.5,16.5C 45.5,15.5 45.5,14.5 45.5,13.5 Z"/></g>
<g><path style="opacity:1" fill="#342d2b" d="M 37.5,19.5 C 38.8333,19.5 40.1667,19.5 41.5,19.5C 41.5,20.5 41.5,21.5 41.5,22.5C 40.1667,22.5 38.8333,22.5 37.5,22.5C 37.5,21.5 37.5,20.5 37.5,19.5 Z"/></g>
<g><path style="opacity:1" fill="#302a28" d="M 45.5,19.5 C 51.8333,19.5 58.1667,19.5 64.5,19.5C 64.5,20.5 64.5,21.5 64.5,22.5C 58.1667,22.5 51.8333,22.5 45.5,22.5C 45.5,21.5 45.5,20.5 45.5,19.5 Z"/></g>
<g><path style="opacity:1" fill="#f5d1a3" d="M 24.5,21.5 C 26.7505,21.1814 28.7505,21.6814 30.5,23C 27.6562,25.2899 25.6562,24.7899 24.5,21.5 Z"/></g>
<g><path style="opacity:1" fill="#fbc176" d="M 67.5,40.5 C 64.8333,44.5 62.1667,44.5 59.5,40.5C 59.3379,38.4727 59.5045,36.4727 60,34.5C 61.6692,33.1537 62.8358,31.487 63.5,29.5C 64.1667,29.5 64.5,29.1667 64.5,28.5C 65.5585,27.3998 66.3918,26.0664 67,24.5C 67.4994,29.8229 67.666,35.1563 67.5,40.5 Z"/></g>
<g><path style="opacity:1" fill="#312b29" d="M 37.5,26.5 C 38.9778,26.238 40.3112,26.5713 41.5,27.5C 40.6798,29.1112 39.3464,29.7778 37.5,29.5C 37.5,28.5 37.5,27.5 37.5,26.5 Z"/></g>
<g><path style="opacity:1" fill="#332c2a" d="M 64.5,28.5 C 64.5,29.1667 64.1667,29.5 63.5,29.5C 57.4908,29.6662 51.4908,29.4995 45.5,29C 45.0426,28.586 44.7093,28.086 44.5,27.5C 47.8333,27.1667 51.1667,26.8333 54.5,26.5C 58.2386,26.5136 61.572,27.1803 64.5,28.5 Z"/></g>
<g><path style="opacity:1" fill="#f19e31" d="M 19.5,35.5 C 20.973,36.7401 22.6396,37.7401 24.5,38.5C 27.7247,35.8912 30.8913,35.8912 34,38.5C 37.1087,35.8912 40.2753,35.8912 43.5,38.5C 44.914,37.376 46.414,36.376 48,35.5C 49.7981,37.8367 51.9647,38.5033 54.5,37.5C 55.4063,39.3864 56.4063,41.2197 57.5,43C 43.5,43.6667 29.5,43.6667 15.5,43C 12.8003,42.0508 11.967,40.2175 13,37.5C 15.6746,38.6881 17.8413,38.0215 19.5,35.5 Z"/></g>
<g><path style="opacity:1" fill="#4d8f1e" d="M 68.5,86.5 C 68.8194,76.2509 68.4861,66.0842 67.5,56C 49.1697,55.5001 30.8364,55.3334 12.5,55.5C 31.4711,53.5124 50.8045,52.8457 70.5,53.5C 71.1436,64.8842 70.477,75.8842 68.5,86.5 Z"/></g>
<g><path style="opacity:1" fill="#45781e" d="M 68.5,86.5 C 70.477,75.8842 71.1436,64.8842 70.5,53.5C 50.8045,52.8457 31.4711,53.5124 12.5,55.5C 11.596,54.791 11.2627,53.791 11.5,52.5C 31.5,52.5 51.5,52.5 71.5,52.5C 71.5,64.1667 71.5,75.8333 71.5,87.5C 70.209,87.7373 69.209,87.404 68.5,86.5 Z"/></g>
<g><path style="opacity:1" fill="#feb655" d="M 80.5,51.5 C 80.1934,60.887 80.5267,70.2203 81.5,79.5C 79.2573,80.4742 76.924,80.8076 74.5,80.5C 74.5,74.5 74.5,68.5 74.5,62.5C 77.254,59.2322 79.254,55.5655 80.5,51.5 Z"/></g>
<g><path style="opacity:1" fill="#84c753" d="M 6.5,59.5 C 25.8333,59.5 45.1667,59.5 64.5,59.5C 64.5,64.8333 64.5,70.1667 64.5,75.5C 62.89,78.2033 61.89,81.2033 61.5,84.5C 61.8293,78.4632 61.4959,72.4632 60.5,66.5C 59.1667,65.8333 58.1667,64.8333 57.5,63.5C 42.8333,62.1667 28.1667,62.1667 13.5,63.5C 12.4717,65.3615 10.9717,66.6948 9,67.5C 8.50258,70.146 8.33591,72.8127 8.5,75.5C 7.83333,75.5 7.16667,75.5 6.5,75.5C 6.5,70.1667 6.5,64.8333 6.5,59.5 Z"/></g>
<g><path style="opacity:1" fill="#292a21" d="M 61.5,84.5 C 59.359,85.8118 57.6924,87.6451 56.5,90C 42.5,90.6667 28.5,90.6667 14.5,90C 13.3333,87.5 11.5,85.6667 9,84.5C 8.50204,81.5184 8.33537,78.5184 8.5,75.5C 8.33591,72.8127 8.50258,70.146 9,67.5C 10.9717,66.6948 12.4717,65.3615 13.5,63.5C 28.1667,62.1667 42.8333,62.1667 57.5,63.5C 58.1667,64.8333 59.1667,65.8333 60.5,66.5C 61.4959,72.4632 61.8293,78.4632 61.5,84.5 Z"/></g>
<g><path style="opacity:1" fill="#5ca923" d="M 58.5,76.5 C 56.3792,76.6747 54.3792,76.3414 52.5,75.5C 50.5,74.1667 48.5,74.1667 46.5,75.5C 45.609,76.1098 44.609,76.4431 43.5,76.5C 41.9238,69.045 37.5904,66.8783 30.5,70C 28.5494,71.7342 27.5494,73.9009 27.5,76.5C 26.5,76.5 25.5,76.5 24.5,76.5C 23.8658,75.0532 22.6991,74.3866 21,74.5C 19.9302,74.528 19.0968,74.8614 18.5,75.5C 16.6208,76.3414 14.6208,76.6747 12.5,76.5C 12.5,74.1667 12.5,71.8333 12.5,69.5C 13.2899,68.2058 14.2899,67.0391 15.5,66C 28.8458,65.1673 42.1792,65.334 55.5,66.5C 58.0304,69.2698 59.0304,72.6031 58.5,76.5 Z"/></g>
<g><path style="opacity:1" fill="#ef8f12" d="M 83.5,66.5 C 85.258,66.8769 86.9246,67.5435 88.5,68.5C 92.4244,65.4794 94.0911,66.6461 93.5,72C 94.5023,79.2657 91.669,81.7657 85,79.5C 83.6326,75.3004 83.1326,70.9671 83.5,66.5 Z"/></g>
<g><path style="opacity:1" fill="#292823" d="M 43.5,76.5 C 41.347,83.2392 37.0137,85.0726 30.5,82C 28.84,80.5123 27.84,78.679 27.5,76.5C 27.5494,73.9009 28.5494,71.7342 30.5,70C 37.5904,66.8783 41.9238,69.045 43.5,76.5 Z"/></g>
<g><path style="opacity:1" fill="#e2e2e2" d="M 33.5,71.5 C 39.7502,71.8821 41.4168,74.7154 38.5,80C 34.2598,81.5389 31.5932,80.2056 30.5,76C 30.9567,74.0598 31.9567,72.5598 33.5,71.5 Z"/></g>
<g><path style="opacity:1" fill="#252420" d="M 24.5,76.5 C 23.7261,77.1471 22.7261,77.4805 21.5,77.5C 19.9704,77.3601 18.9704,76.6935 18.5,75.5C 19.0968,74.8614 19.9302,74.528 21,74.5C 22.6991,74.3866 23.8658,75.0532 24.5,76.5 Z"/></g>
<g><path style="opacity:1" fill="#262620" d="M 52.5,75.5 C 52.0296,76.6935 51.0296,77.3601 49.5,77.5C 47.9704,77.3601 46.9704,76.6935 46.5,75.5C 48.5,74.1667 50.5,74.1667 52.5,75.5 Z"/></g>
<g><path style="opacity:1" fill="#7dd33d" d="M 6.5,75.5 C 7.16667,75.5 7.83333,75.5 8.5,75.5C 8.33537,78.5184 8.50204,81.5184 9,84.5C 11.5,85.6667 13.3333,87.5 14.5,90C 28.5,90.6667 42.5,90.6667 56.5,90C 57.6924,87.6451 59.359,85.8118 61.5,84.5C 61.89,81.2033 62.89,78.2033 64.5,75.5C 64.5,81.1667 64.5,86.8333 64.5,92.5C 45.1667,92.5 25.8333,92.5 6.5,92.5C 6.5,86.8333 6.5,81.1667 6.5,75.5 Z"/></g>
<g><path style="opacity:1" fill="#4a861e" d="M 12.5,69.5 C 12.5,71.8333 12.5,74.1667 12.5,76.5C 14.6208,76.6747 16.6208,76.3414 18.5,75.5C 18.9704,76.6935 19.9704,77.3601 21.5,77.5C 22.7261,77.4805 23.7261,77.1471 24.5,76.5C 25.5,76.5 26.5,76.5 27.5,76.5C 27.84,78.679 28.84,80.5123 30.5,82C 37.0137,85.0726 41.347,83.2392 43.5,76.5C 44.609,76.4431 45.609,76.1098 46.5,75.5C 46.9704,76.6935 47.9704,77.3601 49.5,77.5C 51.0296,77.3601 52.0296,76.6935 52.5,75.5C 54.3792,76.3414 56.3792,76.6747 58.5,76.5C 59.1429,80.4006 58.1429,83.734 55.5,86.5C 42.1667,87.8333 28.8333,87.8333 15.5,86.5C 11.5307,81.388 10.5307,75.7214 12.5,69.5 Z"/></g>
<g><path style="opacity:1" fill="#5c883a" d="M 5.5,59.5 C 25.3264,58.5029 45.3264,58.1695 65.5,58.5C 65.8283,70.3453 65.4949,82.012 64.5,93.5C 64.5,93.1667 64.5,92.8333 64.5,92.5C 64.5,86.8333 64.5,81.1667 64.5,75.5C 64.5,70.1667 64.5,64.8333 64.5,59.5C 45.1667,59.5 25.8333,59.5 6.5,59.5C 6.16667,59.5 5.83333,59.5 5.5,59.5 Z"/></g>
<g><path style="opacity:1" fill="#67a738" d="M 5.5,59.5 C 5.83333,59.5 6.16667,59.5 6.5,59.5C 6.5,64.8333 6.5,70.1667 6.5,75.5C 6.5,81.1667 6.5,86.8333 6.5,92.5C 25.8333,92.5 45.1667,92.5 64.5,92.5C 64.5,92.8333 64.5,93.1667 64.5,93.5C 44.8333,93.5 25.1667,93.5 5.5,93.5C 5.5,82.1667 5.5,70.8333 5.5,59.5 Z"/></g>
</svg>
