<?xml version="1.0" encoding="UTF-8"?><svg xmlns="http://www.w3.org/2000/svg" viewBox="0 0 512 512"><defs><style>.e{fill:#f49971;}.f{fill:#f495db;}.g{fill:#ef84ce;}.h{fill:#ffc8bb;}.i{fill:#908df4;}.j{fill:#6562f1;}.k{fill:#9b99f5;}.l{fill:#7572f2;}</style></defs><g id="a"/><g id="b"/><g id="c"><g><rect class="i" x="344" y="280" width="96" height="208"/><path class="l" d="M368,440h-24v-160H72v208H368c13.25488,0,24-10.74512,24-24h0c0-13.25488-10.74512-24-24-24Z"/><path class="k" d="M392,304H128c0,17.6731-14.3269,32-32,32v96c17.6731,0,32,14.3269,32,32H392v-160Z"/><rect class="j" x="136" y="380" width="48" height="8"/><circle class="j" cx="256" cy="384" r="48"/><path class="j" d="M368,248.04761h-24v191.95239h24c13.25488,0,24,10.74512,24,24v-191.95239c0-13.25488-10.74512-24-24-24Z"/><path class="k" d="M391.99985,325.15466v117.69067c5.86377-6.64722,14.43921-10.84534,24-10.84534v-96c-9.56079,0-18.13623-4.19812-24-10.84534Z"/><polygon class="g" points="256 192 216 256 240 256 240 392 272 392 272 256 296 256 256 192"/><path class="h" d="M403.79834,168.20703c-1.67188-32.24805-13.52588-62.39258-34.27979-87.17383-20.21729-24.13965-48.10156-41.49609-78.51562-48.87012l1.88477-7.77539c32.06445,7.77539,61.45703,26.06836,82.76416,51.50879,21.87744,26.12305,34.37305,57.90039,36.13574,91.89648l-7.98926,.41406Z"/><path class="h" d="M121.71777,113.68652l-7.25488-3.37305c20.54834-44.20117,61.18359-76.66895,108.69922-86.85059l1.67578,7.82227c-45.07471,9.6582-83.62451,40.46289-103.12012,82.40137Z"/><path class="l" d="M136,112l-34.68721,52.03081c-8.68061,13.02092-13.31279,28.31997-13.31279,43.96916v.00007c0,26.50964,21.49031,47.99995,47.99995,47.99995h.0001c26.50964,0,47.99995-21.49031,47.99995-47.99995v-.00007c0-15.64919-4.63218-30.94825-13.31279-43.96916l-34.68721-52.03081Z"/><path class="i" d="M165.04102,234.00293l-6.9248-4.00586c3.84912-6.6543,5.88379-14.26074,5.88379-21.99707,0-14.9082-4.37109-29.3457-12.64111-41.75l-2.6875-4.03125,6.65723-4.4375,2.68701,4.03125c9.14844,13.72266,13.98438,29.69434,13.98438,46.1875,0,9.14062-2.40625,18.13184-6.95898,26.00293Z"/><polygon class="e" points="240 24 280 24 256 72 296 64 232 168 256 96 216 104 240 24"/><path class="f" d="M353.5448,116.21911l10.66419,10.34228c2.84702,2.76109,4.48061,6.54006,4.54137,10.50559v.00002c.09862,6.43582-3.93207,12.21269-10.00643,14.34144l-15.15369,5.31057v.00004c5.53185,25.61205,25.92119,45.38592,51.69071,50.13039h.00004l4.84376-15.30929c1.94162-6.13674,7.59228-10.34255,14.0281-10.44117h.00002c3.96553-.06077,7.79279,1.45625,10.63981,4.21734l10.66419,10.34228c5.92862,5.74966,6.0737,15.21678,.32403,21.14541l-10.3623,10.68482c-7.90134,8.14727-19.3517,11.8066-30.51351,9.75158l-.00009-.00002c-40.72015-7.49705-72.93869-38.74306-81.67993-79.21438l-.00002-.00008c-2.39606-11.0936,.9107-22.65071,8.81204-30.79798l10.36229-10.68482c5.74966-5.92862,15.21678-6.0737,21.14541-.32403Z"/></g></g><g id="d"/></svg>