<?xml version="1.0" encoding="UTF-8"?>
<!DOCTYPE svg PUBLIC "-//W3C//DTD SVG 1.1//EN" "http://www.w3.org/Graphics/SVG/1.1/DTD/svg11.dtd">
<svg xmlns="http://www.w3.org/2000/svg" version="1.1" width="100px" height="100px" style="shape-rendering:geometricPrecision; text-rendering:geometricPrecision; image-rendering:optimizeQuality; fill-rule:evenodd; clip-rule:evenodd" xmlns:xlink="http://www.w3.org/1999/xlink">
<g><path style="opacity:0.964" fill="#f49a6f" d="M 45.5,3.5 C 48.5719,3.18259 51.5719,3.51592 54.5,4.5C 53.2939,7.07937 51.9606,9.57937 50.5,12C 52.9359,11.9466 55.2692,12.1133 57.5,12.5C 53.5836,19.3348 49.417,26.0015 45,32.5C 45.3317,28.1623 46.4984,23.9957 48.5,20C 46.4325,19.3131 44.4325,19.4798 42.5,20.5C 42.1667,19.8333 41.8333,19.1667 41.5,18.5C 43.247,13.595 44.5804,8.59504 45.5,3.5 Z"/></g>
<g><path style="opacity:0.628" fill="#ffc9bb" d="M 56.5,3.5 C 71.0381,7.70869 79.0381,17.3754 80.5,32.5C 79.5,32.5 78.5,32.5 77.5,32.5C 76.1224,18.777 68.7891,9.77705 55.5,5.5C 55.8627,4.81654 56.1961,4.14987 56.5,3.5 Z"/></g>
<g><path style="opacity:0.925" fill="#ffc9bc" d="M 24.5,21.5 C 23.1329,22.8526 22.1329,22.5193 21.5,20.5C 25.8153,11.5181 32.8153,5.85148 42.5,3.5C 43.3857,4.32496 43.719,5.32496 43.5,6.5C 34.5095,8.15939 28.1762,13.1594 24.5,21.5 Z"/></g>
<g><path style="opacity:0.95" fill="#7673f2" d="M 24.5,21.5 C 29.1399,24.6667 32.6399,29.0001 35,34.5C 37.6709,46.16 33.1709,50.9934 21.5,49C 19.3333,48.1667 17.8333,46.6667 17,44.5C 16.3333,41.1667 16.3333,37.8333 17,34.5C 19.5235,30.1118 22.0235,25.7785 24.5,21.5 Z"/></g>
<g><path style="opacity:0.941" fill="#f495db" d="M 63.5,21.5 C 69.4964,20.3327 71.9964,22.6661 71,28.5C 69.5134,29.1552 68.3467,30.1552 67.5,31.5C 69.1978,35.3642 72.0311,38.0309 76,39.5C 77.9193,33.7696 80.9193,33.103 85,37.5C 85.764,42.7511 83.4307,45.7511 78,46.5C 65.8576,44.0381 60.1909,36.7047 61,24.5C 62.045,23.6266 62.8783,22.6266 63.5,21.5 Z"/></g>
<g><path style="opacity:0.991" fill="#ef83ce" d="M 53.5,53.5 C 52.5489,54.9187 52.2155,56.5853 52.5,58.5C 52.5,61.1667 52.5,63.8333 52.5,66.5C 52.5,69.5 52.5,72.5 52.5,75.5C 50.5,75.5 48.5,75.5 46.5,75.5C 46.5,72.1667 46.5,68.8333 46.5,65.5C 46.5,63.1667 46.5,60.8333 46.5,58.5C 46.7845,56.5853 46.4511,54.9187 45.5,53.5C 45.5,52.1667 45.5,50.8333 45.5,49.5C 44.0222,49.762 42.6888,49.4287 41.5,48.5C 44.1667,44.5 46.8333,40.5 49.5,36.5C 52.1667,40.5 54.8333,44.5 57.5,48.5C 56.3112,49.4287 54.9778,49.762 53.5,49.5C 53.5,50.8333 53.5,52.1667 53.5,53.5 Z"/></g>
<g><path style="opacity:0.982" fill="#6562f0" d="M 76.5,53.5 C 75.8539,64.5985 75.1873,75.5985 74.5,86.5C 72.283,85.6314 69.9496,85.298 67.5,85.5C 67.8278,74.6536 67.4944,63.9869 66.5,53.5C 66.5,51.5 66.5,49.5 66.5,47.5C 69.2492,47.2739 71.9159,47.6072 74.5,48.5C 75.9501,49.8498 76.6168,51.5165 76.5,53.5 Z"/></g>
<g><path style="opacity:0.993" fill="#7572f2" d="M 45.5,53.5 C 46.4511,54.9187 46.7845,56.5853 46.5,58.5C 39.1667,58.5 31.8333,58.5 24.5,58.5C 24.6971,62.8063 22.6971,64.8063 18.5,64.5C 18.5,71.1667 18.5,77.8333 18.5,84.5C 21.7124,84.7124 23.7124,86.3791 24.5,89.5C 41.3251,90.4966 58.3251,90.8299 75.5,90.5C 75.69,92.9589 74.69,94.6255 72.5,95.5C 52.8333,95.5 33.1667,95.5 13.5,95.5C 13.5,81.5 13.5,67.5 13.5,53.5C 24.1667,53.5 34.8333,53.5 45.5,53.5 Z"/></g>
<g><path style="opacity:1" fill="#7470f1" d="M 53.5,53.5 C 57.8333,53.5 62.1667,53.5 66.5,53.5C 67.4944,63.9869 67.8278,74.6536 67.5,85.5C 66.5067,76.6822 66.1734,67.6822 66.5,58.5C 61.8333,58.5 57.1667,58.5 52.5,58.5C 52.2155,56.5853 52.5489,54.9187 53.5,53.5 Z"/></g>
<g><path style="opacity:1" fill="#908df4" d="M 76.5,53.5 C 79.5,53.5 82.5,53.5 85.5,53.5C 85.5,67.5 85.5,81.5 85.5,95.5C 81.1667,95.5 76.8333,95.5 72.5,95.5C 74.69,94.6255 75.69,92.9589 75.5,90.5C 58.3251,90.8299 41.3251,90.4966 24.5,89.5C 41.5131,89.8328 58.5131,89.4995 75.5,88.5C 75.1373,87.8165 74.8039,87.1499 74.5,86.5C 75.1873,75.5985 75.8539,64.5985 76.5,53.5 Z"/></g>
<g><path style="opacity:1" fill="#9a97f4" d="M 46.5,58.5 C 46.5,60.8333 46.5,63.1667 46.5,65.5C 40.4233,68.9393 38.9233,73.9393 42,80.5C 45.3379,83.3181 49.1712,84.1515 53.5,83C 58.1549,80.1034 59.6549,75.9367 58,70.5C 57.1253,67.7854 55.2919,66.4521 52.5,66.5C 52.5,63.8333 52.5,61.1667 52.5,58.5C 57.1667,58.5 61.8333,58.5 66.5,58.5C 66.1734,67.6822 66.5067,76.6822 67.5,85.5C 69.9496,85.298 72.283,85.6314 74.5,86.5C 74.8039,87.1499 75.1373,87.8165 75.5,88.5C 58.5131,89.4995 41.5131,89.8328 24.5,89.5C 23.7124,86.3791 21.7124,84.7124 18.5,84.5C 18.5,77.8333 18.5,71.1667 18.5,64.5C 22.6971,64.8063 24.6971,62.8063 24.5,58.5C 31.8333,58.5 39.1667,58.5 46.5,58.5 Z"/></g>
<g><path style="opacity:1" fill="#6a64f0" d="M 46.5,65.5 C 46.5,68.8333 46.5,72.1667 46.5,75.5C 48.5,75.5 50.5,75.5 52.5,75.5C 52.5,72.5 52.5,69.5 52.5,66.5C 55.2919,66.4521 57.1253,67.7854 58,70.5C 59.6549,75.9367 58.1549,80.1034 53.5,83C 49.1712,84.1515 45.3379,83.3181 42,80.5C 38.9233,73.9393 40.4233,68.9393 46.5,65.5 Z"/></g>
<g><path style="opacity:1" fill="#706df2" d="M 26.5,73.5 C 29.5719,73.1826 32.5719,73.5159 35.5,74.5C 34,74.8333 32.5,75.1667 31,75.5C 29.0145,75.4313 27.5145,74.7647 26.5,73.5 Z"/></g>
</svg>
