<?xml version="1.0" encoding="UTF-8"?>
<!DOCTYPE svg PUBLIC "-//W3C//DTD SVG 1.1//EN" "http://www.w3.org/Graphics/SVG/1.1/DTD/svg11.dtd">
<svg xmlns="http://www.w3.org/2000/svg" version="1.1" width="100px" height="100px" style="shape-rendering:geometricPrecision; text-rendering:geometricPrecision; image-rendering:optimizeQuality; fill-rule:evenodd; clip-rule:evenodd" xmlns:xlink="http://www.w3.org/1999/xlink">
<g><path style="opacity:0.962" fill="#fac100" d="M 9.5,8.5 C 14.8437,8.33398 20.1771,8.50065 25.5,9C 29.3176,16.1055 27.9843,22.4388 21.5,28C 16.5182,31.6431 11.3515,32.1431 6,29.5C 5.33333,23.5 5.33333,17.5 6,11.5C 7.14508,10.3636 8.31174,9.36362 9.5,8.5 Z"/></g>
<g><path style="opacity:0.945" fill="#089be0" d="M 80.5,34.5 C 80.5,34.1667 80.5,33.8333 80.5,33.5C 81.4931,24.0089 78.4931,16.1756 71.5,10C 67.1019,8.62151 63.6019,9.78817 61,13.5C 58.3979,17.4738 56.8979,21.8071 56.5,26.5C 55.5269,28.9479 55.1936,31.6146 55.5,34.5C 44.6446,37.4762 40.8113,33.8096 44,23.5C 49.0666,13.5454 57.2333,8.54539 68.5,8.5C 79.0498,8.82776 86.8831,13.4944 92,22.5C 95.7133,33.2919 91.88,37.2919 80.5,34.5 Z"/></g>
<g><path style="opacity:1" fill="#e7eeef" d="M 80.5,33.5 C 72.5,33.5 64.5,33.5 56.5,33.5C 56.5,31.1667 56.5,28.8333 56.5,26.5C 56.8979,21.8071 58.3979,17.4738 61,13.5C 63.6019,9.78817 67.1019,8.62151 71.5,10C 78.4931,16.1756 81.4931,24.0089 80.5,33.5 Z"/></g>
<g><path style="opacity:0.891" fill="#fac200" d="M 35.5,11.5 C 37.8568,11.3367 40.1902,11.5034 42.5,12C 43.5762,13.7261 43.7429,15.5594 43,17.5C 40.2628,18.6105 37.4294,18.7772 34.5,18C 33.1443,15.5859 33.4776,13.4193 35.5,11.5 Z"/></g>
<g><path style="opacity:0.866" fill="#fac100" d="M 25.5,28.5 C 28.7845,28.2693 31.2845,29.6026 33,32.5C 33.5138,36.6197 31.6805,38.1197 27.5,37C 23.8138,34.5685 23.1471,31.7351 25.5,28.5 Z"/></g>
<g><path style="opacity:0.753" fill="#97cee6" d="M 56.5,26.5 C 56.5,28.8333 56.5,31.1667 56.5,33.5C 64.5,33.5 72.5,33.5 80.5,33.5C 80.5,33.8333 80.5,34.1667 80.5,34.5C 77.5,34.5 74.5,34.5 71.5,34.5C 69.1667,34.5 66.8333,34.5 64.5,34.5C 61.5,34.5 58.5,34.5 55.5,34.5C 55.1936,31.6146 55.5269,28.9479 56.5,26.5 Z"/></g>
<g><path style="opacity:0.889" fill="#8fa5a4" d="M 64.5,34.5 C 66.8333,34.5 69.1667,34.5 71.5,34.5C 71.5,41.1667 71.5,47.8333 71.5,54.5C 69.0971,54.448 66.7638,54.7814 64.5,55.5C 64.5,48.5 64.5,41.5 64.5,34.5 Z"/></g>
<g><path style="opacity:0.876" fill="#fac100" d="M 10.5,36.5 C 12.3904,36.2965 13.8904,36.9632 15,38.5C 15.769,41.0991 15.6023,43.5991 14.5,46C 12.5594,46.7429 10.7261,46.5762 9,45.5C 8.06799,42.1769 8.56799,39.1769 10.5,36.5 Z"/></g>
<g><path style="opacity:0.985" fill="#fed088" d="M 71.5,54.5 C 77.8421,54.3338 84.1754,54.5005 90.5,55C 91.3333,55.8333 92.1667,56.6667 93,57.5C 93.9133,66.5764 93.58,75.5764 92,84.5C 90.0395,87.1353 87.5395,88.9686 84.5,90C 74.8391,90.4998 65.1724,90.6665 55.5,90.5C 46.8333,89.8333 38.1667,89.1667 29.5,88.5C 36.8051,78.2007 44.8051,68.5341 53.5,59.5C 57.0087,57.7745 60.6754,56.4411 64.5,55.5C 66.7638,54.7814 69.0971,54.448 71.5,54.5 Z"/></g>
<g><path style="opacity:0.975" fill="#069adf" d="M 53.5,59.5 C 44.8051,68.5341 36.8051,78.2007 29.5,88.5C 28.5,88.8333 27.8333,89.5 27.5,90.5C 8.76084,92.4182 1.59418,84.0848 6,65.5C 6.83333,64.6667 7.66667,63.8333 8.5,63C 17.4302,63.2355 26.0969,61.9021 34.5,59C 40.8837,58.2489 47.217,58.4156 53.5,59.5 Z"/></g>
<g><path style="opacity:0.937" fill="#cbc599" d="M 29.5,88.5 C 38.1667,89.1667 46.8333,89.8333 55.5,90.5C 46.1667,90.5 36.8333,90.5 27.5,90.5C 27.8333,89.5 28.5,88.8333 29.5,88.5 Z"/></g>
</svg>
