<?xml version="1.0" encoding="UTF-8" standalone="no"?> <svg xmlns="http://www.w3.org/2000/svg" viewBox="0 0 32 32"><defs><style>.cls-1{fill:#009ae0;}.cls-2{fill:#8fa5a5;}.cls-3{fill:#eaeff0;}.cls-4{fill:#ffd188;}.cls-5{fill:#fac100;}</style></defs><title>Beach</title><g id="Beach"><path class="cls-1" d="M2,25a4,4,0,0,0,4,4H18V19.625a11.2,11.2,0,0,0-8,0h0a11.172,11.172,0,0,1-5.664.62A2,2,0,0,0,2,22.193Z"/><path class="cls-2" d="M22,20a1,1,0,0,1-1-1V10a1,1,0,0,1,2,0v9A1,1,0,0,1,22,20Z"/><path class="cls-1" d="M29,11H15a1,1,0,0,1-1-1c0-3.859,3.589-7,8-7s8,3.141,8,7A1,1,0,0,1,29,11Z"/><path class="cls-3" d="M18,11c0-4.418,1.791-8,4-8s4,3.582,4,8Z"/><path class="cls-4" d="M9,29l5.4-6.821a12,12,0,0,1,9.41-4.554H28a2,2,0,0,1,2,2V25a4,4,0,0,1-4,4Z"/><path class="cls-5" d="M4,15a1,1,0,0,1-1-1V13a1,1,0,0,1,2,0v1A1,1,0,0,1,4,15Z"/><path class="cls-5" d="M13,6H12a1,1,0,0,1,0-2h1a1,1,0,0,1,0,2Z"/><path class="cls-5" d="M9.657,12.071a.993.993,0,0,1-.707-.293l-.707-.707A1,1,0,0,1,9.657,9.657l.707.707a1,1,0,0,1-.707,1.707Z"/><path class="cls-5" d="M4.431,9.979a4.647,4.647,0,0,1-1.69-.155A1,1,0,0,1,2,8.859V5A2,2,0,0,1,4,3H7.858a1,1,0,0,1,.968.747,4.368,4.368,0,0,1-.165,2.915A5.157,5.157,0,0,1,4.431,9.979Z"/></g></svg>