<?xml version="1.0" encoding="UTF-8"?>
<!DOCTYPE svg PUBLIC "-//W3C//DTD SVG 1.1//EN" "http://www.w3.org/Graphics/SVG/1.1/DTD/svg11.dtd">
<svg xmlns="http://www.w3.org/2000/svg" version="1.1" width="100px" height="100px" style="shape-rendering:geometricPrecision; text-rendering:geometricPrecision; image-rendering:optimizeQuality; fill-rule:evenodd; clip-rule:evenodd" xmlns:xlink="http://www.w3.org/1999/xlink">
<g><path style="opacity:0.941" fill="#84d2f4" d="M 16.5,34.5 C 10.5336,34.5337 7.53363,31.5337 7.5,25.5C 8.47667,22.7131 8.81,19.7131 8.5,16.5C 9.83333,16.5 11.1667,16.5 12.5,16.5C 12.8333,28.5 13.1667,28.5 13.5,16.5C 14.8221,16.33 15.9887,16.6634 17,17.5C 17.8184,23.3487 17.6517,29.0154 16.5,34.5 Z"/></g>
<g><path style="opacity:0.984" fill="#83d1f2" d="M 75.5,64.5 C 75.44,63.9569 75.1067,63.6236 74.5,63.5C 70.9991,66.0146 67.3324,67.0146 63.5,66.5C 69.4522,60.9723 71.7856,54.3057 70.5,46.5C 70.5,46.1667 70.5,45.8333 70.5,45.5C 71.8264,42.999 72.3264,40.3323 72,37.5C 69.1667,35.3333 66.6667,32.8333 64.5,30C 62.735,29.3603 61.0683,29.5269 59.5,30.5C 53.0584,26.5583 46.7251,26.5583 40.5,30.5C 37.2057,31.4664 34.8724,33.4664 33.5,36.5C 33.5654,36.0618 33.3988,35.7284 33,35.5C 31.5187,36.4709 30.6854,37.8042 30.5,39.5C 29.6129,35.0465 29.6129,30.7132 30.5,26.5C 31.8936,24.2918 33.8936,22.7918 36.5,22C 57.2984,15.3169 71.465,22.1502 79,42.5C 80.3411,50.3689 79.1745,57.7022 75.5,64.5 Z"/></g>
<g><path style="opacity:0.994" fill="#83d1f4" d="M 95.5,33.5 C 91.713,34.1856 88.5463,33.1856 86,30.5C 86.0704,27.008 85.2371,24.008 83.5,21.5C 86.6004,19.0495 89.9337,18.8829 93.5,21C 95.3124,24.922 95.979,29.0887 95.5,33.5 Z"/></g>
<g><path style="opacity:1" fill="#5cbaec" d="M 83.5,21.5 C 85.2371,24.008 86.0704,27.008 86,30.5C 88.5463,33.1856 91.713,34.1856 95.5,33.5C 94.9744,35.2303 93.9744,36.5637 92.5,37.5C 89.8333,38.8333 87.1667,38.8333 84.5,37.5C 82.0728,35.4924 81.0728,32.8257 81.5,29.5C 81.3817,26.5143 82.0483,23.8476 83.5,21.5 Z"/></g>
<g><path style="opacity:1" fill="#5ab8ea" d="M 30.5,26.5 C 29.6129,30.7132 29.6129,35.0465 30.5,39.5C 26.5519,46.2737 26.5519,52.9404 30.5,59.5C 30.3433,60.8734 30.51,62.2068 31,63.5C 32.8257,65.9231 34.8257,68.2564 37,70.5C 38.0495,69.4829 39.2161,69.3162 40.5,70C 42.0542,71.892 43.8876,73.392 46,74.5C 47.6434,73.6854 49.1434,72.6854 50.5,71.5C 55.2523,70.8068 59.5856,69.1401 63.5,66.5C 67.3324,67.0146 70.9991,66.0146 74.5,63.5C 75.1067,63.6236 75.44,63.9569 75.5,64.5C 63.7784,80.5936 49.1117,83.7603 31.5,74C 18.4918,62.1537 15.9918,48.3204 24,32.5C 26.0367,30.2941 28.2034,28.2941 30.5,26.5 Z"/></g>
<g><path style="opacity:1" fill="#4c96d4" d="M 59.5,30.5 C 59.5,30.8333 59.5,31.1667 59.5,31.5C 57.8008,31.3398 56.1341,31.5065 54.5,32C 54.009,36.7368 55.3423,41.0701 58.5,45C 57.9056,45.4643 57.2389,45.631 56.5,45.5C 55.0013,42.9527 53.5013,40.286 52,37.5C 53.1503,33.155 51.317,31.4883 46.5,32.5C 44.7028,31.2702 42.7028,30.6036 40.5,30.5C 46.7251,26.5583 53.0584,26.5583 59.5,30.5 Z"/></g>
<g><path style="opacity:1" fill="#a9d52c" d="M 70.5,45.5 C 66.6509,45.9807 64.6509,44.314 64.5,40.5C 60.4412,40.0811 58.4412,37.7478 58.5,33.5C 58.8627,32.8165 59.1961,32.1499 59.5,31.5C 59.5,31.1667 59.5,30.8333 59.5,30.5C 61.0683,29.5269 62.735,29.3603 64.5,30C 66.6667,32.8333 69.1667,35.3333 72,37.5C 72.3264,40.3323 71.8264,42.999 70.5,45.5 Z"/></g>
<g><path style="opacity:1" fill="#f3dd1c" d="M 40.5,30.5 C 42.7028,30.6036 44.7028,31.2702 46.5,32.5C 49.0622,34.8827 49.7288,37.5494 48.5,40.5C 46.9991,41.7515 45.3325,42.7515 43.5,43.5C 42.1974,40.6213 40.1974,39.9546 37.5,41.5C 35.6458,40.759 33.9791,39.759 32.5,38.5C 32.8333,37.8333 33.1667,37.1667 33.5,36.5C 34.8724,33.4664 37.2057,31.4664 40.5,30.5 Z"/></g>
<g><path style="opacity:1" fill="#7bb937" d="M 59.5,31.5 C 59.1961,32.1499 58.8627,32.8165 58.5,33.5C 58.4412,37.7478 60.4412,40.0811 64.5,40.5C 64.6509,44.314 66.6509,45.9807 70.5,45.5C 70.5,45.8333 70.5,46.1667 70.5,46.5C 70.0334,49.2974 68.3667,50.6308 65.5,50.5C 65.7135,48.8561 65.3802,47.3561 64.5,46C 61.8806,46.0833 59.214,46.25 56.5,46.5C 56.5,46.1667 56.5,45.8333 56.5,45.5C 57.2389,45.631 57.9056,45.4643 58.5,45C 55.3423,41.0701 54.009,36.7368 54.5,32C 56.1341,31.5065 57.8008,31.3398 59.5,31.5 Z"/></g>
<g><path style="opacity:1" fill="#56afe2" d="M 46.5,32.5 C 51.317,31.4883 53.1503,33.155 52,37.5C 53.5013,40.286 55.0013,42.9527 56.5,45.5C 56.5,45.8333 56.5,46.1667 56.5,46.5C 55.9265,48.7879 54.9265,50.9546 53.5,53C 55.0175,54.6851 56.6841,56.1851 58.5,57.5C 60.444,56.8108 62.444,56.3108 64.5,56C 65.4061,54.3005 65.7394,52.4672 65.5,50.5C 68.3667,50.6308 70.0334,49.2974 70.5,46.5C 71.7856,54.3057 69.4522,60.9723 63.5,66.5C 59.5856,69.1401 55.2523,70.8068 50.5,71.5C 51.8098,69.8523 53.1431,68.1856 54.5,66.5C 54.1445,65.4777 53.4778,64.811 52.5,64.5C 51.1108,61.6024 49.9441,58.6024 49,55.5C 48.2917,54.6195 47.4584,53.9528 46.5,53.5C 46.6716,52.5084 46.3382,51.8417 45.5,51.5C 45.1667,50.5 44.5,49.8333 43.5,49.5C 46.4331,47.3091 48.0998,44.3091 48.5,40.5C 49.7288,37.5494 49.0622,34.8827 46.5,32.5 Z"/></g>
<g><path style="opacity:1" fill="#4995d6" d="M 6.5,37.5 C 8.7463,38.2096 11.0796,38.7096 13.5,39C 12.646,40.0217 11.646,40.8551 10.5,41.5C 9.33444,51.4834 9.16777,61.4834 10,71.5C 11.6995,72.4061 13.5328,72.7394 15.5,72.5C 13.8653,78.5726 10.6986,79.5726 6,75.5C 5.83296,62.8355 5.99963,50.1688 6.5,37.5 Z"/></g>
<g><path style="opacity:1" fill="#f3bb1a" d="M 32.5,38.5 C 33.9791,39.759 35.6458,40.759 37.5,41.5C 36.4173,44.9252 37.7506,46.4252 41.5,46C 42.3805,45.2917 43.0472,44.4584 43.5,43.5C 45.3325,42.7515 46.9991,41.7515 48.5,40.5C 48.0998,44.3091 46.4331,47.3091 43.5,49.5C 42.8333,49.5 42.1667,49.5 41.5,49.5C 33.6237,49.6353 30.6237,45.9686 32.5,38.5 Z"/></g>
<g><path style="opacity:1" fill="#4995d5" d="M 84.5,37.5 C 87.1667,38.8333 89.8333,38.8333 92.5,37.5C 92.5,38.1667 92.5,38.8333 92.5,39.5C 91.1932,40.1534 89.8599,40.8201 88.5,41.5C 87.3345,51.1495 87.1679,60.8161 88,70.5C 89.4443,72.1554 91.2776,72.822 93.5,72.5C 91.8653,78.5726 88.6986,79.5726 84,75.5C 84.0645,62.8426 84.2312,50.176 84.5,37.5 Z"/></g>
<g><path style="opacity:0.92" fill="#57b6ea" d="M 7.5,25.5 C 7.53363,31.5337 10.5336,34.5337 16.5,34.5C 16.5386,35.7562 16.0386,36.7562 15,37.5C 14.5148,49.1745 14.6815,60.8411 15.5,72.5C 13.5328,72.7394 11.6995,72.4061 10,71.5C 9.16777,61.4834 9.33444,51.4834 10.5,41.5C 11.646,40.8551 12.646,40.0217 13.5,39C 11.0796,38.7096 8.7463,38.2096 6.5,37.5C 5.21009,36.9423 4.37675,35.9423 4,34.5C 3.33333,28.8333 3.33333,23.1667 4,17.5C 5.01127,16.6634 6.17793,16.33 7.5,16.5C 7.5,19.5 7.5,22.5 7.5,25.5 Z"/></g>
<g><path style="opacity:0.925" fill="#56b5ea" d="M 92.5,39.5 C 92.7225,50.5041 93.0558,61.5041 93.5,72.5C 91.2776,72.822 89.4443,72.1554 88,70.5C 87.1679,60.8161 87.3345,51.1495 88.5,41.5C 89.8599,40.8201 91.1932,40.1534 92.5,39.5 Z"/></g>
<g><path style="opacity:1" fill="#5299d1" d="M 33.5,36.5 C 33.1667,37.1667 32.8333,37.8333 32.5,38.5C 30.6237,45.9686 33.6237,49.6353 41.5,49.5C 38.5,53.1667 35.1667,56.5 31.5,59.5C 31.1667,59.5 30.8333,59.5 30.5,59.5C 26.5519,52.9404 26.5519,46.2737 30.5,39.5C 30.6854,37.8042 31.5187,36.4709 33,35.5C 33.3988,35.7284 33.5654,36.0618 33.5,36.5 Z"/></g>
<g><path style="opacity:1" fill="#f87c5f" d="M 43.5,43.5 C 43.0472,44.4584 42.3805,45.2917 41.5,46C 37.7506,46.4252 36.4173,44.9252 37.5,41.5C 40.1974,39.9546 42.1974,40.6213 43.5,43.5 Z"/></g>
<g><path style="opacity:1" fill="#b7e733" d="M 65.5,50.5 C 65.7394,52.4672 65.4061,54.3005 64.5,56C 62.444,56.3108 60.444,56.8108 58.5,57.5C 56.6841,56.1851 55.0175,54.6851 53.5,53C 54.9265,50.9546 55.9265,48.7879 56.5,46.5C 59.214,46.25 61.8806,46.0833 64.5,46C 65.3802,47.3561 65.7135,48.8561 65.5,50.5 Z"/></g>
<g><path style="opacity:1" fill="#f7e00b" d="M 41.5,49.5 C 42.1667,49.5 42.8333,49.5 43.5,49.5C 44.5,49.8333 45.1667,50.5 45.5,51.5C 42.3694,54.1288 39.3694,56.9621 36.5,60C 34.6131,60.7796 32.9464,60.6129 31.5,59.5C 35.1667,56.5 38.5,53.1667 41.5,49.5 Z"/></g>
<g><path style="opacity:1" fill="#f4d918" d="M 46.5,53.5 C 47.4584,53.9528 48.2917,54.6195 49,55.5C 49.9441,58.6024 51.1108,61.6024 52.5,64.5C 51.2794,65.0283 50.1127,65.695 49,66.5C 48.7508,65.376 48.2508,64.376 47.5,63.5C 46.3348,64.4911 45.1681,65.4911 44,66.5C 41.3044,64.9138 38.6378,64.2471 36,64.5C 35.3333,63.8333 35.3333,63.1667 36,62.5C 39.0977,58.8926 42.5977,55.8926 46.5,53.5 Z"/></g>
<g><path style="opacity:1" fill="#76b844" d="M 57.5,62.5 C 60.5476,62.494 61.0476,63.494 59,65.5C 57.9614,64.7562 57.4614,63.7562 57.5,62.5 Z"/></g>
<g><path style="opacity:1" fill="#f5bc16" d="M 45.5,51.5 C 46.3382,51.8417 46.6716,52.5084 46.5,53.5C 42.5977,55.8926 39.0977,58.8926 36,62.5C 35.3333,63.1667 35.3333,63.8333 36,64.5C 38.6378,64.2471 41.3044,64.9138 44,66.5C 45.1681,65.4911 46.3348,64.4911 47.5,63.5C 48.2508,64.376 48.7508,65.376 49,66.5C 50.1127,65.695 51.2794,65.0283 52.5,64.5C 53.4778,64.811 54.1445,65.4777 54.5,66.5C 53.1431,68.1856 51.8098,69.8523 50.5,71.5C 49.1434,72.6854 47.6434,73.6854 46,74.5C 43.8876,73.392 42.0542,71.892 40.5,70C 39.2161,69.3162 38.0495,69.4829 37,70.5C 34.8257,68.2564 32.8257,65.9231 31,63.5C 30.51,62.2068 30.3433,60.8734 30.5,59.5C 30.8333,59.5 31.1667,59.5 31.5,59.5C 32.9464,60.6129 34.6131,60.7796 36.5,60C 39.3694,56.9621 42.3694,54.1288 45.5,51.5 Z"/></g>
</svg>
