<?xml version="1.0" encoding="UTF-8" standalone="no"?> <svg width="64" height="64" viewBox="0 0 64 64" fill="none" xmlns="http://www.w3.org/2000/svg">
<path d="M32 51C42.4934 51 51 42.4934 51 32C51 21.5066 42.4934 13 32 13C21.5066 13 13 21.5066 13 32C13 42.4934 21.5066 51 32 51Z" fill="#84D2F4"/>
<path d="M38 44C34.7607 44.005 31.574 43.1805 28.7436 41.6049C25.9133 40.0294 23.5335 37.7553 21.831 34.9995C20.1285 32.2436 19.1601 29.0977 19.0179 25.8615C18.8758 22.6252 19.5647 19.4065 21.019 16.512C18.662 18.1801 16.7165 20.3637 15.3305 22.8968C13.9444 25.4299 13.1543 28.2457 13.0202 31.1301C12.8861 34.0145 13.4116 36.8915 14.5566 39.5422C15.7017 42.193 17.4362 44.5477 19.6283 46.4273C21.8203 48.3068 24.4121 49.6617 27.2066 50.3889C30.001 51.1161 32.9245 51.1964 35.7546 50.6237C38.5848 50.0511 41.2471 48.8405 43.539 47.0842C45.8309 45.3278 47.6921 43.0719 48.981 40.488C45.7759 42.7741 41.9368 44.0019 38 44Z" fill="#57B7EB"/>
<path d="M32 46C39.732 46 46 39.732 46 32C46 24.268 39.732 18 32 18C24.268 18 18 24.268 18 32C18 39.732 24.268 46 32 46Z" fill="#57B7EB"/>
<path d="M36.745 42.956C35.4451 42.862 34.1593 42.6273 32.91 42.256L31.822 41.168C31.9239 40.9815 31.9629 40.7671 31.9332 40.5566C31.9035 40.3462 31.8066 40.151 31.657 40L30.663 39.006C30.7053 38.9153 30.7609 38.8313 30.828 38.757C31.0155 38.5695 31.1208 38.3152 31.1208 38.05C31.1208 37.7848 31.0155 37.5305 30.828 37.343L29.414 35.929C29.2688 35.7906 29.0844 35.7005 28.886 35.671C29.0426 35.4818 29.1234 35.2412 29.1127 34.9958C29.102 34.7505 29.0005 34.5178 28.828 34.343L27.414 32.929C27.2703 32.7915 27.0876 32.7018 26.891 32.672C27.5883 32.4091 28.2158 31.9893 28.7247 31.4449C29.2337 30.9006 29.6105 30.2464 29.826 29.533L30.507 27.264C30.8697 26.0532 30.7467 24.7488 30.1641 23.6271C29.5815 22.5054 28.5851 21.6546 27.386 21.255C29.7693 20.7887 32.2337 20.964 34.527 21.763C34.2164 21.9341 33.9573 22.1855 33.7769 22.4908C33.5965 22.7962 33.5014 23.1443 33.5014 23.499C33.5014 23.8537 33.5965 24.2018 33.7769 24.5072C33.9573 24.8125 34.2164 25.0639 34.527 25.235C34.5596 25.592 34.6691 25.9377 34.8479 26.2484C35.0268 26.5591 35.2707 26.8275 35.563 27.035C35.5308 27.1872 35.5107 27.3417 35.503 27.497C35.503 28.2926 35.8191 29.0557 36.3817 29.6183C36.9443 30.1809 37.7074 30.497 38.503 30.497C38.5079 30.5974 38.5179 30.6976 38.533 30.797C38.337 30.8905 38.1579 31.0159 38.003 31.168C37.817 30.9821 37.5963 30.8347 37.3534 30.7341C37.1104 30.6335 36.8501 30.5818 36.5871 30.5818C36.0561 30.5819 35.5469 30.793 35.1715 31.1685C34.7961 31.544 34.5852 32.0533 34.5853 32.5844C34.5854 33.1154 34.7965 33.6246 35.172 34L33.757 35.414L36.586 38.243L38 36.828C38.3772 37.1923 38.8824 37.3939 39.4068 37.3893C39.9312 37.3848 40.4328 37.1745 40.8036 36.8036C41.1745 36.4328 41.3848 35.9312 41.3893 35.4068C41.3939 34.8824 41.1923 34.3772 40.828 34C40.9801 33.8451 41.1055 33.666 41.199 33.47C41.6772 33.5448 42.1668 33.4902 42.6168 33.3119C43.0668 33.1336 43.4608 32.8381 43.758 32.456C43.9159 33.2949 43.9969 34.1464 44 35C44.0001 37.1521 43.4996 39.2747 42.538 41.2C44.8838 38.4865 46.0881 34.9702 45.8986 31.3883C45.709 27.8065 44.1402 24.437 41.5211 21.9862C38.902 19.5355 35.4358 18.1938 31.8492 18.2423C28.2627 18.2908 24.8341 19.7258 22.2822 22.2464C19.7303 24.7671 18.2532 28.1777 18.1606 31.7635C18.0679 35.3492 19.3669 38.8316 21.7852 41.4806C24.2035 44.1297 27.5534 45.7399 31.1327 45.9735C34.712 46.2072 38.2428 45.0462 40.985 42.734C39.5856 42.9773 38.1621 43.0519 36.745 42.956V42.956ZM20.337 25.805C20.2413 25.9834 20.1565 26.1674 20.083 26.356C20.054 25.97 20.02 25.585 20.016 25.194C20.4167 24.792 20.8411 24.4143 21.287 24.063L20.337 25.805ZM26 32.929L23.42 35.509C22.5654 34.3323 21.8566 33.0563 21.309 31.709C22.2024 32.5483 23.3833 33.0135 24.609 33.009H25.166C25.449 33.0077 25.7314 32.9819 26.01 32.932L26 32.929Z" fill="#4891D3"/>
<path d="M57 50C56.6112 49.9993 56.2265 49.9204 55.8688 49.768C55.5111 49.6157 55.1877 49.3929 54.9178 49.113C54.6479 48.8332 54.437 48.5019 54.2978 48.1389C54.1585 47.7759 54.0936 47.3886 54.107 47L55 22H59L59.893 47C59.9064 47.3886 59.8416 47.7759 59.7023 48.1389C59.563 48.5019 59.3521 48.8332 59.0822 49.113C58.8123 49.3929 58.4889 49.6157 58.1312 49.768C57.7735 49.9204 57.3888 49.9993 57 50V50Z" fill="#57B7EB"/>
<path d="M59 47C58.6112 46.9993 58.2265 46.9204 57.8688 46.768C57.5111 46.6157 57.1877 46.3929 56.9178 46.113C56.6479 45.8332 56.437 45.5019 56.2978 45.1389C56.1585 44.7759 56.0936 44.3886 56.107 44L56.717 26.926C57.668 26.7502 58.5231 26.2358 59.124 25.478L59 22H55L54.107 47C54.0925 47.389 54.1567 47.7769 54.2955 48.1405C54.4344 48.5041 54.6452 48.836 54.9152 49.1163C55.1853 49.3966 55.5091 49.6195 55.8673 49.7718C56.2255 49.9241 56.6108 50.0026 57 50.0026C57.3892 50.0026 57.7745 49.9241 58.1327 49.7718C58.4909 49.6195 58.8147 49.3966 59.0848 49.1163C59.3548 48.836 59.5656 48.5041 59.7045 48.1405C59.8434 47.7769 59.9075 47.389 59.893 47L59.887 46.844C59.6014 46.9425 59.3021 46.9951 59 47V47Z" fill="#4891D3"/>
<path d="M61 17C61 14.7909 59.2091 13 57 13C54.7909 13 53 14.7909 53 17V21C53 23.2091 54.7909 25 57 25C59.2091 25 61 23.2091 61 21V17Z" fill="#84D2F4"/>
<path d="M59 22C57.9391 22 56.9217 21.5786 56.1716 20.8284C55.4214 20.0783 55 19.0609 55 18V14C55.0065 13.8422 55.0222 13.6849 55.047 13.529C54.428 13.8733 53.912 14.3764 53.5522 14.9865C53.1924 15.5966 53.0018 16.2917 53 17V21C52.998 22.0187 53.3858 22.9996 54.0838 23.7416C54.7818 24.4836 55.7372 24.9305 56.7541 24.9907C57.771 25.0509 58.7725 24.7199 59.5532 24.0655C60.3339 23.4111 60.8347 22.4828 60.953 21.471C60.3588 21.8135 59.6858 21.9958 59 22Z" fill="#57B7EB"/>
<path d="M9.00001 22H5.00001L4.10701 47C4.09255 47.389 4.15667 47.7769 4.29554 48.1405C4.43441 48.5041 4.64518 48.836 4.91524 49.1163C5.18531 49.3966 5.50913 49.6195 5.86733 49.7718C6.22554 49.9241 6.61078 50.0026 7.00001 50.0026C7.38925 50.0026 7.77448 49.9241 8.13269 49.7718C8.49089 49.6195 8.81471 49.3966 9.08478 49.1163C9.35484 48.836 9.56562 48.5041 9.70449 48.1405C9.84336 47.7769 9.90748 47.389 9.89301 47L9.00001 22Z" fill="#57B7EB"/>
<path d="M9.00001 47C8.6112 46.9993 8.22651 46.9204 7.8688 46.768C7.51109 46.6157 7.18768 46.3929 6.91779 46.113C6.6479 45.8332 6.43704 45.5019 6.29775 45.1389C6.15847 44.7759 6.0936 44.3886 6.10701 44L6.71701 26.926C7.66772 26.7507 8.52278 26.237 9.12401 25.48L9.00001 22H5.00001L4.10701 47C4.09255 47.389 4.15667 47.7769 4.29554 48.1405C4.43441 48.5041 4.64518 48.836 4.91524 49.1163C5.18531 49.3966 5.50913 49.6195 5.86733 49.7718C6.22554 49.9241 6.61078 50.0026 7.00001 50.0026C7.38925 50.0026 7.77448 49.9241 8.13269 49.7718C8.49089 49.6195 8.81471 49.3966 9.08478 49.1163C9.35484 48.836 9.56562 48.5041 9.70449 48.1405C9.84336 47.7769 9.90748 47.389 9.89301 47L9.88701 46.844C9.60143 46.9425 9.30206 46.9951 9.00001 47V47Z" fill="#4891D3"/>
<path d="M3 17H11V21C11 22.0609 10.5786 23.0783 9.82843 23.8284C9.07828 24.5786 8.06087 25 7 25V25C5.93913 25 4.92172 24.5786 4.17157 23.8284C3.42143 23.0783 3 22.0609 3 21V17Z" fill="#84D2F4"/>
<path d="M9.00001 22C7.93914 22 6.92173 21.5786 6.17158 20.8284C5.42143 20.0783 5.00001 19.0609 5.00001 18V17H3.00001V21C2.99805 22.0187 3.38581 22.9996 4.08381 23.7416C4.78182 24.4836 5.73719 24.9305 6.75411 24.9907C7.77104 25.0509 8.77248 24.7199 9.55318 24.0655C10.3339 23.4111 10.8347 22.4828 10.953 21.471C10.3588 21.8135 9.68584 21.9958 9.00001 22V22Z" fill="#57B7EB"/>
<path d="M4 19C3.73478 19 3.48043 18.8946 3.29289 18.7071C3.10536 18.5196 3 18.2652 3 18V12C3 11.7348 3.10536 11.4804 3.29289 11.2929C3.48043 11.1054 3.73478 11 4 11C4.26522 11 4.51957 11.1054 4.70711 11.2929C4.89464 11.4804 5 11.7348 5 12V18C5 18.2652 4.89464 18.5196 4.70711 18.7071C4.51957 18.8946 4.26522 19 4 19Z" fill="#57B7EB"/>
<path d="M10 19C9.73478 19 9.48043 18.8946 9.29289 18.7071C9.10536 18.5196 9 18.2652 9 18V12C9 11.7348 9.10536 11.4804 9.29289 11.2929C9.48043 11.1054 9.73478 11 10 11C10.2652 11 10.5196 11.1054 10.7071 11.2929C10.8946 11.4804 11 11.7348 11 12V18C11 18.2652 10.8946 18.5196 10.7071 18.7071C10.5196 18.8946 10.2652 19 10 19Z" fill="#84D2F4"/>
<path d="M7 19C6.73478 19 6.48043 18.8946 6.29289 18.7071C6.10536 18.5196 6 18.2652 6 18V12C6 11.7348 6.10536 11.4804 6.29289 11.2929C6.48043 11.1054 6.73478 11 7 11C7.26522 11 7.51957 11.1054 7.70711 11.2929C7.89464 11.4804 8 11.7348 8 12V18C8 18.2652 7.89464 18.5196 7.70711 18.7071C7.51957 18.8946 7.26522 19 7 19Z" fill="#84D2F4"/>
<path d="M27 31.929L19.929 39C19.7415 39.1875 19.6362 39.4418 19.6362 39.707C19.6362 39.9722 19.7415 40.2265 19.929 40.414L21.343 41.828C21.5305 42.0155 21.7849 42.1208 22.05 42.1208C22.3152 42.1208 22.5695 42.0155 22.757 41.828V41.828C22.8499 41.735 22.9602 41.6612 23.0816 41.6109C23.203 41.5606 23.3331 41.5347 23.4645 41.5347C23.5959 41.5347 23.7261 41.5606 23.8475 41.6109C23.9689 41.6612 24.0791 41.735 24.172 41.828L27 44.657C27.1875 44.8445 27.4419 44.9498 27.707 44.9498C27.9722 44.9498 28.2265 44.8445 28.414 44.657L32.657 40.414C32.8445 40.2265 32.9498 39.9722 32.9498 39.707C32.9498 39.4418 32.8445 39.1875 32.657 39L29.828 36.172C29.735 36.0791 29.6613 35.9688 29.611 35.8474C29.5606 35.726 29.5347 35.5959 29.5347 35.4645C29.5347 35.3331 29.5606 35.2029 29.611 35.0815C29.6613 34.9601 29.735 34.8499 29.828 34.757C30.0155 34.5695 30.1208 34.3152 30.1208 34.05C30.1208 33.7848 30.0155 33.5305 29.828 33.343L28.414 31.929C28.2265 31.7415 27.9722 31.6362 27.707 31.6362C27.4419 31.6362 27.1875 31.7415 27 31.929V31.929Z" fill="#F9E109"/>
<path d="M32.657 39L29.828 36.172C29.735 36.0791 29.6613 35.9688 29.611 35.8474C29.5606 35.726 29.5347 35.5959 29.5347 35.4645C29.5347 35.3331 29.5606 35.2029 29.611 35.0815C29.6613 34.9601 29.735 34.8499 29.828 34.757C30.0155 34.5695 30.1208 34.3152 30.1208 34.05C30.1208 33.7848 30.0155 33.5305 29.828 33.343L29.536 33.05L24.172 38.414C23.6603 38.9237 22.9815 39.2311 22.2609 39.2797C21.5403 39.3282 20.8264 39.1145 20.251 38.678L19.929 39C19.7415 39.1875 19.6362 39.4418 19.6362 39.707C19.6362 39.9722 19.7415 40.2265 19.929 40.414L21.343 41.828C21.5305 42.0155 21.7849 42.1208 22.05 42.1208C22.3152 42.1208 22.5695 42.0155 22.757 41.828C22.8499 41.735 22.9602 41.6613 23.0816 41.6109C23.203 41.5606 23.3331 41.5347 23.4645 41.5347C23.5959 41.5347 23.7261 41.5606 23.8475 41.6109C23.9689 41.6613 24.0791 41.735 24.172 41.828L27 44.657C27.1875 44.8445 27.4419 44.9498 27.707 44.9498C27.9722 44.9498 28.2265 44.8445 28.414 44.657L32.657 40.414C32.8445 40.2265 32.9498 39.9722 32.9498 39.707C32.9498 39.4418 32.8445 39.1875 32.657 39Z" fill="#FCBC04"/>
<path d="M45.5 29.5C45.4968 28.9835 45.3589 28.4769 45.1 28.03C45.6466 27.6817 46.0657 27.1657 46.2946 26.5594C46.5235 25.953 46.5498 25.2888 46.3697 24.6662C46.1895 24.0436 45.8126 23.496 45.2953 23.1056C44.778 22.7151 44.1481 22.5026 43.5 22.5C43.5018 21.8346 43.2817 21.1876 42.8745 20.6614C42.4674 20.1352 41.8963 19.7598 41.2518 19.5945C40.6073 19.4293 39.926 19.4837 39.3159 19.7491C38.7058 20.0145 38.2015 20.4758 37.883 21.06C37.6792 20.8621 37.4354 20.71 37.1681 20.6138C36.9007 20.5177 36.6159 20.4798 36.3327 20.5027C36.0495 20.5256 35.7745 20.6086 35.526 20.7464C35.2775 20.8841 35.0613 21.0734 34.8918 21.3014C34.7224 21.5295 34.6036 21.7911 34.5434 22.0688C34.4833 22.3464 34.4831 22.6338 34.543 22.9115C34.6028 23.1892 34.7213 23.451 34.8905 23.6792C35.0597 23.9075 35.2757 24.097 35.524 24.235C35.5566 24.592 35.6661 24.9377 35.845 25.2484C36.0238 25.5591 36.2677 25.8274 36.56 26.035C36.5278 26.1872 36.5077 26.3416 36.5 26.497C36.5 27.2926 36.8161 28.0557 37.3787 28.6183C37.9413 29.1809 38.7044 29.497 39.5 29.497C39.5 30.2926 39.8161 31.0557 40.3787 31.6183C40.9413 32.1809 41.7044 32.497 42.5 32.497C43.2957 32.497 44.0587 32.1809 44.6213 31.6183C45.1839 31.0557 45.5 30.2926 45.5 29.497V29.5Z" fill="#A1D51C"/>
<path d="M44.5 29.5C43.7044 29.5 42.9413 29.1839 42.3787 28.6213C41.8161 28.0587 41.5 27.2956 41.5 26.5C40.7044 26.5 39.9413 26.1839 39.3787 25.6213C38.8161 25.0587 38.5 24.2956 38.5 23.5C38.5077 23.3446 38.5278 23.1902 38.56 23.038C38.2677 22.8304 38.0238 22.5621 37.845 22.2514C37.6661 21.9407 37.5566 21.595 37.524 21.238C37.2236 21.0689 36.9713 20.8259 36.791 20.532C36.3294 20.4606 35.8573 20.5539 35.4576 20.7957C35.0579 21.0374 34.756 21.4122 34.6049 21.8542C34.4538 22.2962 34.463 22.7773 34.6311 23.2132C34.7992 23.649 35.1153 24.0118 35.524 24.238C35.5566 24.595 35.6661 24.9407 35.845 25.2514C36.0238 25.5621 36.2677 25.8304 36.56 26.038C36.5278 26.1902 36.5077 26.3446 36.5 26.5C36.5 27.2956 36.8161 28.0587 37.3787 28.6213C37.9413 29.1839 38.7044 29.5 39.5 29.5C39.5 30.2956 39.8161 31.0587 40.3787 31.6213C40.9413 32.1839 41.7044 32.5 42.5 32.5C43.2957 32.5 44.0587 32.1839 44.6213 31.6213C45.1839 31.0587 45.5 30.2956 45.5 29.5C45.5 29.439 45.491 29.38 45.487 29.32C45.1706 29.4357 44.8369 29.4965 44.5 29.5V29.5Z" fill="#7AB92D"/>
<path d="M29 34.929L21.929 42C21.7415 42.1875 21.6362 42.4418 21.6362 42.707C21.6362 42.9721 21.7415 43.2265 21.929 43.414L23.343 44.828C23.5305 45.0155 23.7849 45.1208 24.05 45.1208C24.3152 45.1208 24.5695 45.0155 24.757 44.828V44.828C24.8499 44.735 24.9602 44.6612 25.0816 44.6109C25.203 44.5606 25.3331 44.5347 25.4645 44.5347C25.5959 44.5347 25.7261 44.5606 25.8475 44.6109C25.9689 44.6612 26.0791 44.735 26.172 44.828L29 47.657C29.1875 47.8445 29.4419 47.9498 29.707 47.9498C29.9722 47.9498 30.2265 47.8445 30.414 47.657L34.657 43.414C34.8445 43.2265 34.9498 42.9721 34.9498 42.707C34.9498 42.4418 34.8445 42.1875 34.657 42L31.828 39.172C31.735 39.0791 31.6613 38.9688 31.611 38.8474C31.5606 38.726 31.5347 38.5959 31.5347 38.4645C31.5347 38.3331 31.5606 38.2029 31.611 38.0815C31.6613 37.9601 31.735 37.8499 31.828 37.757V37.757C32.0155 37.5695 32.1208 37.3151 32.1208 37.05C32.1208 36.7848 32.0155 36.5305 31.828 36.343L30.414 34.929C30.2265 34.7415 29.9722 34.6362 29.707 34.6362C29.4419 34.6362 29.1875 34.7415 29 34.929V34.929Z" fill="#F9E109"/>
<path d="M41.828 33C42.019 32.8155 42.1714 32.5948 42.2762 32.3508C42.381 32.1068 42.4362 31.8443 42.4385 31.5788C42.4408 31.3132 42.3902 31.0499 42.2897 30.8041C42.1891 30.5583 42.0406 30.335 41.8528 30.1472C41.665 29.9594 41.4417 29.8109 41.1959 29.7103C40.9501 29.6098 40.6868 29.5592 40.4212 29.5615C40.1557 29.5638 39.8932 29.619 39.6492 29.7238C39.4052 29.8286 39.1845 29.981 39 30.172C38.8155 29.981 38.5948 29.8286 38.3508 29.7238C38.1068 29.619 37.8444 29.5638 37.5788 29.5615C37.3133 29.5592 37.0499 29.6098 36.8041 29.7103C36.5583 29.8109 36.335 29.9594 36.1472 30.1472C35.9594 30.335 35.8109 30.5583 35.7104 30.8041C35.6098 31.0499 35.5592 31.3132 35.5615 31.5788C35.5638 31.8443 35.619 32.1068 35.7238 32.3508C35.8286 32.5948 35.981 32.8155 36.172 33L34.757 34.414L37.586 37.243L39 35.828C39.3772 36.1923 39.8824 36.3939 40.4068 36.3893C40.9312 36.3848 41.4328 36.1744 41.8037 35.8036C42.1745 35.4328 42.3848 34.9312 42.3894 34.4068C42.3939 33.8824 42.1923 33.3772 41.828 33Z" fill="#C4F236"/>
<path d="M41.828 33.828C41.453 34.2029 40.9443 34.4136 40.414 34.4136C39.8837 34.4136 39.3751 34.2029 39 33.828C38.625 34.2029 38.1163 34.4136 37.586 34.4136C37.0557 34.4136 36.5471 34.2029 36.172 33.828L35.757 33.414L34.757 34.414L37.586 37.243L39 35.828C39.3447 36.1635 39.7987 36.3636 40.2789 36.3915C40.7591 36.4194 41.2333 36.2734 41.6145 35.9801C41.9958 35.6868 42.2586 35.2659 42.3547 34.7946C42.4509 34.3233 42.3739 33.8332 42.138 33.414C42.0532 33.565 41.949 33.7041 41.828 33.828V33.828Z" fill="#A1D51C"/>
<path d="M33.864 41.207L33.243 41.828C32.3053 42.7657 31.0336 43.2924 29.7075 43.2924C28.3815 43.2924 27.1097 42.7657 26.172 41.828C26.0791 41.735 25.9689 41.6613 25.8475 41.6109C25.7261 41.5606 25.5959 41.5347 25.4645 41.5347C25.3331 41.5347 25.203 41.5606 25.0816 41.6109C24.9602 41.6613 24.8499 41.735 24.757 41.828C24.5695 42.0155 24.3152 42.1208 24.05 42.1208C23.7849 42.1208 23.5305 42.0155 23.343 41.828L22.722 41.207L21.929 42C21.7415 42.1875 21.6362 42.4418 21.6362 42.707C21.6362 42.9722 21.7415 43.2265 21.929 43.414L23.343 44.828C23.5305 45.0155 23.7849 45.1208 24.05 45.1208C24.3152 45.1208 24.5695 45.0155 24.757 44.828C24.8499 44.735 24.9602 44.6613 25.0816 44.6109C25.203 44.5606 25.3331 44.5347 25.4645 44.5347C25.5959 44.5347 25.7261 44.5606 25.8475 44.6109C25.9689 44.6613 26.0791 44.735 26.172 44.828L29 47.657C29.1875 47.8445 29.4419 47.9498 29.707 47.9498C29.9722 47.9498 30.2265 47.8445 30.414 47.657L34.657 43.414C34.8445 43.2265 34.9498 42.9722 34.9498 42.707C34.9498 42.4418 34.8445 42.1875 34.657 42L33.864 41.207Z" fill="#FCBC04"/>
<path d="M27.45 20.038C28.1521 20.1256 28.8265 20.3653 29.4264 20.7404C30.0263 21.1154 30.5371 21.6168 30.9234 22.2095C31.3096 22.8022 31.5619 23.4721 31.6627 24.1723C31.7635 24.8726 31.7104 25.5864 31.507 26.264L30.826 28.533C30.5255 29.5352 29.9098 30.4139 29.0703 31.0384C28.2309 31.663 27.2124 32.0002 26.166 32H25.609C24.765 31.9999 23.9355 31.7803 23.202 31.3627C22.4686 30.9452 21.8563 30.344 21.4254 29.6183C20.9945 28.8925 20.7598 28.0672 20.7443 27.2233C20.7288 26.3795 20.9331 25.5461 21.337 24.805L22.575 22.536C23.0428 21.6783 23.758 20.9812 24.6276 20.5357C25.4971 20.0901 26.4806 19.9167 27.45 20.038Z" fill="#F9E109"/>
<path d="M27.166 28H26.609C25.4581 28.0012 24.344 27.594 23.4651 26.8509C22.5862 26.1079 21.9993 25.0771 21.809 23.942L21.338 24.805C20.9341 25.546 20.7298 26.3793 20.7453 27.2231C20.7607 28.0669 20.9953 28.8921 21.4261 29.6178C21.8569 30.3435 22.469 30.9447 23.2024 31.3624C23.9357 31.78 24.7651 31.9997 25.609 32H26.166C27.2123 32.0002 28.2308 31.663 29.0703 31.0384C29.9098 30.4138 30.5255 29.5352 30.826 28.533L31.507 26.264C31.6444 25.8006 31.7118 25.3193 31.707 24.836C31.3628 25.7633 30.7433 26.5633 29.9318 27.1288C29.1202 27.6943 28.1552 27.9982 27.166 28V28Z" fill="#FCBC04"/>
<path d="M26 30C27.1046 30 28 29.1046 28 28C28 26.8954 27.1046 26 26 26C24.8955 26 24 26.8954 24 28C24 29.1046 24.8955 30 26 30Z" fill="#F89C8D"/>
<path d="M27.166 28H26.609C25.7351 28.0043 24.8765 27.771 24.125 27.325C24.0229 27.6001 23.9827 27.8943 24.007 28.1867C24.0314 28.4792 24.1198 28.7627 24.266 29.0171C24.4122 29.2715 24.6126 29.4907 24.853 29.659C25.0933 29.8273 25.3678 29.9406 25.6569 29.991C25.946 30.0414 26.2426 30.0275 26.5257 29.9504C26.8089 29.8732 27.0716 29.7348 27.2952 29.5447C27.5188 29.3547 27.6979 29.1178 27.8197 28.8509C27.9415 28.5839 28.0031 28.2934 28 28C28 27.975 27.994 27.952 27.993 27.927C27.7199 27.9746 27.4432 27.999 27.166 28V28Z" fill="#F8664F"/>
<path d="M26.879 41.293C27.4313 41.293 27.879 40.8453 27.879 40.293C27.879 39.7407 27.4313 39.293 26.879 39.293C26.3267 39.293 25.879 39.7407 25.879 40.293C25.879 40.8453 26.3267 41.293 26.879 41.293Z" fill="#E59730"/>
<path d="M30.414 43C30.9663 43 31.414 42.5523 31.414 42C31.414 41.4477 30.9663 41 30.414 41C29.8617 41 29.414 41.4477 29.414 42C29.414 42.5523 29.8617 43 30.414 43Z" fill="#E59730"/>
<path d="M41 24C41.5523 24 42 23.5523 42 23C42 22.4477 41.5523 22 41 22C40.4477 22 40 22.4477 40 23C40 23.5523 40.4477 24 41 24Z" fill="#F9E109"/>
<path d="M38 42C38.5523 42 39 41.5523 39 41C39 40.4477 38.5523 40 38 40C37.4477 40 37 40.4477 37 41C37 41.5523 37.4477 42 38 42Z" fill="#7AB92D"/>
<path d="M43 27C43.5523 27 44 26.5523 44 26C44 25.4477 43.5523 25 43 25C42.4477 25 42 25.4477 42 26C42 26.5523 42.4477 27 43 27Z" fill="#F9E109"/>
</svg>
