<?xml version="1.0" encoding="UTF-8"?>
<!DOCTYPE svg PUBLIC "-//W3C//DTD SVG 1.1//EN" "http://www.w3.org/Graphics/SVG/1.1/DTD/svg11.dtd">
<svg xmlns="http://www.w3.org/2000/svg" version="1.1" width="100px" height="100px" style="shape-rendering:geometricPrecision; text-rendering:geometricPrecision; image-rendering:optimizeQuality; fill-rule:evenodd; clip-rule:evenodd" xmlns:xlink="http://www.w3.org/1999/xlink">
<g><path style="opacity:0.925" fill="#2c3d4f" d="M 31.5,7.5 C 47.5035,7.33341 63.5035,7.50007 79.5,8C 85.9689,13.4677 92.1356,19.301 98,25.5C 98.6667,46.5 98.6667,67.5 98,88.5C 97.1667,89.3333 96.3333,90.1667 95.5,91C 74.1667,91.6667 52.8333,91.6667 31.5,91C 30.6667,90.1667 29.8333,89.3333 29,88.5C 28.3333,62.5 28.3333,36.5 29,10.5C 30.045,9.62656 30.8783,8.62656 31.5,7.5 Z M 35.5,14.5 C 48.5,14.5 61.5,14.5 74.5,14.5C 74.3342,19.1785 74.5008,23.8452 75,28.5C 75.8333,29.3333 76.6667,30.1667 77.5,31C 82.1548,31.4992 86.8215,31.6658 91.5,31.5C 91.5,49.1667 91.5,66.8333 91.5,84.5C 72.8333,84.5 54.1667,84.5 35.5,84.5C 35.5,61.1667 35.5,37.8333 35.5,14.5 Z"/></g>
<g><path style="opacity:0.972" fill="#1c74b8" d="M 4.5,10.5 C 10.3783,9.50924 13.8783,11.8426 15,17.5C 15.6667,37.5 15.6667,57.5 15,77.5C 13.022,82.5925 10.522,87.2591 7.5,91.5C 5.56462,87.7232 3.39795,84.0566 1,80.5C 0.333333,58.5 0.333333,36.5 1,14.5C 1.68972,12.6498 2.85639,11.3164 4.5,10.5 Z"/></g>
<g><path style="opacity:0.844" fill="#1c74b9" d="M 18.5,16.5 C 20.1238,16.3601 21.2904,17.0267 22,18.5C 22.6667,28.5 22.6667,38.5 22,48.5C 20.6439,49.3802 19.1439,49.7135 17.5,49.5C 17.1901,38.4187 17.5234,27.4187 18.5,16.5 Z"/></g>
<g><path style="opacity:0.975" fill="#1c74b7" d="M 43.5,40.5 C 56.8333,40.5 70.1667,40.5 83.5,40.5C 83.5,41.8333 83.5,43.1667 83.5,44.5C 70.1667,44.5 56.8333,44.5 43.5,44.5C 43.5,43.1667 43.5,41.8333 43.5,40.5 Z"/></g>
<g><path style="opacity:0.841" fill="#1c74b7" d="M 43.5,50.5 C 56.8333,50.5 70.1667,50.5 83.5,50.5C 83.7135,52.1439 83.3802,53.6439 82.5,55C 69.5043,55.4999 56.5043,55.6666 43.5,55.5C 43.5,53.8333 43.5,52.1667 43.5,50.5 Z"/></g>
<g><path style="opacity:0.846" fill="#1c74b8" d="M 44.5,60.5 C 51.175,60.3337 57.8417,60.5004 64.5,61C 66.3348,61.9277 66.6682,63.0944 65.5,64.5C 58.1968,65.4973 50.8635,65.8306 43.5,65.5C 43.366,63.7085 43.6993,62.0418 44.5,60.5 Z"/></g>
<g><path style="opacity:0.745" fill="#1b74b8" d="M 65.5,71.5 C 71.2521,73.6939 77.2521,74.6939 83.5,74.5C 83.5,75.5 83.5,76.5 83.5,77.5C 77.9334,78.8192 72.7668,77.8192 68,74.5C 66.7432,76.7458 64.9099,78.0791 62.5,78.5C 62.1663,75.509 63.1663,73.1757 65.5,71.5 Z"/></g>
</svg>
