<?xml version="1.0" encoding="UTF-8" standalone="no"?> <svg width="64" height="64" viewBox="0 0 64 64" fill="none" xmlns="http://www.w3.org/2000/svg">
<path d="M61 13V57C61 58.0609 60.5786 59.0783 59.8284 59.8284C59.0783 60.5786 58.0609 61 57 61H23C22.8093 61.0016 22.6187 60.9882 22.43 60.96C21.9095 60.8836 21.4096 60.7033 20.96 60.43C20.4456 60.1282 20.0059 59.7144 19.6735 59.2192C19.3411 58.7241 19.1245 58.1604 19.04 57.57C19.0118 57.3813 18.9984 57.1908 19 57V13C19 11.9391 19.4214 10.9217 20.1716 10.1716C20.9217 9.42143 21.9391 9 23 9H57C58.0609 9 59.0783 9.42143 59.8284 10.1716C60.5786 10.9217 61 11.9391 61 13Z" fill="#C49A6C"/>
<path d="M55 13H25C23.8954 13 23 13.8954 23 15V55C23 56.1046 23.8954 57 25 57H55C56.1046 57 57 56.1046 57 55V15C57 13.8954 56.1046 13 55 13Z" fill="#E6E7E8"/>
<path d="M19.9 23C19.7543 23.7228 19.4466 24.4032 19 24.99V15C19.653 15.8635 20.0043 16.9175 20 18V19H21C21.5304 19 22.0391 19.2107 22.4142 19.5858C22.7893 19.9609 23 20.4696 23 21C23 21.5304 22.7893 22.0391 22.4142 22.4142C22.0391 22.7893 21.5304 23 21 23H19.9Z" fill="#A97C50"/>
<path d="M22.09 30.25L21.9 30.14C21.6123 29.9694 21.3113 29.8223 21 29.7C20.8096 29.6055 20.6123 29.5253 20.41 29.46C19.9508 29.3035 19.4791 29.1864 19 29.11V57C18.9984 57.1907 19.0118 57.3813 19.04 57.57C19.1245 58.1603 19.3411 58.724 19.6735 59.2192C20.0059 59.7143 20.4456 60.1282 20.96 60.43C21.4096 60.7033 21.9095 60.8835 22.43 60.96C22.102 60.3786 21.6214 59.898 21.04 59.57C21.0363 59.5621 21.0307 59.5553 21.0237 59.5501C21.0167 59.5449 21.0086 59.5414 21 59.54V46H23V30.917C22.7191 30.6656 22.4143 30.4422 22.09 30.25V30.25Z" fill="#A97C50"/>
<path d="M23 30.917V46C23.5299 45.9984 24.0377 45.7872 24.4125 45.4125C24.7872 45.0377 24.9984 44.5299 25 44V35.3C24.998 34.4691 24.8186 33.6483 24.4737 32.8924C24.1287 32.1365 23.6263 31.463 23 30.917V30.917Z" fill="#D8D7DA"/>
<path d="M7 44V46V57.54V61H13V44H7Z" fill="#57565C"/>
<path d="M13 44V61H19V57.54V57V46V44H13Z" fill="#57565C"/>
<path d="M40 7H28V13C28.0016 13.5299 28.2128 14.0377 28.5875 14.4125C28.9623 14.7872 29.4701 14.9984 30 15H50C50.5299 14.9984 51.0377 14.7872 51.4125 14.4125C51.7872 14.0377 51.9984 13.5299 52 13V7H40Z" fill="#FF9811"/>
<path d="M40 7C41.1046 7 42 6.10457 42 5C42 3.89543 41.1046 3 40 3C38.8954 3 38 3.89543 38 5C38 6.10457 38.8954 7 40 7Z" fill="#FF9811"/>
<path d="M40 25C40.653 25.8635 41.0043 26.9175 41 28C41 29.1873 40.5775 30.3358 39.8082 31.24C39.0388 32.1443 37.9728 32.7453 36.8009 32.9354C35.629 33.1256 34.4276 32.8926 33.4118 32.278C32.396 31.6635 31.632 30.7075 31.2566 29.5811C30.8811 28.4548 30.9187 27.2316 31.3627 26.1305C31.8066 25.0294 32.6278 24.1221 33.6795 23.5711C34.7311 23.0201 35.9445 22.8613 37.1025 23.1231C38.2606 23.3849 39.2876 24.0502 40 25V25Z" fill="#D8D7DA"/>
<path d="M40 41C40.653 41.8635 41.0043 42.9175 41 44C41 45.1873 40.5775 46.3358 39.8082 47.24C39.0388 48.1443 37.9728 48.7453 36.8009 48.9354C35.629 49.1256 34.4276 48.8926 33.4118 48.278C32.396 47.6635 31.632 46.7075 31.2566 45.5811C30.8811 44.4548 30.9187 43.2316 31.3627 42.1305C31.8066 41.0294 32.6278 40.1221 33.6795 39.5711C34.7311 39.0201 35.9445 38.8613 37.1025 39.1231C38.2606 39.3849 39.2876 40.0502 40 41Z" fill="#D8D7DA"/>
<path d="M38 23C38.653 23.8635 39.0043 24.9175 39 26C39 27.1873 38.5775 28.3358 37.8082 29.24C37.0388 30.1443 35.9728 30.7453 34.8009 30.9354C33.629 31.1256 32.4276 30.8926 31.4118 30.278C30.396 29.6634 29.632 28.7075 29.2566 27.5811C28.8811 26.4548 28.9187 25.2316 29.3627 24.1305C29.8066 23.0294 30.6278 22.1221 31.6795 21.5711C32.7311 21.0201 33.9445 20.8613 35.1025 21.1231C36.2606 21.3849 37.2876 22.0502 38 23V23Z" fill="#FFD422"/>
<path d="M38 39C38.653 39.8635 39.0043 40.9175 39 42C39 43.1873 38.5775 44.3358 37.8082 45.24C37.0388 46.1443 35.9728 46.7453 34.8009 46.9354C33.629 47.1256 32.4276 46.8926 31.4118 46.278C30.396 45.6635 29.632 44.7075 29.2566 43.5811C28.8811 42.4548 28.9187 41.2316 29.3627 40.1305C29.8066 39.0294 30.6278 38.1221 31.6795 37.5711C32.7311 37.0201 33.9445 36.8613 35.1025 37.1231C36.2606 37.3849 37.2876 38.0502 38 39V39Z" fill="#FFD422"/>
<path d="M23 40V42C22.9984 42.5299 22.7872 43.0377 22.4125 43.4125C22.0377 43.7872 21.5299 43.9984 21 44H19V40H23Z" fill="#FFC477"/>
<path d="M20.96 60.43C20.8307 59.5765 20.4352 58.7856 19.83 58.17C19.5938 57.9366 19.3282 57.7349 19.04 57.57C19.0363 57.5621 19.0307 57.5553 19.0237 57.5501C19.0167 57.5449 19.0086 57.5414 19 57.54C18.3925 57.1872 17.7027 57.0008 17.0002 56.9997C16.2977 56.9986 15.6073 57.1828 14.9988 57.5338C14.3902 57.8847 13.885 58.39 13.534 58.9985C13.1831 59.6071 12.9989 60.2975 13 61H21C21.0016 60.8093 20.9882 60.6187 20.96 60.43V60.43Z" fill="#3E3D42"/>
<path d="M20.09 28.25L19.9 28.14C19.6123 27.9694 19.3113 27.8223 19 27.7C18.8096 27.6055 18.6123 27.5253 18.41 27.46L17 31L14.87 29.4L14 32L15 40L13 43V44H19V40H23V33.3C23 32.2771 22.7311 31.2721 22.2204 30.3858C21.7097 29.4995 20.975 28.7629 20.09 28.25V28.25Z" fill="#E6E7E8"/>
<path d="M18.41 27.46L17 31L14.87 29.4L13 28L15 27H15.66C16.5957 27.0015 17.5248 27.1569 18.41 27.46V27.46Z" fill="#D1D3D4"/>
<path d="M14 32L15 40L13 43L11 40L12 32H14Z" fill="#787680"/>
<path d="M14.87 29.4L14 32H12L11.13 29.4L13 28L14.87 29.4Z" fill="#787680"/>
<path d="M7 40H3V33.4C2.99933 32.3461 3.27624 31.3106 3.80289 30.3978C4.32953 29.4849 5.08732 28.7269 6 28.2L6.21 28.08C6.64386 27.8236 7.10294 27.6125 7.58 27.45L9 31L11.13 29.4L12 32L11 40L13 43V44H7V40Z" fill="#E6E7E8"/>
<path d="M13 28L11.13 29.4L9 31L7.58 27.45C8.42807 27.1512 9.32083 26.999 10.22 27H11L13 28Z" fill="#D1D3D4"/>
<path d="M11.83 58.17C11.2071 57.547 10.3957 57.1474 9.52216 57.0335C8.64859 56.9195 7.76186 57.0976 7.00001 57.54C6.39116 57.8892 5.88548 58.3931 5.53424 59.0008C5.183 59.6084 4.99869 60.2981 5.00001 61H13C12.9981 59.9394 12.5776 58.9223 11.83 58.17V58.17Z" fill="#3E3D42"/>
<path d="M7 40V44H5C4.47005 43.9984 3.96227 43.7872 3.58753 43.4125C3.2128 43.0377 3.00158 42.5299 3 42V40H7Z" fill="#FFC477"/>
<path d="M15 23.59V27L13 28L11 27V23.59C11.6321 23.8605 12.3125 24 13 24C13.6875 24 14.3679 23.8605 15 23.59V23.59Z" fill="#FFC477"/>
<path d="M19 17C19.5304 17 20.0391 17.2107 20.4142 17.5858C20.7893 17.9609 21 18.4696 21 19C21 19.5304 20.7893 20.0391 20.4142 20.4142C20.0391 20.7893 19.5304 21 19 21H17.9C17.9689 20.6712 18.0024 20.3359 18 20V17H19Z" fill="#FFB655"/>
<path d="M18 16V17H17C16.2044 17 15.4413 16.6839 14.8787 16.1213C14.3161 15.5587 14 14.7956 14 14C14 14.7956 13.6839 15.5587 13.1213 16.1213C12.5587 16.6839 11.7956 17 11 17H8V16C8 14.6739 8.52678 13.4021 9.46447 12.4645C10.4021 11.5268 11.6739 11 13 11C14.3261 11 15.5979 11.5268 16.5355 12.4645C17.4732 13.4021 18 14.6739 18 16V16Z" fill="#57565C"/>
<path d="M8.1 21H7C6.46957 21 5.96086 20.7893 5.58579 20.4142C5.21071 20.0391 5 19.5304 5 19C5 18.4696 5.21071 17.9609 5.58579 17.5858C5.96086 17.2107 6.46957 17 7 17H8V20C7.99759 20.3359 8.03111 20.6712 8.1 21V21Z" fill="#FFB655"/>
<path d="M15 23V25.59C14.3679 25.8605 13.6875 26 13 26C12.3125 26 11.6321 25.8605 11 25.59V23H15Z" fill="#FFB655"/>
<path d="M18 17V20C18.0024 20.3359 17.9689 20.6712 17.9 21C17.7371 21.786 17.389 22.5217 16.8847 23.1461C16.3803 23.7705 15.7342 24.2655 15 24.59C14.3679 24.8605 13.6875 25 13 25C12.3125 25 11.6321 24.8605 11 24.59C10.2658 24.2655 9.61973 23.7705 9.11534 23.1461C8.61096 22.5217 8.26287 21.786 8.1 21C8.03111 20.6712 7.99759 20.3359 8 20V17H11C11.7956 17 12.5587 16.6839 13.1213 16.1213C13.6839 15.5587 14 14.7956 14 14C14 14.7956 14.3161 15.5587 14.8787 16.1213C15.4413 16.6839 16.2043 17 17 17H18Z" fill="#FFC477"/>
<path d="M57 7.99999H53V6.99999C53 6.73478 52.8946 6.48042 52.7071 6.29289C52.5196 6.10535 52.2652 5.99999 52 5.99999H42.82C42.9845 5.54686 43.0373 5.06077 42.9741 4.58289C42.9108 4.105 42.7334 3.64939 42.4567 3.25464C42.18 2.85989 41.8123 2.53762 41.3846 2.31513C40.957 2.09264 40.4821 1.97647 40 1.97647C39.5179 1.97647 39.043 2.09264 38.6154 2.31513C38.1877 2.53762 37.82 2.85989 37.5433 3.25464C37.2666 3.64939 37.0892 4.105 37.0259 4.58289C36.9627 5.06077 37.0155 5.54686 37.18 5.99999H28C27.7348 5.99999 27.4804 6.10535 27.2929 6.29289C27.1054 6.48042 27 6.73478 27 6.99999V7.99999H23C21.7234 8.00192 20.4963 8.49361 19.5716 9.37368C18.6468 10.2537 18.0951 11.4551 18.03 12.73C17.3248 11.6456 16.2881 10.8181 15.0743 10.3709C13.8605 9.92372 12.5348 9.88075 11.2946 10.2484C10.0544 10.6161 8.96626 11.3747 8.19235 12.4112C7.41843 13.4476 7.0002 14.7065 7 16V16.01C6.37853 16.0171 5.77395 16.2132 5.26665 16.5723C4.75935 16.9313 4.37335 17.4363 4.16 18.02C4.00368 18.4723 3.95782 18.9554 4.02625 19.429C4.09469 19.9026 4.27543 20.353 4.55339 20.7426C4.83135 21.1321 5.19846 21.4495 5.62408 21.6682C6.04969 21.887 6.52146 22.0007 7 22H7.35C7.82947 23.3426 8.76809 24.4725 10 25.19V26C8.4917 26.0408 7.01732 26.4566 5.71 27.21L5.5 27.33C4.4373 27.948 3.555 28.8335 2.94094 29.8985C2.32687 30.9634 2.00246 32.1707 2 33.4V42C2.00237 42.7949 2.31921 43.5566 2.8813 44.1187C3.4434 44.6808 4.20508 44.9976 5 45H6V57.03C5.38031 57.4901 4.87675 58.0887 4.5295 58.778C4.18225 59.4673 4.00092 60.2282 4 61C4 61.2652 4.10536 61.5196 4.29289 61.7071C4.48043 61.8946 4.73478 62 5 62H21C21.2137 61.9929 21.4199 61.9195 21.59 61.79C22.0481 61.9247 22.5226 61.9954 23 62H57C58.3261 62 59.5979 61.4732 60.5355 60.5355C61.4732 59.5978 62 58.3261 62 57V13C62 11.6739 61.4732 10.4021 60.5355 9.46446C59.5979 8.52678 58.3261 7.99999 57 7.99999ZM7 20C6.84007 19.9986 6.68267 19.9599 6.54032 19.887C6.39796 19.8141 6.27459 19.709 6.18 19.58C6.08645 19.4462 6.02668 19.2917 6.00578 19.1297C5.98489 18.9678 6.00349 18.8032 6.06 18.65C6.13919 18.4647 6.2698 18.3059 6.43639 18.1925C6.60297 18.0791 6.79855 18.0158 7 18.01V20ZM40 3.99999C40.1978 3.99999 40.3911 4.05864 40.5556 4.16852C40.72 4.27841 40.8482 4.43458 40.9239 4.61731C40.9996 4.80004 41.0194 5.0011 40.9808 5.19508C40.9422 5.38907 40.847 5.56725 40.7071 5.7071C40.5673 5.84695 40.3891 5.94219 40.1951 5.98078C40.0011 6.01936 39.8 5.99956 39.6173 5.92387C39.4346 5.84819 39.2784 5.72001 39.1685 5.55556C39.0586 5.39112 39 5.19778 39 4.99999C39 4.73478 39.1054 4.48042 39.2929 4.29289C39.4804 4.10535 39.7348 3.99999 40 3.99999V3.99999ZM29 7.99999H51V13C51 13.2652 50.8946 13.5196 50.7071 13.7071C50.5196 13.8946 50.2652 14 50 14H30C29.7348 14 29.4804 13.8946 29.2929 13.7071C29.1054 13.5196 29 13.2652 29 13V7.99999ZM27.18 14C27.3876 14.5827 27.7696 15.0874 28.2742 15.4452C28.7788 15.8031 29.3814 15.9968 30 16H50C50.6186 15.9968 51.2212 15.8031 51.7258 15.4452C52.2304 15.0874 52.6124 14.5827 52.82 14H55C55.2652 14 55.5196 14.1054 55.7071 14.2929C55.8946 14.4804 56 14.7348 56 15V55C56 55.2652 55.8946 55.5196 55.7071 55.7071C55.5196 55.8946 55.2652 56 55 56H25C24.7348 56 24.4804 55.8946 24.2929 55.7071C24.1054 55.5196 24 55.2652 24 55V15C24 14.7348 24.1054 14.4804 24.2929 14.2929C24.4804 14.1054 24.7348 14 25 14H27.18ZM20 13C20.0024 12.2051 20.3192 11.4434 20.8813 10.8813C21.4434 10.3192 22.2051 10.0024 23 9.99999H27V12H25C24.2051 12.0024 23.4434 12.3192 22.8813 12.8813C22.3192 13.4434 22.0024 14.2051 22 15V28.47C21.5795 28.0496 21.1054 27.6865 20.59 27.39L20.4 27.27C20.27 27.2 20.13 27.14 20 27.07V21.81C20.5753 21.6088 21.0769 21.2395 21.44 20.75C21.7125 20.3743 21.893 19.9399 21.9672 19.4818C22.0413 19.0236 22.007 18.5545 21.867 18.112C21.727 17.6695 21.4851 17.266 21.1609 16.934C20.8366 16.6019 20.439 16.3505 20 16.2V13ZM19 18.01C19.2028 18.0156 19.3996 18.08 19.5665 18.1954C19.7334 18.3108 19.8631 18.4722 19.94 18.66C19.9958 18.8116 20.0141 18.9745 19.9932 19.1348C19.9723 19.295 19.9128 19.4477 19.82 19.58C19.7254 19.709 19.602 19.8141 19.4597 19.887C19.3173 19.9599 19.1599 19.9986 19 20V18.01ZM18.96 28.79C19.11 28.86 19.26 28.92 19.4 29L19.59 29.12C20.3227 29.5445 20.931 30.1541 21.3539 30.8877C21.7769 31.6213 21.9997 32.4532 22 33.3V39H20V34H18V43H14.2L15.83 40.55C15.9664 40.355 16.0236 40.1155 15.99 39.88L15.02 32.1L15.38 31.03L16.4 31.8C16.574 31.928 16.784 31.998 17 32C17.0916 32.0014 17.1828 31.9879 17.27 31.96C17.4179 31.9189 17.5544 31.8443 17.6688 31.742C17.7833 31.6397 17.8727 31.5124 17.93 31.37L18.96 28.79ZM22 41V42C22 42.2652 21.8946 42.5196 21.7071 42.7071C21.5196 42.8946 21.2652 43 21 43H20V41H22ZM14.89 28.17L15.24 28H15.66C16.1304 28.0049 16.5992 28.0551 17.06 28.15L16.56 29.42L14.89 28.17ZM18 23.31V26.31C17.3468 26.1348 16.6759 26.0341 16 26.01V25.19C16.8008 24.7234 17.4848 24.0805 18 23.31V23.31ZM13 12C14.0609 12 15.0783 12.4214 15.8284 13.1716C16.5786 13.9217 17 14.9391 17 16C16.4701 15.9984 15.9623 15.7872 15.5875 15.4125C15.2128 15.0377 15.0016 14.5299 15 14C15 13.7348 14.8946 13.4804 14.7071 13.2929C14.5196 13.1054 14.2652 13 14 13C13.7348 13 13.4804 13.1054 13.2929 13.2929C13.1054 13.4804 13 13.7348 13 14C12.9984 14.5299 12.7872 15.0377 12.4125 15.4125C12.0377 15.7872 11.5299 15.9984 11 16H9C9 14.9391 9.42143 13.9217 10.1716 13.1716C10.9217 12.4214 11.9391 12 13 12V12ZM9 20V18H11C11.5679 17.9993 12.1292 17.8776 12.6465 17.6431C13.1638 17.4086 13.6252 17.0667 14 16.64C14.3748 17.0667 14.8362 17.4086 15.3535 17.6431C15.8708 17.8776 16.4321 17.9993 17 18V20C17 21.0609 16.5786 22.0783 15.8284 22.8284C15.0783 23.5786 14.0609 24 13 24C11.9391 24 10.9217 23.5786 10.1716 22.8284C9.42143 22.0783 9 21.0609 9 20ZM10.22 28H10.76L11.11 28.17L9.44 29.42L8.93 28.13C9.3551 28.0472 9.78692 28.0036 10.22 28V28ZM6 43H5C4.73478 43 4.48043 42.8946 4.29289 42.7071C4.10536 42.5196 4 42.2652 4 42V41H6V43ZM6 39H4V33.4C4.00299 32.5216 4.2352 31.6592 4.67366 30.898C5.11211 30.1368 5.74164 29.5033 6.5 29.06L6.71 28.94C6.81 28.88 6.93 28.84 7.04 28.78L8.07 31.37C8.12734 31.5124 8.2167 31.6397 8.33116 31.742C8.44561 31.8443 8.58208 31.9189 8.73 31.96C8.81723 31.9879 8.90842 32.0014 9 32C9.21604 31.998 9.42596 31.928 9.6 31.8L10.62 31.03L10.98 32.1L10.01 39.88C9.97643 40.1155 10.0336 40.355 10.17 40.55L11.8 43H8V34H6V39ZM6.17 60C6.37614 59.414 6.7591 58.9065 7.26602 58.5474C7.77294 58.1884 8.37881 57.9955 9 57.9955C9.62119 57.9955 10.2271 58.1884 10.734 58.5474C11.2409 58.9065 11.6239 59.414 11.83 60H6.17ZM12 57.03C11.141 56.3652 10.0862 56.003 9 56C8.6643 56.0026 8.32956 56.036 8 56.1V45H12V57.03ZM12 25.91C12.3306 25.9652 12.6649 25.9953 13 26C13.3351 25.9953 13.6694 25.9652 14 25.91V26.38L13 26.88L12 26.38V25.91ZM13.69 29.77L13.28 31H12.72L12.31 29.77L13 29.25L13.69 29.77ZM13 41.2L12.04 39.75L12.88 33H13.12L13.96 39.75L13 41.2ZM14 45H18V56.1C17.6704 56.036 17.3357 56.0026 17 56C15.9138 56.003 14.859 56.3652 14 57.03V45ZM14.17 60C14.3761 59.414 14.7591 58.9065 15.266 58.5474C15.7729 58.1884 16.3788 57.9955 17 57.9955C17.6212 57.9955 18.2271 58.1884 18.734 58.5474C19.2409 58.9065 19.6239 59.414 19.83 60H14.17ZM60 57C59.9976 57.7949 59.6808 58.5566 59.1187 59.1187C58.5566 59.6808 57.7949 59.9976 57 60H23C22.588 59.9916 22.1825 59.8962 21.81 59.72C21.5265 58.6452 20.8888 57.6975 20 57.03V45H21C21.3411 44.9973 21.6793 44.9364 22 44.82V55C22.0024 55.7949 22.3192 56.5566 22.8813 57.1187C23.4434 57.6808 24.2051 57.9976 25 58H55C55.7949 57.9976 56.5566 57.6808 57.1187 57.1187C57.6808 56.5566 57.9976 55.7949 58 55V15C57.9976 14.2051 57.6808 13.4434 57.1187 12.8813C56.5566 12.3192 55.7949 12.0024 55 12H53V9.99999H57C57.7949 10.0024 58.5566 10.3192 59.1187 10.8813C59.6808 11.4434 59.9976 12.2051 60 13V57Z" fill="black"/>
<path d="M34 32C35.5908 31.9984 37.116 31.3658 38.2409 30.2409C39.3658 29.116 39.9984 27.5908 40 26H38C38 26.7911 37.7654 27.5645 37.3259 28.2223C36.8864 28.8801 36.2616 29.3928 35.5307 29.6955C34.7998 29.9983 33.9956 30.0775 33.2196 29.9231C32.4437 29.7688 31.731 29.3878 31.1716 28.8284C30.6122 28.269 30.2312 27.5563 30.0769 26.7804C29.9225 26.0044 30.0017 25.2002 30.3045 24.4693C30.6072 23.7384 31.1199 23.1136 31.7777 22.6741C32.4355 22.2346 33.2089 22 34 22V20C32.4087 20 30.8826 20.6321 29.7574 21.7574C28.6321 22.8826 28 24.4087 28 26C28 27.5913 28.6321 29.1174 29.7574 30.2426C30.8826 31.3679 32.4087 32 34 32Z" fill="black"/>
<path d="M32.707 24.293L31.293 25.707L33.293 27.707C33.4805 27.8945 33.7348 27.9998 34 27.9998C34.2652 27.9998 34.5195 27.8945 34.707 27.707L39.707 22.707L38.293 21.293L34 25.586L32.707 24.293Z" fill="black"/>
<path d="M34 48C35.5908 47.9984 37.116 47.3658 38.2409 46.2409C39.3658 45.116 39.9984 43.5908 40 42H38C38 42.7911 37.7654 43.5645 37.3259 44.2223C36.8864 44.8801 36.2616 45.3928 35.5307 45.6955C34.7998 45.9983 33.9956 46.0775 33.2196 45.9231C32.4437 45.7688 31.731 45.3878 31.1716 44.8284C30.6122 44.269 30.2312 43.5563 30.0769 42.7804C29.9225 42.0044 30.0017 41.2002 30.3045 40.4693C30.6072 39.7384 31.1199 39.1136 31.7777 38.6741C32.4355 38.2346 33.2089 38 34 38V36C32.4087 36 30.8826 36.6321 29.7574 37.7574C28.6321 38.8826 28 40.4087 28 42C28 43.5913 28.6321 45.1174 29.7574 46.2426C30.8826 47.3679 32.4087 48 34 48Z" fill="black"/>
<path d="M32.707 40.293L31.293 41.707L33.293 43.707C33.4805 43.8945 33.7348 43.9998 34 43.9998C34.2652 43.9998 34.5195 43.8945 34.707 43.707L39.707 38.707L38.293 37.293L34 41.586L32.707 40.293Z" fill="black"/>
<path d="M52 28H44V30H52V28Z" fill="black"/>
<path d="M52 24H44V26H52V24Z" fill="black"/>
<path d="M52 44H44V46H52V44Z" fill="black"/>
<path d="M52 40H44V42H52V40Z" fill="black"/>
</svg>
