<?xml version="1.0" encoding="UTF-8"?>
<!DOCTYPE svg PUBLIC "-//W3C//DTD SVG 1.1//EN" "http://www.w3.org/Graphics/SVG/1.1/DTD/svg11.dtd">
<svg xmlns="http://www.w3.org/2000/svg" version="1.1" width="100px" height="100px" style="shape-rendering:geometricPrecision; text-rendering:geometricPrecision; image-rendering:optimizeQuality; fill-rule:evenodd; clip-rule:evenodd" xmlns:xlink="http://www.w3.org/1999/xlink">
<g><path style="opacity:0.951" fill="#0d0b09" d="M 59.5,2.5 C 63.8071,1.64928 66.4738,3.31595 67.5,7.5C 72.456,8.49415 77.456,8.82748 82.5,8.5C 82.5,9.5 82.5,10.5 82.5,11.5C 85.5184,11.3354 88.5184,11.502 91.5,12C 93.6667,12.8333 95.1667,14.3333 96,16.5C 96.6667,41.8333 96.6667,67.1667 96,92.5C 94.8333,93.6667 93.6667,94.8333 92.5,96C 63.5019,96.5 34.5019,96.6666 5.5,96.5C 5.14374,93.4359 5.97707,90.7693 8,88.5C 8.49949,82.5092 8.66615,76.5092 8.5,70.5C 6.41764,70.528 4.5843,69.8613 3,68.5C 2.33333,61.5 2.33333,54.5 3,47.5C 5.50323,42.835 9.33656,40.0017 14.5,39C 12.2681,36.2651 9.60142,34.0984 6.5,32.5C 4.51316,28.2607 5.67982,25.2607 10,23.5C 13.1732,14.5529 18.8399,12.5529 27,17.5C 30.269,12.0526 35.1023,10.0526 41.5,11.5C 41.5,10.5 41.5,9.5 41.5,8.5C 46.544,8.82748 51.544,8.49415 56.5,7.5C 57.0654,5.49078 58.0654,3.82411 59.5,2.5 Z M 26.5,37.5 C 27.7759,38.3864 27.7759,39.3864 26.5,40.5C 25.4376,39.5754 25.4376,38.5754 26.5,37.5 Z"/></g>
<g><path style="opacity:1" fill="#d7800e" d="M 60.5,5.5 C 61.5,5.5 62.5,5.5 63.5,5.5C 63.5,6.5 63.5,7.5 63.5,8.5C 62.5,8.5 61.5,8.5 60.5,8.5C 60.5,7.5 60.5,6.5 60.5,5.5 Z"/></g>
<g><path style="opacity:1" fill="#895208" d="M 78.5,20.5 C 78.5,17.8333 78.5,15.1667 78.5,12.5C 67.5,12.5 56.5,12.5 45.5,12.5C 45.5,15.1667 45.5,17.8333 45.5,20.5C 44.5233,17.7131 44.19,14.7131 44.5,11.5C 56.1667,11.5 67.8333,11.5 79.5,11.5C 79.81,14.7131 79.4767,17.7131 78.5,20.5 Z"/></g>
<g><path style="opacity:1" fill="#fe9710" d="M 78.5,20.5 C 67.5,21.8333 56.5,21.8333 45.5,20.5C 45.5,17.8333 45.5,15.1667 45.5,12.5C 56.5,12.5 67.5,12.5 78.5,12.5C 78.5,15.1667 78.5,17.8333 78.5,20.5 Z"/></g>
<g><path style="opacity:1" fill="#b38c62" d="M 32.5,15.5 C 35.5,15.5 38.5,15.5 41.5,15.5C 41.5,16.5 41.5,17.5 41.5,18.5C 35.9532,18.2119 33.1199,20.8786 33,26.5C 29.8528,22.9695 29.6862,19.3028 32.5,15.5 Z"/></g>
<g><path style="opacity:1" fill="#b38c61" d="M 82.5,15.5 C 85.5184,15.3354 88.5184,15.502 91.5,16C 92,16.5 92.5,17 93,17.5C 93.6667,41.8333 93.6667,66.1667 93,90.5C 92.0975,91.7014 90.9308,92.5348 89.5,93C 70.8244,93.833 52.1577,93.6663 33.5,92.5C 32.9169,90.9984 32.0836,89.6651 31,88.5C 30.5005,82.1754 30.3338,75.8421 30.5,69.5C 31.5,69.5 32.5,69.5 33.5,69.5C 33.3338,75.5092 33.5005,81.5092 34,87.5C 34.9025,88.7014 36.0692,89.5348 37.5,90C 53.8333,90.6667 70.1667,90.6667 86.5,90C 87.9308,89.5348 89.0975,88.7014 90,87.5C 90.6667,65.5 90.6667,43.5 90,21.5C 88.1516,18.9586 85.6516,17.9586 82.5,18.5C 82.5,17.5 82.5,16.5 82.5,15.5 Z"/></g>
<g><path style="opacity:1" fill="#504f55" d="M 16.5,18.5 C 18.5273,18.3379 20.5273,18.5045 22.5,19C 20.2915,19.9356 18.9582,21.6023 18.5,24C 16.8659,24.4935 15.1992,24.6602 13.5,24.5C 13.615,22.0532 14.615,20.0532 16.5,18.5 Z"/></g>
<g><path style="opacity:1" fill="#dadbdc" d="M 37.5,21.5 C 40.1871,21.3415 42.5204,22.1748 44.5,24C 56.1667,24.6667 67.8333,24.6667 79.5,24C 81.7176,21.6665 84.2176,21.1665 87,22.5C 87.8331,43.8411 87.6664,65.1745 86.5,86.5C 69.9702,87.8276 53.4702,87.8276 37,86.5C 36.1787,64.7605 36.3454,43.0938 37.5,21.5 Z"/></g>
<g><path style="opacity:1" fill="#f0b870" d="M 18.5,26.5 C 21.2062,26.5751 23.8728,26.9084 26.5,27.5C 26.957,34.8798 23.6237,37.7131 16.5,36C 13.8748,33.8038 12.8748,30.9705 13.5,27.5C 15.4147,27.7845 17.0813,27.4511 18.5,26.5 Z"/></g>
<g><path style="opacity:1" fill="#cb9143" d="M 9.5,27.5 C 10.5735,28.2506 10.7401,29.2506 10,30.5C 8.27165,29.6477 8.10498,28.6477 9.5,27.5 Z"/></g>
<g><path style="opacity:1" fill="#110f0b" d="M 52.5,32.5 C 50.7698,34.0789 48.9364,35.7455 47,37.5C 45.8333,44.3333 48.6667,47.1667 55.5,46C 57.2545,44.0636 58.9211,42.2302 60.5,40.5C 61.5983,41.6009 61.765,42.9343 61,44.5C 54.7939,51.49 49.1272,51.1567 44,43.5C 42.703,38.8831 43.8697,35.0498 47.5,32C 49.3869,31.2204 51.0536,31.3871 52.5,32.5 Z"/></g>
<g><path style="opacity:1" fill="#e5be20" d="M 52.5,32.5 C 54.5529,32.4021 56.2196,33.0687 57.5,34.5C 55.9848,37.7549 53.6515,39.0882 50.5,38.5C 49.6919,38.8076 49.0253,39.3076 48.5,40C 49.459,41.4638 50.7923,42.2972 52.5,42.5C 55.105,41.2305 57.4384,39.5639 59.5,37.5C 60.404,38.209 60.7373,39.209 60.5,40.5C 58.9211,42.2302 57.2545,44.0636 55.5,46C 48.6667,47.1667 45.8333,44.3333 47,37.5C 48.9364,35.7455 50.7698,34.0789 52.5,32.5 Z"/></g>
<g><path style="opacity:1" fill="#0e0c04" d="M 59.5,37.5 C 57.4384,39.5639 55.105,41.2305 52.5,42.5C 50.7923,42.2972 49.459,41.4638 48.5,40C 49.0253,39.3076 49.6919,38.8076 50.5,38.5C 53.6515,39.0882 55.9848,37.7549 57.5,34.5C 61.4376,33.4331 62.1042,34.4331 59.5,37.5 Z"/></g>
<g><path style="opacity:1" fill="#b0895f" d="M 31.5,32.5 C 32.7868,33.8714 33.4535,35.7047 33.5,38C 33.3333,39.8333 33.1667,41.6667 33,43.5C 30.2941,40.1915 29.7941,36.5249 31.5,32.5 Z"/></g>
<g><path style="opacity:1" fill="#29292a" d="M 68.5,36.5 C 72.5,36.5 76.5,36.5 80.5,36.5C 80.5,37.8333 80.5,39.1667 80.5,40.5C 76.5,40.5 72.5,40.5 68.5,40.5C 68.5,39.1667 68.5,37.8333 68.5,36.5 Z"/></g>
<g><path style="opacity:1" fill="#090909" d="M 68.5,43.5 C 72.5,43.5 76.5,43.5 80.5,43.5C 80.5,44.5 80.5,45.5 80.5,46.5C 76.5,46.5 72.5,46.5 68.5,46.5C 68.5,45.5 68.5,44.5 68.5,43.5 Z"/></g>
<g><path style="opacity:1" fill="#d8d9da" d="M 12.5,66.5 C 12.5,61.8333 12.5,57.1667 12.5,52.5C 11.1667,52.5 9.83333,52.5 8.5,52.5C 8.5,55.1667 8.5,57.8333 8.5,60.5C 7.5,60.5 6.5,60.5 5.5,60.5C 5.13256,56.0329 5.63256,51.6996 7,47.5C 9.73487,43.5098 11.5682,44.0098 12.5,49C 13.549,49.4922 14.549,49.3256 15.5,48.5C 16.5486,52.3051 16.5486,56.1385 15.5,60C 15.4391,62.2605 16.1057,64.2605 17.5,66C 15.8659,66.4935 14.1992,66.6602 12.5,66.5 Z"/></g>
<g><path style="opacity:1" fill="#d9dadb" d="M 28.5,44.5 C 30.371,44.8588 31.871,45.8588 33,47.5C 33.499,51.8206 33.6657,56.1539 33.5,60.5C 32.5,60.5 31.5,60.5 30.5,60.5C 30.5,57.8333 30.5,55.1667 30.5,52.5C 29.5,52.5 28.5,52.5 27.5,52.5C 27.5,57.1667 27.5,61.8333 27.5,66.5C 25.712,66.7852 24.0453,66.4519 22.5,65.5C 23.6113,64.3887 24.278,63.0554 24.5,61.5C 23.4577,57.2012 23.2911,52.8679 24,48.5C 25.0113,49.3366 26.1779,49.67 27.5,49.5C 27.6287,47.7839 27.962,46.1172 28.5,44.5 Z"/></g>
<g><path style="opacity:1" fill="#6b6b6c" d="M 12.5,66.5 C 11.8336,62.3155 11.1669,57.9822 10.5,53.5C 9.83195,55.9688 9.16528,58.3021 8.5,60.5C 8.5,57.8333 8.5,55.1667 8.5,52.5C 9.83333,52.5 11.1667,52.5 12.5,52.5C 12.5,57.1667 12.5,61.8333 12.5,66.5 Z"/></g>
<g><path style="opacity:1" fill="#605e66" d="M 19.5,51.5 C 20.529,53.9476 21.1957,56.6143 21.5,59.5C 21.523,61.0666 21.023,62.3999 20,63.5C 18.2157,59.6365 18.0491,55.6365 19.5,51.5 Z"/></g>
<g><path style="opacity:1" fill="#110f0b" d="M 52.5,57.5 C 50.7698,59.0789 48.9364,60.7455 47,62.5C 45.8333,69.3333 48.6667,72.1667 55.5,71C 57.2545,69.0636 58.9211,67.2302 60.5,65.5C 61.5983,66.6009 61.765,67.9343 61,69.5C 54.7939,76.49 49.1272,76.1567 44,68.5C 42.703,63.8831 43.8697,60.0498 47.5,57C 49.3869,56.2204 51.0536,56.3871 52.5,57.5 Z"/></g>
<g><path style="opacity:1" fill="#e5be20" d="M 52.5,57.5 C 54.5529,57.4021 56.2196,58.0687 57.5,59.5C 55.9848,62.7549 53.6515,64.0882 50.5,63.5C 49.6919,63.8076 49.0253,64.3076 48.5,65C 49.459,66.4638 50.7923,67.2972 52.5,67.5C 55.105,66.2305 57.4384,64.5639 59.5,62.5C 60.404,63.209 60.7373,64.209 60.5,65.5C 58.9211,67.2302 57.2545,69.0636 55.5,71C 48.6667,72.1667 45.8333,69.3333 47,62.5C 48.9364,60.7455 50.7698,59.0789 52.5,57.5 Z"/></g>
<g><path style="opacity:1" fill="#0e0c04" d="M 59.5,62.5 C 57.4384,64.5639 55.105,66.2305 52.5,67.5C 50.7923,67.2972 49.459,66.4638 48.5,65C 49.0253,64.3076 49.6919,63.8076 50.5,63.5C 53.6515,64.0882 55.9848,62.7549 57.5,59.5C 61.4376,58.4331 62.1042,59.4331 59.5,62.5 Z"/></g>
<g><path style="opacity:1" fill="#29292a" d="M 68.5,61.5 C 72.5,61.5 76.5,61.5 80.5,61.5C 80.5,62.8333 80.5,64.1667 80.5,65.5C 76.5,65.5 72.5,65.5 68.5,65.5C 68.5,64.1667 68.5,62.8333 68.5,61.5 Z"/></g>
<g><path style="opacity:1" fill="#e8b26c" d="M 5.5,63.5 C 6.5,63.5 7.5,63.5 8.5,63.5C 8.5,64.5 8.5,65.5 8.5,66.5C 7.5,66.5 6.5,66.5 5.5,66.5C 5.5,65.5 5.5,64.5 5.5,63.5 Z"/></g>
<g><path style="opacity:1" fill="#ecb56e" d="M 30.5,63.5 C 31.5,63.5 32.5,63.5 33.5,63.5C 33.5,64.5 33.5,65.5 33.5,66.5C 32.5,66.5 31.5,66.5 30.5,66.5C 30.5,65.5 30.5,64.5 30.5,63.5 Z"/></g>
<g><path style="opacity:1" fill="#090909" d="M 68.5,68.5 C 72.5,68.5 76.5,68.5 80.5,68.5C 80.5,69.5 80.5,70.5 80.5,71.5C 76.5,71.5 72.5,71.5 68.5,71.5C 68.5,70.5 68.5,69.5 68.5,68.5 Z"/></g>
<g><path style="opacity:1" fill="#4e4d53" d="M 11.5,69.5 C 13.8333,69.5 16.1667,69.5 18.5,69.5C 18.8297,75.8682 18.4963,82.2015 17.5,88.5C 15.5914,87.6518 13.5914,87.3184 11.5,87.5C 11.5,81.5 11.5,75.5 11.5,69.5 Z"/></g>
<g><path style="opacity:1" fill="#55545a" d="M 21.5,69.5 C 23.5,69.5 25.5,69.5 27.5,69.5C 27.5,75.1667 27.5,80.8333 27.5,86.5C 25.4176,86.472 23.5843,87.1387 22,88.5C 21.5005,82.1754 21.3338,75.8421 21.5,69.5 Z"/></g>
</svg>
