<?xml version="1.0" encoding="UTF-8"?>
<!DOCTYPE svg PUBLIC "-//W3C//DTD SVG 1.1//EN" "http://www.w3.org/Graphics/SVG/1.1/DTD/svg11.dtd">
<svg xmlns="http://www.w3.org/2000/svg" version="1.1" width="100px" height="100px" style="shape-rendering:geometricPrecision; text-rendering:geometricPrecision; image-rendering:optimizeQuality; fill-rule:evenodd; clip-rule:evenodd" xmlns:xlink="http://www.w3.org/1999/xlink">
<g><path style="opacity:0.869" fill="#026def" d="M 4.5,3.5 C 7.1194,3.23166 9.6194,3.565 12,4.5C 12.4998,13.4938 12.6664,22.4938 12.5,31.5C 13.8333,31.5 15.1667,31.5 16.5,31.5C 16.5,24.8333 16.5,18.1667 16.5,11.5C 24.8333,11.5 33.1667,11.5 41.5,11.5C 41.5,18.1667 41.5,24.8333 41.5,31.5C 42.5,31.5 43.5,31.5 44.5,31.5C 44.3336,22.8269 44.5002,14.1603 45,5.5C 46.1803,4.31594 47.6803,3.64927 49.5,3.5C 51.3197,3.64927 52.8197,4.31594 54,5.5C 54.4998,14.1603 54.6664,22.8269 54.5,31.5C 55.5,31.5 56.5,31.5 57.5,31.5C 57.5,24.8333 57.5,18.1667 57.5,11.5C 65.8333,11.5 74.1667,11.5 82.5,11.5C 82.5,18.1667 82.5,24.8333 82.5,31.5C 83.8333,31.5 85.1667,31.5 86.5,31.5C 86.3336,22.4938 86.5002,13.4938 87,4.5C 89.6667,3.16667 92.3333,3.16667 95,4.5C 95.8332,34.5056 95.6665,64.5056 94.5,94.5C 87.0785,97.0093 84.4118,94.3426 86.5,86.5C 75.8333,86.5 65.1667,86.5 54.5,86.5C 55.5293,94.9932 52.3627,97.3266 45,93.5C 44.5034,91.1902 44.3367,88.8568 44.5,86.5C 33.8333,86.5 23.1667,86.5 12.5,86.5C 14.5882,94.3426 11.9215,97.0093 4.5,94.5C 3.17554,64.1004 3.17554,33.7671 4.5,3.5 Z M 48.5,7.5 C 49.8326,21.1504 50.4993,35.1504 50.5,49.5C 50.1667,63.5 49.8333,77.5 49.5,91.5C 48.5002,63.5079 48.1669,35.5079 48.5,7.5 Z M 12.5,34.5 C 23.1667,34.5 33.8333,34.5 44.5,34.5C 44.5,42.1667 44.5,49.8333 44.5,57.5C 43.5,57.5 42.5,57.5 41.5,57.5C 41.5,50.8333 41.5,44.1667 41.5,37.5C 33.1667,37.5 24.8333,37.5 16.5,37.5C 16.5,44.1667 16.5,50.8333 16.5,57.5C 15.1667,57.5 13.8333,57.5 12.5,57.5C 12.5,49.8333 12.5,42.1667 12.5,34.5 Z M 54.5,34.5 C 65.1667,34.5 75.8333,34.5 86.5,34.5C 86.5,42.1667 86.5,49.8333 86.5,57.5C 85.1667,57.5 83.8333,57.5 82.5,57.5C 82.5,50.8333 82.5,44.1667 82.5,37.5C 74.1667,37.5 65.8333,37.5 57.5,37.5C 57.5,44.1667 57.5,50.8333 57.5,57.5C 56.5,57.5 55.5,57.5 54.5,57.5C 54.5,49.8333 54.5,42.1667 54.5,34.5 Z M 12.5,60.5 C 23.1667,60.5 33.8333,60.5 44.5,60.5C 44.5,68.1667 44.5,75.8333 44.5,83.5C 43.5,83.5 42.5,83.5 41.5,83.5C 41.5,76.8333 41.5,70.1667 41.5,63.5C 33.1667,63.5 24.8333,63.5 16.5,63.5C 16.5,70.1667 16.5,76.8333 16.5,83.5C 15.1667,83.5 13.8333,83.5 12.5,83.5C 12.5,75.8333 12.5,68.1667 12.5,60.5 Z M 54.5,60.5 C 65.1667,60.5 75.8333,60.5 86.5,60.5C 86.5,68.1667 86.5,75.8333 86.5,83.5C 85.1667,83.5 83.8333,83.5 82.5,83.5C 82.5,76.8333 82.5,70.1667 82.5,63.5C 74.1667,63.5 65.8333,63.5 57.5,63.5C 57.5,70.1667 57.5,76.8333 57.5,83.5C 56.5,83.5 55.5,83.5 54.5,83.5C 54.5,75.8333 54.5,68.1667 54.5,60.5 Z"/></g>
<g><path style="opacity:1" fill="#4e9dec" d="M 24.5,21.5 C 23.5386,19.7354 23.2053,17.7354 23.5,15.5C 22.5,15.5 21.5,15.5 20.5,15.5C 20.5,20.8333 20.5,26.1667 20.5,31.5C 19.5111,26.0247 19.1778,20.358 19.5,14.5C 21.1667,14.5 22.8333,14.5 24.5,14.5C 24.5,16.8333 24.5,19.1667 24.5,21.5 Z"/></g>
<g><path style="opacity:1" fill="#76b7eb" d="M 20.5,31.5 C 20.5,26.1667 20.5,20.8333 20.5,15.5C 21.5,15.5 22.5,15.5 23.5,15.5C 23.2053,17.7354 23.5386,19.7354 24.5,21.5C 24.56,22.0431 24.8933,22.3764 25.5,22.5C 27.6112,19.9557 29.7779,19.9557 32,22.5C 33.3747,20.0632 33.8747,17.3965 33.5,14.5C 34.8333,14.5 36.1667,14.5 37.5,14.5C 37.5,20.1667 37.5,25.8333 37.5,31.5C 31.8333,31.5 26.1667,31.5 20.5,31.5 Z"/></g>
<g><path style="opacity:1" fill="#69afeb" d="M 27.5,14.5 C 28.5,14.5 29.5,14.5 30.5,14.5C 30.6495,15.552 30.4828,16.552 30,17.5C 29.3333,16.1667 28.6667,16.1667 28,17.5C 27.5172,16.552 27.3505,15.552 27.5,14.5 Z"/></g>
<g><path style="opacity:1" fill="#76b8eb" d="M 65.5,21.5 C 68.1506,20.3887 71.1506,20.3887 74.5,21.5C 75.4614,19.7354 75.7947,17.7354 75.5,15.5C 76.5,15.5 77.5,15.5 78.5,15.5C 78.5,20.8333 78.5,26.1667 78.5,31.5C 72.8333,31.5 67.1667,31.5 61.5,31.5C 61.5,26.1667 61.5,20.8333 61.5,15.5C 62.5,15.5 63.5,15.5 64.5,15.5C 64.2053,17.7354 64.5386,19.7354 65.5,21.5 Z"/></g>
<g><path style="opacity:1" fill="#69afeb" d="M 68.5,14.5 C 69.5,14.5 70.5,14.5 71.5,14.5C 71.6495,15.552 71.4828,16.552 71,17.5C 70.3333,16.1667 69.6667,16.1667 69,17.5C 68.5172,16.552 68.3505,15.552 68.5,14.5 Z"/></g>
<g><path style="opacity:1" fill="#50a0ec" d="M 78.5,31.5 C 78.5,26.1667 78.5,20.8333 78.5,15.5C 77.5,15.5 76.5,15.5 75.5,15.5C 75.7947,17.7354 75.4614,19.7354 74.5,21.5C 74.5,19.1667 74.5,16.8333 74.5,14.5C 76.1667,14.5 77.8333,14.5 79.5,14.5C 79.8222,20.358 79.4889,26.0247 78.5,31.5 Z"/></g>
<g><path style="opacity:1" fill="#4497ed" d="M 65.5,21.5 C 64.5386,19.7354 64.2053,17.7354 64.5,15.5C 63.5,15.5 62.5,15.5 61.5,15.5C 61.5,20.8333 61.5,26.1667 61.5,31.5C 60.5111,26.0247 60.1778,20.358 60.5,14.5C 62.1667,14.5 63.8333,14.5 65.5,14.5C 65.5,16.8333 65.5,19.1667 65.5,21.5 Z"/></g>
<g><path style="opacity:1" fill="#73b5eb" d="M 61.5,57.5 C 61.5,52.1667 61.5,46.8333 61.5,41.5C 62.5,41.5 63.5,41.5 64.5,41.5C 64.2053,43.7354 64.5386,45.7354 65.5,47.5C 65.56,48.0431 65.8933,48.3764 66.5,48.5C 68.8333,45.8333 71.1667,45.8333 73.5,48.5C 74.48,45.9135 74.8134,43.2469 74.5,40.5C 76.1667,40.5 77.8333,40.5 79.5,40.5C 79.5,46.1667 79.5,51.8333 79.5,57.5C 73.5,57.5 67.5,57.5 61.5,57.5 Z"/></g>
<g><path style="opacity:1" fill="#4e9dec" d="M 24.5,47.5 C 23.5386,45.7354 23.2053,43.7354 23.5,41.5C 22.5,41.5 21.5,41.5 20.5,41.5C 20.5,46.8333 20.5,52.1667 20.5,57.5C 19.5111,52.0247 19.1778,46.358 19.5,40.5C 21.1667,40.5 22.8333,40.5 24.5,40.5C 24.5,42.8333 24.5,45.1667 24.5,47.5 Z"/></g>
<g><path style="opacity:1" fill="#77b8eb" d="M 24.5,47.5 C 27.4089,46.4115 30.4089,46.4115 33.5,47.5C 34.4614,45.7354 34.7947,43.7354 34.5,41.5C 35.5,41.5 36.5,41.5 37.5,41.5C 37.5,46.8333 37.5,52.1667 37.5,57.5C 31.8333,57.5 26.1667,57.5 20.5,57.5C 20.5,52.1667 20.5,46.8333 20.5,41.5C 21.5,41.5 22.5,41.5 23.5,41.5C 23.2053,43.7354 23.5386,45.7354 24.5,47.5 Z"/></g>
<g><path style="opacity:1" fill="#69afeb" d="M 27.5,40.5 C 28.5,40.5 29.5,40.5 30.5,40.5C 30.6495,41.552 30.4828,42.552 30,43.5C 29.3333,42.1667 28.6667,42.1667 28,43.5C 27.5172,42.552 27.3505,41.552 27.5,40.5 Z"/></g>
<g><path style="opacity:1" fill="#4598ec" d="M 37.5,57.5 C 37.5,52.1667 37.5,46.8333 37.5,41.5C 36.5,41.5 35.5,41.5 34.5,41.5C 34.7947,43.7354 34.4614,45.7354 33.5,47.5C 33.5,45.1667 33.5,42.8333 33.5,40.5C 35.1667,40.5 36.8333,40.5 38.5,40.5C 38.8222,46.358 38.4889,52.0247 37.5,57.5 Z"/></g>
<g><path style="opacity:1" fill="#4196ed" d="M 65.5,47.5 C 64.5386,45.7354 64.2053,43.7354 64.5,41.5C 63.5,41.5 62.5,41.5 61.5,41.5C 61.5,46.8333 61.5,52.1667 61.5,57.5C 60.5111,52.0247 60.1778,46.358 60.5,40.5C 62.1667,40.5 63.8333,40.5 65.5,40.5C 65.5,42.8333 65.5,45.1667 65.5,47.5 Z"/></g>
<g><path style="opacity:1" fill="#69afeb" d="M 68.5,40.5 C 69.5,40.5 70.5,40.5 71.5,40.5C 71.6495,41.552 71.4828,42.552 71,43.5C 70.3333,42.1667 69.6667,42.1667 69,43.5C 68.5172,42.552 68.3505,41.552 68.5,40.5 Z"/></g>
<g><path style="opacity:1" fill="#4e9dec" d="M 24.5,73.5 C 23.5386,71.7354 23.2053,69.7354 23.5,67.5C 22.5,67.5 21.5,67.5 20.5,67.5C 20.5,72.8333 20.5,78.1667 20.5,83.5C 19.5111,78.0247 19.1778,72.358 19.5,66.5C 21.1667,66.5 22.8333,66.5 24.5,66.5C 24.5,68.8333 24.5,71.1667 24.5,73.5 Z"/></g>
<g><path style="opacity:1" fill="#76b7eb" d="M 20.5,83.5 C 20.5,78.1667 20.5,72.8333 20.5,67.5C 21.5,67.5 22.5,67.5 23.5,67.5C 23.2053,69.7354 23.5386,71.7354 24.5,73.5C 24.56,74.0431 24.8933,74.3764 25.5,74.5C 27.7263,72.0778 30.0596,72.0778 32.5,74.5C 33.48,71.9135 33.8134,69.2469 33.5,66.5C 34.8333,66.5 36.1667,66.5 37.5,66.5C 37.5,72.1667 37.5,77.8333 37.5,83.5C 31.8333,83.5 26.1667,83.5 20.5,83.5 Z"/></g>
<g><path style="opacity:1" fill="#68aeeb" d="M 27.5,66.5 C 28.5,66.5 29.5,66.5 30.5,66.5C 30.5,67.5 30.5,68.5 30.5,69.5C 29.5,69.5 28.5,69.5 27.5,69.5C 27.5,68.5 27.5,67.5 27.5,66.5 Z"/></g>
<g><path style="opacity:1" fill="#3c92ed" d="M 65.5,73.5 C 64.5386,71.7354 64.2053,69.7354 64.5,67.5C 63.5,67.5 62.5,67.5 61.5,67.5C 61.5,72.8333 61.5,78.1667 61.5,83.5C 60.5111,78.0247 60.1778,72.358 60.5,66.5C 62.1667,66.5 63.8333,66.5 65.5,66.5C 65.5,68.8333 65.5,71.1667 65.5,73.5 Z"/></g>
<g><path style="opacity:1" fill="#77b8eb" d="M 65.5,73.5 C 68.5,72.1667 71.5,72.1667 74.5,73.5C 75.4614,71.7354 75.7947,69.7354 75.5,67.5C 76.5,67.5 77.5,67.5 78.5,67.5C 78.5,72.8333 78.5,78.1667 78.5,83.5C 72.8333,83.5 67.1667,83.5 61.5,83.5C 61.5,78.1667 61.5,72.8333 61.5,67.5C 62.5,67.5 63.5,67.5 64.5,67.5C 64.2053,69.7354 64.5386,71.7354 65.5,73.5 Z"/></g>
<g><path style="opacity:1" fill="#68aeeb" d="M 68.5,66.5 C 69.5,66.5 70.5,66.5 71.5,66.5C 71.5,67.5 71.5,68.5 71.5,69.5C 70.5,69.5 69.5,69.5 68.5,69.5C 68.5,68.5 68.5,67.5 68.5,66.5 Z"/></g>
<g><path style="opacity:1" fill="#50a0ec" d="M 78.5,83.5 C 78.5,78.1667 78.5,72.8333 78.5,67.5C 77.5,67.5 76.5,67.5 75.5,67.5C 75.7947,69.7354 75.4614,71.7354 74.5,73.5C 74.5,71.1667 74.5,68.8333 74.5,66.5C 76.1667,66.5 77.8333,66.5 79.5,66.5C 79.8222,72.358 79.4889,78.0247 78.5,83.5 Z"/></g>
</svg>
