<?xml version="1.0" encoding="UTF-8" standalone="no"?> <svg width="64" height="64" viewBox="0 0 64 64" fill="none" xmlns="http://www.w3.org/2000/svg">
<path d="M25.2701 8.55005H11.9301V21.89H25.2701V8.55005Z" fill="#78B9EB"/>
<path d="M51.6 8.55005H38.26V21.89H51.6V8.55005Z" fill="#78B9EB"/>
<path d="M25.2701 24.8401H11.9301V38.1801H25.2701V24.8401Z" fill="#78B9EB"/>
<path d="M51.6 24.8401H38.26V38.1801H51.6V24.8401Z" fill="#78B9EB"/>
<path d="M25.2701 41.77H11.9301V55.11H25.2701V41.77Z" fill="#78B9EB"/>
<path d="M51.6 41.77H38.26V55.11H51.6V41.77Z" fill="#78B9EB"/>
<path d="M60 3H56.71C56.4448 3 56.1904 3.10536 56.0029 3.29289C55.8154 3.48043 55.71 3.73478 55.71 4V20.43H53V8.68C53 8.41478 52.8946 8.16043 52.7071 7.97289C52.5196 7.78536 52.2652 7.68 52 7.68H38.35C38.0848 7.68 37.8304 7.78536 37.6429 7.97289C37.4554 8.16043 37.35 8.41478 37.35 8.68V20.43H34.64V4C34.64 3.73478 34.5346 3.48043 34.3471 3.29289C34.1596 3.10536 33.9052 3 33.64 3H30.36C30.0948 3 29.8404 3.10536 29.6529 3.29289C29.4654 3.48043 29.36 3.73478 29.36 4V20.43H26.64V8.68C26.64 8.41478 26.5346 8.16043 26.3471 7.97289C26.1596 7.78536 25.9052 7.68 25.64 7.68H12C11.7348 7.68 11.4804 7.78536 11.2929 7.97289C11.1054 8.16043 11 8.41478 11 8.68V20.43H8.29V4C8.29 3.73478 8.18464 3.48043 7.99711 3.29289C7.80957 3.10536 7.55522 3 7.29 3H4C3.73478 3 3.48043 3.10536 3.29289 3.29289C3.10536 3.48043 3 3.73478 3 4V60C3 60.2652 3.10536 60.5196 3.29289 60.7071C3.48043 60.8946 3.73478 61 4 61H7.29C7.55522 61 7.80957 60.8946 7.99711 60.7071C8.18464 60.5196 8.29 60.2652 8.29 60V55.71H29.36V60C29.36 60.2652 29.4654 60.5196 29.6529 60.7071C29.8404 60.8946 30.0948 61 30.36 61H33.64C33.9052 61 34.1596 60.8946 34.3471 60.7071C34.5346 60.5196 34.64 60.2652 34.64 60V55.71H55.71V60C55.71 60.2652 55.8154 60.5196 56.0029 60.7071C56.1904 60.8946 56.4448 61 56.71 61H60C60.2652 61 60.5196 60.8946 60.7071 60.7071C60.8946 60.5196 61 60.2652 61 60V4C61 3.73478 60.8946 3.48043 60.7071 3.29289C60.5196 3.10536 60.2652 3 60 3V3ZM44 9.68H46.28V11.68L45.72 11.28C45.5516 11.1617 45.3508 11.0982 45.145 11.0982C44.9392 11.0982 44.7384 11.1617 44.57 11.28L44 11.68V9.68ZM39.32 9.68H42V13.58C41.9996 13.7636 42.0498 13.9438 42.1451 14.1008C42.2403 14.2578 42.377 14.3855 42.54 14.47C42.6832 14.5405 42.8404 14.5781 43 14.58C43.2091 14.5829 43.4132 14.5161 43.58 14.39L45.14 13.28L46.7 14.39C46.8449 14.4902 47.0136 14.5504 47.1892 14.5645C47.3648 14.5785 47.541 14.5459 47.7 14.47C47.863 14.3855 47.9997 14.2578 48.0949 14.1008C48.1902 13.9438 48.2404 13.7636 48.24 13.58V9.68H51V20.43H39.35L39.32 9.68ZM17.65 9.68H20V11.68L19.44 11.28C19.2706 11.1594 19.0679 11.0946 18.86 11.0946C18.6521 11.0946 18.4494 11.1594 18.28 11.28L17.72 11.68L17.65 9.68ZM13 9.68H15.68V13.58C15.6796 13.7636 15.7298 13.9438 15.8251 14.1008C15.9203 14.2578 16.057 14.3855 16.22 14.47C16.3623 14.5429 16.5201 14.5806 16.68 14.58C16.8884 14.5787 17.0912 14.5122 17.26 14.39L18.82 13.28L20.38 14.39C20.5249 14.4902 20.6936 14.5504 20.8692 14.5645C21.0448 14.5785 21.221 14.5459 21.38 14.47C21.543 14.3855 21.6797 14.2578 21.7749 14.1008C21.8702 13.9438 21.9204 13.7636 21.92 13.58V9.68H24.6V20.43H13V9.68ZM55.71 22.43V37.07H53V25.32C53 25.0548 52.8946 24.8004 52.7071 24.6129C52.5196 24.4254 52.2652 24.32 52 24.32H38.35C38.0848 24.32 37.8304 24.4254 37.6429 24.6129C37.4554 24.8004 37.35 25.0548 37.35 25.32V37.07H34.64V22.43H55.71ZM44 26.32H46.28V28.32L45.73 27.92C45.5606 27.7994 45.3579 27.7346 45.15 27.7346C44.9421 27.7346 44.7394 27.7994 44.57 27.92L44 28.32V26.32ZM42.54 31.11C42.6832 31.1805 42.8404 31.2181 43 31.22C43.2073 31.2216 43.41 31.1587 43.58 31.04L45.14 29.93L46.73 31C46.8793 31.1063 47.0548 31.1695 47.2376 31.1828C47.4203 31.196 47.6032 31.1589 47.7662 31.0753C47.9293 30.9917 48.0662 30.8649 48.1621 30.7088C48.258 30.5527 48.3092 30.3732 48.31 30.19V26.29H51V37.07H39.35V26.32H42V30.22C42.0024 30.4068 42.0571 30.5892 42.1578 30.7465C42.2586 30.9038 42.4013 31.0297 42.57 31.11H42.54ZM29.36 22.43V37.07H26.64V25.32C26.64 25.0548 26.5346 24.8004 26.3471 24.6129C26.1596 24.4254 25.9052 24.32 25.64 24.32H12C11.7348 24.32 11.4804 24.4254 11.2929 24.6129C11.1054 24.8004 11 25.0548 11 25.32V37.07H8.29V22.43H29.36ZM17.68 26.32H20V28.32L19.44 27.92C19.2706 27.7994 19.0679 27.7346 18.86 27.7346C18.6521 27.7346 18.4494 27.7994 18.28 27.92L17.72 28.32L17.68 26.32ZM16.22 31.11C16.3781 31.1874 16.5538 31.2216 16.7294 31.2094C16.905 31.1971 17.0742 31.1386 17.22 31.04L18.78 29.93L20.38 31C20.5271 31.1162 20.7039 31.1888 20.8902 31.2094C21.0766 31.2299 21.2649 31.1977 21.4338 31.1164C21.6027 31.0351 21.7454 30.9079 21.8455 30.7494C21.9456 30.5909 21.9991 30.4075 22 30.22V26.32H24.68V37.07H13V26.32H15.68V30.22C15.6796 30.4036 15.7298 30.5838 15.8251 30.7408C15.9203 30.8978 16.057 31.0255 16.22 31.11V31.11ZM6.29 59H5V5H6.29V59ZM13 53.71V43H15.68V46.9C15.6796 47.0836 15.7298 47.2638 15.8251 47.4208C15.9203 47.5778 16.057 47.7055 16.22 47.79C16.3781 47.8674 16.5538 47.9016 16.7294 47.8894C16.905 47.8771 17.0742 47.8186 17.22 47.72L18.78 46.61L20.34 47.71C20.5068 47.8361 20.7109 47.9029 20.92 47.9C21.0795 47.8968 21.2363 47.8593 21.38 47.79C21.543 47.7055 21.6797 47.5778 21.7749 47.4208C21.8702 47.2638 21.9204 47.0836 21.92 46.9V43H24.6V53.71H13ZM17.68 43H20V45L19.44 44.6C19.2706 44.4794 19.0679 44.4146 18.86 44.4146C18.6521 44.4146 18.4494 44.4794 18.28 44.6L17.72 45L17.68 43ZM26.68 53.75V42C26.68 41.7348 26.5746 41.4804 26.3871 41.2929C26.1996 41.1054 25.9452 41 25.68 41H12C11.7348 41 11.4804 41.1054 11.2929 41.2929C11.1054 41.4804 11 41.7348 11 42V53.71H8.29V39.07H29.36V53.71L26.68 53.75ZM32.68 59.04H31.36V5H32.64L32.68 59.04ZM39.39 53.75V43H42V46.9C41.9996 47.0836 42.0498 47.2638 42.1451 47.4208C42.2403 47.5778 42.377 47.7055 42.54 47.79C42.6981 47.8674 42.8738 47.9016 43.0494 47.8894C43.225 47.8771 43.3942 47.8186 43.54 47.72L45.1 46.61L46.66 47.71C46.8288 47.8322 47.0316 47.8987 47.24 47.9C47.3996 47.8981 47.5568 47.8605 47.7 47.79C47.863 47.7055 47.9997 47.5778 48.0949 47.4208C48.1902 47.2638 48.2404 47.0836 48.24 46.9V43H51V53.71L39.39 53.75ZM44 43H46.28V45L45.72 44.6C45.5516 44.4817 45.3508 44.4182 45.145 44.4182C44.9392 44.4182 44.7384 44.4817 44.57 44.6L44 45V43ZM53 53.75V42C53 41.7348 52.8946 41.4804 52.7071 41.2929C52.5196 41.1054 52.2652 41 52 41H38.35C38.0848 41 37.8304 41.1054 37.6429 41.2929C37.4554 41.4804 37.35 41.7348 37.35 42V53.71H34.64V39.07H55.71V53.71L53 53.75ZM59 59H57.71V5H59V59Z" fill="#006DF0"/>
</svg>
