<?xml version="1.0" encoding="UTF-8" standalone="no"?> <svg width="64" height="64" viewBox="0 0 64 64" fill="none" xmlns="http://www.w3.org/2000/svg">
<path d="M26 7V13H22V7C21.9993 6.47453 22.1024 5.95409 22.3031 5.46849C22.5039 4.98289 22.7985 4.54167 23.1701 4.17011C23.5417 3.79854 23.9829 3.50393 24.4685 3.30314C24.9541 3.10236 25.4745 2.99935 26 3V7Z" fill="#A97C50"/>
<path d="M42 7V13H38V3C38.5255 2.99935 39.0459 3.10236 39.5315 3.30314C40.0171 3.50393 40.4583 3.79854 40.8299 4.17011C41.2015 4.54167 41.4961 4.98289 41.6969 5.46849C41.8976 5.95409 42.0007 6.47453 42 7V7Z" fill="#A97C50"/>
<path d="M61 23V53C61 54.0609 60.5786 55.0783 59.8284 55.8284C59.0783 56.5786 58.0609 57 57 57H7C5.93913 57 4.92172 56.5786 4.17157 55.8284C3.42143 55.0783 3 54.0609 3 53V23C3 24.5913 3.63214 26.1174 4.75736 27.2426C5.88258 28.3679 7.4087 29 9 29H55C56.5913 29 58.1174 28.3679 59.2426 27.2426C60.3679 26.1174 61 24.5913 61 23Z" fill="#A97C50"/>
<path d="M38 3H26V7H38V3Z" fill="#C49A6C"/>
<path d="M61 19V25C61 26.5913 60.3679 28.1174 59.2426 29.2426C58.1174 30.3679 56.5913 31 55 31H9C7.4087 31 5.88258 30.3679 4.75736 29.2426C3.63214 28.1174 3 26.5913 3 25V19C3 17.9391 3.42143 16.9217 4.17157 16.1716C4.92172 15.4214 5.93913 15 7 15H57C58.0609 15 59.0783 15.4214 59.8284 16.1716C60.5786 16.9217 61 17.9391 61 19Z" fill="#8B5E3C"/>
<path d="M61 17V23C61 24.5913 60.3679 26.1174 59.2426 27.2426C58.1174 28.3679 56.5913 29 55 29H9C7.4087 29 5.88258 28.3679 4.75736 27.2426C3.63214 26.1174 3 24.5913 3 23V17C3 15.9391 3.42143 14.9217 4.17157 14.1716C4.92172 13.4214 5.93913 13 7 13H57C58.0609 13 59.0783 13.4214 59.8284 14.1716C60.5786 14.9217 61 15.9391 61 17Z" fill="#C49A6C"/>
<path d="M36 26H28V32H36V26Z" fill="#754C29"/>
<path d="M61 36.58V45.74L58.06 37.65L61 36.58Z" fill="#5AAAE7"/>
<path d="M61 45.74V50.41L54.99 52.6L50.54 40.39V40.38L58.06 37.65L61 45.74Z" fill="#3D9AE2"/>
<path d="M39.86 43.21L35.92 42.51C35.4584 42.4256 35.0408 42.1825 34.7395 41.8227C34.4382 41.463 34.2721 41.0092 34.27 40.54C34.2701 40.4227 34.2801 40.3056 34.3 40.19C34.3943 39.6683 34.6913 39.2051 35.1259 38.9016C35.5606 38.5981 36.0977 38.4788 36.62 38.57L49.35 40.82L50.54 40.39L54.99 52.6L54.05 52.94L50.97 56.19L37.82 60.98C37.3294 61.1356 36.7977 61.0961 36.3355 60.8696C35.8733 60.6432 35.5162 60.2473 35.3384 59.7643C35.1607 59.2813 35.176 58.7483 35.3812 58.2763C35.5863 57.8043 35.9656 57.4295 36.44 57.23L32.69 58.59C32.1914 58.773 31.6405 58.7504 31.1585 58.5273C30.6766 58.3041 30.303 57.8986 30.12 57.4C29.937 56.9014 29.9596 56.3505 30.1827 55.8685C30.4059 55.3866 30.8114 55.013 31.31 54.83L27.56 56.2C27.3453 56.2785 27.1186 56.3191 26.89 56.32C26.419 56.3218 25.9624 56.1573 25.6008 55.8555C25.2392 55.5537 24.9957 55.1339 24.9132 54.6702C24.8307 54.2064 24.9146 53.7285 25.15 53.3205C25.3854 52.9125 25.7572 52.6007 26.2 52.44L29.95 51.07C29.7321 51.1493 29.5019 51.1899 29.27 51.19C28.7998 51.1894 28.3449 51.0233 27.9851 50.7207C27.6253 50.418 27.3835 49.9983 27.3024 49.5352C27.2212 49.0721 27.3058 48.5953 27.5413 48.1883C27.7767 47.7814 28.1481 47.4704 28.59 47.31L39.86 43.21Z" fill="#FFB655"/>
<path d="M36.44 58.23C36.2052 58.2295 35.9781 58.1465 35.7984 57.9954C35.6187 57.8444 35.4979 57.6349 35.4571 57.4037C35.4163 57.1725 35.4582 56.9343 35.5754 56.7309C35.6925 56.5275 35.8776 56.3717 36.098 56.291L40.808 54.57C40.9316 54.5241 41.063 54.5031 41.1947 54.5083C41.3264 54.5134 41.4558 54.5445 41.5755 54.5998C41.6951 54.6551 41.8026 54.7335 41.8919 54.8305C41.9811 54.9275 42.0503 55.0412 42.0955 55.165C42.1406 55.2888 42.1608 55.4204 42.1549 55.5521C42.1491 55.6837 42.1172 55.813 42.0612 55.9323C42.0053 56.0516 41.9262 56.1587 41.8287 56.2474C41.7312 56.336 41.6171 56.4046 41.493 56.449L36.783 58.17C36.6731 58.2099 36.557 58.2302 36.44 58.23Z" fill="#FFA733"/>
<path d="M5.94 37.65L3 45.74V36.58L5.94 37.65Z" fill="#5AAAE7"/>
<path d="M13.46 40.38V40.39L9.01 52.6L3 50.41V45.74L5.94 37.65L13.46 40.38Z" fill="#3D9AE2"/>
<path d="M6.02434 46.1904L5.34053 48.0699L7.21906 48.7533L7.90287 46.8739L6.02434 46.1904Z" fill="#1E81CE"/>
<path d="M37.84 53.46C37.6051 53.46 37.3776 53.3773 37.1976 53.2264C37.0175 53.0755 36.8963 52.866 36.8553 52.6347C36.8143 52.4034 36.856 52.165 36.9731 51.9613C37.0903 51.7577 37.2754 51.6018 37.496 51.521L39.437 50.811C39.5609 50.7633 39.693 50.7407 39.8257 50.7446C39.9584 50.7485 40.089 50.7788 40.2099 50.8337C40.3307 50.8886 40.4395 50.967 40.5297 51.0643C40.62 51.1616 40.6899 51.276 40.7355 51.4007C40.7811 51.5253 40.8015 51.6578 40.7953 51.7904C40.7892 51.923 40.7567 52.0531 40.6998 52.173C40.6429 52.2929 40.5626 52.4003 40.4638 52.4889C40.3649 52.5775 40.2494 52.6455 40.124 52.689L38.184 53.399C38.0737 53.4391 37.9573 53.4597 37.84 53.46V53.46Z" fill="#FFA733"/>
<path d="M36.65 49.63C36.4148 49.63 36.1872 49.5471 36.0071 49.3958C35.827 49.2446 35.706 49.0348 35.6653 48.8031C35.6246 48.5715 35.6668 48.333 35.7845 48.1294C35.9022 47.9258 36.0879 47.7702 36.309 47.69L38.068 47.051C38.192 47.0031 38.3244 46.9804 38.4573 46.9843C38.5902 46.9882 38.721 47.0185 38.842 47.0735C38.963 47.1285 39.0719 47.2071 39.1622 47.3047C39.2525 47.4023 39.3224 47.5169 39.3679 47.6418C39.4134 47.7668 39.4335 47.8995 39.4271 48.0323C39.4206 48.1651 39.3878 48.2953 39.3304 48.4152C39.2731 48.5352 39.1924 48.6425 39.0931 48.7309C38.9937 48.8193 38.8778 48.887 38.752 48.93L36.992 49.569C36.8824 49.6091 36.7667 49.6298 36.65 49.63V49.63Z" fill="#FFA733"/>
<path d="M57.9748 46.1913L56.0961 46.8744L56.7796 48.754L58.6582 48.0709L57.9748 46.1913Z" fill="#1E81CE"/>
<path d="M34.05 51.07L37.8 52.44C38.0539 52.5238 38.2885 52.6577 38.4898 52.8337C38.6911 53.0097 38.855 53.2243 38.9719 53.4648C39.0888 53.7053 39.1563 53.9668 39.1704 54.2339C39.1845 54.5009 39.1449 54.768 39.0539 55.0195C38.963 55.271 38.8225 55.5016 38.6409 55.6979C38.4592 55.8941 38.2401 56.0519 37.9964 56.162C37.7527 56.272 37.4894 56.3321 37.222 56.3386C36.9547 56.3452 36.6888 56.298 36.44 56.2L32.69 54.83C33.1886 55.013 33.5941 55.3866 33.8173 55.8685C34.0404 56.3505 34.063 56.9014 33.88 57.4C33.697 57.8986 33.3234 58.3041 32.8415 58.5273C32.3595 58.7504 31.8086 58.773 31.31 58.59L27.56 57.23C28.0344 57.4295 28.4137 57.8043 28.6188 58.2763C28.824 58.7483 28.8393 59.2813 28.6616 59.7643C28.4838 60.2473 28.1267 60.6432 27.6645 60.8696C27.2023 61.0961 26.6706 61.1356 26.18 60.98L13.03 56.19L9.94999 52.94L9.00999 52.6L13.46 40.39L14.65 40.82L27.38 38.57C27.9023 38.4788 28.4394 38.5981 28.8741 38.9016C29.3087 39.2051 29.6057 39.6683 29.7 40.19C29.7199 40.3056 29.7299 40.4227 29.73 40.54C29.7279 41.0092 29.5618 41.463 29.2605 41.8227C28.9592 42.1825 28.5416 42.4256 28.08 42.51L24.14 43.21L35.41 47.31C35.6639 47.3938 35.8985 47.5277 36.0998 47.7037C36.3011 47.8797 36.465 48.0943 36.5819 48.3348C36.6988 48.5753 36.7663 48.8368 36.7804 49.1039C36.7945 49.3709 36.7549 49.638 36.6639 49.8895C36.573 50.141 36.4325 50.3716 36.2509 50.5679C36.0692 50.7641 35.8501 50.9219 35.6064 51.032C35.3627 51.142 35.0994 51.2021 34.832 51.2086C34.5647 51.2152 34.2988 51.168 34.05 51.07V51.07Z" fill="#FFC477"/>
<path d="M34.05 52.07C33.9334 52.0701 33.8176 52.0498 33.708 52.01L25.248 48.93C25.1222 48.887 25.0063 48.8193 24.9069 48.7309C24.8076 48.6425 24.7269 48.5352 24.6696 48.4152C24.6122 48.2953 24.5794 48.1651 24.573 48.0323C24.5665 47.8995 24.5866 47.7668 24.6321 47.6418C24.6776 47.5169 24.7475 47.4023 24.8378 47.3047C24.9281 47.2071 25.037 47.1285 25.158 47.0735C25.279 47.0185 25.4098 46.9882 25.5427 46.9843C25.6756 46.9804 25.808 47.0031 25.932 47.051L34.392 50.131C34.6124 50.2118 34.7975 50.3675 34.9146 50.5709C35.0318 50.7743 35.0737 51.0125 35.0329 51.2437C34.9921 51.4749 34.8713 51.6844 34.6916 51.8355C34.5119 51.9865 34.2848 52.0696 34.05 52.07Z" fill="#FFB655"/>
<path d="M32.69 55.83C32.5737 55.83 32.4583 55.8097 32.349 55.77L23.878 52.689C23.7502 52.6476 23.632 52.5809 23.5305 52.4928C23.429 52.4048 23.3463 52.2971 23.2873 52.1764C23.2284 52.0556 23.1944 51.9243 23.1873 51.7901C23.1803 51.6559 23.2003 51.5216 23.2463 51.3954C23.2923 51.2691 23.3633 51.1534 23.455 51.0552C23.5467 50.957 23.6572 50.8782 23.78 50.8237C23.9028 50.7692 24.0354 50.7399 24.1697 50.7377C24.3041 50.7356 24.4375 50.7605 24.562 50.811L33.032 53.891C33.2524 53.9718 33.4375 54.1275 33.5546 54.3309C33.6718 54.5343 33.7137 54.7725 33.6729 55.0037C33.6321 55.2349 33.5113 55.4444 33.3316 55.5955C33.1519 55.7465 32.9248 55.8296 32.69 55.83V55.83Z" fill="#FFB655"/>
<path d="M27.56 58.23C27.443 58.2302 27.3269 58.2099 27.217 58.17L22.507 56.449C22.2593 56.3571 22.058 56.1708 21.9472 55.931C21.8363 55.6912 21.8249 55.4172 21.9154 55.169C22.0059 54.9207 22.191 54.7184 22.4302 54.6062C22.6694 54.4939 22.9432 54.4809 23.192 54.57L27.902 56.291C28.1224 56.3717 28.3075 56.5275 28.4246 56.7309C28.5418 56.9343 28.5837 57.1725 28.5429 57.4037C28.5021 57.6349 28.3813 57.8444 28.2016 57.9954C28.0219 58.1465 27.7948 58.2295 27.56 58.23Z" fill="#FFB655"/>
<path d="M43.63 46.84C42.7057 46.8366 41.8001 46.5793 41.0121 46.096C40.2241 45.6128 39.5841 44.9223 39.162 44.1L35.745 43.492C35.0516 43.3687 34.4236 43.0054 33.9711 42.4657C33.5186 41.926 33.2704 41.2443 33.27 40.54C33.27 40.3685 33.2841 40.1972 33.312 40.028C33.4518 39.2437 33.8963 38.5467 34.5483 38.089C35.2003 37.6312 36.0069 37.4501 36.792 37.585L49.523 39.836L49.176 41.805L36.446 39.555C36.3166 39.5317 36.1838 39.5341 36.0553 39.5621C35.9268 39.5902 35.8051 39.6433 35.6972 39.7184C35.5892 39.7936 35.4972 39.8893 35.4263 40.0001C35.3554 40.1108 35.307 40.2345 35.284 40.364C35.2749 40.4222 35.2702 40.4811 35.27 40.54C35.272 40.7742 35.3552 41.0005 35.5055 41.1801C35.6558 41.3598 35.8638 41.4817 36.094 41.525L40.035 42.225C40.2067 42.2554 40.3674 42.3303 40.5013 42.442C40.6351 42.5537 40.7374 42.6985 40.798 42.862C41.0777 43.6067 41.6385 44.2119 42.3598 44.5474C43.0811 44.8829 43.9053 44.9219 44.655 44.656L45.581 44.311L46.281 46.187L45.342 46.536C44.793 46.7349 44.2139 46.8377 43.63 46.84V46.84Z" fill="#FFA733"/>
</svg>
