<?xml version="1.0" encoding="UTF-8"?>
<!DOCTYPE svg PUBLIC "-//W3C//DTD SVG 1.1//EN" "http://www.w3.org/Graphics/SVG/1.1/DTD/svg11.dtd">
<svg xmlns="http://www.w3.org/2000/svg" version="1.1" width="100px" height="100px" style="shape-rendering:geometricPrecision; text-rendering:geometricPrecision; image-rendering:optimizeQuality; fill-rule:evenodd; clip-rule:evenodd" xmlns:xlink="http://www.w3.org/1999/xlink">
<g><path style="opacity:0.894" fill="#c4996b" d="M 40.5,3.5 C 46.5,3.5 52.5,3.5 58.5,3.5C 58.5,5.83333 58.5,8.16667 58.5,10.5C 52.5,10.5 46.5,10.5 40.5,10.5C 40.5,8.16667 40.5,5.83333 40.5,3.5 Z"/></g>
<g><path style="opacity:0.906" fill="#aa7c4f" d="M 40.5,3.5 C 40.5,5.83333 40.5,8.16667 40.5,10.5C 40.5,13.5 40.5,16.5 40.5,19.5C 38.1667,19.5 35.8333,19.5 33.5,19.5C 33.3345,15.4862 33.5012,11.4862 34,7.5C 35.2725,4.77764 37.4392,3.44431 40.5,3.5 Z"/></g>
<g><path style="opacity:0.91" fill="#aa7c4f" d="M 58.5,3.5 C 61.5608,3.44431 63.7275,4.77764 65,7.5C 65.4988,11.4862 65.6655,15.4862 65.5,19.5C 63.1667,19.5 60.8333,19.5 58.5,19.5C 58.5,16.5 58.5,13.5 58.5,10.5C 58.5,8.16667 58.5,5.83333 58.5,3.5 Z"/></g>
<g><path style="opacity:0.989" fill="#c3996b" d="M 33.5,19.5 C 35.8333,19.5 38.1667,19.5 40.5,19.5C 46.5,19.5 52.5,19.5 58.5,19.5C 60.8333,19.5 63.1667,19.5 65.5,19.5C 74.1731,19.3336 82.8397,19.5002 91.5,20C 94.0244,21.883 95.3577,24.383 95.5,27.5C 94.9736,32.1926 93.9736,36.8593 92.5,41.5C 91.3998,42.5585 90.0664,43.3918 88.5,44C 77.505,44.4998 66.505,44.6665 55.5,44.5C 55.5,43.1667 55.5,41.8333 55.5,40.5C 51.5,40.5 47.5,40.5 43.5,40.5C 43.5,41.8333 43.5,43.1667 43.5,44.5C 32.1618,44.6665 20.8284,44.4999 9.5,44C 8.42925,43.1482 7.42925,42.3149 6.5,41.5C 5.02635,36.8593 4.02635,32.1926 3.5,27.5C 3.65943,24.3465 4.99276,21.8465 7.5,20C 16.1603,19.5002 24.8269,19.3336 33.5,19.5 Z"/></g>
<g><path style="opacity:0.981" fill="#a97c50" d="M 3.5,27.5 C 4.02635,32.1926 5.02635,36.8593 6.5,41.5C 5.42654,42.2506 5.25988,43.2506 6,44.5C 7.57934,46.0412 9.41267,47.2078 11.5,48C 22.2428,48.1897 32.9095,48.6897 43.5,49.5C 47.5,49.5 51.5,49.5 55.5,49.5C 66.0905,48.6897 76.7572,48.1897 87.5,48C 89.5873,47.2078 91.4207,46.0412 93,44.5C 93.7401,43.2506 93.5735,42.2506 92.5,41.5C 93.9736,36.8593 94.9736,32.1926 95.5,27.5C 95.5,37.1667 95.5,46.8333 95.5,56.5C 93.597,56.7959 91.9303,57.4625 90.5,58.5C 86.2974,59.2702 82.2974,60.6035 78.5,62.5C 77.8333,62.8333 77.1667,63.1667 76.5,63.5C 75.7703,61.955 74.437,61.1216 72.5,61C 66.2225,59.5096 59.8892,58.8429 53.5,59C 50.4313,63.2157 51.4313,66.049 56.5,67.5C 54.8816,69.316 52.8816,70.6493 50.5,71.5C 46.0894,70.3073 41.7561,68.8073 37.5,67C 39.5,66.6667 41.5,66.3333 43.5,66C 45.6015,64.2672 45.9348,62.2672 44.5,60C 36.5281,60.715 28.5281,61.5484 20.5,62.5C 16.5786,60.9706 12.5786,59.6373 8.5,58.5C 6.95047,57.5592 5.2838,56.8925 3.5,56.5C 3.5,46.8333 3.5,37.1667 3.5,27.5 Z"/></g>
<g><path style="opacity:1" fill="#744c28" d="M 55.5,44.5 C 55.5,46.1667 55.5,47.8333 55.5,49.5C 51.5,49.5 47.5,49.5 43.5,49.5C 43.5,47.8333 43.5,46.1667 43.5,44.5C 43.5,43.1667 43.5,41.8333 43.5,40.5C 47.5,40.5 51.5,40.5 55.5,40.5C 55.5,41.8333 55.5,43.1667 55.5,44.5 Z"/></g>
<g><path style="opacity:1" fill="#906340" d="M 6.5,41.5 C 7.42925,42.3149 8.42925,43.1482 9.5,44C 20.8284,44.4999 32.1618,44.6665 43.5,44.5C 43.5,46.1667 43.5,47.8333 43.5,49.5C 32.9095,48.6897 22.2428,48.1897 11.5,48C 9.41267,47.2078 7.57934,46.0412 6,44.5C 5.25988,43.2506 5.42654,42.2506 6.5,41.5 Z"/></g>
<g><path style="opacity:1" fill="#906340" d="M 92.5,41.5 C 93.5735,42.2506 93.7401,43.2506 93,44.5C 91.4207,46.0412 89.5873,47.2078 87.5,48C 76.7572,48.1897 66.0905,48.6897 55.5,49.5C 55.5,47.8333 55.5,46.1667 55.5,44.5C 66.505,44.6665 77.505,44.4998 88.5,44C 90.0664,43.3918 91.3998,42.5585 92.5,41.5 Z"/></g>
<g><path style="opacity:1" fill="#659fcc" d="M 3.5,56.5 C 5.2838,56.8925 6.95047,57.5592 8.5,58.5C 7.84043,62.3127 6.67377,65.9793 5,69.5C 4.50204,72.4816 4.33537,75.4816 4.5,78.5C 4.16667,78.5 3.83333,78.5 3.5,78.5C 3.5,71.1667 3.5,63.8333 3.5,56.5 Z"/></g>
<g><path style="opacity:1" fill="#669ecc" d="M 95.5,56.5 C 95.5,63.8333 95.5,71.1667 95.5,78.5C 95.1667,78.5 94.8333,78.5 94.5,78.5C 94.6646,75.4816 94.498,72.4816 94,69.5C 92.3262,65.9793 91.1596,62.3127 90.5,58.5C 91.9303,57.4625 93.597,56.7959 95.5,56.5 Z"/></g>
<g><path style="opacity:1" fill="#fca635" d="M 76.5,63.5 C 69.932,63.975 63.2653,63.3083 56.5,61.5C 55.8333,61.8333 55.1667,62.1667 54.5,62.5C 56.7925,64.2577 59.4591,65.4244 62.5,66C 64.7193,69.0447 67.7193,70.2114 71.5,69.5C 71.5,70.5 71.5,71.5 71.5,72.5C 69.1432,72.6633 66.8098,72.4966 64.5,72C 62.1829,69.8431 59.5162,68.3431 56.5,67.5C 51.4313,66.049 50.4313,63.2157 53.5,59C 59.8892,58.8429 66.2225,59.5096 72.5,61C 74.437,61.1216 75.7703,61.955 76.5,63.5 Z"/></g>
<g><path style="opacity:1" fill="#3f98de" d="M 8.5,58.5 C 12.5786,59.6373 16.5786,60.9706 20.5,62.5C 18.1073,68.0107 16.1073,73.6773 14.5,79.5C 13.8485,80.0906 13.1818,80.7573 12.5,81.5C 9.80478,80.4916 7.13811,79.4916 4.5,78.5C 4.33537,75.4816 4.50204,72.4816 5,69.5C 6.67377,65.9793 7.84043,62.3127 8.5,58.5 Z"/></g>
<g><path style="opacity:1" fill="#4098dd" d="M 90.5,58.5 C 91.1596,62.3127 92.3262,65.9793 94,69.5C 94.498,72.4816 94.6646,75.4816 94.5,78.5C 91.8544,79.4866 89.1878,80.4866 86.5,81.5C 85.8165,81.1373 85.1499,80.8039 84.5,80.5C 83.0952,74.2855 81.0952,68.2855 78.5,62.5C 82.2974,60.6035 86.2974,59.2702 90.5,58.5 Z"/></g>
<g><path style="opacity:0.992" fill="#fdc275" d="M 50.5,71.5 C 52.2905,72.3913 54.1239,73.3913 56,74.5C 56.7737,76.403 56.4404,78.0696 55,79.5C 50.0949,76.6936 44.9282,74.3603 39.5,72.5C 37.8987,73.0347 37.3987,74.0347 38,75.5C 44.7889,78.8737 51.9556,81.0404 59.5,82C 61.5,86.3333 60.1667,88 55.5,87C 49.9246,83.3801 43.9246,80.5468 37.5,78.5C 36.5,78.8333 35.8333,79.5 35.5,80.5C 40.6038,83.8755 46.2705,85.8755 52.5,86.5C 52.3713,88.2161 52.038,89.8828 51.5,91.5C 49.4086,91.6816 47.4086,91.3482 45.5,90.5C 44.9005,93.0669 43.4005,94.7336 41,95.5C 34.5145,93.0609 28.0145,90.7276 21.5,88.5C 18.0197,86.3575 15.6863,83.3575 14.5,79.5C 16.1073,73.6773 18.1073,68.0107 20.5,62.5C 28.5281,61.5484 36.5281,60.715 44.5,60C 45.9348,62.2672 45.6015,64.2672 43.5,66C 41.5,66.3333 39.5,66.6667 37.5,67C 41.7561,68.8073 46.0894,70.3073 50.5,71.5 Z"/></g>
<g><path style="opacity:0.991" fill="#feb453" d="M 76.5,63.5 C 77.1667,63.1667 77.8333,62.8333 78.5,62.5C 81.0952,68.2855 83.0952,74.2855 84.5,80.5C 82.8017,84.1984 80.135,86.8651 76.5,88.5C 70.4008,90.9233 64.2342,93.2566 58,95.5C 55.5995,94.7336 54.0995,93.0669 53.5,90.5C 52.8165,90.8627 52.1499,91.1961 51.5,91.5C 52.038,89.8828 52.3713,88.2161 52.5,86.5C 46.2705,85.8755 40.6038,83.8755 35.5,80.5C 35.8333,79.5 36.5,78.8333 37.5,78.5C 43.9246,80.5468 49.9246,83.3801 55.5,87C 60.1667,88 61.5,86.3333 59.5,82C 51.9556,81.0404 44.7889,78.8737 38,75.5C 37.3987,74.0347 37.8987,73.0347 39.5,72.5C 44.9282,74.3603 50.0949,76.6936 55,79.5C 56.4404,78.0696 56.7737,76.403 56,74.5C 54.1239,73.3913 52.2905,72.3913 50.5,71.5C 52.8816,70.6493 54.8816,69.316 56.5,67.5C 59.5162,68.3431 62.1829,69.8431 64.5,72C 66.8098,72.4966 69.1432,72.6633 71.5,72.5C 71.5,71.5 71.5,70.5 71.5,69.5C 67.7193,70.2114 64.7193,69.0447 62.5,66C 59.4591,65.4244 56.7925,64.2577 54.5,62.5C 55.1667,62.1667 55.8333,61.8333 56.5,61.5C 63.2653,63.3083 69.932,63.975 76.5,63.5 Z"/></g>
<g><path style="opacity:0.957" fill="#a97d51" d="M 3.5,78.5 C 3.83333,78.5 4.16667,78.5 4.5,78.5C 7.13811,79.4916 9.80478,80.4916 12.5,81.5C 13.1818,80.7573 13.8485,80.0906 14.5,79.5C 15.6863,83.3575 18.0197,86.3575 21.5,88.5C 16.4889,88.6659 11.4889,88.4993 6.5,88C 3.97122,85.3583 2.97122,82.1916 3.5,78.5 Z"/></g>
<g><path style="opacity:0.958" fill="#a97d51" d="M 94.5,78.5 C 94.8333,78.5 95.1667,78.5 95.5,78.5C 96.0288,82.1916 95.0288,85.3583 92.5,88C 87.1771,88.4994 81.8437,88.666 76.5,88.5C 80.135,86.8651 82.8017,84.1984 84.5,80.5C 85.1499,80.8039 85.8165,81.1373 86.5,81.5C 89.1878,80.4866 91.8544,79.4866 94.5,78.5 Z"/></g>
</svg>
