<?xml version="1.0" encoding="UTF-8" standalone="no"?> <svg id="artwork" xmlns="http://www.w3.org/2000/svg" width="64" height="64" viewBox="0 0 64 64"><path d="M62,30.5A1.50008,1.50008,0,0,0,60.5,32v6.5h-33V33a10.47367,10.47367,0,0,0-4.52283-8.62555,9.5,9.5,0,1,0-11.95434.00006A10.47356,10.47356,0,0,0,6.5,33v5.5h-3V4A.50065.50065,0,0,1,4,3.5H26a1.5,1.5,0,0,0,0-3H4A3.50424,3.50424,0,0,0,.5,4V44A3.50424,3.50424,0,0,0,4,47.5H23.5v7H23A7.5082,7.5082,0,0,0,15.5,62,1.50039,1.50039,0,0,0,17,63.5H47A1.50039,1.50039,0,0,0,48.5,62,7.5082,7.5082,0,0,0,41,54.5h-.5v-7H60A3.50424,3.50424,0,0,0,63.5,44V32A1.50008,1.50008,0,0,0,62,30.5Zm-51.47467-13h3.64655A8.26593,8.26593,0,0,0,19,15.96a8.24536,8.24536,0,0,0,4.476,1.51294A6.49309,6.49309,0,0,1,10.52533,17.5ZM17,10.5a6.50755,6.50755,0,0,1,5.95972,3.913,5.35188,5.35188,0,0,1-2.89917-1.47351,1.544,1.544,0,0,0-2.1211,0A5.36311,5.36311,0,0,1,14.17188,14.5H11.00153A6.50918,6.50918,0,0,1,17,10.5ZM9.5,33a7.46369,7.46369,0,0,1,4.68671-6.9256,9.511,9.511,0,0,0,5.62658,0A7.46369,7.46369,0,0,1,24.5,33v5.5H9.5ZM45.24316,60.5H18.75684A4.50771,4.50771,0,0,1,23,57.5H41A4.50771,4.50771,0,0,1,45.24316,60.5ZM37.5,54.5h-11v-7h11ZM60,44.5H4a.501.501,0,0,1-.5-.5V41.5h57V44A.501.501,0,0,1,60,44.5Z"/><path d="M60,.5H34A3.50424,3.50424,0,0,0,30.5,4V24A3.50424,3.50424,0,0,0,34,27.5h1.5V31a1.50182,1.50182,0,0,0,2.37207,1.2207L44.48047,27.5H60A3.50424,3.50424,0,0,0,63.5,24V4A3.50424,3.50424,0,0,0,60,.5Zm-16,22H37a1.5,1.5,0,0,1,0-3h7a1.5,1.5,0,0,1,0,3Zm0-7H37a1.5,1.5,0,0,1,0-3h7a1.5,1.5,0,0,1,0,3Zm0-7H37a1.5,1.5,0,0,1,0-3h7a1.5,1.5,0,0,1,0,3Zm13,14H50a1.5,1.5,0,0,1,0-3h7a1.5,1.5,0,0,1,0,3Zm0-7H50a1.5,1.5,0,0,1,0-3h7a1.5,1.5,0,0,1,0,3Zm0-7H50a1.5,1.5,0,0,1,0-3h7a1.5,1.5,0,0,1,0,3Z" style="fill:#3e3ef4"/></svg>