<?xml version="1.0" encoding="UTF-8"?>
<!DOCTYPE svg PUBLIC "-//W3C//DTD SVG 1.1//EN" "http://www.w3.org/Graphics/SVG/1.1/DTD/svg11.dtd">
<svg xmlns="http://www.w3.org/2000/svg" version="1.1" width="100px" height="100px" style="shape-rendering:geometricPrecision; text-rendering:geometricPrecision; image-rendering:optimizeQuality; fill-rule:evenodd; clip-rule:evenodd" xmlns:xlink="http://www.w3.org/1999/xlink">
<g><path style="opacity:0.83" fill="#000000" d="M 4.5,-0.5 C 16.8333,-0.5 29.1667,-0.5 41.5,-0.5C 42.7525,1.33883 42.7525,3.17216 41.5,5C 29.5046,5.49987 17.5046,5.66654 5.5,5.5C 5.5,23.5 5.5,41.5 5.5,59.5C 6.83333,59.5 8.16667,59.5 9.5,59.5C 7.9373,51.0609 9.9373,43.7276 15.5,37.5C 8.63089,29.3507 8.96422,21.5174 16.5,14C 27.7897,8.027 35.9564,10.8603 41,22.5C 42.112,28.163 40.612,32.9963 36.5,37C 42.0387,43.4403 44.0387,50.9403 42.5,59.5C 59.5,59.5 76.5,59.5 93.5,59.5C 93.3347,55.8183 93.5014,52.1516 94,48.5C 95.8101,45.9824 97.6434,45.9824 99.5,48.5C 99.5,55.5 99.5,62.5 99.5,69.5C 98.3536,71.475 96.687,72.975 94.5,74C 84.172,74.4998 73.8387,74.6665 63.5,74.5C 63.5,77.8333 63.5,81.1667 63.5,84.5C 72.8035,85.4571 76.4702,90.4571 74.5,99.5C 57.8333,99.5 41.1667,99.5 24.5,99.5C 22.5298,90.4571 26.1965,85.4571 35.5,84.5C 35.5,81.1667 35.5,77.8333 35.5,74.5C 25.1613,74.6665 14.828,74.4998 4.5,74C 2.31305,72.975 0.646381,71.475 -0.5,69.5C -0.5,47.8333 -0.5,26.1667 -0.5,4.5C 0.833333,2.5 2.5,0.833333 4.5,-0.5 Z M 32.5,19.5 C 29.4993,17.9955 26.8327,18.4955 24.5,21C 22.1667,21.6667 19.8333,21.6667 17.5,21C 22.197,15.8152 27.197,15.3152 32.5,19.5 Z M 27.5,25.5 C 37.4016,26.5697 38.0683,29.7364 29.5,35C 23.2855,36.5594 18.9521,34.3927 16.5,28.5C 20.4077,27.9045 24.0744,26.9045 27.5,25.5 Z M 21.5,40.5 C 34.417,39.7806 39.7504,46.1139 37.5,59.5C 29.8333,59.5 22.1667,59.5 14.5,59.5C 12.7669,51.485 15.1003,45.1517 21.5,40.5 Z M 5.5,64.5 C 34.8333,64.5 64.1667,64.5 93.5,64.5C 93.5,65.8333 93.5,67.1667 93.5,68.5C 64.1667,68.5 34.8333,68.5 5.5,68.5C 5.5,67.1667 5.5,65.8333 5.5,64.5 Z M 41.5,74.5 C 46.8333,74.5 52.1667,74.5 57.5,74.5C 57.5,77.8333 57.5,81.1667 57.5,84.5C 52.1667,84.5 46.8333,84.5 41.5,84.5C 41.5,81.1667 41.5,77.8333 41.5,74.5 Z M 33.5,89.5 C 44.1719,89.3335 54.8385,89.5002 65.5,90C 66.91,90.3678 67.91,91.2011 68.5,92.5C 55.5128,93.666 42.5128,93.8327 29.5,93C 30.7305,91.5952 32.0639,90.4286 33.5,89.5 Z"/></g>
<g><path style="opacity:0.964" fill="#3d3df3" d="M 50.5,-0.5 C 65.1667,-0.5 79.8333,-0.5 94.5,-0.5C 96.5,0.833333 98.1667,2.5 99.5,4.5C 99.5,15.8333 99.5,27.1667 99.5,38.5C 98.6364,39.6883 97.6364,40.8549 96.5,42C 87.5,42.3333 78.5,42.6667 69.5,43C 65.6298,45.7652 61.6298,48.2652 57.5,50.5C 56.5581,50.3918 55.7247,50.0585 55,49.5C 54.5034,47.1902 54.3367,44.8568 54.5,42.5C 50.8184,43.2747 48.3184,41.9414 47,38.5C 46.3333,26.8333 46.3333,15.1667 47,3.5C 47.6897,1.64977 48.8564,0.316435 50.5,-0.5 Z M 56.5,8.5 C 60.8333,8.5 65.1667,8.5 69.5,8.5C 69.5,9.83333 69.5,11.1667 69.5,12.5C 65.1539,12.6657 60.8206,12.499 56.5,12C 55.3157,10.8545 55.3157,9.68787 56.5,8.5 Z M 76.5,8.5 C 80.8461,8.33432 85.1794,8.50098 89.5,9C 90.8333,10 90.8333,11 89.5,12C 85.1667,12.6667 80.8333,12.6667 76.5,12C 75.3157,10.8545 75.3157,9.68787 76.5,8.5 Z M 56.5,19.5 C 60.8333,19.5 65.1667,19.5 69.5,19.5C 69.5,20.8333 69.5,22.1667 69.5,23.5C 65.1539,23.6657 60.8206,23.499 56.5,23C 55.3157,21.8545 55.3157,20.6879 56.5,19.5 Z M 76.5,19.5 C 80.8461,19.3343 85.1794,19.501 89.5,20C 90.8333,21 90.8333,22 89.5,23C 85.1667,23.6667 80.8333,23.6667 76.5,23C 75.3157,21.8545 75.3157,20.6879 76.5,19.5 Z M 56.5,30.5 C 61.3614,30.0634 66.0281,30.5634 70.5,32C 69.8333,32.6667 69.1667,33.3333 68.5,34C 64.5,34.6667 60.5,34.6667 56.5,34C 55.3157,32.8545 55.3157,31.6879 56.5,30.5 Z M 76.5,30.5 C 80.8461,30.3343 85.1794,30.501 89.5,31C 90.8333,32 90.8333,33 89.5,34C 85.1667,34.6667 80.8333,34.6667 76.5,34C 75.3157,32.8545 75.3157,31.6879 76.5,30.5 Z"/></g>
</svg>
