<?xml version="1.0" encoding="UTF-8"?>
<!DOCTYPE svg PUBLIC "-//W3C//DTD SVG 1.1//EN" "http://www.w3.org/Graphics/SVG/1.1/DTD/svg11.dtd">
<svg xmlns="http://www.w3.org/2000/svg" version="1.1" width="100px" height="100px" style="shape-rendering:geometricPrecision; text-rendering:geometricPrecision; image-rendering:optimizeQuality; fill-rule:evenodd; clip-rule:evenodd" xmlns:xlink="http://www.w3.org/1999/xlink">
<g><path style="opacity:0.928" fill="#fc5954" d="M 63.5,33.5 C 60.9438,34.5434 58.7772,36.2101 57,38.5C 55.9243,35.921 54.091,34.2543 51.5,33.5C 48.9015,29.562 45.9015,25.8953 42.5,22.5C 45.0865,21.52 47.7531,21.1866 50.5,21.5C 50.5,16.1667 50.5,10.8333 50.5,5.5C 55.1667,5.5 59.8333,5.5 64.5,5.5C 64.5,10.8333 64.5,16.1667 64.5,21.5C 67.2469,21.1866 69.9135,21.52 72.5,22.5C 69.0751,25.9145 66.0751,29.5812 63.5,33.5 Z"/></g>
<g><path style="opacity:0.92" fill="#235e35" d="M -0.5,24.5 C 4.8746,24.1718 10.2079,24.5052 15.5,25.5C 16.373,27.4134 17.373,29.2467 18.5,31C 28.2204,30.8554 37.5538,31.6888 46.5,33.5C 37.8891,35.3102 28.8891,36.1436 19.5,36C 20.8613,37.5843 21.528,39.4176 21.5,41.5C 46.339,41.169 71.0056,41.5023 95.5,42.5C 95.6716,43.4916 95.3382,44.1583 94.5,44.5C 72.5,44.5 50.5,44.5 28.5,44.5C 27.1667,44.5 25.8333,44.5 24.5,44.5C 24.5861,46.677 25.2528,48.677 26.5,50.5C 47.9962,51.1667 69.3295,51.8333 90.5,52.5C 90.6716,53.4916 90.3382,54.1583 89.5,54.5C 69.1557,54.167 48.8224,54.5004 28.5,55.5C 29.1667,56.8333 29.8333,58.1667 30.5,59.5C 49.185,59.8404 67.5183,60.8404 85.5,62.5C 85.5,62.8333 85.5,63.1667 85.5,63.5C 67.8208,63.1671 50.1541,63.5005 32.5,64.5C 33.1667,65.8333 33.8333,67.1667 34.5,68.5C 50.3281,69.1667 65.9948,69.8333 81.5,70.5C 81.5858,71.4959 81.2524,72.3292 80.5,73C 64.5,73.6667 48.5,73.6667 32.5,73C 25.7048,58.5751 19.0381,44.0751 12.5,29.5C 8.2172,28.5078 3.88387,28.1744 -0.5,28.5C -0.5,27.1667 -0.5,25.8333 -0.5,24.5 Z"/></g>
<g><path style="opacity:0.807" fill="#215b34" d="M 99.5,31.5 C 99.5,32.8333 99.5,34.1667 99.5,35.5C 88.5769,36.1068 77.9103,35.4402 67.5,33.5C 77.7809,31.5238 88.4476,30.8572 99.5,31.5 Z"/></g>
<g><path style="opacity:1" fill="#44b266" d="M 46.5,33.5 C 48.1667,33.5 49.8333,33.5 51.5,33.5C 54.091,34.2543 55.9243,35.921 57,38.5C 58.7772,36.2101 60.9438,34.5434 63.5,33.5C 64.8333,33.5 66.1667,33.5 67.5,33.5C 77.9103,35.4402 88.5769,36.1068 99.5,35.5C 99.5,35.8333 99.5,36.1667 99.5,36.5C 98.1667,38.5 96.8333,40.5 95.5,42.5C 71.0056,41.5023 46.339,41.169 21.5,41.5C 21.528,39.4176 20.8613,37.5843 19.5,36C 28.8891,36.1436 37.8891,35.3102 46.5,33.5 Z"/></g>
<g><path style="opacity:1" fill="#42b266" d="M 28.5,44.5 C 50.5,44.5 72.5,44.5 94.5,44.5C 94.0075,46.8185 93.0075,48.8185 91.5,50.5C 71.1557,50.833 50.8224,50.4996 30.5,49.5C 29.5435,47.9246 28.8769,46.258 28.5,44.5 Z"/></g>
<g><path style="opacity:1" fill="#32864d" d="M 28.5,44.5 C 28.8769,46.258 29.5435,47.9246 30.5,49.5C 50.8224,50.4996 71.1557,50.833 91.5,50.5C 91.6716,51.4916 91.3382,52.1583 90.5,52.5C 69.3295,51.8333 47.9962,51.1667 26.5,50.5C 25.2528,48.677 24.5861,46.677 24.5,44.5C 25.8333,44.5 27.1667,44.5 28.5,44.5 Z"/></g>
<g><path style="opacity:1" fill="#42b265" d="M 89.5,54.5 C 88.6743,57.4848 87.341,60.1515 85.5,62.5C 67.5183,60.8404 49.185,59.8404 30.5,59.5C 29.8333,58.1667 29.1667,56.8333 28.5,55.5C 48.8224,54.5004 69.1557,54.167 89.5,54.5 Z"/></g>
<g><path style="opacity:1" fill="#42b265" d="M 85.5,63.5 C 84.4043,66.0316 83.0709,68.3649 81.5,70.5C 65.9948,69.8333 50.3281,69.1667 34.5,68.5C 33.8333,67.1667 33.1667,65.8333 32.5,64.5C 50.1541,63.5005 67.8208,63.1671 85.5,63.5 Z"/></g>
<g><path style="opacity:0.912" fill="#86473e" d="M 31.5,75.5 C 40.8712,75.0341 44.7045,79.3675 43,88.5C 40.1034,93.1549 35.9367,94.6549 30.5,93C 23.6203,86.7719 23.9536,80.9385 31.5,75.5 Z M 32.5,81.5 C 37.1585,81.0146 38.4919,82.848 36.5,87C 31.7282,87.8104 30.3948,85.9771 32.5,81.5 Z"/></g>
<g><path style="opacity:0.928" fill="#87473e" d="M 77.5,75.5 C 84.3627,74.6972 88.3627,77.6972 89.5,84.5C 87.975,92.527 83.3084,95.3604 75.5,93C 68.52,86.1314 69.1866,80.2981 77.5,75.5 Z M 78.5,81.5 C 82.2249,81.5372 83.5582,83.2038 82.5,86.5C 76.6004,88.2733 75.2671,86.6066 78.5,81.5 Z"/></g>
</svg>
