<?xml version="1.0" encoding="UTF-8" standalone="no"?> <svg id="_01-purchase" data-name="01-purchase" xmlns="http://www.w3.org/2000/svg" viewBox="0 0 64 64"><title>purchase</title><path d="M51.5,49A5.5,5.5,0,1,0,57,54.5,5.5,5.5,0,0,0,51.5,49Zm0,8A2.5,2.5,0,1,1,54,54.5,2.5,2.5,0,0,1,51.5,57Z" style="fill:#975147"/><path d="M52,56.95a2.577,2.577,0,0,0,.5.05,2.5,2.5,0,0,0,0-5,2.577,2.577,0,0,0-.5.05,2.5,2.5,0,0,1,0,4.9Z" style="fill:#4c2924"/><path d="M47,54.5a5.5,5.5,0,0,1,5-5.475c-.165-.015-.331-.025-.5-.025a5.5,5.5,0,0,0,0,11c.169,0,.335-.01.5-.025A5.5,5.5,0,0,1,47,54.5Z" style="fill:#4c2924"/><path d="M22.5,49A5.5,5.5,0,1,0,28,54.5,5.5,5.5,0,0,0,22.5,49Zm0,8A2.5,2.5,0,1,1,25,54.5,2.5,2.5,0,0,1,22.5,57Z" style="fill:#975147"/><path d="M23,56.95a2.577,2.577,0,0,0,.5.05,2.5,2.5,0,0,0,0-5,2.577,2.577,0,0,0-.5.05,2.5,2.5,0,0,1,0,4.9Z" style="fill:#4c2924"/><path d="M18,54.5a5.5,5.5,0,0,1,5-5.475c-.165-.015-.331-.025-.5-.025a5.5,5.5,0,0,0,0,11c.169,0,.335-.01.5-.025A5.5,5.5,0,0,1,18,54.5Z" style="fill:#4c2924"/><polygon points="64 22 52 46 22 46 11.24 22 64 22" style="fill:#44b668"/><polygon points="11.241 22 22 46 26 46 15.241 22 11.241 22" style="fill:#33894e"/><polygon points="46.33 14.5 37 25 29.89 17 27.67 14.5 33 14.5 33 4 41 4 41 14.5 46.33 14.5" style="fill:#fd5a55"/><polygon points="60.5 29 15.48 29 17.27 33 58.5 33 57.5 35 18.16 35 19.96 39 55.5 39 54.5 41 20.85 41 22.65 45 52.5 45 51.5 47 21.35 47 8.35 18 0 18 0 16 9.65 16 11.89 21 30 21 30 23 12.79 23 14.58 27 61.5 27 60.5 29" style="fill:#225b34"/><polygon points="64 22 64 21 44 21 44 23 63.5 23 64 22" style="fill:#225b34"/></svg>