<?xml version="1.0" encoding="UTF-8"?>
<!DOCTYPE svg PUBLIC "-//W3C//DTD SVG 1.1//EN" "http://www.w3.org/Graphics/SVG/1.1/DTD/svg11.dtd">
<svg xmlns="http://www.w3.org/2000/svg" version="1.1" width="100px" height="100px" style="shape-rendering:geometricPrecision; text-rendering:geometricPrecision; image-rendering:optimizeQuality; fill-rule:evenodd; clip-rule:evenodd" xmlns:xlink="http://www.w3.org/1999/xlink">
<g><path style="opacity:0.941" fill="#1c74b8" d="M 99.5,28.5 C 99.5,28.8333 99.5,29.1667 99.5,29.5C 96.0832,42.8655 87.7498,47.1988 74.5,42.5C 70.8356,45.1076 66.8356,46.6076 62.5,47C 64.1998,38.8382 66.0332,30.6716 68,22.5C 73.3702,12.5996 81.2035,10.0996 91.5,15C 96.307,18.2786 98.9737,22.7786 99.5,28.5 Z M 80.5,20.5 C 81.5,20.5 82.5,20.5 83.5,20.5C 82.7542,24.31 81.7542,24.31 80.5,20.5 Z M 81.5,25.5 C 82.4959,25.4142 83.3292,25.7476 84,26.5C 84.2463,29.8897 84.7463,33.223 85.5,36.5C 83.3528,37.8353 81.3528,37.6686 79.5,36C 80.6841,34.8197 81.3507,33.3197 81.5,31.5C 80.9486,29.2959 80.9486,27.2959 81.5,25.5 Z"/></g>
<g><path style="opacity:0.919" fill="#2c3d4f" d="M 15.5,25.5 C 31.8333,25.5 48.1667,25.5 64.5,25.5C 64.3259,27.861 63.9926,30.1944 63.5,32.5C 48.163,32.3334 32.8297,32.5001 17.5,33C 16.5094,47.755 16.176,62.5884 16.5,77.5C 24.1955,77.1692 31.8622,77.5025 39.5,78.5C 40.0253,79.1924 40.6919,79.6924 41.5,80C 46.8333,80.6667 52.1667,80.6667 57.5,80C 58.1667,79.3333 58.8333,78.6667 59.5,78C 67.1594,77.5003 74.8261,77.3336 82.5,77.5C 82.3335,67.4944 82.5002,57.4944 83,47.5C 85.0408,46.5769 87.2075,46.2436 89.5,46.5C 89.5,56.8333 89.5,67.1667 89.5,77.5C 92.5,77.5 95.5,77.5 98.5,77.5C 97.0896,83.0612 93.4229,85.8945 87.5,86C 62.1667,86.6667 36.8333,86.6667 11.5,86C 5.57706,85.8945 1.91039,83.0612 0.5,77.5C 3.5,77.5 6.5,77.5 9.5,77.5C 9.33341,62.163 9.50008,46.8297 10,31.5C 10.3333,30.5 10.6667,29.5 11,28.5C 12.6516,27.6006 14.1516,26.6006 15.5,25.5 Z M 50.5,48.5 C 53.6741,48.9522 54.0075,49.9522 51.5,51.5C 50.6143,50.675 50.281,49.675 50.5,48.5 Z"/></g>
<g><path style="opacity:0.815" fill="#236ebe" d="M 27.5,40.5 C 28.5,40.5 29.5,40.5 30.5,40.5C 30.6655,44.5138 30.4988,48.5138 30,52.5C 27.1468,55.3184 24.6468,55.1518 22.5,52C 23.1374,50.2874 24.1374,50.1207 25.5,51.5C 26.4119,47.8667 27.0785,44.2001 27.5,40.5 Z"/></g>
<g><path style="opacity:0.8" fill="#1d72ba" d="M 35.5,40.5 C 44.3371,40.6696 47.0038,44.8363 43.5,53C 37.1697,56.2244 33.1697,54.391 31.5,47.5C 32.0937,44.692 33.4271,42.3587 35.5,40.5 Z M 38.5,43.5 C 42.4109,46.0486 42.4109,48.3819 38.5,50.5C 34.7368,48.3005 34.7368,45.9671 38.5,43.5 Z"/></g>
<g><path style="opacity:0.756" fill="#1c74b8" d="M 46.5,40.5 C 55.7279,39.2589 59.2279,43.2589 57,52.5C 53.7568,54.2625 50.2568,54.9292 46.5,54.5C 46.5,49.8333 46.5,45.1667 46.5,40.5 Z M 50.5,43.5 C 52.337,43.6395 52.6704,44.3061 51.5,45.5C 50.7025,45.0431 50.3691,44.3764 50.5,43.5 Z M 50.5,48.5 C 50.281,49.675 50.6143,50.675 51.5,51.5C 54.0075,49.9522 53.6741,48.9522 50.5,48.5 Z"/></g>
<g><path style="opacity:0.74" fill="#1c74b7" d="M 22.5,59.5 C 30.0084,59.0378 37.3417,59.5378 44.5,61C 37.3417,62.4622 30.0084,62.9622 22.5,62.5C 22.5,61.5 22.5,60.5 22.5,59.5 Z"/></g>
<g><path style="opacity:0.702" fill="#1c74b7" d="M 22.5,65.5 C 26.1817,65.3347 29.8484,65.5014 33.5,66C 33.9574,66.414 34.2907,66.914 34.5,67.5C 30.5546,68.4909 26.5546,68.8242 22.5,68.5C 22.5,67.5 22.5,66.5 22.5,65.5 Z"/></g>
</svg>
