<?xml version="1.0" encoding="UTF-8"?>
<!DOCTYPE svg PUBLIC "-//W3C//DTD SVG 1.1//EN" "http://www.w3.org/Graphics/SVG/1.1/DTD/svg11.dtd">
<svg xmlns="http://www.w3.org/2000/svg" version="1.1" width="100px" height="100px" style="shape-rendering:geometricPrecision; text-rendering:geometricPrecision; image-rendering:optimizeQuality; fill-rule:evenodd; clip-rule:evenodd" xmlns:xlink="http://www.w3.org/1999/xlink">
<g><path style="opacity:0.932" fill="#2c3d4f" d="M 26.5,0.5 C 41.837,0.333412 57.1703,0.500079 72.5,1C 75,2.16667 76.8333,4 78,6.5C 79.6412,34.4382 79.9745,62.4382 79,90.5C 78.3102,93.196 76.8102,95.3626 74.5,97C 58.5673,98.6207 42.5673,98.954 26.5,98C 24.3762,96.8783 22.5429,95.3783 21,93.5C 19.3588,65.5618 19.0255,37.5618 20,9.5C 20.8328,5.50567 22.9994,2.50567 26.5,0.5 Z M 26.5,17.5 C 41.8333,17.5 57.1667,17.5 72.5,17.5C 73.0999,38.8282 73.4332,60.1615 73.5,81.5C 57.5,81.5 41.5,81.5 25.5,81.5C 25.5408,60.161 25.8741,38.8277 26.5,17.5 Z"/></g>
<g><path style="opacity:0.918" fill="#1c74b8" d="M 45.5,23.5 C 54.9113,21.9093 59.2446,25.9093 58.5,35.5C 56.8697,38.1428 55.2031,40.8095 53.5,43.5C 56.7981,45.1601 60.1315,46.8267 63.5,48.5C 65.0936,51.9855 65.7603,55.6521 65.5,59.5C 54.8333,59.5 44.1667,59.5 33.5,59.5C 33.2397,55.6521 33.9064,51.9855 35.5,48.5C 38.8685,46.8267 42.2019,45.1601 45.5,43.5C 43.7969,40.8095 42.1303,38.1428 40.5,35.5C 41.4303,33.8953 41.4303,32.3953 40.5,31C 41.3243,27.8267 42.9909,25.3267 45.5,23.5 Z"/></g>
<g><path style="opacity:0.867" fill="#1c74b7" d="M 37.5,63.5 C 45.5,63.5 53.5,63.5 61.5,63.5C 61.5,64.8333 61.5,66.1667 61.5,67.5C 53.5,67.5 45.5,67.5 37.5,67.5C 37.5,66.1667 37.5,64.8333 37.5,63.5 Z"/></g>
<g><path style="opacity:0.799" fill="#1c75b7" d="M 37.5,71.5 C 42.1667,71.5 46.8333,71.5 51.5,71.5C 51.5,72.8333 51.5,74.1667 51.5,75.5C 46.8333,75.5 42.1667,75.5 37.5,75.5C 37.5,74.1667 37.5,72.8333 37.5,71.5 Z"/></g>
</svg>
