<?xml version="1.0" encoding="UTF-8"?>
<!DOCTYPE svg PUBLIC "-//W3C//DTD SVG 1.1//EN" "http://www.w3.org/Graphics/SVG/1.1/DTD/svg11.dtd">
<svg xmlns="http://www.w3.org/2000/svg" version="1.1" width="100px" height="100px" style="shape-rendering:geometricPrecision; text-rendering:geometricPrecision; image-rendering:optimizeQuality; fill-rule:evenodd; clip-rule:evenodd" xmlns:xlink="http://www.w3.org/1999/xlink">
<g><path style="opacity:0.979" fill="#231e1f" d="M 10.5,-0.5 C 29.5,-0.5 48.5,-0.5 67.5,-0.5C 73.8287,5.99617 79.9953,12.6628 86,19.5C 86.8112,26.4143 86.6445,33.2476 85.5,40C 82.5706,40.7772 79.7372,40.6105 77,39.5C 76.5007,34.5111 76.3341,29.5111 76.5,24.5C 71.1667,24.5 65.8333,24.5 60.5,24.5C 60.5,18.8333 60.5,13.1667 60.5,7.5C 46.8333,7.5 33.1667,7.5 19.5,7.5C 19.5,17.1667 19.5,26.8333 19.5,36.5C 16.5,36.5 13.5,36.5 10.5,36.5C 10.5,24.1667 10.5,11.8333 10.5,-0.5 Z"/></g>
<g><path style="opacity:0.963" fill="#231e1f" d="M 23.5,36.5 C 26.8333,36.5 30.1667,36.5 33.5,36.5C 32.9445,40.6845 34.7778,43.0179 39,43.5C 40.605,42.8993 41.9384,41.8993 43,40.5C 44,42.8333 45.6667,44.5 48,45.5C 48.1626,47.3867 47.3293,48.8867 45.5,50C 46.8613,51.5843 47.528,53.4176 47.5,55.5C 49.1667,55.5 50.8333,55.5 52.5,55.5C 52.5,59.1667 52.5,62.8333 52.5,66.5C 50.8333,66.5 49.1667,66.5 47.5,66.5C 47.528,68.5824 46.8613,70.4157 45.5,72C 47.3293,73.1133 48.1626,74.6133 48,76.5C 46.3333,78.1667 44.6667,79.8333 43,81.5C 40.5925,77.8689 37.7592,77.5356 34.5,80.5C 33.5481,82.0453 33.2148,83.712 33.5,85.5C 30.1667,85.5 26.8333,85.5 23.5,85.5C 24.0555,81.3155 22.2222,78.9821 18,78.5C 16.7147,78.9504 15.548,79.6171 14.5,80.5C 12.3501,78.8509 10.3501,77.0176 8.5,75C 9.5,74 10.5,73 11.5,72C 10.1387,70.4157 9.47199,68.5824 9.5,66.5C 7.83333,66.5 6.16667,66.5 4.5,66.5C 4.5,62.8333 4.5,59.1667 4.5,55.5C 6.16667,55.5 7.83333,55.5 9.5,55.5C 9.51909,53.9397 9.85242,52.4397 10.5,51C 9.38486,49.6068 8.88486,48.1068 9,46.5C 10.6837,44.6487 12.5171,42.982 14.5,41.5C 17.0008,43.6467 19.6675,43.6467 22.5,41.5C 23.4519,39.9547 23.7852,38.288 23.5,36.5 Z M 25.5,53.5 C 31.5746,52.5335 35.2412,55.0335 36.5,61C 34.3127,68.5037 29.8127,70.3371 23,66.5C 19.5742,61.2923 20.4076,56.9589 25.5,53.5 Z"/></g>
<g><path style="opacity:0.902" fill="#231e1f" d="M 56.5,47.5 C 69.1667,47.5 81.8333,47.5 94.5,47.5C 94.5,50.5 94.5,53.5 94.5,56.5C 81.8333,56.5 69.1667,56.5 56.5,56.5C 56.5,53.5 56.5,50.5 56.5,47.5 Z"/></g>
<g><path style="opacity:0.915" fill="#231e1f" d="M 94.5,99.5 C 81.8333,99.5 69.1667,99.5 56.5,99.5C 56.5,95.8333 56.5,92.1667 56.5,88.5C 62.5368,88.8293 68.5368,88.4959 74.5,87.5C 71.9778,84.8122 69.6445,81.9789 67.5,79C 68.7932,78.51 70.1266,78.3433 71.5,78.5C 71.5,74.8333 71.5,71.1667 71.5,67.5C 70.0222,67.762 68.6888,67.4287 67.5,66.5C 70.1954,63.4744 72.8621,60.4744 75.5,57.5C 78.3754,60.7204 81.3754,63.8871 84.5,67C 82.8659,67.4935 81.1992,67.6602 79.5,67.5C 79.5,71.1667 79.5,74.8333 79.5,78.5C 80.9778,78.238 82.3112,78.5713 83.5,79.5C 80.9778,82.1878 78.6445,85.0211 76.5,88C 82.4908,88.4995 88.4908,88.6662 94.5,88.5C 94.5,92.1667 94.5,95.8333 94.5,99.5 Z"/></g>
</svg>
