<?xml version="1.0" encoding="UTF-8"?>
<!DOCTYPE svg PUBLIC "-//W3C//DTD SVG 1.1//EN" "http://www.w3.org/Graphics/SVG/1.1/DTD/svg11.dtd">
<svg xmlns="http://www.w3.org/2000/svg" version="1.1" width="100px" height="100px" style="shape-rendering:geometricPrecision; text-rendering:geometricPrecision; image-rendering:optimizeQuality; fill-rule:evenodd; clip-rule:evenodd" xmlns:xlink="http://www.w3.org/1999/xlink">
<g><path style="opacity:0.957" fill="#bf350b" d="M 24.5,7.5 C 24.5,35.5 24.5,63.5 24.5,91.5C 18.7579,92.5444 14.5912,90.5444 12,85.5C 11.3333,61.5 11.3333,37.5 12,13.5C 14.5912,8.45556 18.7579,6.45556 24.5,7.5 Z"/></g>
<g><path style="opacity:0.985" fill="#fe6f42" d="M 24.5,7.5 C 43.5029,7.33338 62.5029,7.50005 81.5,8C 84.3333,8.83333 86.1667,10.6667 87,13.5C 87.6667,37.5 87.6667,61.5 87,85.5C 86.1667,88.3333 84.3333,90.1667 81.5,91C 62.5029,91.4999 43.5029,91.6666 24.5,91.5C 24.5,63.5 24.5,35.5 24.5,7.5 Z"/></g>
<g><path style="opacity:1" fill="#ac310c" d="M 51.5,32.5 C 60.0081,32.8329 63.1748,37.1662 61,45.5C 55.5135,51.0804 50.5135,50.747 46,44.5C 45.3333,42.1667 45.3333,39.8333 46,37.5C 47.7297,35.5981 49.563,33.9314 51.5,32.5 Z"/></g>
<g><path style="opacity:1" fill="#ac310c" d="M 67.5,61.5 C 67.5,62.8333 67.5,64.1667 67.5,65.5C 58.1667,65.5 48.8333,65.5 39.5,65.5C 39.5,64.1667 39.5,62.8333 39.5,61.5C 45.6197,53.2812 53.2863,51.4479 62.5,56C 64.3734,57.7038 66.0401,59.5372 67.5,61.5 Z"/></g>
<g><path style="opacity:1" fill="#c3421b" d="M 39.5,61.5 C 39.5,62.8333 39.5,64.1667 39.5,65.5C 48.8333,65.5 58.1667,65.5 67.5,65.5C 67.5,64.1667 67.5,62.8333 67.5,61.5C 68.4511,62.9187 68.7845,64.5853 68.5,66.5C 58.5,66.5 48.5,66.5 38.5,66.5C 38.2155,64.5853 38.5489,62.9187 39.5,61.5 Z"/></g>
</svg>
