<?xml version="1.0" encoding="UTF-8"?>
<!DOCTYPE svg PUBLIC "-//W3C//DTD SVG 1.1//EN" "http://www.w3.org/Graphics/SVG/1.1/DTD/svg11.dtd">
<!-- Creator: CorelDRAW -->
<svg xmlns="http://www.w3.org/2000/svg" xml:space="preserve" width="2.66666in" height="2.66666in" version="1.1" style="shape-rendering:geometricPrecision; text-rendering:geometricPrecision; image-rendering:optimizeQuality; fill-rule:evenodd; clip-rule:evenodd"
viewBox="0 0 2667 2667"
 xmlns:xlink="http://www.w3.org/1999/xlink">
 <defs>
  <style type="text/css">
   <![CDATA[
    .fil0 {fill:#CF5300}
    .fil1 {fill:#FF6600}
   ]]>
  </style>
 </defs>
 <g id="Layer_x0020_1">
  <metadata id="CorelCorpID_0Corel-Layer"/>
  <path class="fil0" d="M1869 1442c-175,0 -318,-142 -318,-318 0,-175 143,-317 318,-317 175,0 318,142 318,317 0,176 -143,318 -318,318zm-549 -9l-60 -104c-34,13 -71,20 -109,20 -43,0 -84,-9 -121,-25l-63 109 177 234 176 -234zm-62 -152l0 -1c1,0 3,-1 4,-2 90,-42 152,-133 152,-238l0 -101c-1,-1 -1,-2 -1,-3 -1,-129 -156,-218 -294,-218 -135,0 -221,81 -231,218l0 104c0,101 57,189 140,233 2,1 3,1 4,2 1,0 1,1 2,1 35,17 75,27 117,27 38,0 74,-8 107,-22zm43 28l59 103 63 0c212,0 384,172 384,384l0 362c0,13 -10,23 -23,23l-236 0 0 -356c0,-7 -6,-13 -13,-13 -7,0 -13,6 -13,13l0 356 -757 0 0 -356c0,-7 -6,-13 -13,-13 -7,0 -13,6 -13,13l0 356 -236 0c-13,0 -23,-10 -23,-23l0 -362c0,-212 173,-384 385,-384l62 0 63 -109c-89,-54 -148,-152 -148,-263l0 -100c-15,-35 -95,-243 95,-387 4,-3 92,-67 213,-67 66,0 130,20 188,59 187,127 131,357 121,393l0 102c0,116 -64,217 -158,269zm512 -71c3,0 7,-1 9,-4l202 -202c5,-5 5,-13 0,-18 -5,-5 -13,-5 -18,0l-193 193 -81 -81c-5,-5 -13,-5 -18,0 -5,5 -5,13 0,18l90 90c2,3 6,4 9,4z"/>
  <path class="fil1" d="M1869 1442c-175,0 -318,-142 -318,-318 0,-175 143,-317 318,-317 175,0 318,142 318,317 0,176 -143,318 -318,318zm-536 739l0 -816 27 47 63 0c212,0 384,172 384,384l0 362c0,13 -10,23 -23,23l-236 0 0 -356c0,-7 -6,-13 -13,-13 -7,0 -13,6 -13,13l0 356 -189 0zm0 -892l0 -60c50,-48 81,-115 81,-189l0 -101c-1,-1 -1,-2 -1,-3 0,-58 -32,-109 -80,-146l0 -248c2,1 3,2 5,3 187,127 131,357 121,393l0 102c0,102 -50,192 -126,249zm480 -51c3,0 7,-1 9,-4l202 -202c5,-5 5,-13 0,-18 -5,-5 -13,-5 -18,0l-193 193 -81 -81c-5,-5 -13,-5 -18,0 -5,5 -5,13 0,18l90 90c2,3 6,4 9,4z"/>
 </g>
 <g id="_536686208">
  <path class="fil1" d="M1333 0c737,0 1334,597 1334,1333 0,737 -597,1334 -1334,1334 -736,0 -1333,-597 -1333,-1334 0,-736 597,-1333 1333,-1333zm0 155c651,0 1179,528 1179,1178 0,651 -528,1179 -1179,1179 -650,0 -1178,-528 -1178,-1179 0,-650 528,-1178 1178,-1178z"/>
  <path class="fil0" d="M1333 2667c-736,0 -1333,-597 -1333,-1334 0,-736 597,-1333 1333,-1333l0 155c-650,0 -1178,528 -1178,1178 0,651 528,1179 1178,1179l0 155z"/>
 </g>
</svg>
