<?xml version="1.0" encoding="UTF-8"?>
<!DOCTYPE svg PUBLIC "-//W3C//DTD SVG 1.1//EN" "http://www.w3.org/Graphics/SVG/1.1/DTD/svg11.dtd">
<svg xmlns="http://www.w3.org/2000/svg" version="1.1" width="100px" height="100px" style="shape-rendering:geometricPrecision; text-rendering:geometricPrecision; image-rendering:optimizeQuality; fill-rule:evenodd; clip-rule:evenodd" xmlns:xlink="http://www.w3.org/1999/xlink">
<g><path style="opacity:0.976" fill="#d15300" d="M 39.5,-0.5 C 42.8333,-0.5 46.1667,-0.5 49.5,-0.5C 49.5,1.5 49.5,3.5 49.5,5.5C 23.4067,8.42653 8.74007,22.9265 5.5,49C 5.86206,60.2184 9.69539,70.0517 17,78.5C 17.3333,72.8333 17.6667,67.1667 18,61.5C 21.1019,55.0815 26.2685,51.9149 33.5,52C 34.5742,51.2613 35.2409,50.2613 35.5,49C 33.5863,46.7519 32.0863,44.2519 31,41.5C 30.5,37.5 30,33.5 29.5,29.5C 30.1779,21.6452 34.5112,17.6452 42.5,17.5C 45.078,17.4419 47.4113,18.1086 49.5,19.5C 49.5,22.8333 49.5,26.1667 49.5,29.5C 37.0701,24.2895 31.9035,28.2895 34,41.5C 37.8058,47.7413 42.9725,49.0747 49.5,45.5C 49.5,46.1667 49.5,46.8333 49.5,47.5C 49.5,48.5 49.5,49.5 49.5,50.5C 49.5,60.8333 49.5,71.1667 49.5,81.5C 39.8276,81.3335 30.1609,81.5002 20.5,82C 28.6382,89.44 38.3049,93.2734 49.5,93.5C 49.5,95.5 49.5,97.5 49.5,99.5C 46.1667,99.5 42.8333,99.5 39.5,99.5C 18.5,93.8333 5.16667,80.5 -0.5,59.5C -0.5,52.5 -0.5,45.5 -0.5,38.5C 5.59837,18.0682 18.9317,5.06817 39.5,-0.5 Z M 45.5,49.5 C 46.8366,50.3149 47.8366,51.4815 48.5,53C 46.69,55.6443 44.69,58.1443 42.5,60.5C 40.5293,58.1918 38.5293,55.8585 36.5,53.5C 36.8333,52.8333 37.1667,52.1667 37.5,51.5C 40.3056,50.8324 42.9723,50.1657 45.5,49.5 Z"/></g>
<g><path style="opacity:0.888" fill="#ff6500" d="M 49.5,-0.5 C 52.8333,-0.5 56.1667,-0.5 59.5,-0.5C 80.9435,5.27658 94.2768,18.9432 99.5,40.5C 99.5,46.8333 99.5,53.1667 99.5,59.5C 93.8333,80.5 80.5,93.8333 59.5,99.5C 56.1667,99.5 52.8333,99.5 49.5,99.5C 49.5,97.5 49.5,95.5 49.5,93.5C 75.591,90.5757 90.2577,76.0757 93.5,50C 90.6786,23.3457 76.012,8.51238 49.5,5.5C 49.5,3.5 49.5,1.5 49.5,-0.5 Z"/></g>
<g><path style="opacity:1" fill="#f86200" d="M 49.5,19.5 C 53.1553,21.9688 55.1553,25.4688 55.5,30C 54.8355,34.1445 54.3355,38.3112 54,42.5C 53.3881,45.1146 51.8881,46.7813 49.5,47.5C 49.5,46.8333 49.5,46.1667 49.5,45.5C 53.212,40.0667 53.212,34.7334 49.5,29.5C 49.5,26.1667 49.5,22.8333 49.5,19.5 Z"/></g>
<g><path style="opacity:1" fill="#fc6400" d="M 65.5,29.5 C 80.794,29.7581 85.1274,36.7581 78.5,50.5C 74.2668,53.3617 69.6001,54.195 64.5,53C 57.0095,48.021 55.5095,41.521 60,33.5C 61.8121,32.0229 63.6455,30.6896 65.5,29.5 Z"/></g>
<g><path style="opacity:1" fill="#fd6500" d="M 49.5,50.5 C 56.1332,51.3298 61.6332,54.3298 66,59.5C 67.3905,66.7458 67.8905,74.0791 67.5,81.5C 61.5,81.5 55.5,81.5 49.5,81.5C 49.5,71.1667 49.5,60.8333 49.5,50.5 Z"/></g>
</svg>
